<svg xmlns="http://www.w3.org/2000/svg">
<defs>
<font id="GangsterGrotesk-Bold" horiz-adv-x="0" >
  <font-face 
    font-family="Gangster Grotesk"
    font-weight="700"
    font-stretch="normal"
    units-per-em="2048"
    panose-1="0 0 8 0 0 0 0 0 0 0"
    ascent="1638"
    descent="-410"
    x-height="1047"
    cap-height="1391"
    bbox="-1071 -627 2976 2124.4"
    underline-thickness="176"
    underline-position="-493"
    unicode-range="U+0020-FB02"
  />
<missing-glyph horiz-adv-x="1363" 
d="M379 1266q33 0 60 -7.5t48.5 -24.5t38 -36t28.5 -50t21 -59t14.5 -70.5t9 -76t5 -84.5t2 -87.5t0.5 -92.5q0 -63 -0.5 -103t-2.5 -98t-6.5 -95.5t-12.5 -85t-19.5 -77.5t-28.5 -62t-39 -50t-52 -29.5t-66 -11.5q-47 0 -83 19t-59.5 46.5t-40 79.5t-25 95t-13 116.5
t-5.5 122.5t-1 133q0 65 0.5 103t2.5 95.5t6 92.5t12 81t19.5 74t28.5 58t39.5 46.5t52 27t66.5 10.5zM985 1266q33 0 60 -7.5t48.5 -24.5t38 -36t28.5 -50t21 -59t14.5 -70.5t9 -76t5 -84.5t2 -87.5t0.5 -92.5q0 -63 -0.5 -103t-2.5 -98t-6.5 -95.5t-12.5 -85t-19.5 -77.5
t-28.5 -62t-39 -50t-52 -29.5t-66 -11.5q-47 0 -83 19t-59.5 46.5t-40 79.5t-25 95t-13 116.5t-5.5 122.5t-1 133q0 65 0.5 103t2.5 95.5t6 92.5t12 81t19.5 74t28.5 58t39.5 46.5t52 27t66.5 10.5zM379 1196q-19 0 -34.5 -9t-27 -28t-20.5 -43.5t-14.5 -61t-9.5 -74
t-6 -89.5t-2.5 -100t-0.5 -113v-66q15 50 46 80.5t69 30.5t69 -32.5t46 -84.5v72q0 132 -4 216t-15.5 158.5t-35 109t-60.5 34.5zM985 1196q-19 0 -34.5 -9t-27 -28t-20.5 -43.5t-14.5 -61t-9.5 -74t-6 -89.5t-2.5 -100t-0.5 -113v-72q15 52 47 84.5t70 32.5q36 0 67 -30.5
t46 -80.5v66q0 132 -4 216t-15.5 158.5t-35 109t-60.5 34.5zM985 133q52 0 77.5 76.5t33.5 222.5q-17 -45 -46.5 -71.5t-62.5 -26.5q-36 0 -67 29t-46 77q6 -150 31.5 -228.5t79.5 -78.5zM379 133q52 0 77 77.5t33 227.5q-18 -47 -47 -75.5t-63 -28.5t-63.5 27.5t-47.5 72.5
q6 -146 31.5 -223.5t79.5 -77.5z" />
    <glyph glyph-name="fi" unicode="fi" horiz-adv-x="1468" 
d="M268 1006q0 177 93.5 287t267.5 110q146 0 258 -78v-209q-86 111 -211 111q-86 0 -125 -46.5t-39 -142.5v-116h373l-47 -144h-326v-778h-244v778h-241l47 144h194v84zM1042 1391h273v-215h-273v215zM1057 0v1047h241v-1047h-241z" />
    <glyph glyph-name="fl" unicode="fl" horiz-adv-x="1474" 
d="M268 1006q0 177 93.5 287t267.5 110q146 0 258 -78v-209q-86 111 -211 111q-86 0 -125 -46.5t-39 -142.5v-116h373l-47 -144h-326v-778h-244v778h-241l47 144h194v84zM1081 1391h242v-1391h-242v1391z" />
    <glyph glyph-name=".notdef" horiz-adv-x="1363" 
d="M379 1266q33 0 60 -7.5t48.5 -24.5t38 -36t28.5 -50t21 -59t14.5 -70.5t9 -76t5 -84.5t2 -87.5t0.5 -92.5q0 -63 -0.5 -103t-2.5 -98t-6.5 -95.5t-12.5 -85t-19.5 -77.5t-28.5 -62t-39 -50t-52 -29.5t-66 -11.5q-47 0 -83 19t-59.5 46.5t-40 79.5t-25 95t-13 116.5
t-5.5 122.5t-1 133q0 65 0.5 103t2.5 95.5t6 92.5t12 81t19.5 74t28.5 58t39.5 46.5t52 27t66.5 10.5zM985 1266q33 0 60 -7.5t48.5 -24.5t38 -36t28.5 -50t21 -59t14.5 -70.5t9 -76t5 -84.5t2 -87.5t0.5 -92.5q0 -63 -0.5 -103t-2.5 -98t-6.5 -95.5t-12.5 -85t-19.5 -77.5
t-28.5 -62t-39 -50t-52 -29.5t-66 -11.5q-47 0 -83 19t-59.5 46.5t-40 79.5t-25 95t-13 116.5t-5.5 122.5t-1 133q0 65 0.5 103t2.5 95.5t6 92.5t12 81t19.5 74t28.5 58t39.5 46.5t52 27t66.5 10.5zM379 1196q-19 0 -34.5 -9t-27 -28t-20.5 -43.5t-14.5 -61t-9.5 -74
t-6 -89.5t-2.5 -100t-0.5 -113v-66q15 50 46 80.5t69 30.5t69 -32.5t46 -84.5v72q0 132 -4 216t-15.5 158.5t-35 109t-60.5 34.5zM985 1196q-19 0 -34.5 -9t-27 -28t-20.5 -43.5t-14.5 -61t-9.5 -74t-6 -89.5t-2.5 -100t-0.5 -113v-72q15 52 47 84.5t70 32.5q36 0 67 -30.5
t46 -80.5v66q0 132 -4 216t-15.5 158.5t-35 109t-60.5 34.5zM985 133q52 0 77.5 76.5t33.5 222.5q-17 -45 -46.5 -71.5t-62.5 -26.5q-36 0 -67 29t-46 77q6 -150 31.5 -228.5t79.5 -78.5zM379 133q52 0 77 77.5t33 227.5q-18 -47 -47 -75.5t-63 -28.5t-63.5 27.5t-47.5 72.5
q6 -146 31.5 -223.5t79.5 -77.5z" />
    <glyph glyph-name=".null" 
 />
    <glyph glyph-name="nonmarkingreturn" horiz-adv-x="682" 
 />
    <glyph glyph-name="space" unicode=" " horiz-adv-x="512" 
 />
    <glyph glyph-name="exclam" unicode="!" horiz-adv-x="567" 
d="M213 397l-51 742v252h241v-252l-51 -742h-139zM150 0v268h268v-268h-268z" />
    <glyph glyph-name="quotedbl" unicode="&#x22;" horiz-adv-x="942" 
d="M190 829l-40 562h260l-41 -562h-179zM573 829l-41 562h261l-41 -562h-179z" />
    <glyph glyph-name="numbersign" unicode="#" horiz-adv-x="1558" 
d="M1470 901h-223l-92 -401h143v-174h-184l-80 -340h-217l80 340h-408l-79 -340h-215l79 340h-186v174h227l93 401h-177v174h218l77 330h215l-77 -330h407l78 330h217l-78 -330h182v-174zM938 500l92 401h-407l-93 -401h408z" />
    <glyph glyph-name="dollar" unicode="$" horiz-adv-x="1382" 
d="M799 821q85 -25 146.5 -50t116 -60t88 -77.5t52.5 -101t19 -131.5q0 -167 -110 -277t-312 -134v-168h-181v164q-206 18 -338 124t-147 279l213 137q-1 -156 73 -249t199 -119v463q-231 63 -328 160t-97 251q0 156 112.5 257.5t312.5 123.5v168h181v-166
q178 -19 303.5 -117.5t146.5 -250.5l-207 -129q-4 134 -69.5 214.5t-173.5 106.5v-418zM430 1079q0 -75 40 -122t148 -85v371q-88 -13 -138 -57t-50 -107zM799 158q176 34 176 204q0 75 -40.5 122.5t-135.5 82.5v-409z" />
    <glyph glyph-name="percent" unicode="%" horiz-adv-x="2195" 
d="M502 563q-165 0 -276 122.5t-111 305.5q0 182 111 304t276 122q166 0 275.5 -121.5t109.5 -304.5q0 -184 -109.5 -306t-275.5 -122zM575 -16l844 1431h199l-844 -1431h-199zM504 715q82 0 123 71.5t41 204.5q0 132 -41 204.5t-123 72.5q-83 0 -124.5 -72.5t-41.5 -204.5
q0 -133 41.5 -204.5t124.5 -71.5zM1696 -16q-165 0 -276 122.5t-111 305.5q0 182 111 304t276 122q166 0 275.5 -121.5t109.5 -304.5q0 -184 -109.5 -306t-275.5 -122zM1698 135q82 0 123 72t41 205q0 132 -41 204t-123 72q-83 0 -124.5 -72t-41.5 -204q0 -133 41.5 -205
t124.5 -72z" />
    <glyph glyph-name="ampersand" unicode="&#x26;" horiz-adv-x="1335" 
d="M1309 2h-281l-72 78q-160 -97 -395 -94q-85 1 -158.5 14.5t-137.5 41.5t-109 70t-71 103.5t-26 138.5q0 251 316 375q-85 99 -122.5 178.5t-37.5 171.5q0 148 114.5 236t307.5 88q163 0 273 -90t110 -236q0 -122 -81 -204.5t-263 -145.5l313 -358q65 139 15 395h239
q19 -120 -12.5 -273t-116.5 -268zM633 1239q-81 0 -127.5 -43t-46.5 -113q0 -116 127 -260q124 50 172.5 112t48.5 146q0 71 -48 114.5t-126 43.5zM326 383q0 -106 85 -169.5t195 -63.5q137 0 223 57l-362 422q-63 -38 -102 -104.5t-39 -141.5z" />
    <glyph glyph-name="quotesingle" unicode="'" horiz-adv-x="559" 
d="M190 829l-40 562h260l-41 -562h-179z" />
    <glyph glyph-name="parenleft" unicode="(" horiz-adv-x="729" 
d="M418 -172q-266 407 -266 801q0 389 266 796h209q-234 -380 -234 -796q0 -421 234 -801h-209z" />
    <glyph glyph-name="parenright" unicode=")" horiz-adv-x="729" 
d="M311 -172h-209q234 380 234 801q0 416 -234 796h209q267 -408 267 -796q0 -393 -267 -801z" />
    <glyph glyph-name="asterisk" unicode="*" horiz-adv-x="970" 
d="M821 1145l-231 -92l231 -92l-90 -152l-194 154l36 -246h-176l35 244l-194 -152l-88 152l231 92l-231 92l90 151l194 -153l-37 246h176l-34 -244l194 151z" />
    <glyph glyph-name="plus" unicode="+" horiz-adv-x="1280" 
d="M1128 664v-175h-366v-380h-242v380h-368v175h368v380h242v-380h366z" />
    <glyph glyph-name="comma" unicode="," horiz-adv-x="587" 
d="M158 231h280v-321q0 -122 -78 -182.5t-210 -57.5v140q62 -2 88 19t26 81v74h-106v247z" />
    <glyph glyph-name="hyphen" unicode="-" horiz-adv-x="931" 
d="M152 489v175h628v-175h-628z" />
    <glyph glyph-name="period" unicode="." horiz-adv-x="567" 
d="M150 -20v268h268v-268h-268z" />
    <glyph glyph-name="slash" unicode="/" horiz-adv-x="770" 
d="M-72 -319l615 1724h227l-614 -1724h-228z" />
    <glyph glyph-name="zero" unicode="0" horiz-adv-x="1427" 
d="M715 -16q-179 0 -316 89t-211.5 252t-74.5 377q0 322 166 519.5t436 197.5t435 -197t165 -520q0 -213 -74.5 -376t-211 -252.5t-314.5 -89.5zM715 160q157 0 251.5 146t94.5 396q0 249 -95 395t-251 146t-252 -147t-96 -394q0 -248 95.5 -395t252.5 -147z" />
    <glyph glyph-name="one" unicode="1" horiz-adv-x="1153" 
d="M795 176h311v-176h-907v176h354v954q-174 -181 -367 -256l-82 191q138 58 234 131.5t213 194.5h244v-1215z" />
    <glyph glyph-name="two" unicode="2" horiz-adv-x="1267" 
d="M362 162l-2 -2h793v-176h-1032q-4 55 1 105t14.5 89.5t31 77.5t39.5 65t51.5 57t56 48t64 43t64.5 38t67.5 36.5t64.5 34.5q192 105 261 181t69 193q0 143 -71 216t-203 73q-141 0 -230.5 -99.5t-76.5 -271.5l-230 88q-7 201 151.5 330t401.5 129q241 0 373.5 -115.5
t132.5 -326.5q0 -67 -14 -125t-43.5 -106t-63 -87t-84.5 -77t-95.5 -66t-107.5 -63q-23 -13 -77.5 -42t-87.5 -47t-79 -47t-72 -51.5t-46 -50t-21 -51.5z" />
    <glyph glyph-name="three" unicode="3" horiz-adv-x="1275" 
d="M813 715q178 -15 274.5 -100.5t96.5 -233.5q0 -182 -154 -288.5t-401 -106.5q-246 0 -404 124.5t-151 331.5l221 76q-10 -163 87.5 -259.5t246.5 -96.5q297 0 297 239q0 226 -322 226h-162v164h131q164 0 242 53t78 168q0 112 -69 168.5t-187 56.5q-86 0 -156 -36
t-112 -111t-35 -175l-225 117q1 87 45 160t117.5 121t168.5 75t197 27q235 0 372.5 -103.5t137.5 -281.5q0 -140 -87 -220.5t-247 -94.5z" />
    <glyph glyph-name="four" unicode="4" horiz-adv-x="1339" 
d="M1300 530v-174h-247v-356h-250v356h-711v174l617 861h344v-861h247zM342 530h461v394q0 143 16 303q-103 -174 -168 -264z" />
    <glyph glyph-name="five" unicode="5" horiz-adv-x="1265" 
d="M680 936q223 0 361.5 -128.5t138.5 -348.5q0 -209 -140 -342t-389 -133q-220 0 -358 95t-178 267l219 90q-3 -128 84.5 -202t230.5 -74q138 0 207.5 77.5t69.5 221.5q0 143 -73.5 229t-215.5 86q-100 0 -182.5 -48t-120.5 -122l-213 74l162 713h804v-174h-612l-84 -363
q129 82 289 82z" />
    <glyph glyph-name="six" unicode="6" horiz-adv-x="1306" 
d="M735 926q204 0 333.5 -132.5t129.5 -336.5q0 -202 -148 -334.5t-380 -132.5q-269 0 -412 173.5t-143 491.5q0 375 160 569.5t446 194.5q187 0 322.5 -87.5t168.5 -241.5l-217 -78q-27 115 -100 173t-182 58q-163 0 -266 -143.5t-103 -403.5q46 96 144.5 163t246.5 67z
M670 166q128 0 203 79t75 212q0 139 -70.5 217t-197.5 78t-214 -85t-87 -210q0 -119 86.5 -205t204.5 -86z" />
    <glyph glyph-name="seven" unicode="7" horiz-adv-x="1044" 
d="M20 1391h1004v-177q-285 -242 -419.5 -561.5t-94.5 -652.5h-285q-9 679 580 1214h-785v177z" />
    <glyph glyph-name="eight" unicode="8" horiz-adv-x="1302" 
d="M860 727q148 -16 253.5 -112.5t105.5 -233.5q0 -123 -73 -214t-198 -137t-286 -46t-286 46t-198.5 137t-73.5 214q0 137 105.5 233.5t253.5 112.5q-132 24 -217.5 109t-85.5 208q0 112 68 198.5t181.5 131.5t252.5 45t252 -45t181 -131.5t68 -198.5q0 -123 -85.5 -208
t-217.5 -109zM662 1241q-117 0 -186.5 -55t-69.5 -158q0 -108 69.5 -166.5t186.5 -58.5t186.5 58.5t69.5 166.5q0 103 -69.5 158t-186.5 55zM662 162q133 0 218 65.5t85 173.5q0 106 -85 172t-218 66t-218.5 -66t-85.5 -172q0 -108 85 -173.5t219 -65.5z" />
    <glyph glyph-name="nine" unicode="9" horiz-adv-x="1306" 
d="M643 1413q255 0 402 -174t147 -491q0 -382 -136 -573t-438 -191q-207 0 -349.5 91t-174.5 253l217 71q11 -116 97.5 -177.5t209.5 -61.5q176 0 263.5 124.5t91.5 415.5q-47 -94 -145.5 -158.5t-243.5 -64.5q-208 0 -340.5 129.5t-132.5 339.5q0 205 148 336t384 131z
M639 651q125 0 208 84t83 211q0 125 -75 208t-196 83q-134 0 -216.5 -80.5t-82.5 -210.5q0 -129 78.5 -212t200.5 -83z" />
    <glyph glyph-name="colon" unicode=":" horiz-adv-x="567" 
d="M150 756v268h268v-268h-268zM150 -20v268h268v-268h-268z" />
    <glyph glyph-name="semicolon" unicode=";" horiz-adv-x="587" 
d="M418 1024v-268h-268v268h268zM158 231h280v-321q0 -122 -78 -182.5t-210 -57.5v140q62 -2 88 19t26 81v74h-106v247z" />
    <glyph glyph-name="less" unicode="&#x3c;" horiz-adv-x="1095" 
d="M944 1044v-182l-608 -313l608 -313v-185l-792 402v190z" />
    <glyph glyph-name="equal" unicode="=" horiz-adv-x="1280" 
d="M152 684v174h976v-174h-976zM152 295v174h976v-174h-976z" />
    <glyph glyph-name="greater" unicode="&#x3e;" horiz-adv-x="1095" 
d="M152 1044l792 -401v-190l-792 -402v185l608 313l-608 313v182z" />
    <glyph glyph-name="question" unicode="?" horiz-adv-x="1140" 
d="M584 1417q211 0 332.5 -107.5t121.5 -293.5q0 -84 -29 -152t-81.5 -114.5t-115.5 -76.5t-140 -48l-62 -228h-139l-41 297q192 47 276.5 114.5t84.5 184.5q0 126 -58.5 187t-167.5 61q-135 0 -201 -96.5t-53 -274.5l-229 88q-7 203 134.5 331t367.5 128zM414 0v268h268
v-268h-268z" />
    <glyph glyph-name="at" unicode="@" horiz-adv-x="1865" 
d="M1073 920h236v-582q0 -156 94 -156q23 0 45.5 17.5t45 55.5t36.5 114t14 178q0 107 -42 205.5t-118.5 174.5t-193.5 121.5t-256 45.5q-187 0 -323.5 -77.5t-205.5 -213.5t-69 -316q0 -291 162.5 -447.5t494.5 -156.5q198 0 381 62v-164q-183 -62 -381 -62
q-207 0 -377.5 57.5t-286 159.5t-178.5 243.5t-63 307.5q0 158 63.5 299.5t174 245.5t269 164.5t339.5 60.5q180 0 340 -61.5t269 -161.5t172 -227.5t63 -259.5q0 -113 -33 -206.5t-89 -155t-130.5 -95t-157.5 -33.5q-100 0 -175 41.5t-103 122.5q-27 -84 -83.5 -127
t-150.5 -43q-154 0 -260.5 125.5t-106.5 321.5t106.5 321t260.5 125q156 0 217 -131v107zM907 178q83 0 131.5 85.5t48.5 234.5q0 148 -49 233.5t-131 85.5q-86 0 -128 -86.5t-42 -232.5q0 -95 17 -165t56 -112.5t97 -42.5z" />
    <glyph glyph-name="A" unicode="A" horiz-adv-x="1402" 
d="M1137 0l-150 410h-584l-149 -410h-244l527 1391h331l525 -1391h-256zM469 584h455l-152 413q-36 108 -76 256q-44 -163 -75 -254z" />
    <glyph glyph-name="B" unicode="B" horiz-adv-x="1382" 
d="M965 709q150 -26 233.5 -113.5t83.5 -220.5q0 -180 -141 -277.5t-383 -97.5h-608v1391h608q239 0 363 -95t124 -280q0 -263 -280 -307zM743 1217h-346v-426h346q252 0 252 215q0 211 -252 211zM743 174q138 0 209.5 52t71.5 169q0 221 -281 221h-346v-442h346z" />
    <glyph glyph-name="C" unicode="C" horiz-adv-x="1396" 
d="M1114 608l215 -139q-5 -146 -84.5 -257.5t-209 -169.5t-285.5 -58q-301 0 -481.5 189t-180.5 527q0 336 177 527.5t464 191.5q147 0 271.5 -51.5t202 -149.5t81.5 -223l-211 -139q3 190 -95.5 288.5t-248.5 98.5q-173 0 -275 -138.5t-102 -404.5q0 -268 105.5 -404
t292.5 -136q171 0 270.5 112.5t93.5 335.5z" />
    <glyph glyph-name="D" unicode="D" horiz-adv-x="1398" 
d="M582 1391q368 0 548.5 -177.5t180.5 -517.5q0 -342 -180.5 -519t-548.5 -177h-432v1391h432zM547 174q262 0 384 129t122 393q0 263 -122 392t-384 129h-150v-1043h150z" />
    <glyph glyph-name="E" unicode="E" horiz-adv-x="1202" 
d="M1104 1217h-707v-424h670v-175h-670v-444h707v-174h-954v1391h954v-174z" />
    <glyph glyph-name="F" unicode="F" horiz-adv-x="1165" 
d="M1104 1217h-707v-424h650v-175h-650v-618h-247v1391h954v-174z" />
    <glyph glyph-name="G" unicode="G" horiz-adv-x="1474" 
d="M1331 752v-754h-237v235q-34 -118 -129 -183.5t-256 -65.5q-134 0 -247.5 48.5t-196.5 138.5t-130 226t-47 303q0 338 180 528.5t477 190.5q238 0 390 -106.5t176 -272.5l-209 -129q-10 161 -109.5 246.5t-247.5 85.5q-184 0 -291.5 -137.5t-107.5 -405.5
q0 -263 104.5 -401.5t278.5 -138.5q339 0 365 360v58h-392v174h629z" />
    <glyph glyph-name="H" unicode="H" horiz-adv-x="1413" 
d="M1016 1391h248v-1391h-248v618h-619v-618h-247v1391h247v-598h619v598z" />
    <glyph glyph-name="I" unicode="I" horiz-adv-x="544" 
d="M150 0v1391h245v-1391h-245z" />
    <glyph glyph-name="J" unicode="J" horiz-adv-x="1103" 
d="M721 1391h244v-953q0 -454 -463 -454q-181 0 -304.5 103.5t-150.5 287.5l232 143q10 -358 251 -358q103 0 147 71t44 234v926z" />
    <glyph glyph-name="K" unicode="K" horiz-adv-x="1296" 
d="M150 1391h247v-1391h-247v1391zM682 723l623 -723h-316l-592 696l602 695h275z" />
    <glyph glyph-name="L" unicode="L" horiz-adv-x="1130" 
d="M397 174h666v-174h-913v1391h247v-1217z" />
    <glyph glyph-name="M" unicode="M" horiz-adv-x="1767" 
d="M1618 1391v-1391h-229v1227l-355 -1227h-301l-354 1227v-1227h-229v1391h401l248 -846q65 -232 84 -406q21 193 84 400l250 852h401z" />
    <glyph glyph-name="N" unicode="N" horiz-adv-x="1488" 
d="M1110 1391h229v-1391h-364l-477 913q-48 94 -119 289v-1202h-229v1391h364l461 -885q64 -123 135 -309v1194z" />
    <glyph glyph-name="O" unicode="O" horiz-adv-x="1474" 
d="M737 -16q-298 0 -473.5 193t-175.5 523q0 331 175.5 525t473.5 194t473.5 -194t175.5 -525q0 -330 -175.5 -523t-473.5 -193zM737 158q182 0 286.5 143.5t104.5 398.5q0 257 -104.5 401t-286.5 144t-286.5 -144t-104.5 -401q0 -255 104.5 -398.5t286.5 -143.5z" />
    <glyph glyph-name="P" unicode="P" horiz-adv-x="1292" 
d="M745 1391q238 0 363 -100.5t125 -293.5t-125 -293t-363 -100h-350v-604h-245v1391h595zM731 778q118 0 189 53t71 166q0 114 -71.5 167t-188.5 53h-336v-439h336z" />
    <glyph glyph-name="Q" unicode="Q" horiz-adv-x="1486" 
d="M1399 -217h-279l-157 235q-101 -34 -226 -34q-298 0 -473.5 193t-175.5 523q0 331 175.5 525t473.5 194t473.5 -194t175.5 -525q0 -184 -57 -329t-164 -240zM737 158q63 0 119 18l-244 365h279l147 -219q90 145 90 378q0 257 -104.5 401t-286.5 144t-286.5 -144
t-104.5 -401q0 -255 104.5 -398.5t286.5 -143.5z" />
    <glyph glyph-name="R" unicode="R" horiz-adv-x="1392" 
d="M1169 508q53 -279 85 -378.5t67 -129.5h-285q-9 17 -18 39t-15.5 42.5t-14 54.5t-12 56t-11.5 65.5t-10.5 65.5t-11.5 74t-11 74q-12 84 -60.5 114.5t-173.5 30.5h-301v-616h-247v1391h614q239 0 363 -93t124 -278q0 -115 -70.5 -198.5t-201.5 -116.5q79 -16 126 -62.5
t64 -134.5zM750 791q116 0 183.5 52.5t67.5 166.5q0 113 -66 160t-185 47h-353v-426h353z" />
    <glyph glyph-name="S" unicode="S" horiz-adv-x="1337" 
d="M698 842q103 -27 173.5 -51.5t136.5 -61t105 -80.5t62 -106t23 -142q0 -190 -139.5 -303.5t-392.5 -113.5q-232 0 -385 108t-170 297l213 137q-1 -185 101.5 -280.5t262.5 -95.5q264 0 264 212q0 96 -69.5 149.5t-247.5 98.5q-254 63 -359.5 162t-105.5 260
q0 175 142 281t388 106q132 0 245 -44t189.5 -130t92.5 -198l-207 -129q-6 164 -100 247.5t-242 83.5q-124 0 -197 -46.5t-73 -123.5q0 -90 59.5 -141.5t230.5 -95.5z" />
    <glyph glyph-name="T" unicode="T" horiz-adv-x="1187" 
d="M1161 1391v-174h-440v-1217h-248v1217h-446v174h1134z" />
    <glyph glyph-name="U" unicode="U" horiz-adv-x="1353" 
d="M969 1391h245v-912q0 -254 -130.5 -374.5t-405.5 -120.5t-407 121t-132 374v912h246l2 -897q0 -176 66.5 -255t224.5 -79q156 0 222.5 79.5t66.5 254.5z" />
    <glyph glyph-name="V" unicode="V" horiz-adv-x="1292" 
d="M1016 1391h270l-465 -1391h-350l-465 1391h270l269 -861q44 -124 100 -352q53 214 100 348z" />
    <glyph glyph-name="W" unicode="W" horiz-adv-x="1980" 
d="M1690 1391h270l-387 -1391h-350l-181 803q-20 112 -51 411q-30 -299 -53 -415l-180 -799h-350l-388 1391h271l239 -942q36 -138 58 -289q17 163 43 286l207 945h305l205 -938q30 -146 45 -295q21 149 59 297z" />
    <glyph glyph-name="X" unicode="X" horiz-adv-x="1277" 
d="M1272 0h-273l-364 524l-371 -524h-252l500 702l-479 689h272l344 -494l350 494h252l-477 -674z" />
    <glyph glyph-name="Y" unicode="Y" horiz-adv-x="1261" 
d="M1255 1391l-499 -791v-600h-246v592l-504 799h279l352 -588l358 588h260z" />
    <glyph glyph-name="Z" unicode="Z" horiz-adv-x="1218" 
d="M369 176h782v-176h-1063v176l754 1038h-774v177h1054v-177z" />
    <glyph glyph-name="bracketleft" unicode="[" horiz-adv-x="698" 
d="M575 1251h-180v-1249h180v-174h-425v1597h425v-174z" />
    <glyph glyph-name="backslash" unicode="\" horiz-adv-x="770" 
d="M842 -319h-228l-614 1724h227z" />
    <glyph glyph-name="bracketright" unicode="]" horiz-adv-x="698" 
d="M123 1425h426v-1597h-426v174h180v1249h-180v174z" />
    <glyph glyph-name="asciicircum" unicode="^" horiz-adv-x="1083" 
d="M932 807h-184l-205 399l-207 -399h-184l294 584h191z" />
    <glyph glyph-name="underscore" unicode="_" horiz-adv-x="1320" 
d="M152 -188v174h1017v-174h-1017z" />
    <glyph glyph-name="grave" unicode="`" horiz-adv-x="675" 
d="M428 1403l96 -238h-168l-204 238h276z" />
    <glyph glyph-name="a" unicode="a" horiz-adv-x="1124" 
d="M551 1077q205 0 319.5 -91.5t114.5 -260.5v-725h-244v184q-31 -88 -104.5 -143t-179.5 -55q-165 0 -267 84t-102 223q0 263 387 336l264 49v39q0 201 -202 201q-108 0 -176 -58.5t-72 -171.5l-201 90q15 132 146 215.5t317 83.5zM520 141q97 0 160 73t63 185v170
l-217 -57q-178 -48 -178 -205q0 -166 172 -166z" />
    <glyph glyph-name="b" unicode="b" horiz-adv-x="1257" 
d="M709 1077q201 0 328.5 -150.5t127.5 -396.5q0 -244 -127.5 -394t-328.5 -150q-125 0 -202 57t-114 172v-215h-243v1391h243v-543q37 115 114 172t202 57zM649 141q117 0 186.5 105.5t69.5 283.5q0 180 -69.5 285t-186.5 105q-118 0 -190 -105.5t-72 -284.5
q0 -177 72 -283t190 -106z" />
    <glyph glyph-name="c" unicode="c" horiz-adv-x="1116" 
d="M879 408l190 -121q-84 -303 -457 -303q-154 0 -274 70.5t-185 194.5t-65 279q0 248 141 398.5t383 150.5q154 0 265.5 -71t162.5 -201l-211 -121q-30 128 -82.5 181t-140.5 53q-119 0 -188.5 -102t-69.5 -288t72.5 -287.5t212.5 -101.5q97 0 163.5 63.5t82.5 205.5z" />
    <glyph glyph-name="d" unicode="d" horiz-adv-x="1263" 
d="M870 1391h244v-1391h-244v215q-38 -115 -114 -172t-201 -57q-201 0 -329 150t-128 394q0 245 128 396t329 151q125 0 201 -57t114 -172v543zM614 141q118 0 190.5 106t72.5 283q0 178 -72.5 284t-190.5 106q-117 0 -186.5 -105t-69.5 -285q0 -178 69.5 -283.5
t186.5 -105.5z" />
    <glyph glyph-name="e" unicode="e" horiz-adv-x="1163" 
d="M889 367l190 -119q-63 -134 -177 -198t-290 -64q-232 0 -378 151.5t-146 392.5q0 247 138.5 397t365.5 150q226 0 352 -154t121 -411v-12h-725q8 -169 85.5 -264t207.5 -95q44 0 82 10.5t74.5 35t62.5 70.5t37 110zM592 920q-219 0 -248 -297h459q-8 158 -56 227.5
t-155 69.5z" />
    <glyph glyph-name="f" unicode="f" horiz-adv-x="929" 
d="M676 1227q-86 0 -125 -46.5t-39 -142.5v-116h373l-47 -144h-326v-778h-244v778h-241l47 144h194v84q0 177 93.5 287t267.5 110q146 0 258 -78v-209q-86 111 -211 111z" />
    <glyph glyph-name="g" unicode="g" horiz-adv-x="1216" 
d="M831 1047h244v-912q0 -454 -510 -454q-170 0 -288 64.5t-177 184.5l209 111q42 -123 105.5 -170t177.5 -47q128 0 183.5 84t55.5 254v151q-80 -209 -305 -209q-189 0 -310.5 138.5t-121.5 347.5q0 212 123.5 349.5t317.5 137.5q216 0 296 -205v175zM594 260
q103 0 171.5 95.5t68.5 234.5q0 140 -68.5 237t-171.5 97q-105 0 -172.5 -93t-67.5 -241q0 -146 67.5 -238t172.5 -92z" />
    <glyph glyph-name="h" unicode="h" horiz-adv-x="1228" 
d="M702 1079q172 0 270.5 -96.5t98.5 -277.5v-705h-244v688q0 221 -202 221q-115 0 -172.5 -74.5t-59.5 -209.5v-625h-243v1391h243v-537q36 115 110 170t199 55z" />
    <glyph glyph-name="i" unicode="i" horiz-adv-x="579" 
d="M154 1176v215h272v-215h-272zM168 0v1047h242v-1047h-242z" />
    <glyph glyph-name="j" unicode="j" horiz-adv-x="565" 
d="M164 1391h272v-215h-272v215zM178 0v1047h242v-1133q0 -111 -75 -172t-206 -61q-90 0 -143 36v213q48 -45 100 -45q82 0 82 115z" />
    <glyph glyph-name="k" unicode="k" horiz-adv-x="1105" 
d="M1079 0h-295l-391 567v-567h-243v1391h243v-809l441 465h219l-422 -437z" />
    <glyph glyph-name="l" unicode="l" horiz-adv-x="544" 
d="M152 0v1391h241v-1391h-241z" />
    <glyph glyph-name="m" unicode="m" horiz-adv-x="1765" 
d="M1288 1077q152 0 245 -96.5t93 -275.5v-705h-244v688q0 110 -46 165.5t-126 55.5q-94 0 -146 -76t-54 -208v-625h-244v688q0 110 -46 165.5t-126 55.5q-94 0 -146.5 -76t-54.5 -208v-625h-243v1047h243v-187q33 110 100.5 163.5t178.5 53.5q117 0 200.5 -58.5
t116.5 -170.5q39 116 111.5 172.5t187.5 56.5z" />
    <glyph glyph-name="n" unicode="n" horiz-adv-x="1210" 
d="M702 1077q172 0 270.5 -95.5t98.5 -276.5v-705h-242v688q0 113 -51 167t-153 54q-116 0 -174 -75t-60 -209v-625h-241v1047h241v-201q34 118 108.5 174.5t202.5 56.5z" />
    <glyph glyph-name="o" unicode="o" horiz-adv-x="1220" 
d="M610 -14q-239 0 -380.5 147.5t-141.5 396.5q0 251 141.5 399t380.5 148t381 -148.5t142 -398.5q0 -249 -142 -396.5t-381 -147.5zM610 141q127 0 195.5 101.5t68.5 287.5q0 188 -68.5 289t-195.5 101t-195.5 -101t-68.5 -289q0 -186 68.5 -287.5t195.5 -101.5z" />
    <glyph glyph-name="p" unicode="p" horiz-adv-x="1255" 
d="M711 1077q201 0 328.5 -150.5t127.5 -396.5q0 -244 -127.5 -394t-328.5 -150q-125 0 -202 57t-114 172v-522h-243v1354h243v-199q37 115 114 172t202 57zM651 141q117 0 186.5 105.5t69.5 283.5q0 180 -69.5 285t-186.5 105q-118 0 -190 -105.5t-72 -284.5
q0 -177 72 -283t190 -106z" />
    <glyph glyph-name="q" unicode="q" horiz-adv-x="1263" 
d="M870 1047h244v-1354h-244v522q-38 -115 -114 -172t-201 -57q-201 0 -329 150t-128 394q0 245 128 396t329 151q125 0 201 -57t114 -172v199zM614 141q118 0 190.5 106t72.5 283q0 178 -72.5 284t-190.5 106q-117 0 -186.5 -105t-69.5 -285q0 -178 69.5 -283.5
t186.5 -105.5z" />
    <glyph glyph-name="r" unicode="r" horiz-adv-x="970" 
d="M645 1077q133 0 207.5 -92t60.5 -268l-213 -129q4 104 -2 171t-24 99t-38.5 42.5t-53.5 10.5q-78 0 -133.5 -110.5t-55.5 -335.5v-465h-243v1047h243l-6 -318q40 348 258 348z" />
    <glyph glyph-name="s" unicode="s" horiz-adv-x="1034" 
d="M555 643q207 -45 293 -119t86 -198q0 -157 -107.5 -248.5t-308.5 -91.5q-159 0 -283 77.5t-147 196.5l170 105q15 -106 89.5 -165t184.5 -59q183 0 183 127q0 69 -44.5 103.5t-172.5 60.5q-200 40 -289.5 117.5t-89.5 212.5q0 141 105 229.5t321 89.5q161 1 271 -74
t130 -198l-184 -70q-15 93 -80 141t-166 48q-89 0 -137.5 -33.5t-48.5 -95.5q0 -66 42.5 -95.5t182.5 -60.5z" />
    <glyph glyph-name="t" unicode="t" horiz-adv-x="919" 
d="M643 176q124 0 207 94v-209q-40 -31 -111 -51t-155 -20q-169 0 -247.5 82.5t-78.5 216.5v614h-231l47 144h184v253h244v-253h348l-45 -144h-303v-565q0 -83 29 -122.5t112 -39.5z" />
    <glyph glyph-name="u" unicode="u" horiz-adv-x="1210" 
d="M817 1047h244v-1047h-244v217q-37 -119 -113.5 -176t-205.5 -57q-173 0 -266 87t-93 267v709h244v-676q0 -219 203 -219q115 0 172 73.5t59 208.5v613z" />
    <glyph glyph-name="v" unicode="v" horiz-adv-x="1071" 
d="M805 1047h239l-370 -1047h-277l-370 1047h239l213 -648q42 -128 60 -225q18 111 55 225z" />
    <glyph glyph-name="w" unicode="w" horiz-adv-x="1546" 
d="M1280 1047h240l-285 -1047h-287l-145 690q-24 123 -29 215q-10 -114 -29 -213l-147 -692h-287l-284 1047h239l154 -625q27 -105 45 -268q14 153 37 266l129 627h284l134 -641q22 -111 32 -238q12 120 39 240z" />
    <glyph glyph-name="x" unicode="x" horiz-adv-x="1138" 
d="M1092 1047l-404 -510l404 -537h-271l-258 369l-262 -369h-254l399 520l-399 527h270l254 -359l267 359h254z" />
    <glyph glyph-name="y" unicode="y" horiz-adv-x="1099" 
d="M811 1044h242l-518 -1351h-234l164 366l-418 988h248l221 -564q34 -87 55 -151z" />
    <glyph glyph-name="z" unicode="z" horiz-adv-x="991" 
d="M360 154h574v-154h-846v154l559 739h-579v154h854v-154z" />
    <glyph glyph-name="braceleft" unicode="{" horiz-adv-x="831" 
d="M528 815q0 -188 -184 -188q184 0 184 -189v-368q0 -68 58 -68h123v-174h-207q-92 0 -145.5 48t-53.5 142v392q0 75 -42 103t-138 28v172q96 0 138 28t42 103v391q0 94 53.5 142t145.5 48h207v-174h-123q-58 0 -58 -67v-369z" />
    <glyph glyph-name="bar" unicode="|" horiz-adv-x="544" 
d="M150 -301v1720h245v-1720h-245z" />
    <glyph glyph-name="braceright" unicode="}" horiz-adv-x="831" 
d="M528 844q0 -75 42 -103t139 -28v-172q-97 0 -139 -28t-42 -103v-392q0 -94 -53 -142t-145 -48h-207v174h123q57 0 57 68v368q0 189 184 189q-184 0 -184 188v369q0 67 -57 67h-123v174h207q92 0 145 -48t53 -142v-391z" />
    <glyph glyph-name="asciitilde" unicode="~" horiz-adv-x="1214" 
d="M803 330q-46 0 -94.5 19.5t-88 47.5t-75 56t-67.5 47.5t-54 19.5q-50 0 -70 -37.5t-20 -117.5h-182q0 163 65 249t195 86q46 0 95 -19.5t89 -47.5t76 -56t68.5 -47.5t54.5 -19.5q52 0 72 38.5t20 119.5h176q0 -165 -65 -251.5t-195 -86.5z" />
    <glyph glyph-name="exclamdown" unicode="&#xa1;" horiz-adv-x="567" 
d="M150 1047h268v-269h-268v269zM213 649h139l51 -704v-252h-241v252z" />
    <glyph glyph-name="cent" unicode="&#xa2;" horiz-adv-x="1247" 
d="M741 303q150 29 183 221l190 -121q-110 -232 -373 -258v-155h-159v155q-202 26 -325.5 175.5t-123.5 365.5t123.5 365.5t325.5 175.5v159h159v-159q263 -26 373 -258l-190 -121q-33 192 -183 221v-766zM393 686q0 -150 48 -246.5t141 -128.5v750q-93 -32 -141 -128.5
t-48 -246.5z" />
    <glyph glyph-name="sterling" unicode="&#xa3;" horiz-adv-x="1341" 
d="M1253 993l-211 -139q12 199 -40.5 293t-172.5 94q-108 0 -171.5 -75t-51.5 -214q4 -57 35 -170h279v-174h-234q17 -74 18 -132t-18 -117t-75 -105.5t-148 -77.5h776v-176h-1024v176q75 26 126.5 63t77.5 76.5t35.5 90.5t6.5 97.5t-15 104.5h-292v174h249q-27 95 -32 166
q-17 202 111.5 335.5t338.5 133.5q205 0 319.5 -114.5t112.5 -309.5z" />
    <glyph glyph-name="currency" unicode="&#xa4;" horiz-adv-x="1441" 
d="M1155 682q0 -127 -74 -231l209 -209l-131 -131l-213 213q-105 -62 -225 -62t-225 62l-213 -213l-131 131l208 209q-73 103 -73 231q0 122 71 229l-206 207l131 131l211 -211q105 62 227 62t227 -62l211 211l131 -131l-207 -207q72 -106 72 -229zM487 682
q0 -109 62.5 -179.5t173.5 -70.5q106 0 169.5 72t63.5 178q0 104 -64.5 176t-168.5 72q-106 0 -171 -72t-65 -176z" />
    <glyph glyph-name="yen" unicode="&#xa5;" horiz-adv-x="1261" 
d="M1255 1391l-426 -676h285v-174h-358v-154h358v-174h-358v-213h-246v213h-352v174h352v154h-352v174h274l-426 676h279l352 -588l358 588h260z" />
    <glyph glyph-name="brokenbar" unicode="&#xa6;" horiz-adv-x="544" 
d="M150 764v655h245v-655h-245zM150 -319v655h245v-655h-245z" />
    <glyph glyph-name="section" unicode="&#xa7;" horiz-adv-x="1052" 
d="M952 647q0 -89 -53 -152t-139 -89q92 -43 133 -105t41 -149q0 -157 -107.5 -248.5t-308.5 -91.5q-159 0 -283 77.5t-147 196.5l170 104q15 -106 89.5 -164.5t184.5 -58.5q183 0 183 127q0 69 -44.5 103.5t-172.5 60.5q-200 40 -289.5 117.5t-89.5 212.5q0 83 54 142
t146 83q-94 44 -138 109.5t-44 160.5q0 68 24.5 124.5t74.5 100.5t133.5 69t193.5 26q161 1 271.5 -74.5t130.5 -198.5l-185 -69q-15 93 -79.5 140.5t-165.5 47.5q-89 0 -138 -33.5t-49 -95.5q0 -66 42 -95t183 -60q207 -45 293 -119.5t86 -198.5zM532 469q94 0 146.5 40.5
t52.5 102.5q0 61 -53 101.5t-146 40.5q-95 0 -147.5 -40.5t-52.5 -101.5q0 -63 52.5 -103t147.5 -40z" />
    <glyph glyph-name="dieresis" unicode="&#xa8;" horiz-adv-x="913" 
d="M152 1165v215h243v-215h-243zM518 1165v215h244v-215h-244z" />
    <glyph glyph-name="copyright" unicode="&#xa9;" horiz-adv-x="1785" 
d="M893 1419q165 0 313.5 -59t256.5 -159.5t171.5 -241t63.5 -297.5q0 -219 -104.5 -398t-289 -281t-411.5 -102q-172 0 -321.5 58t-255.5 160.5t-167 248t-61 314.5q0 157 62 297.5t168.5 241t256 159.5t318.5 59zM893 45q253 0 415 168.5t162 448.5q0 175 -78 311.5
t-209 209t-290 72.5t-290.5 -72.5t-209.5 -209t-78 -311.5q0 -186 75.5 -327t206 -215.5t296.5 -74.5zM928 332q86 0 141 67.5t51 196.5l168 -82q-20 -130 -120.5 -207.5t-239.5 -77.5q-179 0 -294.5 112t-115.5 308q0 195 113 308.5t284 113.5q132 0 230.5 -68t116.5 -180
l-164 -82q1 114 -48 171t-135 57q-88 0 -144 -82.5t-56 -237.5q0 -156 58.5 -236.5t154.5 -80.5z" />
    <glyph glyph-name="ordfeminine" unicode="&#xaa;" horiz-adv-x="880" 
d="M451 1403q155 0 241 -68.5t86 -195.5v-545h-184v143q-22 -70 -75 -111.5t-138 -41.5q-125 0 -202 62.5t-77 166.5q0 197 291 252l199 39v29q0 149 -152 149q-80 0 -131.5 -44t-54.5 -128l-152 68q12 100 110.5 162.5t238.5 62.5zM422 700q73 0 123.5 54.5t50.5 138.5v129
l-170 -43q-139 -37 -139 -154q0 -64 36 -94.5t99 -30.5z" />
    <glyph glyph-name="guillemotleft" unicode="&#xab;" horiz-adv-x="1218" 
d="M688 924l-340 -385l340 -385h-225l-348 385h-2l354 385h221zM1106 924l-340 -385l340 -385h-227l-347 385h-2l355 385h221z" />
    <glyph glyph-name="logicalnot" unicode="&#xac;" horiz-adv-x="1157" 
d="M1006 737v-563h-242v389h-612v174h854z" />
    <glyph glyph-name="uni00AD" unicode="&#xad;" horiz-adv-x="1228" 
d="M152 489v175h628v-175h-628z" />
    <glyph glyph-name="registered" unicode="&#xae;" horiz-adv-x="1785" 
d="M893 1419q165 0 313.5 -59t256.5 -159.5t171.5 -241t63.5 -297.5q0 -219 -104.5 -398t-289 -281t-411.5 -102q-172 0 -321.5 58t-255.5 160.5t-167 248t-61 314.5q0 157 62 297.5t168.5 241t256 159.5t318.5 59zM893 45q253 0 415 168.5t162 448.5q0 175 -78 311.5
t-209 209t-290 72.5t-290.5 -72.5t-209.5 -209t-78 -311.5q0 -186 75.5 -327t206 -215.5t296.5 -74.5zM1182 530q17 -108 34.5 -168.5t26.5 -73t27 -26.5h-185q-13 24 -24 66.5t-17.5 78.5t-17.5 109q-8 48 -35.5 66t-97.5 18h-129v-338h-162v793h350q136 0 207.5 -53
t71.5 -158q0 -144 -176 -180q65 -10 91 -41.5t36 -92.5zM924 725q69 0 106 25t37 88t-36 84.5t-107 21.5h-160v-219h160z" />
    <glyph glyph-name="macron" unicode="&#xaf;" horiz-adv-x="888" 
d="M152 1315h585v-150h-585v150z" />
    <glyph glyph-name="degree" unicode="&#xb0;" horiz-adv-x="903" 
d="M453 815q-126 0 -214.5 88.5t-88.5 214.5q0 125 88.5 213t214.5 88q125 0 213 -88.5t88 -212.5q0 -126 -88 -214.5t-213 -88.5zM453 983q53 0 90 38.5t37 96.5q0 56 -37 93.5t-90 37.5q-55 0 -92 -37.5t-37 -93.5q0 -58 37.5 -96.5t91.5 -38.5z" />
    <glyph glyph-name="plusminus" unicode="&#xb1;" horiz-adv-x="1280" 
d="M762 756h366v-174h-366v-289h-242v289h-368v174h368v288h242v-288zM152 0v174h976v-174h-976z" />
    <glyph glyph-name="uni00B2" unicode="&#xb2;" horiz-adv-x="819" 
d="M266 688h465l-2 -119h-620q-9 55 1.5 102t30.5 79.5t56 63t66 50t73 43.5q8 4 13 7t11.5 7t12.5 7q108 64 140 104t32 98q0 79 -39 116.5t-103 37.5q-69 0 -113 -48t-40 -140l-162 37q-4 120 96 196t234 76q137 0 224 -70t87 -188q0 -57 -18.5 -103.5t-58 -85.5
t-75.5 -65.5t-98 -63.5q-20 -12 -75.5 -39.5t-90.5 -51.5t-47 -50z" />
    <glyph glyph-name="uni00B3" unicode="&#xb3;" horiz-adv-x="819" 
d="M555 993q81 -20 129.5 -67t48.5 -119q0 -114 -96 -178t-238 -64q-119 0 -208.5 61t-106.5 160l154 91q-4 -99 40 -146t121 -47q71 0 110.5 34t39.5 95q0 119 -162 119h-72v117h54q89 0 125 26.5t36 89.5q0 62 -36 90.5t-88 28.5q-133 0 -146 -143l-151 78
q24 87 106.5 135.5t190.5 48.5q125 0 215 -61.5t90 -165.5q0 -68 -42.5 -115t-113.5 -68z" />
    <glyph glyph-name="acute" unicode="&#xb4;" horiz-adv-x="675" 
d="M248 1403h276l-205 -238h-167z" />
    <glyph glyph-name="uni00B5" unicode="&#xb5;" horiz-adv-x="1329" 
d="M1073 283q0 -68 26.5 -91.5t78.5 -23.5v-168l-62 -2q-146 5 -206.5 46t-73.5 149q-24 -107 -76.5 -158t-147.5 -51q-89 0 -140.5 45t-76.5 141v-489h-243v1366h243v-572q1 -57 6 -97t18.5 -77t37 -59.5t62.5 -35.5t93 -13t93 13t62.5 35.5t37 59.5t18.5 77t6 97v572h244
v-764z" />
    <glyph glyph-name="paragraph" unicode="&#xb6;" horiz-adv-x="1542" 
d="M1008 1391v-1710h-246v718h-84q-119 0 -220 41t-167.5 110t-103.5 158.5t-37 186.5t37 186.5t103.5 158.5t167.5 110t220 41h330zM1147 1391h246v-1710h-246v1710zM717 573h45v644h-45q-86 0 -150 -28t-99.5 -75.5t-52 -102t-16.5 -116.5t16.5 -116.5t52 -102t99.5 -75.5
t150 -28z" />
    <glyph glyph-name="periodcentered" unicode="&#xb7;" horiz-adv-x="567" 
d="M150 553v268h268v-268h-268z" />
    <glyph glyph-name="cedilla" unicode="&#xb8;" horiz-adv-x="673" 
d="M360 -63q81 -12 121.5 -48.5t40.5 -89.5q0 -68 -57 -103.5t-150 -35.5q-67 0 -163 27v112q61 -37 145 -37q34 0 51 15.5t17 40.5q0 76 -185 71l115 152h113z" />
    <glyph glyph-name="uni00B9" unicode="&#xb9;" horiz-adv-x="819" 
d="M543 688h202v-119h-620v119h235v526q-45 -53 -112 -96.5t-129 -58.5l-45 135q103 42 166 83t108 112h195v-701z" />
    <glyph glyph-name="ordmasculine" unicode="&#xba;" horiz-adv-x="880" 
d="M440 584q-180 0 -286.5 110.5t-106.5 296.5q0 189 106.5 300.5t286.5 111.5t287 -111.5t107 -300.5q0 -186 -107 -296.5t-287 -110.5zM440 700q96 0 152.5 76.5t56.5 214.5q0 139 -56 216t-153 77t-153 -77t-56 -216q0 -138 56.5 -214.5t152.5 -76.5z" />
    <glyph glyph-name="guillemotright" unicode="&#xbb;" horiz-adv-x="1218" 
d="M688 539h-2l-346 -385h-227l340 385l-340 385h221zM752 924l354 -385h-2l-348 -385h-226l340 385l-340 385h222z" />
    <glyph glyph-name="onequarter" unicode="&#xbc;" horiz-adv-x="1224" 
d="M561 1262q-57 -79 -129 -99l-51 117q70 24 111.5 55.5t64.5 81.5h164v-469h123v-110h-420v110h137v314zM150 764h925v-107h-925v107zM784 575v-362h97v-90h-97v-137h-157v137h-281v90l260 362h178zM485 213h142v127q0 46 6 98q-48 -94 -76 -127z" />
    <glyph glyph-name="onehalf" unicode="&#xbd;" horiz-adv-x="1224" 
d="M561 1262q-57 -79 -129 -99l-51 117q70 24 111.5 55.5t64.5 81.5h164v-469h123v-110h-420v110h137v314zM150 764h925v-107h-925v107zM688 184q-86 -43 -156 -69h330v-115h-479q-5 24 -5 46t3 39.5t13 35.5t18.5 30.5t25 27t27.5 23t31.5 21t31 18t32 16.5t28.5 15
q48 26 73 51.5t30 43t5 43.5q0 36 -21 53.5t-50 17.5q-44 0 -69.5 -42t-4.5 -115l-164 63q-10 92 66 150.5t182 58.5q103 0 164 -50t61 -138q0 -75 -44 -126t-128 -98z" />
    <glyph glyph-name="threequarters" unicode="&#xbe;" horiz-adv-x="1224" 
d="M606 965q80 0 80 63q0 35 -20.5 50.5t-67.5 15.5h-63v106h51q50 0 69 14t19 50q0 30 -20 44.5t-48 14.5q-31 0 -55 -21t-25 -59l-133 49q21 70 87.5 109t146.5 39q94 0 151.5 -40.5t57.5 -111.5q0 -117 -140 -139q82 -12 118 -48t36 -97q0 -71 -64 -113.5t-163 -42.5
q-102 0 -172.5 49.5t-73.5 124.5l135 37q0 -47 27.5 -70.5t66.5 -23.5zM150 764h925v-107h-925v107zM784 575v-362h97v-90h-97v-137h-157v137h-281v90l260 362h178zM485 213h142v127q0 46 6 98q-48 -94 -76 -127z" />
    <glyph glyph-name="questiondown" unicode="&#xbf;" horiz-adv-x="1140" 
d="M727 1047v-269h-268v269h268zM1059 139q7 -203 -134.5 -330.5t-367.5 -127.5q-209 0 -332 103t-123 271q0 67 25 122.5t61 90.5t89.5 64.5t96 44.5t95.5 29l61 243h140l41 -293q-157 -11 -259 -86t-102 -192q0 -108 59 -164.5t166 -56.5q135 0 201 96t53 274z" />
    <glyph glyph-name="Agrave" unicode="&#xc0;" horiz-adv-x="1402" 
d="M815 1511h-168l-205 238h277zM1137 0l-150 410h-584l-149 -410h-244l527 1391h331l525 -1391h-256zM469 584h455l-152 413q-36 108 -76 256q-44 -163 -75 -254z" />
    <glyph glyph-name="Aacute" unicode="&#xc1;" horiz-adv-x="1402" 
d="M971 1749l-205 -238h-168l96 238h277zM1137 0l-150 410h-584l-149 -410h-244l527 1391h331l525 -1391h-256zM469 584h455l-152 413q-36 108 -76 256q-44 -163 -75 -254z" />
    <glyph glyph-name="Acircumflex" unicode="&#xc2;" horiz-adv-x="1402" 
d="M711 1645l-97 -134h-247l245 238h197l246 -238h-248zM1137 0l-150 410h-584l-149 -410h-244l527 1391h331l525 -1391h-256zM469 584h455l-152 413q-36 108 -76 256q-44 -163 -75 -254z" />
    <glyph glyph-name="Atilde" unicode="&#xc3;" horiz-adv-x="1402" 
d="M586 1599q-68 0 -68 -69h-125q15 107 64 160t139 53q51 0 125 -40t106 -40q68 0 68 70h125q-15 -107 -64 -160t-139 -53q-51 0 -124.5 39.5t-106.5 39.5zM1137 0l-150 410h-584l-149 -410h-244l527 1391h331l525 -1391h-256zM469 584h455l-152 413q-36 108 -76 256
q-44 -163 -75 -254z" />
    <glyph glyph-name="Adieresis" unicode="&#xc4;" horiz-adv-x="1402" 
d="M643 1726v-215h-244v215h244zM1010 1726v-215h-244v215h244zM1137 0l-150 410h-584l-149 -410h-244l527 1391h331l525 -1391h-256zM469 584h455l-152 413q-36 108 -76 256q-44 -163 -75 -254z" />
    <glyph glyph-name="Aring" unicode="&#xc5;" horiz-adv-x="1402" 
d="M707 1495q-91 0 -146 54t-55 143q0 85 55 136.5t146 51.5t145.5 -52t54.5 -138q0 -88 -54.5 -141.5t-145.5 -53.5zM707 1759q-32 0 -50 -18.5t-18 -50.5q0 -34 18 -54t50 -20t49.5 20t17.5 54q0 32 -17.5 50.5t-49.5 18.5zM1137 0l-150 410h-584l-149 -410h-244l527 1391
h331l525 -1391h-256zM469 584h455l-152 413q-36 108 -76 256q-44 -163 -75 -254z" />
    <glyph glyph-name="AE" unicode="&#xc6;" horiz-adv-x="1849" 
d="M1751 1217h-817l160 -426h620v-175h-553l166 -442h424v-174h-614l-150 410h-577l-150 -410h-250l527 1391h1214v-174zM772 997q-41 121 -65 220h-15q-25 -98 -65 -218l-152 -415h449z" />
    <glyph glyph-name="Ccedilla" unicode="&#xc7;" horiz-adv-x="1396" 
d="M1329 469q-5 -139 -77.5 -247t-191.5 -168t-265 -68l-29 -82q197 -21 197 -148q0 -162 -248 -162q-76 0 -197 31v125q73 -41 180 -41q76 0 76 64q0 16 -7.5 28t-28.5 25t-68 19t-117 5l92 140q-257 33 -407 217.5t-150 492.5q0 336 177 527.5t464 191.5
q147 0 271.5 -51.5t202 -149.5t81.5 -223l-211 -139q3 190 -95.5 288.5t-248.5 98.5q-173 0 -275 -138.5t-102 -404.5q0 -268 105.5 -404t292.5 -136q171 0 270.5 112.5t93.5 335.5z" />
    <glyph glyph-name="Egrave" unicode="&#xc8;" horiz-adv-x="1202" 
d="M750 1511h-168l-205 238h276zM1104 1217h-707v-424h670v-175h-670v-444h707v-174h-954v1391h954v-174z" />
    <glyph glyph-name="Eacute" unicode="&#xc9;" horiz-adv-x="1202" 
d="M905 1749l-205 -238h-168l97 238h276zM1104 1217h-707v-424h670v-175h-670v-444h707v-174h-954v1391h954v-174z" />
    <glyph glyph-name="Ecircumflex" unicode="&#xca;" horiz-adv-x="1202" 
d="M645 1645l-96 -134h-248l246 238h196l246 -238h-248zM1104 1217h-707v-424h670v-175h-670v-444h707v-174h-954v1391h954v-174z" />
    <glyph glyph-name="Edieresis" unicode="&#xcb;" horiz-adv-x="1202" 
d="M578 1726v-215h-244v215h244zM944 1726v-215h-244v215h244zM1104 1217h-707v-424h670v-175h-670v-444h707v-174h-954v1391h954v-174z" />
    <glyph glyph-name="Igrave" unicode="&#xcc;" horiz-adv-x="544" 
d="M285 1749l96 -238h-168l-205 238h277zM150 0v1391h245v-1391h-245z" />
    <glyph glyph-name="Iacute" unicode="&#xcd;" horiz-adv-x="544" 
d="M260 1749h277l-205 -238h-168zM150 0v1391h245v-1391h-245z" />
    <glyph glyph-name="Icircumflex" unicode="&#xce;" horiz-adv-x="544" 
d="M276 1645l-96 -134h-248l246 238h197l246 -238h-248zM150 0v1391h245v-1391h-245z" />
    <glyph glyph-name="Idieresis" unicode="&#xcf;" horiz-adv-x="544" 
d="M-35 1511v215h244v-215h-244zM332 1511v215h243v-215h-243zM150 0v1391h245v-1391h-245z" />
    <glyph glyph-name="Eth" unicode="&#xd0;" horiz-adv-x="1398" 
d="M582 1391q368 0 548.5 -177.5t180.5 -517.5q0 -342 -180.5 -519t-548.5 -177h-432v618h-91v175h91v598h432zM547 174q262 0 384 129t122 393q0 263 -122 392t-384 129h-150v-424h262v-175h-262v-444h150z" />
    <glyph glyph-name="Ntilde" unicode="&#xd1;" horiz-adv-x="1488" 
d="M623 1599q-68 0 -68 -69h-125q15 107 64 160t139 53q51 0 125 -40t106 -40q68 0 68 70h125q-15 -107 -64 -160t-139 -53q-51 0 -124.5 39.5t-106.5 39.5zM1110 1391h229v-1391h-364l-477 913q-48 94 -119 289v-1202h-229v1391h364l461 -885q64 -123 135 -309v1194z" />
    <glyph glyph-name="Ograve" unicode="&#xd2;" horiz-adv-x="1474" 
d="M750 1749l96 -238h-168l-205 238h277zM737 -16q-298 0 -473.5 193t-175.5 523q0 331 175.5 525t473.5 194t473.5 -194t175.5 -525q0 -330 -175.5 -523t-473.5 -193zM737 158q182 0 286.5 143.5t104.5 398.5q0 257 -104.5 401t-286.5 144t-286.5 -144t-104.5 -401
q0 -255 104.5 -398.5t286.5 -143.5z" />
    <glyph glyph-name="Oacute" unicode="&#xd3;" horiz-adv-x="1474" 
d="M725 1749h276l-204 -238h-168zM737 -16q-298 0 -473.5 193t-175.5 523q0 331 175.5 525t473.5 194t473.5 -194t175.5 -525q0 -330 -175.5 -523t-473.5 -193zM737 158q182 0 286.5 143.5t104.5 398.5q0 257 -104.5 401t-286.5 144t-286.5 -144t-104.5 -401
q0 -255 104.5 -398.5t286.5 -143.5z" />
    <glyph glyph-name="Ocircumflex" unicode="&#xd4;" horiz-adv-x="1474" 
d="M741 1645l-96 -134h-248l246 238h197l245 -238h-247zM737 1419q298 0 473.5 -194t175.5 -525q0 -330 -175.5 -523t-473.5 -193t-473.5 193t-175.5 523q0 331 175.5 525t473.5 194zM737 158q182 0 286.5 143.5t104.5 398.5q0 257 -104.5 401t-286.5 144t-286.5 -144
t-104.5 -401q0 -255 104.5 -398.5t286.5 -143.5z" />
    <glyph glyph-name="Otilde" unicode="&#xd5;" horiz-adv-x="1474" 
d="M848 1520q-51 0 -125 39.5t-107 39.5q-67 0 -67 -69h-125q15 107 64 160t139 53q51 0 125 -40t106 -40q68 0 68 70h125q-15 -107 -64 -160t-139 -53zM737 -16q-298 0 -473.5 193t-175.5 523q0 331 175.5 525t473.5 194t473.5 -194t175.5 -525q0 -330 -175.5 -523
t-473.5 -193zM737 158q182 0 286.5 143.5t104.5 398.5q0 257 -104.5 401t-286.5 144t-286.5 -144t-104.5 -401q0 -255 104.5 -398.5t286.5 -143.5z" />
    <glyph glyph-name="Odieresis" unicode="&#xd6;" horiz-adv-x="1474" 
d="M430 1511v215h244v-215h-244zM797 1511v215h243v-215h-243zM737 -16q-298 0 -473.5 193t-175.5 523q0 331 175.5 525t473.5 194t473.5 -194t175.5 -525q0 -330 -175.5 -523t-473.5 -193zM737 158q182 0 286.5 143.5t104.5 398.5q0 257 -104.5 401t-286.5 144t-286.5 -144
t-104.5 -401q0 -255 104.5 -398.5t286.5 -143.5z" />
    <glyph glyph-name="multiply" unicode="&#xd7;" horiz-adv-x="1202" 
d="M1051 895l-326 -326l326 -327l-123 -123l-326 327l-328 -327l-122 123l327 327l-327 326l122 123l328 -326l326 326z" />
    <glyph glyph-name="Oslash" unicode="&#xd8;" horiz-adv-x="1474" 
d="M1239 1194q147 -192 147 -494q0 -330 -175.5 -523t-473.5 -193q-199 0 -352 92l-70 -90h-202l149 194q-174 189 -174 520t175.5 525t473.5 194q228 0 385 -114l56 71h200zM346 700q0 -193 64 -327l585 764q-99 108 -258 108q-182 0 -286.5 -144t-104.5 -401zM737 158
q182 0 286.5 143.5t104.5 398.5q0 165 -45 289l-575 -751q96 -80 229 -80z" />
    <glyph glyph-name="Ugrave" unicode="&#xd9;" horiz-adv-x="1353" 
d="M784 1511h-168l-204 238h276zM969 1391h245v-912q0 -254 -130.5 -374.5t-405.5 -120.5t-407 121t-132 374v912h246l2 -897q0 -176 66.5 -255t224.5 -79q156 0 222.5 79.5t66.5 254.5z" />
    <glyph glyph-name="Uacute" unicode="&#xda;" horiz-adv-x="1353" 
d="M940 1749l-205 -238h-168l97 238h276zM969 1391h245v-912q0 -254 -130.5 -374.5t-405.5 -120.5t-407 121t-132 374v912h246l2 -897q0 -176 66.5 -255t224.5 -79q156 0 222.5 79.5t66.5 254.5z" />
    <glyph glyph-name="Ucircumflex" unicode="&#xdb;" horiz-adv-x="1353" 
d="M680 1645l-96 -134h-248l246 238h196l246 -238h-248zM969 1391h245v-912q0 -254 -130.5 -374.5t-405.5 -120.5t-407 121t-132 374v912h246l2 -897q0 -176 66.5 -255t224.5 -79q156 0 222.5 79.5t66.5 254.5z" />
    <glyph glyph-name="Udieresis" unicode="&#xdc;" horiz-adv-x="1353" 
d="M612 1726v-215h-243v215h243zM979 1726v-215h-244v215h244zM969 1391h245v-912q0 -254 -130.5 -374.5t-405.5 -120.5t-407 121t-132 374v912h246l2 -897q0 -176 66.5 -255t224.5 -79q156 0 222.5 79.5t66.5 254.5z" />
    <glyph glyph-name="Yacute" unicode="&#xdd;" horiz-adv-x="1261" 
d="M895 1749l-205 -238h-168l96 238h277zM1255 1391l-499 -791v-600h-246v592l-504 799h279l352 -588l358 588h260z" />
    <glyph glyph-name="Thorn" unicode="&#xde;" horiz-adv-x="1292" 
d="M745 1110q238 0 363 -100t125 -293t-125 -293t-363 -100h-350v-324h-245v1391h245v-281h350zM731 498q118 0 189 53t71 166t-71 166t-189 53h-336v-438h336z" />
    <glyph glyph-name="germandbls" unicode="&#xdf;" horiz-adv-x="1169" 
d="M670 735q194 -24 313 -124.5t119 -252.5q0 -89 -34 -161t-92.5 -117.5t-133 -69.5t-158.5 -24q-224 0 -289 196v-489h-243v1313q0 122 60.5 213t159.5 136.5t222 45.5q172 0 293 -101t121 -253q0 -73 -27 -130t-75.5 -93t-106.5 -57.5t-129 -31.5zM659 141
q96 0 151.5 57.5t55.5 170.5q0 107 -88.5 193.5t-238.5 90.5v152q37 0 70.5 5.5t66 20t56 36.5t38 57.5t14.5 81.5q0 102 -53 161.5t-141 59.5q-87 0 -141 -49.5t-54 -128.5v-648q12 -124 85 -192t179 -68z" />
    <glyph glyph-name="agrave" unicode="&#xe0;" horiz-adv-x="1124" 
d="M670 1186h-168l-205 237h276zM551 1077q205 0 319.5 -91.5t114.5 -260.5v-725h-244v184q-31 -88 -104.5 -143t-179.5 -55q-165 0 -267 84t-102 223q0 263 387 336l264 49v39q0 201 -202 201q-108 0 -176 -58.5t-72 -171.5l-201 90q15 132 146 215.5t317 83.5zM520 141
q97 0 160 73t63 185v170l-217 -57q-178 -48 -178 -205q0 -166 172 -166z" />
    <glyph glyph-name="aacute" unicode="&#xe1;" horiz-adv-x="1124" 
d="M825 1423l-204 -237h-168l96 237h276zM551 1077q205 0 319.5 -91.5t114.5 -260.5v-725h-244v184q-31 -88 -104.5 -143t-179.5 -55q-165 0 -267 84t-102 223q0 263 387 336l264 49v39q0 201 -202 201q-108 0 -176 -58.5t-72 -171.5l-201 90q15 132 146 215.5t317 83.5z
M520 141q97 0 160 73t63 185v170l-217 -57q-178 -48 -178 -205q0 -166 172 -166z" />
    <glyph glyph-name="acircumflex" unicode="&#xe2;" horiz-adv-x="1124" 
d="M565 1319l-96 -133h-248l246 237h197l245 -237h-247zM551 1077q205 0 319.5 -91.5t114.5 -260.5v-725h-244v184q-31 -88 -104.5 -143t-179.5 -55q-165 0 -267 84t-102 223q0 263 387 336l264 49v39q0 201 -202 201q-108 0 -176 -58.5t-72 -171.5l-201 90
q15 132 146 215.5t317 83.5zM520 141q97 0 160 73t63 185v170l-217 -57q-178 -48 -178 -205q0 -166 172 -166z" />
    <glyph glyph-name="atilde" unicode="&#xe3;" horiz-adv-x="1124" 
d="M440 1274q-67 0 -67 -70h-125q15 107 64 160t139 53q51 0 125 -40t106 -40q68 0 68 70h124q-15 -107 -64 -160t-138 -53q-51 0 -125 40t-107 40zM551 1077q205 0 319.5 -91.5t114.5 -260.5v-725h-244v184q-31 -88 -104.5 -143t-179.5 -55q-165 0 -267 84t-102 223
q0 263 387 336l264 49v39q0 201 -202 201q-108 0 -176 -58.5t-72 -171.5l-201 90q15 132 146 215.5t317 83.5zM520 141q97 0 160 73t63 185v170l-217 -57q-178 -48 -178 -205q0 -166 172 -166z" />
    <glyph glyph-name="adieresis" unicode="&#xe4;" horiz-adv-x="1124" 
d="M498 1401v-215h-244v215h244zM864 1401v-215h-243v215h243zM551 1077q205 0 319.5 -91.5t114.5 -260.5v-725h-244v184q-31 -88 -104.5 -143t-179.5 -55q-165 0 -267 84t-102 223q0 263 387 336l264 49v39q0 201 -202 201q-108 0 -176 -58.5t-72 -171.5l-201 90
q15 132 146 215.5t317 83.5zM520 141q97 0 160 73t63 185v170l-217 -57q-178 -48 -178 -205q0 -166 172 -166z" />
    <glyph glyph-name="aring" unicode="&#xe5;" horiz-adv-x="1124" 
d="M561 1169q-80 0 -129 48t-49 126q0 75 49.5 121.5t128.5 46.5q80 0 129 -47t49 -123q0 -77 -49.5 -124.5t-128.5 -47.5zM561 1405q-29 0 -44 -17t-15 -47t15 -47.5t44 -17.5t44.5 17.5t15.5 47.5t-15.5 47t-44.5 17zM551 1077q205 0 319.5 -91.5t114.5 -260.5v-725h-244
v184q-31 -88 -104.5 -143t-179.5 -55q-165 0 -267 84t-102 223q0 263 387 336l264 49v39q0 201 -202 201q-108 0 -176 -58.5t-72 -171.5l-201 90q15 132 146 215.5t317 83.5zM520 141q97 0 160 73t63 185v170l-217 -57q-178 -48 -178 -205q0 -166 172 -166z" />
    <glyph glyph-name="ae" unicode="&#xe6;" horiz-adv-x="1818" 
d="M1544 367l191 -119q-63 -134 -177 -198t-290 -64q-191 0 -324 102v-88h-203v203q-31 -97 -109.5 -157t-195.5 -60q-163 0 -255.5 83t-92.5 224q0 263 387 336l264 49v39q0 201 -202 201q-108 0 -176 -58.5t-72 -171.5l-201 90q15 132 146 215.5t317 83.5q249 0 340 -139
q139 139 356 139q226 0 352 -154t121 -411v-12h-725q8 -169 85.5 -264t207.5 -95q44 0 82 10.5t74.5 35t62.5 70.5t37 110zM1247 920q-219 0 -248 -297h459q-8 158 -56 227.5t-155 69.5zM520 141q97 0 160 73t63 185v170l-217 -57q-178 -48 -178 -205q0 -166 172 -166z" />
    <glyph glyph-name="ccedilla" unicode="&#xe7;" horiz-adv-x="1116" 
d="M1069 287q-71 -257 -354 -297l-33 -74q81 -12 121.5 -48t40.5 -89q0 -68 -57 -103.5t-150 -35.5q-71 0 -164 26v113q61 -37 145 -37q34 0 51 15t17 40q0 76 -184 72l88 115q-224 9 -363 161.5t-139 382.5q0 248 141 398.5t383 150.5q154 0 265.5 -71t162.5 -201
l-211 -121q-30 128 -82.5 181t-140.5 53q-119 0 -188.5 -102t-69.5 -288t72.5 -287.5t212.5 -101.5q97 0 163.5 63.5t82.5 205.5z" />
    <glyph glyph-name="egrave" unicode="&#xe8;" horiz-adv-x="1163" 
d="M690 1186h-168l-205 237h277zM889 367l190 -119q-63 -134 -177 -198t-290 -64q-232 0 -378 151.5t-146 392.5q0 247 138.5 397t365.5 150q226 0 352 -154t121 -411v-12h-725q8 -169 85.5 -264t207.5 -95q44 0 82 10.5t74.5 35t62.5 70.5t37 110zM592 920
q-219 0 -248 -297h459q-8 158 -56 227.5t-155 69.5z" />
    <glyph glyph-name="eacute" unicode="&#xe9;" horiz-adv-x="1163" 
d="M846 1423l-205 -237h-168l96 237h277zM889 367l190 -119q-63 -134 -177 -198t-290 -64q-232 0 -378 151.5t-146 392.5q0 247 138.5 397t365.5 150q226 0 352 -154t121 -411v-12h-725q8 -169 85.5 -264t207.5 -95q44 0 82 10.5t74.5 35t62.5 70.5t37 110zM592 920
q-219 0 -248 -297h459q-8 158 -56 227.5t-155 69.5z" />
    <glyph glyph-name="ecircumflex" unicode="&#xea;" horiz-adv-x="1163" 
d="M586 1319l-97 -133h-247l245 237h197l246 -237h-248zM889 367l190 -119q-63 -134 -177 -198t-290 -64q-232 0 -378 151.5t-146 392.5q0 247 138.5 397t365.5 150q226 0 352 -154t121 -411v-12h-725q8 -169 85.5 -264t207.5 -95q44 0 82 10.5t74.5 35t62.5 70.5t37 110z
M592 920q-219 0 -248 -297h459q-8 158 -56 227.5t-155 69.5z" />
    <glyph glyph-name="edieresis" unicode="&#xeb;" horiz-adv-x="1163" 
d="M518 1401v-215h-244v215h244zM885 1401v-215h-244v215h244zM889 367l190 -119q-63 -134 -177 -198t-290 -64q-232 0 -378 151.5t-146 392.5q0 247 138.5 397t365.5 150q226 0 352 -154t121 -411v-12h-725q8 -169 85.5 -264t207.5 -95q44 0 82 10.5t74.5 35t62.5 70.5
t37 110zM592 920q-219 0 -248 -297h459q-8 158 -56 227.5t-155 69.5z" />
    <glyph glyph-name="igrave" unicode="&#xec;" horiz-adv-x="544" 
d="M285 1403l96 -238h-168l-205 238h277zM152 0v1047h241v-1047h-241z" />
    <glyph glyph-name="iacute" unicode="&#xed;" horiz-adv-x="544" 
d="M260 1403h277l-205 -238h-168zM152 0v1047h241v-1047h-241z" />
    <glyph glyph-name="icircumflex" unicode="&#xee;" horiz-adv-x="544" 
d="M276 1298l-96 -133h-248l246 238h197l246 -238h-248zM152 0v1047h241v-1047h-241z" />
    <glyph glyph-name="idieresis" unicode="&#xef;" horiz-adv-x="544" 
d="M-35 1165v215h244v-215h-244zM332 1165v215h243v-215h-243zM152 0v1047h241v-1047h-241z" />
    <glyph glyph-name="eth" unicode="&#xf0;" horiz-adv-x="1157" 
d="M858 1182q197 -210 197 -572q0 -293 -130 -458.5t-380 -165.5q-217 0 -345 136.5t-128 348.5q0 214 121.5 350.5t318.5 136.5q248 0 336 -241q3 87 -32 191t-120 200l-256 -119v166l133 62q-92 65 -223 114l133 70q139 -39 250 -113l211 98v-165zM571 141
q121 0 180.5 88.5t59.5 241.5q0 148 -67.5 241t-172.5 93t-172 -93t-67 -241q0 -147 66 -238.5t173 -91.5z" />
    <glyph glyph-name="ntilde" unicode="&#xf1;" horiz-adv-x="1210" 
d="M483 1274q-67 0 -67 -70h-125q15 107 64 160t139 53q51 0 125 -40t106 -40q68 0 68 70h125q-15 -107 -64 -160t-139 -53q-51 0 -125 40t-107 40zM702 1077q172 0 270.5 -95.5t98.5 -276.5v-705h-242v688q0 113 -51 167t-153 54q-116 0 -174 -75t-60 -209v-625h-241v1047
h241v-201q34 118 108.5 174.5t202.5 56.5z" />
    <glyph glyph-name="ograve" unicode="&#xf2;" horiz-adv-x="1220" 
d="M623 1423l96 -237h-168l-205 237h277zM610 -14q-239 0 -380.5 147.5t-141.5 396.5q0 251 141.5 399t380.5 148t381 -148.5t142 -398.5q0 -249 -142 -396.5t-381 -147.5zM610 141q127 0 195.5 101.5t68.5 287.5q0 188 -68.5 289t-195.5 101t-195.5 -101t-68.5 -289
q0 -186 68.5 -287.5t195.5 -101.5z" />
    <glyph glyph-name="oacute" unicode="&#xf3;" horiz-adv-x="1220" 
d="M598 1423h276l-204 -237h-168zM610 -14q-239 0 -380.5 147.5t-141.5 396.5q0 251 141.5 399t380.5 148t381 -148.5t142 -398.5q0 -249 -142 -396.5t-381 -147.5zM610 141q127 0 195.5 101.5t68.5 287.5q0 188 -68.5 289t-195.5 101t-195.5 -101t-68.5 -289
q0 -186 68.5 -287.5t195.5 -101.5z" />
    <glyph glyph-name="ocircumflex" unicode="&#xf4;" horiz-adv-x="1220" 
d="M614 1319l-96 -133h-248l246 237h197l245 -237h-247zM610 1077q239 0 381 -148.5t142 -398.5q0 -249 -142 -396.5t-381 -147.5t-380.5 147.5t-141.5 396.5q0 251 141.5 399t380.5 148zM610 141q127 0 195.5 101.5t68.5 287.5q0 188 -68.5 289t-195.5 101t-195.5 -101
t-68.5 -289q0 -186 68.5 -287.5t195.5 -101.5z" />
    <glyph glyph-name="otilde" unicode="&#xf5;" horiz-adv-x="1220" 
d="M721 1194q-51 0 -125 40t-107 40q-67 0 -67 -70h-125q15 107 64 160t139 53q51 0 125 -40t106 -40q68 0 68 70h125q-15 -107 -64 -160t-139 -53zM610 -14q-239 0 -380.5 147.5t-141.5 396.5q0 251 141.5 399t380.5 148t381 -148.5t142 -398.5q0 -249 -142 -396.5
t-381 -147.5zM610 141q127 0 195.5 101.5t68.5 287.5q0 188 -68.5 289t-195.5 101t-195.5 -101t-68.5 -289q0 -186 68.5 -287.5t195.5 -101.5z" />
    <glyph glyph-name="odieresis" unicode="&#xf6;" horiz-adv-x="1220" 
d="M303 1186v215h244v-215h-244zM670 1186v215h243v-215h-243zM610 -14q-239 0 -380.5 147.5t-141.5 396.5q0 251 141.5 399t380.5 148t381 -148.5t142 -398.5q0 -249 -142 -396.5t-381 -147.5zM610 141q127 0 195.5 101.5t68.5 287.5q0 188 -68.5 289t-195.5 101
t-195.5 -101t-68.5 -289q0 -186 68.5 -287.5t195.5 -101.5z" />
    <glyph glyph-name="divide" unicode="&#xf7;" horiz-adv-x="1228" 
d="M543 860v195h194v-195h-194zM152 489v175h976v-175h-976zM543 98v195h194v-195h-194z" />
    <glyph glyph-name="oslash" unicode="&#xf8;" horiz-adv-x="1220" 
d="M1133 1055l-121 -150q121 -146 121 -375q0 -249 -142 -396.5t-381 -147.5q-159 0 -282 69l-56 -69h-184l129 159q-129 148 -129 385q0 251 141.5 399t380.5 148q168 0 297 -80l45 58h181zM346 530q0 -108 25 -194l413 510q-65 74 -174 74q-127 0 -195.5 -101t-68.5 -289z
M874 530q0 106 -20 179l-405 -506q62 -62 161 -62q127 0 195.5 101.5t68.5 287.5z" />
    <glyph glyph-name="ugrave" unicode="&#xf9;" horiz-adv-x="1210" 
d="M713 1186h-168l-205 237h276zM817 1047h244v-1047h-244v217q-37 -119 -113.5 -176t-205.5 -57q-173 0 -266 87t-93 267v709h244v-676q0 -219 203 -219q115 0 172 73.5t59 208.5v613z" />
    <glyph glyph-name="uacute" unicode="&#xfa;" horiz-adv-x="1210" 
d="M868 1423l-204 -237h-168l96 237h276zM817 1047h244v-1047h-244v217q-37 -119 -113.5 -176t-205.5 -57q-173 0 -266 87t-93 267v709h244v-676q0 -219 203 -219q115 0 172 73.5t59 208.5v613z" />
    <glyph glyph-name="ucircumflex" unicode="&#xfb;" horiz-adv-x="1210" 
d="M608 1319l-96 -133h-248l246 237h197l245 -237h-247zM817 1047h244v-1047h-244v217q-37 -119 -113.5 -176t-205.5 -57q-173 0 -266 87t-93 267v709h244v-676q0 -219 203 -219q115 0 172 73.5t59 208.5v613z" />
    <glyph glyph-name="udieresis" unicode="&#xfc;" horiz-adv-x="1210" 
d="M541 1401v-215h-244v215h244zM907 1401v-215h-243v215h243zM817 1047h244v-1047h-244v217q-37 -119 -113.5 -176t-205.5 -57q-173 0 -266 87t-93 267v709h244v-676q0 -219 203 -219q115 0 172 73.5t59 208.5v613z" />
    <glyph glyph-name="yacute" unicode="&#xfd;" horiz-adv-x="1099" 
d="M813 1423l-205 -237h-168l97 237h276zM811 1044h242l-518 -1351h-234l164 366l-418 988h248l221 -564q34 -87 55 -151z" />
    <glyph glyph-name="thorn" unicode="&#xfe;" horiz-adv-x="1255" 
d="M711 1077q201 0 328.5 -150.5t127.5 -396.5q0 -244 -127.5 -394t-328.5 -150q-232 0 -316 207v-500h-243v1698h243v-521q84 207 316 207zM651 141q117 0 186.5 105.5t69.5 283.5q0 180 -69.5 285t-186.5 105q-118 0 -190 -105.5t-72 -284.5q0 -177 72 -283t190 -106z" />
    <glyph glyph-name="ydieresis" unicode="&#xff;" horiz-adv-x="1099" 
d="M485 1401v-215h-243v215h243zM852 1401v-215h-244v215h244zM811 1044h242l-518 -1351h-234l164 366l-418 988h248l221 -564q34 -87 55 -151z" />
    <glyph glyph-name="Amacron" unicode="&#x100;" horiz-adv-x="1402" 
d="M1004 1661v-150h-586v150h586zM1137 0l-150 410h-584l-149 -410h-244l527 1391h331l525 -1391h-256zM469 584h455l-152 413q-36 108 -76 256q-44 -163 -75 -254z" />
    <glyph glyph-name="amacron" unicode="&#x101;" horiz-adv-x="1124" 
d="M858 1335v-149h-586v149h586zM551 1077q205 0 319.5 -91.5t114.5 -260.5v-725h-244v184q-31 -88 -104.5 -143t-179.5 -55q-165 0 -267 84t-102 223q0 263 387 336l264 49v39q0 201 -202 201q-108 0 -176 -58.5t-72 -171.5l-201 90q15 132 146 215.5t317 83.5zM520 141
q97 0 160 73t63 185v170l-217 -57q-178 -48 -178 -205q0 -166 172 -166z" />
    <glyph glyph-name="Abreve" unicode="&#x102;" horiz-adv-x="1402" 
d="M711 1511q-93 0 -157.5 16.5t-102.5 49.5t-57 74t-27 98h227q0 -133 117 -133q57 0 86.5 36t29.5 97h228q-8 -57 -27 -98t-57 -74t-102.5 -49.5t-157.5 -16.5zM1137 0l-150 410h-584l-149 -410h-244l527 1391h331l525 -1391h-256zM469 584h455l-152 413q-36 108 -76 256
q-44 -163 -75 -254z" />
    <glyph glyph-name="abreve" unicode="&#x103;" horiz-adv-x="1124" 
d="M565 1186q-179 0 -253.5 59.5t-90.5 177.5h228q0 -133 116 -133q57 0 87 36t30 97h227q-16 -118 -90.5 -177.5t-253.5 -59.5zM551 1077q205 0 319.5 -91.5t114.5 -260.5v-725h-244v184q-31 -88 -104.5 -143t-179.5 -55q-165 0 -267 84t-102 223q0 263 387 336l264 49v39
q0 201 -202 201q-108 0 -176 -58.5t-72 -171.5l-201 90q15 132 146 215.5t317 83.5zM520 141q97 0 160 73t63 185v170l-217 -57q-178 -48 -178 -205q0 -166 172 -166z" />
    <glyph glyph-name="Aogonek" unicode="&#x104;" horiz-adv-x="1402" 
d="M1393 0q-44 -39 -63 -82t-9 -73.5t36 -48.5t73.5 -9.5t101.5 45.5v-115q-63 -41 -124 -52t-105.5 5t-74.5 51t-38 80t11.5 98.5t66.5 100.5h-131l-150 410h-584l-149 -410h-244l527 1391h331zM469 584h455l-152 413q-36 108 -76 256q-44 -163 -75 -254z" />
    <glyph glyph-name="aogonek" unicode="&#x105;" horiz-adv-x="1124" 
d="M985 0q-44 -39 -63 -82t-9 -73.5t36 -48.5t73.5 -9.5t101.5 45.5v-115q-63 -41 -124 -52t-105.5 5t-74.5 51t-38 80t11.5 98.5t66.5 100.5h-119v184q-31 -88 -104.5 -143t-179.5 -55q-165 0 -267 84t-102 223q0 263 387 336l264 49v39q0 201 -202 201q-108 0 -176 -58.5
t-72 -171.5l-201 90q15 132 146 215.5t317 83.5q205 0 319.5 -91.5t114.5 -260.5v-725zM520 141q97 0 160 73t63 185v170l-217 -57q-178 -48 -178 -205q0 -166 172 -166z" />
    <glyph glyph-name="Cacute" unicode="&#x106;" horiz-adv-x="1396" 
d="M963 1749l-205 -238h-168l96 238h277zM1114 608l215 -139q-5 -146 -84.5 -257.5t-209 -169.5t-285.5 -58q-301 0 -481.5 189t-180.5 527q0 336 177 527.5t464 191.5q147 0 271.5 -51.5t202 -149.5t81.5 -223l-211 -139q3 190 -95.5 288.5t-248.5 98.5q-173 0 -275 -138.5
t-102 -404.5q0 -268 105.5 -404t292.5 -136q171 0 270.5 112.5t93.5 335.5z" />
    <glyph glyph-name="cacute" unicode="&#x107;" horiz-adv-x="1116" 
d="M831 1423l-204 -237h-168l96 237h276zM879 408l190 -121q-84 -303 -457 -303q-154 0 -274 70.5t-185 194.5t-65 279q0 248 141 398.5t383 150.5q154 0 265.5 -71t162.5 -201l-211 -121q-30 128 -82.5 181t-140.5 53q-119 0 -188.5 -102t-69.5 -288t72.5 -287.5
t212.5 -101.5q97 0 163.5 63.5t82.5 205.5z" />
    <glyph glyph-name="Cdotaccent" unicode="&#x10a;" horiz-adv-x="1396" 
d="M819 1747v-236h-244v236h244zM1114 608l215 -139q-5 -146 -84.5 -257.5t-209 -169.5t-285.5 -58q-301 0 -481.5 189t-180.5 527q0 336 177 527.5t464 191.5q147 0 271.5 -51.5t202 -149.5t81.5 -223l-211 -139q3 190 -95.5 288.5t-248.5 98.5q-173 0 -275 -138.5
t-102 -404.5q0 -268 105.5 -404t292.5 -136q171 0 270.5 112.5t93.5 335.5z" />
    <glyph glyph-name="cdotaccent" unicode="&#x10b;" horiz-adv-x="1116" 
d="M688 1421v-235h-244v235h244zM879 408l190 -121q-84 -303 -457 -303q-154 0 -274 70.5t-185 194.5t-65 279q0 248 141 398.5t383 150.5q154 0 265.5 -71t162.5 -201l-211 -121q-30 128 -82.5 181t-140.5 53q-119 0 -188.5 -102t-69.5 -288t72.5 -287.5t212.5 -101.5
q97 0 163.5 63.5t82.5 205.5z" />
    <glyph glyph-name="Ccaron" unicode="&#x10c;" horiz-adv-x="1396" 
d="M604 1511l-246 238h248l96 -133l97 133h248l-246 -238h-197zM1114 608l215 -139q-5 -146 -84.5 -257.5t-209 -169.5t-285.5 -58q-301 0 -481.5 189t-180.5 527q0 336 177 527.5t464 191.5q147 0 271.5 -51.5t202 -149.5t81.5 -223l-211 -139q3 190 -95.5 288.5
t-248.5 98.5q-173 0 -275 -138.5t-102 -404.5q0 -268 105.5 -404t292.5 -136q171 0 270.5 112.5t93.5 335.5z" />
    <glyph glyph-name="ccaron" unicode="&#x10d;" horiz-adv-x="1116" 
d="M473 1186l-246 237h248l96 -133l97 133h247l-245 -237h-197zM879 408l190 -121q-84 -303 -457 -303q-154 0 -274 70.5t-185 194.5t-65 279q0 248 141 398.5t383 150.5q154 0 265.5 -71t162.5 -201l-211 -121q-30 128 -82.5 181t-140.5 53q-119 0 -188.5 -102t-69.5 -288
t72.5 -287.5t212.5 -101.5q97 0 163.5 63.5t82.5 205.5z" />
    <glyph glyph-name="Dcaron" unicode="&#x10e;" horiz-adv-x="1398" 
d="M502 1511l-246 238h248l96 -133l96 133h248l-246 -238h-196zM582 1391q368 0 548.5 -177.5t180.5 -517.5q0 -342 -180.5 -519t-548.5 -177h-432v1391h432zM547 174q262 0 384 129t122 393q0 263 -122 392t-384 129h-150v-1043h150z" />
    <glyph glyph-name="dcaron" unicode="&#x10f;" horiz-adv-x="1591" 
d="M870 848v543h244v-1391h-244v215q-38 -115 -114 -172t-201 -57q-201 0 -329 150t-128 394q0 245 128 396t329 151q125 0 201 -57t114 -172zM1294 1389h277l-205 -238h-168zM614 141q118 0 190.5 106t72.5 283q0 178 -72.5 284t-190.5 106q-117 0 -186.5 -105t-69.5 -285
q0 -178 69.5 -283.5t186.5 -105.5z" />
    <glyph glyph-name="Dcroat" unicode="&#x110;" horiz-adv-x="1398" 
d="M582 1391q368 0 548.5 -177.5t180.5 -517.5q0 -342 -180.5 -519t-548.5 -177h-432v618h-91v175h91v598h432zM547 174q262 0 384 129t122 393q0 263 -122 392t-384 129h-150v-424h262v-175h-262v-444h150z" />
    <glyph glyph-name="dcroat" unicode="&#x111;" horiz-adv-x="1263" 
d="M1243 1253v-135h-129v-1118h-244v215q-38 -115 -114 -172t-201 -57q-201 0 -329 150t-128 394q0 245 128 396t329 151q125 0 201 -57t114 -172v270h-192v135h192v138h244v-138h129zM614 141q118 0 190.5 106t72.5 283q0 178 -72.5 284t-190.5 106q-117 0 -186.5 -105
t-69.5 -285q0 -178 69.5 -283.5t186.5 -105.5z" />
    <glyph glyph-name="Emacron" unicode="&#x112;" horiz-adv-x="1202" 
d="M938 1661v-150h-586v150h586zM1104 1217h-707v-424h670v-175h-670v-444h707v-174h-954v1391h954v-174z" />
    <glyph glyph-name="emacron" unicode="&#x113;" horiz-adv-x="1163" 
d="M879 1335v-149h-586v149h586zM889 367l190 -119q-63 -134 -177 -198t-290 -64q-232 0 -378 151.5t-146 392.5q0 247 138.5 397t365.5 150q226 0 352 -154t121 -411v-12h-725q8 -169 85.5 -264t207.5 -95q44 0 82 10.5t74.5 35t62.5 70.5t37 110zM592 920
q-219 0 -248 -297h459q-8 158 -56 227.5t-155 69.5z" />
    <glyph glyph-name="Edotaccent" unicode="&#x116;" horiz-adv-x="1202" 
d="M762 1747v-236h-244v236h244zM1104 1217h-707v-424h670v-175h-670v-444h707v-174h-954v1391h954v-174z" />
    <glyph glyph-name="edotaccent" unicode="&#x117;" horiz-adv-x="1163" 
d="M702 1421v-235h-243v235h243zM889 367l190 -119q-63 -134 -177 -198t-290 -64q-232 0 -378 151.5t-146 392.5q0 247 138.5 397t365.5 150q226 0 352 -154t121 -411v-12h-725q8 -169 85.5 -264t207.5 -95q44 0 82 10.5t74.5 35t62.5 70.5t37 110zM592 920
q-219 0 -248 -297h459q-8 158 -56 227.5t-155 69.5z" />
    <glyph glyph-name="Eogonek" unicode="&#x118;" horiz-adv-x="1202" 
d="M1104 0q-44 -39 -63 -82t-9 -73.5t36 -48.5t73.5 -9.5t101.5 45.5v-115q-63 -41 -124 -52t-105.5 5t-74.5 51t-38 80t11.5 98.5t66.5 100.5h-829v1391h954v-174h-707v-424h670v-175h-670v-444h707v-174z" />
    <glyph glyph-name="eogonek" unicode="&#x119;" horiz-adv-x="1163" 
d="M920 59q-35 -32 -52.5 -67t-16.5 -63t17.5 -48.5t43.5 -27.5t67.5 4t85.5 41v-115q-56 -37 -110.5 -49.5t-96 -3t-74 35.5t-48.5 62t-13.5 80.5t25.5 87.5q-68 -10 -136 -10q-232 0 -378 151.5t-146 392.5q0 247 138.5 397t365.5 150q226 0 352 -154t121 -411v-12h-725
q8 -169 85.5 -264t207.5 -95q44 0 82 10.5t74.5 35t62.5 70.5t37 110l190 -119q-60 -127 -159 -189zM592 920q-219 0 -248 -297h459q-8 158 -56 227.5t-155 69.5z" />
    <glyph glyph-name="Ecaron" unicode="&#x11a;" horiz-adv-x="1202" 
d="M547 1511l-246 238h248l96 -133l96 133h248l-246 -238h-196zM1104 1217h-707v-424h670v-175h-670v-444h707v-174h-954v1391h954v-174z" />
    <glyph glyph-name="ecaron" unicode="&#x11b;" horiz-adv-x="1163" 
d="M487 1186l-245 237h247l97 -133l96 133h248l-246 -237h-197zM889 367l190 -119q-63 -134 -177 -198t-290 -64q-232 0 -378 151.5t-146 392.5q0 247 138.5 397t365.5 150q226 0 352 -154t121 -411v-12h-725q8 -169 85.5 -264t207.5 -95q44 0 82 10.5t74.5 35t62.5 70.5
t37 110zM592 920q-219 0 -248 -297h459q-8 158 -56 227.5t-155 69.5z" />
    <glyph glyph-name="Gbreve" unicode="&#x11e;" horiz-adv-x="1474" 
d="M731 1511q-92 0 -157.5 21t-103 60.5t-56.5 84t-27 103.5h227q0 -133 117 -133q57 0 87 36.5t30 96.5h227q-8 -59 -27 -103.5t-56.5 -84t-103 -60.5t-157.5 -21zM1331 752v-754h-237v235q-34 -118 -129 -183.5t-256 -65.5q-134 0 -247.5 48.5t-196.5 138.5t-130 226
t-47 303q0 338 180 528.5t477 190.5q238 0 390 -106.5t176 -272.5l-209 -129q-10 161 -109.5 246.5t-247.5 85.5q-184 0 -291.5 -137.5t-107.5 -405.5q0 -263 104.5 -401.5t278.5 -138.5q339 0 365 360v58h-392v174h629z" />
    <glyph glyph-name="gbreve" unicode="&#x11f;" horiz-adv-x="1216" 
d="M612 1186q-92 0 -157.5 21t-103 60.5t-56.5 83.5t-27 103h228q0 -133 116 -133q57 0 87 36.5t30 96.5h227q-8 -59 -27 -103t-56.5 -83.5t-103 -60.5t-157.5 -21zM831 1047h244v-912q0 -454 -510 -454q-170 0 -288 64.5t-177 184.5l209 111q42 -123 105.5 -170t177.5 -47
q128 0 183.5 84t55.5 254v151q-80 -209 -305 -209q-189 0 -310.5 138.5t-121.5 347.5q0 212 123.5 349.5t317.5 137.5q216 0 296 -205v175zM594 260q103 0 171.5 95.5t68.5 234.5q0 140 -68.5 237t-171.5 97q-105 0 -172.5 -93t-67.5 -241q0 -146 67.5 -238t172.5 -92z" />
    <glyph glyph-name="Gdotaccent" unicode="&#x120;" horiz-adv-x="1474" 
d="M848 1747v-236h-244v236h244zM1331 752v-754h-237v235q-34 -118 -129 -183.5t-256 -65.5q-134 0 -247.5 48.5t-196.5 138.5t-130 226t-47 303q0 338 180 528.5t477 190.5q238 0 390 -106.5t176 -272.5l-209 -129q-10 161 -109.5 246.5t-247.5 85.5q-184 0 -291.5 -137.5
t-107.5 -405.5q0 -263 104.5 -401.5t278.5 -138.5q339 0 365 360v58h-392v174h629z" />
    <glyph glyph-name="gdotaccent" unicode="&#x121;" horiz-adv-x="1216" 
d="M729 1421v-235h-244v235h244zM831 1047h244v-912q0 -454 -510 -454q-170 0 -288 64.5t-177 184.5l209 111q42 -123 105.5 -170t177.5 -47q128 0 183.5 84t55.5 254v151q-80 -209 -305 -209q-189 0 -310.5 138.5t-121.5 347.5q0 212 123.5 349.5t317.5 137.5
q216 0 296 -205v175zM594 260q103 0 171.5 95.5t68.5 234.5q0 140 -68.5 237t-171.5 97q-105 0 -172.5 -93t-67.5 -241q0 -146 67.5 -238t172.5 -92z" />
    <glyph glyph-name="uni0122" unicode="&#x122;" horiz-adv-x="1474" 
d="M1331 752v-754h-237v235q-34 -118 -129 -183.5t-256 -65.5q-134 0 -247.5 48.5t-196.5 138.5t-130 226t-47 303q0 338 180 528.5t477 190.5q238 0 390 -106.5t176 -272.5l-209 -129q-10 161 -109.5 246.5t-247.5 85.5q-184 0 -291.5 -137.5t-107.5 -405.5
q0 -263 104.5 -401.5t278.5 -138.5q339 0 365 360v58h-392v174h629zM512 -373l96 238h277l-205 -238h-168z" />
    <glyph glyph-name="uni0123" unicode="&#x123;" horiz-adv-x="1216" 
d="M844 1423l-96 -237h-277l205 237h168zM831 1047h244v-912q0 -454 -510 -454q-170 0 -288 64.5t-177 184.5l209 111q42 -123 105.5 -170t177.5 -47q128 0 183.5 84t55.5 254v151q-80 -209 -305 -209q-189 0 -310.5 138.5t-121.5 347.5q0 212 123.5 349.5t317.5 137.5
q216 0 296 -205v175zM594 260q103 0 171.5 95.5t68.5 234.5q0 140 -68.5 237t-171.5 97q-105 0 -172.5 -93t-67.5 -241q0 -146 67.5 -238t172.5 -92z" />
    <glyph glyph-name="Hbar" unicode="&#x126;" horiz-adv-x="1433" 
d="M1382 1174v-175h-108v-999h-248v618h-618v-618h-248v999h-109v175h109v217h248v-217h618v217h248v-217h108zM1026 793v206h-618v-206h618z" />
    <glyph glyph-name="hbar" unicode="&#x127;" horiz-adv-x="1228" 
d="M702 1079q172 0 270.5 -96.5t98.5 -277.5v-705h-244v688q0 221 -202 221q-115 0 -172.5 -74.5t-59.5 -209.5v-625h-243v1118h-130v135h130v138h243v-138h193v-135h-193v-264q36 115 110 170t199 55z" />
    <glyph glyph-name="Itilde" unicode="&#x128;" horiz-adv-x="544" 
d="M383 1520q-51 0 -124.5 39.5t-106.5 39.5q-68 0 -68 -69h-125q15 107 64 160t139 53q51 0 125 -40t106 -40q68 0 68 70h125q-15 -107 -64 -160t-139 -53zM150 0v1391h245v-1391h-245z" />
    <glyph glyph-name="itilde" unicode="&#x129;" horiz-adv-x="544" 
d="M383 1174q-51 0 -124.5 39.5t-106.5 39.5q-68 0 -68 -69h-125q15 107 64 160t139 53q51 0 125 -40t106 -40q68 0 68 69h125q-15 -107 -64 -159.5t-139 -52.5zM152 0v1047h241v-1047h-241z" />
    <glyph glyph-name="Imacron" unicode="&#x12a;" horiz-adv-x="544" 
d="M-16 1661h585v-150h-585v150zM150 0v1391h245v-1391h-245z" />
    <glyph glyph-name="imacron" unicode="&#x12b;" horiz-adv-x="544" 
d="M-16 1315h585v-150h-585v150zM152 0v1047h241v-1047h-241z" />
    <glyph glyph-name="Iogonek" unicode="&#x12e;" horiz-adv-x="544" 
d="M395 0q-37 -33 -56 -68.5t-18.5 -64.5t16.5 -50.5t43.5 -29t68.5 3t86 41.5v-115q-63 -41 -124 -52t-105.5 5t-74.5 51t-38.5 80t11 98.5t66.5 100.5h-120v1391h245v-1391z" />
    <glyph glyph-name="iogonek" unicode="&#x12f;" horiz-adv-x="544" 
d="M393 1401v-236h-243v236h243zM393 0q-44 -39 -63 -82t-9 -73.5t36 -48.5t73.5 -9.5t101.5 45.5v-115q-63 -41 -124 -52t-105.5 5t-74.5 51t-38 80t11.5 98.5t66.5 100.5h-116v1047h241v-1047z" />
    <glyph glyph-name="Idotaccent" unicode="&#x130;" horiz-adv-x="544" 
d="M150 1511v236h243v-236h-243zM150 0v1391h245v-1391h-245z" />
    <glyph glyph-name="dotlessi" unicode="&#x131;" horiz-adv-x="544" 
d="M152 0v1047h241v-1047h-241z" />
    <glyph glyph-name="uni0136" unicode="&#x136;" horiz-adv-x="1296" 
d="M150 1391h247v-1391h-247v1391zM682 723l623 -723h-316l-592 696l602 695h275zM432 -373l96 238h277l-205 -238h-168z" />
    <glyph glyph-name="uni0137" unicode="&#x137;" horiz-adv-x="1105" 
d="M631 610l448 -610h-295l-391 567v-567h-243v1391h243v-809l441 465h219zM338 -373l96 238h277l-205 -238h-168z" />
    <glyph glyph-name="Lacute" unicode="&#x139;" horiz-adv-x="1130" 
d="M532 1749l-204 -238h-168l96 238h276zM397 174h666v-174h-913v1391h247v-1217z" />
    <glyph glyph-name="lacute" unicode="&#x13a;" horiz-adv-x="544" 
d="M260 1749h277l-205 -238h-168zM152 0v1391h241v-1391h-241z" />
    <glyph glyph-name="uni013B" unicode="&#x13b;" horiz-adv-x="1130" 
d="M397 174h666v-174h-913v1391h247v-1217zM350 -373l96 238h277l-205 -238h-168z" />
    <glyph glyph-name="uni013C" unicode="&#x13c;" horiz-adv-x="544" 
d="M152 0v1391h241v-1391h-241zM154 -135h276l-205 -238h-168z" />
    <glyph glyph-name="Lcaron" unicode="&#x13d;" horiz-adv-x="1130" 
d="M174 1511l-246 238h248l96 -133l97 133h247l-245 -238h-197zM397 174h666v-174h-913v1391h247v-1217z" />
    <glyph glyph-name="lcaron" unicode="&#x13e;" horiz-adv-x="544" 
d="M178 1511l-246 238h248l96 -133l97 133h248l-246 -238h-197zM152 0v1391h241v-1391h-241z" />
    <glyph glyph-name="Ldot" unicode="&#x13f;" horiz-adv-x="1130" 
d="M397 174h666v-174h-913v1391h247v-1217zM868 903v-268h-268v268h268z" />
    <glyph glyph-name="ldot" unicode="&#x140;" horiz-adv-x="911" 
d="M152 0v1391h241v-1391h-241zM539 553v268h268v-268h-268z" />
    <glyph glyph-name="Lslash" unicode="&#x141;" horiz-adv-x="1150" 
d="M418 174h665v-174h-913v567l-170 -71v178l170 71v646h248v-539l162 68v-179l-162 -67v-500z" />
    <glyph glyph-name="lslash" unicode="&#x142;" horiz-adv-x="585" 
d="M545 948v-166l-133 -61v-721h-242v610l-129 -59v166l129 59v615h242v-504z" />
    <glyph glyph-name="Nacute" unicode="&#x143;" horiz-adv-x="1488" 
d="M1008 1749l-205 -238h-168l96 238h277zM1110 1391h229v-1391h-364l-477 913q-48 94 -119 289v-1202h-229v1391h364l461 -885q64 -123 135 -309v1194z" />
    <glyph glyph-name="nacute" unicode="&#x144;" horiz-adv-x="1210" 
d="M868 1423l-204 -237h-168l96 237h276zM702 1077q172 0 270.5 -95.5t98.5 -276.5v-705h-242v688q0 113 -51 167t-153 54q-116 0 -174 -75t-60 -209v-625h-241v1047h241v-201q34 118 108.5 174.5t202.5 56.5z" />
    <glyph glyph-name="uni0145" unicode="&#x145;" horiz-adv-x="1488" 
d="M1110 1391h229v-1391h-364l-477 913q-48 94 -119 289v-1202h-229v1391h364l461 -885q64 -123 135 -309v1194zM528 -373l97 238h276l-205 -238h-168z" />
    <glyph glyph-name="uni0146" unicode="&#x146;" horiz-adv-x="1210" 
d="M702 1077q172 0 270.5 -95.5t98.5 -276.5v-705h-242v688q0 113 -51 167t-153 54q-116 0 -174 -75t-60 -209v-625h-241v1047h241v-201q34 118 108.5 174.5t202.5 56.5zM389 -373l96 238h277l-205 -238h-168z" />
    <glyph glyph-name="Ncaron" unicode="&#x147;" horiz-adv-x="1488" 
d="M649 1511l-246 238h248l97 -133l96 133h248l-246 -238h-197zM1110 1391h229v-1391h-364l-477 913q-48 94 -119 289v-1202h-229v1391h364l461 -885q64 -123 135 -309v1194z" />
    <glyph glyph-name="ncaron" unicode="&#x148;" horiz-adv-x="1210" 
d="M510 1186l-246 237h248l96 -133l97 133h247l-245 -237h-197zM702 1077q172 0 270.5 -95.5t98.5 -276.5v-705h-242v688q0 113 -51 167t-153 54q-116 0 -174 -75t-60 -209v-625h-241v1047h241v-201q34 118 108.5 174.5t202.5 56.5z" />
    <glyph glyph-name="Eng" unicode="&#x14a;" horiz-adv-x="1488" 
d="M1110 1391h229v-1432q0 -120 -105.5 -199t-289.5 -79q-189 0 -284 88t-95 231h230q0 -74 45.5 -108.5t113.5 -34.5q69 0 112.5 34t43.5 109l-575 913q-77 149 -156 316v-1229h-229v1391h364l408 -656q23 -37 44.5 -76t42 -83.5t33.5 -74t35.5 -84t32.5 -77.5v1051z" />
    <glyph glyph-name="eng" unicode="&#x14b;" horiz-adv-x="1210" 
d="M702 1077q172 0 270.5 -95.5t98.5 -276.5v-791q0 -111 -74.5 -172t-205.5 -61q-91 0 -144 36v213q48 -45 101 -45q81 0 81 115v688q0 113 -51 167t-153 54q-116 0 -174 -75t-60 -209v-625h-241v1047h241v-201q34 118 108.5 174.5t202.5 56.5z" />
    <glyph glyph-name="Omacron" unicode="&#x14c;" horiz-adv-x="1474" 
d="M449 1661h585v-150h-585v150zM737 -16q-298 0 -473.5 193t-175.5 523q0 331 175.5 525t473.5 194t473.5 -194t175.5 -525q0 -330 -175.5 -523t-473.5 -193zM737 158q182 0 286.5 143.5t104.5 398.5q0 257 -104.5 401t-286.5 144t-286.5 -144t-104.5 -401
q0 -255 104.5 -398.5t286.5 -143.5z" />
    <glyph glyph-name="omacron" unicode="&#x14d;" horiz-adv-x="1220" 
d="M322 1335h585v-149h-585v149zM610 -14q-239 0 -380.5 147.5t-141.5 396.5q0 251 141.5 399t380.5 148t381 -148.5t142 -398.5q0 -249 -142 -396.5t-381 -147.5zM610 141q127 0 195.5 101.5t68.5 287.5q0 188 -68.5 289t-195.5 101t-195.5 -101t-68.5 -289
q0 -186 68.5 -287.5t195.5 -101.5z" />
    <glyph glyph-name="Ohungarumlaut" unicode="&#x150;" horiz-adv-x="1474" 
d="M463 1749h276l-204 -238h-168zM842 1749h276l-205 -238h-168zM737 -16q-298 0 -473.5 193t-175.5 523q0 331 175.5 525t473.5 194t473.5 -194t175.5 -525q0 -330 -175.5 -523t-473.5 -193zM737 158q182 0 286.5 143.5t104.5 398.5q0 257 -104.5 401t-286.5 144
t-286.5 -144t-104.5 -401q0 -255 104.5 -398.5t286.5 -143.5z" />
    <glyph glyph-name="ohungarumlaut" unicode="&#x151;" horiz-adv-x="1220" 
d="M336 1423h276l-204 -237h-168zM715 1423h276l-205 -237h-168zM610 -14q-239 0 -380.5 147.5t-141.5 396.5q0 251 141.5 399t380.5 148t381 -148.5t142 -398.5q0 -249 -142 -396.5t-381 -147.5zM610 141q127 0 195.5 101.5t68.5 287.5q0 188 -68.5 289t-195.5 101
t-195.5 -101t-68.5 -289q0 -186 68.5 -287.5t195.5 -101.5z" />
    <glyph glyph-name="OE" unicode="&#x152;" horiz-adv-x="2148" 
d="M2050 1217h-674v-424h637v-175h-637v-444h674v-174h-922v197q-131 -213 -391 -213q-298 0 -473.5 193t-175.5 523q0 331 175.5 525t473.5 194q260 0 391 -213v185h922v-174zM737 158q193 0 292 141t99 401q0 261 -99 403t-292 142q-182 0 -286.5 -144t-104.5 -401
q0 -255 104.5 -398.5t286.5 -143.5z" />
    <glyph glyph-name="oe" unicode="&#x153;" horiz-adv-x="1955" 
d="M1681 367l191 -119q-63 -134 -177 -198t-290 -64q-248 0 -393 172q-68 -84 -170.5 -128t-231.5 -44q-239 0 -380.5 147.5t-141.5 396.5q0 251 141.5 399t380.5 148q257 0 398 -166q66 79 162 122.5t214 43.5q226 0 352.5 -154t121.5 -411v-12h-725q8 -169 85 -264
t207 -95q44 0 82 10.5t74.5 35t62.5 70.5t37 110zM616 141q126 0 198.5 97t72.5 274v18q-5 188 -74.5 289t-196.5 101q-128 0 -199 -101.5t-71 -288.5q0 -185 71 -287t199 -102zM1384 920q-218 0 -247 -297h458q-8 158 -56 227.5t-155 69.5z" />
    <glyph glyph-name="Racute" unicode="&#x154;" horiz-adv-x="1392" 
d="M961 1749l-205 -238h-168l96 238h277zM1169 508q53 -279 85 -378.5t67 -129.5h-285q-9 17 -18 39t-15.5 42.5t-14 54.5t-12 56t-11.5 65.5t-10.5 65.5t-11.5 74t-11 74q-12 84 -60.5 114.5t-173.5 30.5h-301v-616h-247v1391h614q239 0 363 -93t124 -278
q0 -115 -70.5 -198.5t-201.5 -116.5q79 -16 126 -62.5t64 -134.5zM750 791q116 0 183.5 52.5t67.5 166.5q0 113 -66 160t-185 47h-353v-426h353z" />
    <glyph glyph-name="racute" unicode="&#x155;" horiz-adv-x="970" 
d="M750 1423l-205 -237h-168l96 237h277zM645 1077q133 0 207.5 -92t60.5 -268l-213 -129q4 104 -2 171t-24 99t-38.5 42.5t-53.5 10.5q-78 0 -133.5 -110.5t-55.5 -335.5v-465h-243v1047h243l-6 -318q40 348 258 348z" />
    <glyph glyph-name="uni0156" unicode="&#x156;" horiz-adv-x="1392" 
d="M1169 508q53 -279 85 -378.5t67 -129.5h-285q-9 17 -18 39t-15.5 42.5t-14 54.5t-12 56t-11.5 65.5t-10.5 65.5t-11.5 74t-11 74q-12 84 -60.5 114.5t-173.5 30.5h-301v-616h-247v1391h614q239 0 363 -93t124 -278q0 -115 -70.5 -198.5t-201.5 -116.5q79 -16 126 -62.5
t64 -134.5zM750 791q116 0 183.5 52.5t67.5 166.5q0 113 -66 160t-185 47h-353v-426h353zM481 -373l97 238h276l-205 -238h-168z" />
    <glyph glyph-name="uni0157" unicode="&#x157;" horiz-adv-x="970" 
d="M645 1077q133 0 207.5 -92t60.5 -268l-213 -129q4 104 -2 171t-24 99t-38.5 42.5t-53.5 10.5q-78 0 -133.5 -110.5t-55.5 -335.5v-465h-243v1047h243l-6 -318q40 348 258 348zM45 -373l96 238h277l-205 -238h-168z" />
    <glyph glyph-name="Rcaron" unicode="&#x158;" horiz-adv-x="1392" 
d="M602 1511l-246 238h248l96 -133l97 133h247l-245 -238h-197zM1169 508q53 -279 85 -378.5t67 -129.5h-285q-9 17 -18 39t-15.5 42.5t-14 54.5t-12 56t-11.5 65.5t-10.5 65.5t-11.5 74t-11 74q-12 84 -60.5 114.5t-173.5 30.5h-301v-616h-247v1391h614q239 0 363 -93
t124 -278q0 -115 -70.5 -198.5t-201.5 -116.5q79 -16 126 -62.5t64 -134.5zM750 791q116 0 183.5 52.5t67.5 166.5q0 113 -66 160t-185 47h-353v-426h353z" />
    <glyph glyph-name="rcaron" unicode="&#x159;" horiz-adv-x="970" 
d="M391 1186l-246 237h248l96 -133l97 133h248l-246 -237h-197zM645 1077q133 0 207.5 -92t60.5 -268l-213 -129q4 104 -2 171t-24 99t-38.5 42.5t-53.5 10.5q-78 0 -133.5 -110.5t-55.5 -335.5v-465h-243v1047h243l-6 -318q40 348 258 348z" />
    <glyph glyph-name="Sacute" unicode="&#x15a;" horiz-adv-x="1337" 
d="M932 1749l-205 -238h-168l96 238h277zM698 842q103 -27 173.5 -51.5t136.5 -61t105 -80.5t62 -106t23 -142q0 -190 -139.5 -303.5t-392.5 -113.5q-232 0 -385 108t-170 297l213 137q-1 -185 101.5 -280.5t262.5 -95.5q264 0 264 212q0 96 -69.5 149.5t-247.5 98.5
q-254 63 -359.5 162t-105.5 260q0 175 142 281t388 106q132 0 245 -44t189.5 -130t92.5 -198l-207 -129q-6 164 -100 247.5t-242 83.5q-124 0 -197 -46.5t-73 -123.5q0 -90 59.5 -141.5t230.5 -95.5z" />
    <glyph glyph-name="sacute" unicode="&#x15b;" horiz-adv-x="1034" 
d="M780 1423l-205 -237h-167l96 237h276zM555 643q207 -45 293 -119t86 -198q0 -157 -107.5 -248.5t-308.5 -91.5q-159 0 -283 77.5t-147 196.5l170 105q15 -106 89.5 -165t184.5 -59q183 0 183 127q0 69 -44.5 103.5t-172.5 60.5q-200 40 -289.5 117.5t-89.5 212.5
q0 141 105 229.5t321 89.5q161 1 271 -74t130 -198l-184 -70q-15 93 -80 141t-166 48q-89 0 -137.5 -33.5t-48.5 -95.5q0 -66 42.5 -95.5t182.5 -60.5z" />
    <glyph glyph-name="Scedilla" unicode="&#x15e;" horiz-adv-x="1337" 
d="M698 842q103 -27 173.5 -51.5t136.5 -61t105 -80.5t62 -106t23 -142q0 -178 -124.5 -290.5t-350.5 -124.5l-29 -82q197 -21 197 -148q0 -162 -248 -162q-76 0 -197 31v125q73 -41 181 -41q75 0 75 64q0 16 -7.5 28t-28.5 25t-68 19t-117 5l92 138q-197 22 -322 127.5
t-140 273.5l213 137q-1 -185 101.5 -280.5t262.5 -95.5q264 0 264 212q0 96 -69.5 149.5t-247.5 98.5q-254 63 -359.5 162t-105.5 260q0 175 142 281t388 106q132 0 245 -44t189.5 -130t92.5 -198l-207 -129q-6 164 -100 247.5t-242 83.5q-124 0 -197 -46.5t-73 -123.5
q0 -90 59.5 -141.5t230.5 -95.5z" />
    <glyph glyph-name="scedilla" unicode="&#x15f;" horiz-adv-x="1034" 
d="M555 643q207 -45 293 -119t86 -198q0 -134 -78.5 -221.5t-228.5 -110.5l-35 -78q81 -12 121.5 -48t40.5 -89q0 -68 -57 -103.5t-150 -35.5q-71 0 -164 26v113q61 -37 145 -37q34 0 51 15t17 40q0 76 -184 72l88 117q-153 5 -271 82t-141 192l170 105q15 -106 89.5 -165
t184.5 -59q183 0 183 127q0 69 -44.5 103.5t-172.5 60.5q-200 40 -289.5 117.5t-89.5 212.5q0 141 105 229.5t321 89.5q161 1 271 -74t130 -198l-184 -70q-15 93 -80 141t-166 48q-89 0 -137.5 -33.5t-48.5 -95.5q0 -66 42.5 -95.5t182.5 -60.5z" />
    <glyph glyph-name="Scaron" unicode="&#x160;" horiz-adv-x="1337" 
d="M573 1511l-245 238h247l97 -133l96 133h248l-246 -238h-197zM698 842q103 -27 173.5 -51.5t136.5 -61t105 -80.5t62 -106t23 -142q0 -190 -139.5 -303.5t-392.5 -113.5q-232 0 -385 108t-170 297l213 137q-1 -185 101.5 -280.5t262.5 -95.5q264 0 264 212
q0 96 -69.5 149.5t-247.5 98.5q-254 63 -359.5 162t-105.5 260q0 175 142 281t388 106q132 0 245 -44t189.5 -130t92.5 -198l-207 -129q-6 164 -100 247.5t-242 83.5q-124 0 -197 -46.5t-73 -123.5q0 -90 59.5 -141.5t230.5 -95.5z" />
    <glyph glyph-name="scaron" unicode="&#x161;" horiz-adv-x="1034" 
d="M422 1186l-246 237h248l96 -133l96 133h248l-246 -237h-196zM555 643q207 -45 293 -119t86 -198q0 -157 -107.5 -248.5t-308.5 -91.5q-159 0 -283 77.5t-147 196.5l170 105q15 -106 89.5 -165t184.5 -59q183 0 183 127q0 69 -44.5 103.5t-172.5 60.5
q-200 40 -289.5 117.5t-89.5 212.5q0 141 105 229.5t321 89.5q161 1 271 -74t130 -198l-184 -70q-15 93 -80 141t-166 48q-89 0 -137.5 -33.5t-48.5 -95.5q0 -66 42.5 -95.5t182.5 -60.5z" />
    <glyph glyph-name="uni0162" unicode="&#x162;" horiz-adv-x="1187" 
d="M721 0h-68l-32 -96q196 -20 196 -148q0 -162 -248 -162q-75 0 -196 31v125q73 -41 180 -41q76 0 76 64q0 16 -7.5 28t-28.5 25t-68 19t-117 5l98 150h-33v1217h-446v174h1134v-174h-440v-1217z" />
    <glyph glyph-name="uni0163" unicode="&#x163;" horiz-adv-x="919" 
d="M643 176q124 0 207 94v-209q-81 -63 -229 -69l-35 -76q81 -12 121.5 -48t40.5 -89q0 -68 -57 -103.5t-150 -35.5q-71 0 -164 26v113q61 -37 145 -37q34 0 51 15t17 40q0 76 -184 72l96 127q-126 21 -185 99.5t-59 193.5v614h-231l47 144h184v253h244v-253h348l-45 -144
h-303v-565q0 -83 29 -122.5t112 -39.5z" />
    <glyph glyph-name="Tcaron" unicode="&#x164;" horiz-adv-x="1187" 
d="M500 1511l-246 238h248l96 -133l96 133h248l-246 -238h-196zM1161 1391v-174h-440v-1217h-248v1217h-446v174h1134z" />
    <glyph glyph-name="tcaron" unicode="&#x165;" horiz-adv-x="919" 
d="M963 1382l-205 -237h-168l96 237h277zM805 903h-303v-565q0 -83 29 -122.5t112 -39.5q124 0 207 94v-209q-40 -31 -111 -51t-155 -20q-169 0 -247.5 82.5t-78.5 216.5v614h-231l47 144h184v253h244v-253h348z" />
    <glyph glyph-name="Tbar" unicode="&#x166;" horiz-adv-x="1228" 
d="M1161 1217h-440v-285h289v-174h-289v-758h-248v758h-295v174h295v285h-446v174h1134v-174z" />
    <glyph glyph-name="tbar" unicode="&#x167;" horiz-adv-x="919" 
d="M643 176q124 0 207 94v-209q-40 -31 -111 -51t-155 -20q-169 0 -247.5 82.5t-78.5 216.5v313h-186v135h186v166h-231l47 144h184v253h244v-253h348l-45 -144h-303v-166h258v-135h-258v-264q0 -83 29 -122.5t112 -39.5z" />
    <glyph glyph-name="Utilde" unicode="&#x168;" horiz-adv-x="1353" 
d="M555 1599q-68 0 -68 -69h-125q15 107 64 160t139 53q51 0 125.5 -40t106.5 -40q67 0 67 70h125q-15 -107 -64 -160t-139 -53q-51 0 -124.5 39.5t-106.5 39.5zM969 1391h245v-912q0 -254 -130.5 -374.5t-405.5 -120.5t-407 121t-132 374v912h246l2 -897q0 -176 66.5 -255
t224.5 -79q156 0 222.5 79.5t66.5 254.5z" />
    <glyph glyph-name="utilde" unicode="&#x169;" horiz-adv-x="1210" 
d="M483 1274q-67 0 -67 -70h-125q15 107 64 160t139 53q51 0 125 -40t106 -40q68 0 68 70h125q-15 -107 -64 -160t-139 -53q-51 0 -125 40t-107 40zM817 1047h244v-1047h-244v217q-37 -119 -113.5 -176t-205.5 -57q-173 0 -266 87t-93 267v709h244v-676q0 -219 203 -219
q115 0 172 73.5t59 208.5v613z" />
    <glyph glyph-name="Umacron" unicode="&#x16a;" horiz-adv-x="1353" 
d="M973 1661v-150h-586v150h586zM969 1391h245v-912q0 -254 -130.5 -374.5t-405.5 -120.5t-407 121t-132 374v912h246l2 -897q0 -176 66.5 -255t224.5 -79q156 0 222.5 79.5t66.5 254.5z" />
    <glyph glyph-name="umacron" unicode="&#x16b;" horiz-adv-x="1210" 
d="M901 1335v-149h-586v149h586zM817 1047h244v-1047h-244v217q-37 -119 -113.5 -176t-205.5 -57q-173 0 -266 87t-93 267v709h244v-676q0 -219 203 -219q115 0 172 73.5t59 208.5v613z" />
    <glyph glyph-name="Uring" unicode="&#x16e;" horiz-adv-x="1353" 
d="M676 1495q-91 0 -146 54t-55 143q0 85 55 136.5t146 51.5t146 -52t55 -138q0 -88 -55 -141.5t-146 -53.5zM676 1759q-32 0 -50 -18.5t-18 -50.5q0 -34 18 -54t50 -20t49.5 20t17.5 54q0 32 -17.5 50.5t-49.5 18.5zM969 1391h245v-912q0 -254 -130.5 -374.5t-405.5 -120.5
t-407 121t-132 374v912h246l2 -897q0 -176 66.5 -255t224.5 -79q156 0 222.5 79.5t66.5 254.5z" />
    <glyph glyph-name="uring" unicode="&#x16f;" horiz-adv-x="1210" 
d="M604 1169q-91 0 -146 54t-55 143q0 85 55 136.5t146 51.5t146 -52t55 -138q0 -88 -55 -141.5t-146 -53.5zM604 1434q-32 0 -49.5 -18.5t-17.5 -51.5q0 -34 17.5 -54t49.5 -20t50 20t18 54q0 32 -18 51t-50 19zM817 1047h244v-1047h-244v217q-37 -119 -113.5 -176
t-205.5 -57q-173 0 -266 87t-93 267v709h244v-676q0 -219 203 -219q115 0 172 73.5t59 208.5v613z" />
    <glyph glyph-name="Uhungarumlaut" unicode="&#x170;" horiz-adv-x="1353" 
d="M678 1749l-205 -238h-168l96 238h277zM1057 1749l-205 -238h-168l96 238h277zM969 1391h245v-912q0 -254 -130.5 -374.5t-405.5 -120.5t-407 121t-132 374v912h246l2 -897q0 -176 66.5 -255t224.5 -79q156 0 222.5 79.5t66.5 254.5z" />
    <glyph glyph-name="uhungarumlaut" unicode="&#x171;" horiz-adv-x="1210" 
d="M606 1423l-205 -237h-168l97 237h276zM985 1423l-205 -237h-168l97 237h276zM817 1047h244v-1047h-244v217q-37 -119 -113.5 -176t-205.5 -57q-173 0 -266 87t-93 267v709h244v-676q0 -219 203 -219q115 0 172 73.5t59 208.5v613z" />
    <glyph glyph-name="Uogonek" unicode="&#x172;" horiz-adv-x="1353" 
d="M969 1391h245v-912q0 -232 -109.5 -352t-338.5 -139q-38 -39 -52.5 -80t-3 -69.5t38 -44.5t73 -7t98.5 45v-115q-61 -40 -121 -51.5t-104 3t-74.5 47t-40.5 75.5t5 94.5t56 98.5q-256 7 -379 128.5t-123 366.5v912h246l2 -897q0 -176 66.5 -255t224.5 -79
q156 0 222.5 79.5t66.5 254.5z" />
    <glyph glyph-name="uogonek" unicode="&#x173;" horiz-adv-x="1210" 
d="M1061 0q-44 -39 -63 -82t-9 -73.5t36 -48.5t73.5 -9.5t101.5 45.5v-115q-63 -41 -124 -52t-105.5 5t-74.5 51t-38 80t11.5 98.5t66.5 100.5h-119v217q-37 -119 -113.5 -176t-205.5 -57q-173 0 -266 87t-93 267v709h244v-676q0 -219 203 -219q115 0 172 73.5t59 208.5v613
h244v-1047z" />
    <glyph glyph-name="Wcircumflex" unicode="&#x174;" horiz-adv-x="1980" 
d="M993 1645l-96 -134h-248l246 238h197l245 -238h-247zM1690 1391h270l-387 -1391h-350l-181 803q-20 112 -51 411q-30 -299 -53 -415l-180 -799h-350l-388 1391h271l239 -942q36 -138 58 -289q17 163 43 286l207 945h305l205 -938q30 -146 45 -295q21 149 59 297z" />
    <glyph glyph-name="wcircumflex" unicode="&#x175;" horiz-adv-x="1546" 
d="M776 1319l-96 -133h-248l246 237h196l246 -237h-248zM1280 1047h240l-285 -1047h-287l-145 690q-24 123 -29 215q-10 -114 -29 -213l-147 -692h-287l-284 1047h239l154 -625q27 -105 45 -268q14 153 37 266l129 627h284l134 -641q22 -111 32 -238q12 120 39 240z" />
    <glyph glyph-name="Ycircumflex" unicode="&#x176;" horiz-adv-x="1261" 
d="M635 1645l-96 -134h-248l246 238h196l246 -238h-248zM1255 1391l-499 -791v-600h-246v592l-504 799h279l352 -588l358 588h260z" />
    <glyph glyph-name="ycircumflex" unicode="&#x177;" horiz-adv-x="1099" 
d="M553 1319l-96 -133h-248l246 237h196l246 -237h-248zM811 1044h242l-518 -1351h-234l164 366l-418 988h248l221 -564q34 -87 55 -151z" />
    <glyph glyph-name="Ydieresis" unicode="&#x178;" horiz-adv-x="1261" 
d="M567 1726v-215h-243v215h243zM934 1726v-215h-244v215h244zM1255 1391l-499 -791v-600h-246v592l-504 799h279l352 -588l358 588h260z" />
    <glyph glyph-name="Zacute" unicode="&#x179;" horiz-adv-x="1218" 
d="M872 1749l-204 -238h-168l96 238h276zM369 176h782v-176h-1063v176l754 1038h-774v177h1054v-177z" />
    <glyph glyph-name="zacute" unicode="&#x17a;" horiz-adv-x="991" 
d="M760 1423l-205 -237h-168l96 237h277zM360 154h574v-154h-846v154l559 739h-579v154h854v-154z" />
    <glyph glyph-name="Zdotaccent" unicode="&#x17b;" horiz-adv-x="1218" 
d="M729 1747v-236h-244v236h244zM369 176h782v-176h-1063v176l754 1038h-774v177h1054v-177z" />
    <glyph glyph-name="zdotaccent" unicode="&#x17c;" horiz-adv-x="991" 
d="M616 1421v-235h-243v235h243zM360 154h574v-154h-846v154l559 739h-579v154h854v-154z" />
    <glyph glyph-name="Zcaron" unicode="&#x17d;" horiz-adv-x="1218" 
d="M514 1511l-246 238h248l96 -133l97 133h247l-245 -238h-197zM369 176h782v-176h-1063v176l754 1038h-774v177h1054v-177z" />
    <glyph glyph-name="zcaron" unicode="&#x17e;" horiz-adv-x="991" 
d="M401 1186l-245 237h247l97 -133l96 133h248l-246 -237h-197zM360 154h574v-154h-846v154l559 739h-579v154h854v-154z" />
    <glyph glyph-name="uni018F" unicode="&#x18f;" horiz-adv-x="1388" 
d="M686 1421q281 0 447.5 -193t166.5 -540q0 -337 -161.5 -519.5t-450.5 -182.5q-304 0 -457 195t-143 585h950q-6 131 -33.5 224.5t-75.5 149t-111 80.5t-146 25q-161 0 -260.5 -97.5t-96.5 -289.5l-219 139q41 208 193 316t397 108zM688 162q168 0 252.5 100.5t97.5 329.5
h-710q15 -223 102 -326.5t258 -103.5z" />
    <glyph glyph-name="florin" unicode="&#x192;" horiz-adv-x="1214" 
d="M1006 1241q-42 0 -73.5 -8.5t-56 -31.5t-40.5 -49.5t-30.5 -75.5t-24.5 -95t-23 -123h329v-174h-360q-51 -295 -82 -396q-50 -166 -142 -232q-97 -70 -286 -70q-61 0 -100 13.5t-76 39.5v182q73 -59 168 -59q35 0 63.5 7t52 25.5t41 38.5t33.5 58t27 71.5t23.5 91.5
t21 105.5t21.5 124.5h-316v174h346q16 90 29.5 151.5t33.5 125t43.5 104t57.5 77.5t78 57.5t102 32t131 11.5q103 0 177 -53v-182q-73 59 -168 59z" />
    <glyph glyph-name="Ohorn" unicode="&#x1a0;" horiz-adv-x="1474" 
d="M1194 1243q192 -195 192 -543q0 -330 -175.5 -523t-473.5 -193t-473.5 193t-175.5 523q0 331 175.5 525t473.5 194q111 0 209 -28h80q48 0 76 5t42 20t17.5 32t3.5 49v78h166v-90q0 -38 -1.5 -62t-9 -56.5t-21.5 -53.5t-40.5 -40.5t-64.5 -29.5zM737 158
q182 0 286.5 143.5t104.5 398.5q0 257 -104.5 401t-286.5 144t-286.5 -144t-104.5 -401q0 -255 104.5 -398.5t286.5 -143.5z" />
    <glyph glyph-name="ohorn" unicode="&#x1a1;" horiz-adv-x="1220" 
d="M1004 915q129 -144 129 -385q0 -249 -142 -396.5t-381 -147.5t-380.5 147.5t-141.5 396.5q0 251 141.5 399t380.5 148q109 0 195 -30q84 1 106.5 23t22.5 83v78h166v-90q0 -86 -18 -141.5t-78 -84.5zM610 141q127 0 195.5 101.5t68.5 287.5q0 188 -68.5 289t-195.5 101
t-195.5 -101t-68.5 -289q0 -186 68.5 -287.5t195.5 -101.5z" />
    <glyph glyph-name="Uhorn" unicode="&#x1af;" horiz-adv-x="1540" 
d="M1354 1575h166v-90q0 -63 -7.5 -101.5t-35 -81.5t-93 -59.5t-170.5 -7.5v-756q0 -254 -130.5 -374.5t-405.5 -120.5t-407 121t-132 374v912h246l2 -897q0 -176 66.5 -255t224.5 -79q156 0 222.5 79.5t66.5 254.5l2 897h245q39 0 64.5 4t40.5 11t23 21t10 29t2 41v78z" />
    <glyph glyph-name="uhorn" unicode="&#x1b0;" horiz-adv-x="1210" 
d="M1200 1231h166v-90q0 -64 -7.5 -102t-34.5 -81t-92.5 -59.5t-170.5 -7.5v-891h-244v217q-37 -119 -113.5 -176t-205.5 -57q-173 0 -266 87t-93 267v709h244v-676q0 -219 203 -219q115 0 172 73.5t59 208.5v613h244q48 0 76 5t42 20t17.5 32t3.5 49v78z" />
    <glyph glyph-name="uni0218" unicode="&#x218;" horiz-adv-x="1337" 
d="M698 842q103 -27 173.5 -51.5t136.5 -61t105 -80.5t62 -106t23 -142q0 -190 -139.5 -303.5t-392.5 -113.5q-232 0 -385 108t-170 297l213 137q-1 -185 101.5 -280.5t262.5 -95.5q264 0 264 212q0 96 -69.5 149.5t-247.5 98.5q-254 63 -359.5 162t-105.5 260
q0 175 142 281t388 106q132 0 245 -44t189.5 -130t92.5 -198l-207 -129q-6 164 -100 247.5t-242 83.5q-124 0 -197 -46.5t-73 -123.5q0 -90 59.5 -141.5t230.5 -95.5zM453 -373l96 238h276l-204 -238h-168z" />
    <glyph glyph-name="uni0219" unicode="&#x219;" horiz-adv-x="1034" 
d="M555 643q207 -45 293 -119t86 -198q0 -157 -107.5 -248.5t-308.5 -91.5q-159 0 -283 77.5t-147 196.5l170 105q15 -106 89.5 -165t184.5 -59q183 0 183 127q0 69 -44.5 103.5t-172.5 60.5q-200 40 -289.5 117.5t-89.5 212.5q0 141 105 229.5t321 89.5q161 1 271 -74
t130 -198l-184 -70q-15 93 -80 141t-166 48q-89 0 -137.5 -33.5t-48.5 -95.5q0 -66 42.5 -95.5t182.5 -60.5zM301 -373l96 238h277l-205 -238h-168z" />
    <glyph glyph-name="uni021A" unicode="&#x21a;" horiz-adv-x="1187" 
d="M27 1391h1134v-174h-440v-1217h-248v1217h-446v174zM379 -373l96 238h277l-205 -238h-168z" />
    <glyph glyph-name="uni021B" unicode="&#x21b;" horiz-adv-x="919" 
d="M643 176q124 0 207 94v-209q-40 -31 -111 -51t-155 -20q-169 0 -247.5 82.5t-78.5 216.5v614h-231l47 144h184v253h244v-253h348l-45 -144h-303v-565q0 -83 29 -122.5t112 -39.5zM295 -373l96 238h277l-205 -238h-168z" />
    <glyph glyph-name="uni0259" unicode="&#x259;" horiz-adv-x="1105" 
d="M545 1077q222 0 347.5 -153t125.5 -406q0 -249 -121 -391.5t-332 -142.5q-236 0 -365.5 155t-109.5 422h701q-6 190 -68.5 273.5t-185.5 83.5q-95 0 -162.5 -59.5t-71.5 -170.5l-201 90q15 120 147 209.5t296 89.5zM565 106q205 0 223 334h-477q2 -168 63.5 -251
t190.5 -83z" />
    <glyph glyph-name="circumflex" unicode="&#x2c6;" horiz-adv-x="991" 
d="M840 1165h-248l-96 133l-97 -133h-247l245 238h197z" />
    <glyph glyph-name="caron" unicode="&#x2c7;" horiz-adv-x="991" 
d="M592 1403h248l-246 -238h-197l-245 238h247l97 -133z" />
    <glyph glyph-name="breve" unicode="&#x2d8;" horiz-adv-x="991" 
d="M612 1403h228q-8 -57 -27 -98t-57 -74t-102.5 -49.5t-157.5 -16.5t-157.5 16.5t-102.5 49.5t-57 74t-27 98h227q0 -133 117 -133q57 0 86.5 36t29.5 97z" />
    <glyph glyph-name="dotaccent" unicode="&#x2d9;" horiz-adv-x="546" 
d="M152 1165v215h243v-215h-243z" />
    <glyph glyph-name="ring" unicode="&#x2da;" horiz-adv-x="659" 
d="M330 1149q-80 0 -129 48t-49 126q0 75 49.5 121.5t128.5 46.5q80 0 129 -47t49 -123q0 -77 -49.5 -124.5t-128.5 -47.5zM330 1255q29 0 44 18t15 48q0 63 -59 63q-29 0 -44.5 -16.5t-15.5 -46.5t15.5 -48t44.5 -18z" />
    <glyph glyph-name="ogonek" unicode="&#x2db;" horiz-adv-x="647" 
d="M496 -283q-63 -41 -124 -52t-105.5 5t-74.5 51t-38.5 80t11 98.5t66.5 100.5h125q-37 -33 -56 -68.5t-18.5 -64.5t16.5 -50.5t43.5 -29t68.5 3t86 41.5v-115z" />
    <glyph glyph-name="tilde" unicode="&#x2dc;" horiz-adv-x="929" 
d="M575 1174q-51 0 -124.5 39.5t-106.5 39.5q-68 0 -68 -69h-124q15 107 64 160t138 53q51 0 125.5 -40t106.5 -40q67 0 67 69h125q-15 -107 -64 -159.5t-139 -52.5z" />
    <glyph glyph-name="hungarumlaut" unicode="&#x2dd;" horiz-adv-x="1054" 
d="M248 1403h276l-205 -238h-167zM627 1403h276l-205 -238h-168z" />
    <glyph glyph-name="gravecomb" unicode="&#x300;" 
d="M-248 1403l96 -238h-167l-205 238h276z" />
    <glyph glyph-name="acutecomb" unicode="&#x301;" 
d="M-428 1403h276l-204 -238h-168z" />
    <glyph glyph-name="uni0302" unicode="&#x302;" 
d="M-152 1165h-247l-97 133l-96 -133h-248l246 238h197z" />
    <glyph glyph-name="tildecomb" unicode="&#x303;" 
d="M-354 1174q-51 0 -125 39.5t-107 39.5q-67 0 -67 -69h-125q15 107 64 160t139 53q51 0 125 -40t106 -40q68 0 68 69h124q-15 -107 -63.5 -159.5t-138.5 -52.5z" />
    <glyph glyph-name="uni0304" unicode="&#x304;" 
d="M-737 1315h585v-150h-585v150z" />
    <glyph glyph-name="uni0306" unicode="&#x306;" 
d="M-379 1434h227q-8 -59 -27 -103.5t-56.5 -84t-103 -60.5t-157.5 -21t-157.5 21t-103 60.5t-56.5 84t-27 103.5h228q0 -134 116 -134q57 0 87 36.5t30 97.5z" />
    <glyph glyph-name="uni0307" unicode="&#x307;" 
d="M-395 1165v236h243v-236h-243z" />
    <glyph glyph-name="uni0308" unicode="&#x308;" 
d="M-762 1165v215h244v-215h-244zM-395 1165v215h243v-215h-243z" />
    <glyph glyph-name="hookabovecomb" unicode="&#x309;" 
d="M-496 1448q63 42 124.5 53.5t106 -4.5t74.5 -51t38 -80.5t-11.5 -99.5t-66.5 -101h-166q44 39 67 78t19 63.5t-24.5 36t-63.5 -1t-97 -49.5v156z" />
    <glyph glyph-name="uni030A" unicode="&#x30a;" 
d="M-352 1149q-91 0 -146 54t-55 143q0 85 55 136.5t146 51.5t145.5 -52.5t54.5 -138.5q0 -88 -54.5 -141t-145.5 -53zM-352 1270q32 0 49.5 19.5t17.5 53.5q0 33 -17.5 51.5t-49.5 18.5t-50 -19t-18 -51q0 -34 18 -53.5t50 -19.5z" />
    <glyph glyph-name="uni030B" unicode="&#x30b;" 
d="M-807 1403h277l-205 -238h-168zM-428 1403h276l-204 -238h-168z" />
    <glyph glyph-name="uni030C" unicode="&#x30c;" 
d="M-399 1403h247l-245 -238h-197l-246 238h248l96 -133z" />
    <glyph glyph-name="uni0312" unicode="&#x312;" 
d="M-248 1165h-276l205 238h167z" />
    <glyph glyph-name="uni031B" unicode="&#x31b;" 
d="M-457 1165v156q39 0 64.5 4t40.5 11t23 21t10 29t2 41v78h165v-90q0 -64 -7.5 -102t-34.5 -81t-92.5 -59.5t-170.5 -7.5z" />
    <glyph glyph-name="dotbelowcomb" unicode="&#x323;" 
d="M-395 -270v235h243v-235h-243z" />
    <glyph glyph-name="uni0326" unicode="&#x326;" 
d="M-428 -18h276l-204 -238h-168z" />
    <glyph glyph-name="uni0327" unicode="&#x327;" 
d="M-348 -76q196 -20 196 -147q0 -162 -247 -162q-76 0 -197 31v125q73 -41 180 -41q76 0 76 63q0 82 -221 78l125 188h135z" />
    <glyph glyph-name="uni0328" unicode="&#x328;" 
d="M-152 -283q-63 -41 -124 -52t-105.5 5t-74.5 51t-38 80t11.5 98.5t66.5 100.5h125q-44 -39 -63 -82t-9 -73.5t36 -48.5t73.5 -9.5t101.5 45.5v-115z" />
    <glyph glyph-name="uni0394" unicode="&#x394;" horiz-adv-x="1146" 
d="M670 1391l467 -1215v-174h-1127v174l479 1215h181zM231 176h680l-333 916z" />
    <glyph glyph-name="uni03A9" unicode="&#x3a9;" horiz-adv-x="1474" 
d="M1386 762q0 -191 -98.5 -351t-253.5 -237h352v-174h-550v174q35 20 70 48.5t76.5 78.5t72.5 109.5t52 146t21 184.5q0 229 -105.5 366.5t-285.5 137.5t-285.5 -137.5t-105.5 -366.5q0 -71 12 -135.5t27.5 -112t44.5 -94.5t50 -75t57.5 -63t52.5 -48t49 -39v-174h-551v174
h369q-164 77 -266.5 235t-102.5 353q0 183 78.5 331.5t227.5 237t343 88.5t343 -88.5t227.5 -237t78.5 -331.5z" />
    <glyph glyph-name="uni03BC" unicode="&#x3bc;" horiz-adv-x="1329" 
d="M1073 283q0 -68 26.5 -91.5t78.5 -23.5v-168l-62 -2q-146 5 -206.5 46t-73.5 149q-24 -107 -76.5 -158t-147.5 -51q-89 0 -140.5 45t-76.5 141v-489h-243v1366h243v-572q1 -57 6 -97t18.5 -77t37 -59.5t62.5 -35.5t93 -13t93 13t62.5 35.5t37 59.5t18.5 77t6 97v572h244
v-764z" />
    <glyph glyph-name="pi" unicode="&#x3c0;" horiz-adv-x="1429" 
d="M1278 1047v-144h-164v-903h-242v903h-315v-903h-242v903h-163v144h1126z" />
    <glyph glyph-name="Wgrave" unicode="&#x1e80;" horiz-adv-x="1980" 
d="M1098 1511h-168l-205 238h276zM1690 1391h270l-387 -1391h-350l-181 803q-20 112 -51 411q-30 -299 -53 -415l-180 -799h-350l-388 1391h271l239 -942q36 -138 58 -289q17 163 43 286l207 945h305l205 -938q30 -146 45 -295q21 149 59 297z" />
    <glyph glyph-name="wgrave" unicode="&#x1e81;" horiz-adv-x="1546" 
d="M881 1186h-168l-205 237h276zM1280 1047h240l-285 -1047h-287l-145 690q-24 123 -29 215q-10 -114 -29 -213l-147 -692h-287l-284 1047h239l154 -625q27 -105 45 -268q14 153 37 266l129 627h284l134 -641q22 -111 32 -238q12 120 39 240z" />
    <glyph glyph-name="Wacute" unicode="&#x1e82;" horiz-adv-x="1980" 
d="M1253 1749l-204 -238h-168l96 238h276zM1690 1391h270l-387 -1391h-350l-181 803q-20 112 -51 411q-30 -299 -53 -415l-180 -799h-350l-388 1391h271l239 -942q36 -138 58 -289q17 163 43 286l207 945h305l205 -938q30 -146 45 -295q21 149 59 297z" />
    <glyph glyph-name="wacute" unicode="&#x1e83;" horiz-adv-x="1546" 
d="M1036 1423l-205 -237h-167l96 237h276zM1280 1047h240l-285 -1047h-287l-145 690q-24 123 -29 215q-10 -114 -29 -213l-147 -692h-287l-284 1047h239l154 -625q27 -105 45 -268q14 153 37 266l129 627h284l134 -641q22 -111 32 -238q12 120 39 240z" />
    <glyph glyph-name="Wdieresis" unicode="&#x1e84;" horiz-adv-x="1980" 
d="M926 1726v-215h-244v215h244zM1292 1726v-215h-243v215h243zM1690 1391h270l-387 -1391h-350l-181 803q-20 112 -51 411q-30 -299 -53 -415l-180 -799h-350l-388 1391h271l239 -942q36 -138 58 -289q17 163 43 286l207 945h305l205 -938q30 -146 45 -295q21 149 59 297z
" />
    <glyph glyph-name="wdieresis" unicode="&#x1e85;" horiz-adv-x="1546" 
d="M709 1401v-215h-244v215h244zM1075 1401v-215h-244v215h244zM1280 1047h240l-285 -1047h-287l-145 690q-24 123 -29 215q-10 -114 -29 -213l-147 -692h-287l-284 1047h239l154 -625q27 -105 45 -268q14 153 37 266l129 627h284l134 -641q22 -111 32 -238q12 120 39 240z
" />
    <glyph glyph-name="uni1E9E" unicode="&#x1e9e;" horiz-adv-x="2592" 
d="M678 1249q-124 0 -197 -46.5t-73 -123.5q0 -90 59.5 -141.5t230.5 -95.5q103 -27 173.5 -51.5t136.5 -61t105 -80.5t62 -106t23 -142q0 -190 -139.5 -303.5t-392.5 -113.5q-232 0 -385 108t-170 297l213 137q-1 -185 101.5 -280.5t262.5 -95.5q264 0 264 212
q0 96 -69.5 149.5t-247.5 98.5q-254 63 -359.5 162t-105.5 260q0 175 142 281t388 106q132 0 245 -44t189.5 -130t92.5 -198l-207 -129q-6 164 -100 247.5t-242 83.5zM1954 842q103 -27 173.5 -51.5t136.5 -61t105 -80.5t62 -106t23 -142q0 -190 -140 -303.5t-393 -113.5
q-232 0 -385 108t-170 297l213 137q-1 -184 101.5 -280t263.5 -96q264 0 264 212q0 96 -69.5 149.5t-248.5 98.5q-254 63 -359.5 162t-105.5 260q0 175 142.5 281t388.5 106q132 0 245 -44t189 -130t92 -198l-207 -129q-6 164 -100 247.5t-242 83.5q-124 0 -197 -46.5
t-73 -123.5q0 -90 60 -141.5t231 -95.5z" />
    <glyph glyph-name="uni1EA0" unicode="&#x1ea0;" horiz-adv-x="1402" 
d="M1393 0h-256l-150 410h-584l-149 -410h-244l527 1391h331zM469 584h455l-152 413q-36 108 -76 256q-44 -163 -75 -254zM578 -352v235h243v-235h-243z" />
    <glyph glyph-name="uni1EA1" unicode="&#x1ea1;" horiz-adv-x="1124" 
d="M551 1077q205 0 319.5 -91.5t114.5 -260.5v-725h-244v184q-31 -88 -104.5 -143t-179.5 -55q-165 0 -267 84t-102 223q0 263 387 336l264 49v39q0 201 -202 201q-108 0 -176 -58.5t-72 -171.5l-201 90q15 132 146 215.5t317 83.5zM520 141q97 0 160 73t63 185v170
l-217 -57q-178 -48 -178 -205q0 -166 172 -166zM438 -352v235h244v-235h-244z" />
    <glyph glyph-name="uni1EA2" unicode="&#x1ea2;" horiz-adv-x="1402" 
d="M614 1511q37 33 59 65.5t26 57t-6.5 40.5t-33 19t-60.5 -10.5t-83 -44.5v156q63 42 124.5 53.5t105.5 -4.5t74 -51t38 -80.5t-11.5 -99.5t-66.5 -101h-166zM1137 0l-150 410h-584l-149 -410h-244l527 1391h331l525 -1391h-256zM469 584h455l-152 413q-36 108 -76 256
q-44 -163 -75 -254z" />
    <glyph glyph-name="uni1EA3" unicode="&#x1ea3;" horiz-adv-x="1124" 
d="M469 1186q37 33 59 65.5t26 57t-6.5 40.5t-33 19t-60.5 -10.5t-83 -44.5v155q63 42 124.5 53.5t105.5 -4t74 -51t38 -80.5t-11.5 -99t-66.5 -101h-166zM551 1077q205 0 319.5 -91.5t114.5 -260.5v-725h-244v184q-31 -88 -104.5 -143t-179.5 -55q-165 0 -267 84t-102 223
q0 263 387 336l264 49v39q0 201 -202 201q-108 0 -176 -58.5t-72 -171.5l-201 90q15 132 146 215.5t317 83.5zM520 141q97 0 160 73t63 185v170l-217 -57q-178 -48 -178 -205q0 -166 172 -166z" />
    <glyph glyph-name="uni1EA4" unicode="&#x1ea4;" horiz-adv-x="1402" 
d="M1288 1950l-205 -238h-168l97 238h276zM713 1645l-97 -134h-247l245 238h197l246 -238h-248zM1137 0l-150 410h-584l-149 -410h-244l527 1391h331l525 -1391h-256zM469 584h455l-152 413q-36 108 -76 256q-44 -163 -75 -254z" />
    <glyph glyph-name="uni1EA5" unicode="&#x1ea5;" horiz-adv-x="1124" 
d="M1143 1624l-205 -238h-168l96 238h277zM567 1319l-96 -133h-248l246 237h197l245 -237h-247zM551 1077q205 0 319.5 -91.5t114.5 -260.5v-725h-244v184q-31 -88 -104.5 -143t-179.5 -55q-165 0 -267 84t-102 223q0 263 387 336l264 49v39q0 201 -202 201
q-108 0 -176 -58.5t-72 -171.5l-201 90q15 132 146 215.5t317 83.5zM520 141q97 0 160 73t63 185v170l-217 -57q-178 -48 -178 -205q0 -166 172 -166z" />
    <glyph glyph-name="uni1EA6" unicode="&#x1ea6;" horiz-adv-x="1402" 
d="M528 1712h-168l-204 238h276zM614 1511h-247l245 238h197l246 -238h-248l-96 134zM1137 0l-150 410h-584l-149 -410h-244l527 1391h331l525 -1391h-256zM469 584h455l-152 413q-36 108 -76 256q-44 -163 -75 -254z" />
    <glyph glyph-name="uni1EA7" unicode="&#x1ea7;" horiz-adv-x="1124" 
d="M383 1386h-168l-205 238h277zM469 1186h-248l246 237h197l245 -237h-247l-97 133zM551 1077q205 0 319.5 -91.5t114.5 -260.5v-725h-244v184q-31 -88 -104.5 -143t-179.5 -55q-165 0 -267 84t-102 223q0 263 387 336l264 49v39q0 201 -202 201q-108 0 -176 -58.5
t-72 -171.5l-201 90q15 132 146 215.5t317 83.5zM520 141q97 0 160 73t63 185v170l-217 -57q-178 -48 -178 -205q0 -166 172 -166z" />
    <glyph glyph-name="uni1EA8" unicode="&#x1ea8;" horiz-adv-x="1402" 
d="M899 1702q37 33 59 65.5t26 57t-6.5 40.5t-33 19t-60.5 -10.5t-83 -44.5v156q63 42 124.5 53.5t105.5 -4.5t74 -51t38 -80.5t-11.5 -99.5t-66.5 -101h-166zM711 1645l-97 -134h-247l245 238h197l246 -238h-248zM1137 0l-150 410h-584l-149 -410h-244l527 1391h331
l525 -1391h-256zM469 584h455l-152 413q-36 108 -76 256q-44 -163 -75 -254z" />
    <glyph glyph-name="uni1EA9" unicode="&#x1ea9;" horiz-adv-x="1124" 
d="M754 1376q44 39 67 78t19 63.5t-24.5 36t-63.5 -1t-97 -49.5v156q63 42 124.5 53.5t106 -4.5t74.5 -51t38 -80.5t-11.5 -99.5t-66.5 -101h-166zM565 1319l-96 -133h-248l246 237h197l245 -237h-247zM551 1077q205 0 319.5 -91.5t114.5 -260.5v-725h-244v184
q-31 -88 -104.5 -143t-179.5 -55q-165 0 -267 84t-102 223q0 263 387 336l264 49v39q0 201 -202 201q-108 0 -176 -58.5t-72 -171.5l-201 90q15 132 146 215.5t317 83.5zM520 141q97 0 160 73t63 185v170l-217 -57q-178 -48 -178 -205q0 -166 172 -166z" />
    <glyph glyph-name="uni1EAA" unicode="&#x1eaa;" horiz-adv-x="1402" 
d="M600 1868q-68 0 -68 -70h-124q15 107 64 160t138 53q51 0 125.5 -40t106.5 -40q67 0 67 70h125q-15 -107 -64 -160t-139 -53q-51 0 -124.5 40t-106.5 40zM711 1645l-97 -134h-247l245 238h197l246 -238h-248zM1137 0l-150 410h-584l-149 -410h-244l527 1391h331
l525 -1391h-256zM469 584h455l-152 413q-36 108 -76 256q-44 -163 -75 -254z" />
    <glyph glyph-name="uni1EAB" unicode="&#x1eab;" horiz-adv-x="1124" 
d="M455 1542q-68 0 -68 -69h-125q15 107 64 160t139 53q51 0 125 -40t106 -40q68 0 68 69h125q-15 -107 -64 -160t-139 -53q-51 0 -124.5 40t-106.5 40zM565 1319l-96 -133h-248l246 237h197l245 -237h-247zM551 1077q205 0 319.5 -91.5t114.5 -260.5v-725h-244v184
q-31 -88 -104.5 -143t-179.5 -55q-165 0 -267 84t-102 223q0 263 387 336l264 49v39q0 201 -202 201q-108 0 -176 -58.5t-72 -171.5l-201 90q15 132 146 215.5t317 83.5zM520 141q97 0 160 73t63 185v170l-217 -57q-178 -48 -178 -205q0 -166 172 -166z" />
    <glyph glyph-name="uni1EAC" unicode="&#x1eac;" horiz-adv-x="1402" 
d="M711 1645l-97 -134h-247l245 238h197l246 -238h-248zM1393 0h-256l-150 410h-584l-149 -410h-244l527 1391h331zM469 584h455l-152 413q-36 108 -76 256q-44 -163 -75 -254zM578 -352v235h243v-235h-243z" />
    <glyph glyph-name="uni1EAD" unicode="&#x1ead;" horiz-adv-x="1124" 
d="M565 1319l-96 -133h-248l246 237h197l245 -237h-247zM551 1077q205 0 319.5 -91.5t114.5 -260.5v-725h-244v184q-31 -88 -104.5 -143t-179.5 -55q-165 0 -267 84t-102 223q0 263 387 336l264 49v39q0 201 -202 201q-108 0 -176 -58.5t-72 -171.5l-201 90
q15 132 146 215.5t317 83.5zM520 141q97 0 160 73t63 185v170l-217 -57q-178 -48 -178 -205q0 -166 172 -166zM438 -352v235h244v-235h-244z" />
    <glyph glyph-name="uni1EAE" unicode="&#x1eae;" horiz-adv-x="1402" 
d="M993 2028l-205 -238h-167l96 238h276zM711 1511q-92 0 -157.5 21t-103 60.5t-56.5 84t-27 103.5h227q0 -133 117 -133q57 0 86.5 36t29.5 97h228q-8 -59 -27 -103.5t-56.5 -84t-103 -60.5t-157.5 -21zM1137 0l-150 410h-584l-149 -410h-244l527 1391h331l525 -1391h-256z
M469 584h455l-152 413q-36 108 -76 256q-44 -163 -75 -254z" />
    <glyph glyph-name="uni1EAF" unicode="&#x1eaf;" horiz-adv-x="1124" 
d="M848 1702l-205 -238h-168l96 238h277zM565 1186q-92 0 -157.5 21t-103 60.5t-56.5 83.5t-27 103h228q0 -133 116 -133q57 0 87 36.5t30 96.5h227q-8 -59 -27 -103t-56.5 -83.5t-103 -60.5t-157.5 -21zM551 1077q205 0 319.5 -91.5t114.5 -260.5v-725h-244v184
q-31 -88 -104.5 -143t-179.5 -55q-165 0 -267 84t-102 223q0 263 387 336l264 49v39q0 201 -202 201q-108 0 -176 -58.5t-72 -171.5l-201 90q15 132 146 215.5t317 83.5zM520 141q97 0 160 73t63 185v170l-217 -57q-178 -48 -178 -205q0 -166 172 -166z" />
    <glyph glyph-name="uni1EB0" unicode="&#x1eb0;" horiz-adv-x="1402" 
d="M801 1790h-168l-205 238h277zM711 1511q-92 0 -157.5 21t-103 60.5t-56.5 84t-27 103.5h227q0 -133 117 -133q57 0 86.5 36t29.5 97h228q-8 -59 -27 -103.5t-56.5 -84t-103 -60.5t-157.5 -21zM1137 0l-150 410h-584l-149 -410h-244l527 1391h331l525 -1391h-256zM469 584
h455l-152 413q-36 108 -76 256q-44 -163 -75 -254z" />
    <glyph glyph-name="uni1EB1" unicode="&#x1eb1;" horiz-adv-x="1124" 
d="M655 1464h-168l-204 238h276zM565 1186q-92 0 -157.5 21t-103 60.5t-56.5 83.5t-27 103h228q0 -133 116 -133q57 0 87 36.5t30 96.5h227q-8 -59 -27 -103t-56.5 -83.5t-103 -60.5t-157.5 -21zM551 1077q205 0 319.5 -91.5t114.5 -260.5v-725h-244v184
q-31 -88 -104.5 -143t-179.5 -55q-165 0 -267 84t-102 223q0 263 387 336l264 49v39q0 201 -202 201q-108 0 -176 -58.5t-72 -171.5l-201 90q15 132 146 215.5t317 83.5zM520 141q97 0 160 73t63 185v170l-217 -57q-178 -48 -178 -205q0 -166 172 -166z" />
    <glyph glyph-name="uni1EB2" unicode="&#x1eb2;" horiz-adv-x="1402" 
d="M600 1784q37 33 59 65.5t26 57t-6.5 40.5t-33 19t-60.5 -10.5t-83 -44.5v155q63 42 124.5 53.5t105.5 -4t74 -51t38 -80.5t-11.5 -99t-66.5 -101h-166zM711 1511q-92 0 -157.5 21t-103 60.5t-56.5 84t-27 103.5h227q0 -133 117 -133q57 0 86.5 36t29.5 97h228
q-8 -59 -27 -103.5t-56.5 -84t-103 -60.5t-157.5 -21zM1137 0l-150 410h-584l-149 -410h-244l527 1391h331l525 -1391h-256zM469 584h455l-152 413q-36 108 -76 256q-44 -163 -75 -254z" />
    <glyph glyph-name="uni1EB3" unicode="&#x1eb3;" horiz-adv-x="1124" 
d="M455 1458q44 39 67 78t19 63.5t-24.5 36t-63.5 -1t-97 -49.5v156q63 42 124.5 53.5t106 -4.5t74.5 -51t38 -80.5t-11.5 -99.5t-66.5 -101h-166zM565 1186q-92 0 -157.5 21t-103 60.5t-56.5 83.5t-27 103h228q0 -133 116 -133q57 0 87 36.5t30 96.5h227q-8 -59 -27 -103
t-56.5 -83.5t-103 -60.5t-157.5 -21zM551 1077q205 0 319.5 -91.5t114.5 -260.5v-725h-244v184q-31 -88 -104.5 -143t-179.5 -55q-165 0 -267 84t-102 223q0 263 387 336l264 49v39q0 201 -202 201q-108 0 -176 -58.5t-72 -171.5l-201 90q15 132 146 215.5t317 83.5z
M520 141q97 0 160 73t63 185v170l-217 -57q-178 -48 -178 -205q0 -166 172 -166z" />
    <glyph glyph-name="uni1EB4" unicode="&#x1eb4;" horiz-adv-x="1402" 
d="M602 1942q-67 0 -67 -70h-125q15 107 64 160t138 53q51 0 125.5 -40t106.5 -40q67 0 67 70h125q-15 -107 -64 -160t-138 -53q-51 0 -125 40t-107 40zM711 1511q-92 0 -157.5 21t-103 60.5t-56.5 84t-27 103.5h227q0 -133 117 -133q57 0 86.5 36t29.5 97h228
q-8 -59 -27 -103.5t-56.5 -84t-103 -60.5t-157.5 -21zM1137 0l-150 410h-584l-149 -410h-244l527 1391h331l525 -1391h-256zM469 584h455l-152 413q-36 108 -76 256q-44 -163 -75 -254z" />
    <glyph glyph-name="uni1EB5" unicode="&#x1eb5;" horiz-adv-x="1124" 
d="M457 1616q-68 0 -68 -70h-125q15 107 64 160t139 53q51 0 125 -40t106 -40q68 0 68 70h125q-15 -107 -64 -160t-139 -53q-51 0 -124.5 40t-106.5 40zM565 1186q-92 0 -157.5 21t-103 60.5t-56.5 83.5t-27 103h228q0 -133 116 -133q57 0 87 36.5t30 96.5h227
q-8 -59 -27 -103t-56.5 -83.5t-103 -60.5t-157.5 -21zM551 1077q205 0 319.5 -91.5t114.5 -260.5v-725h-244v184q-31 -88 -104.5 -143t-179.5 -55q-165 0 -267 84t-102 223q0 263 387 336l264 49v39q0 201 -202 201q-108 0 -176 -58.5t-72 -171.5l-201 90q15 132 146 215.5
t317 83.5zM520 141q97 0 160 73t63 185v170l-217 -57q-178 -48 -178 -205q0 -166 172 -166z" />
    <glyph glyph-name="uni1EB6" unicode="&#x1eb6;" horiz-adv-x="1402" 
d="M711 1511q-92 0 -157.5 21t-103 60.5t-56.5 84t-27 103.5h227q0 -133 117 -133q57 0 86.5 36t29.5 97h228q-8 -59 -27 -103.5t-56.5 -84t-103 -60.5t-157.5 -21zM1393 0h-256l-150 410h-584l-149 -410h-244l527 1391h331zM469 584h455l-152 413q-36 108 -76 256
q-44 -163 -75 -254zM578 -352v235h243v-235h-243z" />
    <glyph glyph-name="uni1EB7" unicode="&#x1eb7;" horiz-adv-x="1124" 
d="M565 1186q-92 0 -157.5 21t-103 60.5t-56.5 83.5t-27 103h228q0 -133 116 -133q57 0 87 36.5t30 96.5h227q-8 -59 -27 -103t-56.5 -83.5t-103 -60.5t-157.5 -21zM551 1077q205 0 319.5 -91.5t114.5 -260.5v-725h-244v184q-31 -88 -104.5 -143t-179.5 -55q-165 0 -267 84
t-102 223q0 263 387 336l264 49v39q0 201 -202 201q-108 0 -176 -58.5t-72 -171.5l-201 90q15 132 146 215.5t317 83.5zM520 141q97 0 160 73t63 185v170l-217 -57q-178 -48 -178 -205q0 -166 172 -166zM438 -352v235h244v-235h-244z" />
    <glyph glyph-name="uni1EB8" unicode="&#x1eb8;" horiz-adv-x="1202" 
d="M1104 1217h-707v-424h670v-175h-670v-444h707v-174h-954v1391h954v-174zM559 -352v235h244v-235h-244z" />
    <glyph glyph-name="uni1EB9" unicode="&#x1eb9;" horiz-adv-x="1163" 
d="M889 367l190 -119q-63 -134 -177 -198t-290 -64q-232 0 -378 151.5t-146 392.5q0 247 138.5 397t365.5 150q226 0 352 -154t121 -411v-12h-725q8 -169 85.5 -264t207.5 -95q44 0 82 10.5t74.5 35t62.5 70.5t37 110zM592 920q-219 0 -248 -297h459q-8 158 -56 227.5
t-155 69.5zM459 -352v235h243v-235h-243z" />
    <glyph glyph-name="uni1EBA" unicode="&#x1eba;" horiz-adv-x="1202" 
d="M549 1511q37 33 59 65.5t26 57t-6.5 40.5t-33 19t-60.5 -10.5t-83 -44.5v156q63 42 124.5 53.5t105.5 -4.5t74 -51t38 -80.5t-11.5 -99.5t-66.5 -101h-166zM1104 1217h-707v-424h670v-175h-670v-444h707v-174h-954v1391h954v-174z" />
    <glyph glyph-name="uni1EBB" unicode="&#x1ebb;" horiz-adv-x="1163" 
d="M489 1186q37 33 59 65.5t26 57t-6.5 40.5t-33 19t-60.5 -10.5t-83 -44.5v155q63 42 124.5 53.5t105.5 -4t74 -51t38 -80.5t-11.5 -99t-66.5 -101h-166zM889 367l190 -119q-63 -134 -177 -198t-290 -64q-232 0 -378 151.5t-146 392.5q0 247 138.5 397t365.5 150
q226 0 352 -154t121 -411v-12h-725q8 -169 85.5 -264t207.5 -95q44 0 82 10.5t74.5 35t62.5 70.5t37 110zM592 920q-219 0 -248 -297h459q-8 158 -56 227.5t-155 69.5z" />
    <glyph glyph-name="uni1EBC" unicode="&#x1ebc;" horiz-adv-x="1202" 
d="M520 1599q-67 0 -67 -69h-125q15 107 64 160t138 53q51 0 125.5 -40t106.5 -40q67 0 67 70h125q-15 -107 -64 -160t-138 -53q-51 0 -125 39.5t-107 39.5zM1104 1217h-707v-424h670v-175h-670v-444h707v-174h-954v1391h954v-174z" />
    <glyph glyph-name="uni1EBD" unicode="&#x1ebd;" horiz-adv-x="1163" 
d="M461 1274q-68 0 -68 -70h-125q15 107 64 160t139 53q51 0 125 -40t106 -40q68 0 68 70h125q-15 -107 -64 -160t-139 -53q-51 0 -124.5 40t-106.5 40zM889 367l190 -119q-63 -134 -177 -198t-290 -64q-232 0 -378 151.5t-146 392.5q0 247 138.5 397t365.5 150
q226 0 352 -154t121 -411v-12h-725q8 -169 85.5 -264t207.5 -95q44 0 82 10.5t74.5 35t62.5 70.5t37 110zM592 920q-219 0 -248 -297h459q-8 158 -56 227.5t-155 69.5z" />
    <glyph glyph-name="uni1EBE" unicode="&#x1ebe;" horiz-adv-x="1202" 
d="M1223 1950l-205 -238h-168l96 238h277zM647 1645l-96 -134h-248l246 238h196l246 -238h-248zM1104 1391v-174h-707v-424h670v-175h-670v-444h707v-174h-954v1391h954z" />
    <glyph glyph-name="uni1EBF" unicode="&#x1ebf;" horiz-adv-x="1163" 
d="M1163 1624l-205 -238h-167l96 238h276zM588 1319l-96 -133h-248l245 237h197l246 -237h-248zM633 141q44 0 82 10.5t74.5 35t62.5 70.5t37 110l190 -119q-63 -134 -177 -198t-290 -64q-232 0 -378 151.5t-146 392.5q0 247 138.5 397t365.5 150q226 0 352 -154t121 -411
v-12h-725q8 -169 85.5 -264t207.5 -95zM592 920q-219 0 -248 -297h459q-8 158 -56 227.5t-155 69.5z" />
    <glyph glyph-name="uni1EC0" unicode="&#x1ec0;" horiz-adv-x="1202" 
d="M463 1712h-168l-205 238h277zM549 1511h-248l246 238h196l246 -238h-248l-96 134zM1104 1217h-707v-424h670v-175h-670v-444h707v-174h-954v1391h954v-174z" />
    <glyph glyph-name="uni1EC1" unicode="&#x1ec1;" horiz-adv-x="1163" 
d="M403 1386h-167l-205 238h276zM489 1186h-247l245 237h197l246 -237h-248l-96 133zM889 367l190 -119q-63 -134 -177 -198t-290 -64q-232 0 -378 151.5t-146 392.5q0 247 138.5 397t365.5 150q226 0 352 -154t121 -411v-12h-725q8 -169 85.5 -264t207.5 -95q44 0 82 10.5
t74.5 35t62.5 70.5t37 110zM592 920q-219 0 -248 -297h459q-8 158 -56 227.5t-155 69.5z" />
    <glyph glyph-name="uni1EC2" unicode="&#x1ec2;" horiz-adv-x="1202" 
d="M834 1702q44 39 67 78t19 63.5t-24.5 36t-63.5 -1t-97 -49.5v156q63 42 124.5 53.5t105.5 -4.5t74 -51t38 -80.5t-11.5 -99.5t-66.5 -101h-165zM645 1645l-96 -134h-248l246 238h196l246 -238h-248zM1104 1217h-707v-424h670v-175h-670v-444h707v-174h-954v1391h954v-174
z" />
    <glyph glyph-name="uni1EC3" unicode="&#x1ec3;" horiz-adv-x="1163" 
d="M774 1376q37 33 59 65.5t26 57t-6.5 40.5t-33 19t-60.5 -10.5t-83 -44.5v156q63 42 124.5 53.5t105.5 -4.5t74 -51t38 -80.5t-11.5 -99.5t-66.5 -101h-166zM586 1319l-97 -133h-247l245 237h197l246 -237h-248zM889 367l190 -119q-63 -134 -177 -198t-290 -64
q-232 0 -378 151.5t-146 392.5q0 247 138.5 397t365.5 150q226 0 352 -154t121 -411v-12h-725q8 -169 85.5 -264t207.5 -95q44 0 82 10.5t74.5 35t62.5 70.5t37 110zM592 920q-219 0 -248 -297h459q-8 158 -56 227.5t-155 69.5z" />
    <glyph glyph-name="uni1EC4" unicode="&#x1ec4;" horiz-adv-x="1202" 
d="M535 1868q-68 0 -68 -70h-125q15 107 64 160t139 53q51 0 125 -40t106 -40q68 0 68 70h125q-15 -107 -64 -160t-139 -53q-51 0 -124.5 40t-106.5 40zM645 1645l-96 -134h-248l246 238h196l246 -238h-248zM1104 1217h-707v-424h670v-175h-670v-444h707v-174h-954v1391h954
v-174z" />
    <glyph glyph-name="uni1EC5" unicode="&#x1ec5;" horiz-adv-x="1163" 
d="M475 1542q-67 0 -67 -69h-125q15 107 64 160t138 53q51 0 125.5 -40t106.5 -40q67 0 67 69h125q-15 -107 -64 -160t-138 -53q-51 0 -125 40t-107 40zM586 1319l-97 -133h-247l245 237h197l246 -237h-248zM889 367l190 -119q-63 -134 -177 -198t-290 -64
q-232 0 -378 151.5t-146 392.5q0 247 138.5 397t365.5 150q226 0 352 -154t121 -411v-12h-725q8 -169 85.5 -264t207.5 -95q44 0 82 10.5t74.5 35t62.5 70.5t37 110zM592 920q-219 0 -248 -297h459q-8 158 -56 227.5t-155 69.5z" />
    <glyph glyph-name="uni1EC6" unicode="&#x1ec6;" horiz-adv-x="1202" 
d="M645 1645l-96 -134h-248l246 238h196l246 -238h-248zM1104 1217h-707v-424h670v-175h-670v-444h707v-174h-954v1391h954v-174zM559 -352v235h244v-235h-244z" />
    <glyph glyph-name="uni1EC7" unicode="&#x1ec7;" horiz-adv-x="1163" 
d="M586 1319l-97 -133h-247l245 237h197l246 -237h-248zM889 367l190 -119q-63 -134 -177 -198t-290 -64q-232 0 -378 151.5t-146 392.5q0 247 138.5 397t365.5 150q226 0 352 -154t121 -411v-12h-725q8 -169 85.5 -264t207.5 -95q44 0 82 10.5t74.5 35t62.5 70.5t37 110z
M592 920q-219 0 -248 -297h459q-8 158 -56 227.5t-155 69.5zM459 -352v235h243v-235h-243z" />
    <glyph glyph-name="uni1EC8" unicode="&#x1ec8;" horiz-adv-x="544" 
d="M82 1794q63 42 124.5 53.5t105.5 -4.5t74 -51t38 -80.5t-11.5 -99.5t-66.5 -101h-166q37 33 59 65.5t26 57t-6.5 40.5t-33 19t-60.5 -10.5t-83 -44.5v156zM150 0v1391h245v-1391h-245z" />
    <glyph glyph-name="uni1EC9" unicode="&#x1ec9;" horiz-adv-x="544" 
d="M82 1448q63 42 124.5 53.5t105.5 -4.5t74 -51t38 -80.5t-11.5 -99.5t-66.5 -101h-166q37 33 59 65.5t26 57t-6.5 40.5t-33 19t-60.5 -10.5t-83 -44.5v156zM152 0v1047h241v-1047h-241z" />
    <glyph glyph-name="uni1ECA" unicode="&#x1eca;" horiz-adv-x="544" 
d="M150 0v1391h245v-1391h-245zM150 -352v235h243v-235h-243z" />
    <glyph glyph-name="uni1ECB" unicode="&#x1ecb;" horiz-adv-x="579" 
d="M154 1176v215h272v-215h-272zM168 0v1047h242v-1047h-242zM166 -352v235h244v-235h-244z" />
    <glyph glyph-name="uni1ECC" unicode="&#x1ecc;" horiz-adv-x="1474" 
d="M737 -16q-298 0 -473.5 193t-175.5 523q0 331 175.5 525t473.5 194t473.5 -194t175.5 -525q0 -330 -175.5 -523t-473.5 -193zM737 158q182 0 286.5 143.5t104.5 398.5q0 257 -104.5 401t-286.5 144t-286.5 -144t-104.5 -401q0 -255 104.5 -398.5t286.5 -143.5zM614 -352
v235h244v-235h-244z" />
    <glyph glyph-name="uni1ECD" unicode="&#x1ecd;" horiz-adv-x="1220" 
d="M610 -14q-239 0 -380.5 147.5t-141.5 396.5q0 251 141.5 399t380.5 148t381 -148.5t142 -398.5q0 -249 -142 -396.5t-381 -147.5zM610 141q127 0 195.5 101.5t68.5 287.5q0 188 -68.5 289t-195.5 101t-195.5 -101t-68.5 -289q0 -186 68.5 -287.5t195.5 -101.5zM487 -352
v235h244v-235h-244z" />
    <glyph glyph-name="uni1ECE" unicode="&#x1ece;" horiz-adv-x="1474" 
d="M547 1794q63 42 124.5 53.5t105.5 -4.5t74 -51t38 -80.5t-11.5 -99.5t-66.5 -101h-166q37 33 59 65.5t26 57t-6.5 40.5t-33 19t-60.5 -10.5t-83 -44.5v156zM737 -16q-298 0 -473.5 193t-175.5 523q0 331 175.5 525t473.5 194t473.5 -194t175.5 -525q0 -330 -175.5 -523
t-473.5 -193zM737 158q182 0 286.5 143.5t104.5 398.5q0 257 -104.5 401t-286.5 144t-286.5 -144t-104.5 -401q0 -255 104.5 -398.5t286.5 -143.5z" />
    <glyph glyph-name="uni1ECF" unicode="&#x1ecf;" horiz-adv-x="1220" 
d="M420 1468q63 42 124.5 53.5t105.5 -4t74 -51t38 -80.5t-11.5 -99t-66.5 -101h-166q37 33 59 65.5t26 57t-6.5 40.5t-33 19t-60.5 -10.5t-83 -44.5v155zM610 -14q-239 0 -380.5 147.5t-141.5 396.5q0 251 141.5 399t380.5 148t381 -148.5t142 -398.5q0 -249 -142 -396.5
t-381 -147.5zM610 141q127 0 195.5 101.5t68.5 287.5q0 188 -68.5 289t-195.5 101t-195.5 -101t-68.5 -289q0 -186 68.5 -287.5t195.5 -101.5z" />
    <glyph glyph-name="uni1ED0" unicode="&#x1ed0;" horiz-adv-x="1474" 
d="M1319 1950l-205 -238h-168l96 238h277zM743 1645l-96 -134h-248l246 238h197l245 -238h-247zM737 1419q298 0 473.5 -194t175.5 -525q0 -330 -175.5 -523t-473.5 -193t-473.5 193t-175.5 523q0 331 175.5 525t473.5 194zM737 158q182 0 286.5 143.5t104.5 398.5
q0 257 -104.5 401t-286.5 144t-286.5 -144t-104.5 -401q0 -255 104.5 -398.5t286.5 -143.5z" />
    <glyph glyph-name="uni1ED1" unicode="&#x1ed1;" horiz-adv-x="1220" 
d="M1192 1624l-205 -238h-168l96 238h277zM616 1319l-96 -133h-248l246 237h197l246 -237h-248zM610 1077q239 0 381 -148.5t142 -398.5q0 -249 -142 -396.5t-381 -147.5t-380.5 147.5t-141.5 396.5q0 251 141.5 399t380.5 148zM610 141q127 0 195.5 101.5t68.5 287.5
q0 188 -68.5 289t-195.5 101t-195.5 -101t-68.5 -289q0 -186 68.5 -287.5t195.5 -101.5z" />
    <glyph glyph-name="uni1ED2" unicode="&#x1ed2;" horiz-adv-x="1474" 
d="M559 1712h-168l-205 238h277zM645 1511h-248l246 238h197l245 -238h-247l-97 134zM737 1419q298 0 473.5 -194t175.5 -525q0 -330 -175.5 -523t-473.5 -193t-473.5 193t-175.5 523q0 331 175.5 525t473.5 194zM737 158q182 0 286.5 143.5t104.5 398.5q0 257 -104.5 401
t-286.5 144t-286.5 -144t-104.5 -401q0 -255 104.5 -398.5t286.5 -143.5z" />
    <glyph glyph-name="uni1ED3" unicode="&#x1ed3;" horiz-adv-x="1220" 
d="M432 1386h-168l-205 238h277zM518 1186h-248l246 237h197l245 -237h-247l-97 133zM610 1077q239 0 381 -148.5t142 -398.5q0 -249 -142 -396.5t-381 -147.5t-380.5 147.5t-141.5 396.5q0 251 141.5 399t380.5 148zM610 141q127 0 195.5 101.5t68.5 287.5q0 188 -68.5 289
t-195.5 101t-195.5 -101t-68.5 -289q0 -186 68.5 -287.5t195.5 -101.5z" />
    <glyph glyph-name="uni1ED4" unicode="&#x1ed4;" horiz-adv-x="1474" 
d="M930 1702q44 39 67 78t19 63.5t-24.5 36t-63.5 -1t-97 -49.5v156q63 42 124.5 53.5t106 -4.5t74.5 -51t38 -80.5t-11.5 -99.5t-66.5 -101h-166zM741 1645l-96 -134h-248l246 238h197l245 -238h-247zM737 1419q298 0 473.5 -194t175.5 -525q0 -330 -175.5 -523
t-473.5 -193t-473.5 193t-175.5 523q0 331 175.5 525t473.5 194zM737 158q182 0 286.5 143.5t104.5 398.5q0 257 -104.5 401t-286.5 144t-286.5 -144t-104.5 -401q0 -255 104.5 -398.5t286.5 -143.5z" />
    <glyph glyph-name="uni1ED5" unicode="&#x1ed5;" horiz-adv-x="1220" 
d="M803 1376q37 33 59 65.5t26 57t-6.5 40.5t-33 19t-60.5 -10.5t-83 -44.5v156q63 42 124.5 53.5t105.5 -4.5t74 -51t38 -80.5t-11.5 -99.5t-66.5 -101h-166zM614 1319l-96 -133h-248l246 237h197l245 -237h-247zM610 1077q239 0 381 -148.5t142 -398.5q0 -249 -142 -396.5
t-381 -147.5t-380.5 147.5t-141.5 396.5q0 251 141.5 399t380.5 148zM610 141q127 0 195.5 101.5t68.5 287.5q0 188 -68.5 289t-195.5 101t-195.5 -101t-68.5 -289q0 -186 68.5 -287.5t195.5 -101.5z" />
    <glyph glyph-name="uni1ED6" unicode="&#x1ed6;" horiz-adv-x="1474" 
d="M631 1868q-68 0 -68 -70h-125q15 107 64 160t139 53q51 0 125 -40t106 -40q68 0 68 70h125q-15 -107 -64 -160t-139 -53q-51 0 -124.5 40t-106.5 40zM741 1645l-96 -134h-248l246 238h197l245 -238h-247zM737 1419q298 0 473.5 -194t175.5 -525q0 -330 -175.5 -523
t-473.5 -193t-473.5 193t-175.5 523q0 331 175.5 525t473.5 194zM737 158q182 0 286.5 143.5t104.5 398.5q0 257 -104.5 401t-286.5 144t-286.5 -144t-104.5 -401q0 -255 104.5 -398.5t286.5 -143.5z" />
    <glyph glyph-name="uni1ED7" unicode="&#x1ed7;" horiz-adv-x="1220" 
d="M504 1542q-68 0 -68 -69h-125q15 107 64 160t139 53q51 0 125 -40t106 -40q68 0 68 69h125q-15 -107 -64 -160t-139 -53q-51 0 -124.5 40t-106.5 40zM614 1319l-96 -133h-248l246 237h197l245 -237h-247zM610 1077q239 0 381 -148.5t142 -398.5q0 -249 -142 -396.5
t-381 -147.5t-380.5 147.5t-141.5 396.5q0 251 141.5 399t380.5 148zM610 141q127 0 195.5 101.5t68.5 287.5q0 188 -68.5 289t-195.5 101t-195.5 -101t-68.5 -289q0 -186 68.5 -287.5t195.5 -101.5z" />
    <glyph glyph-name="uni1ED8" unicode="&#x1ed8;" horiz-adv-x="1474" 
d="M741 1645l-96 -134h-248l246 238h197l245 -238h-247zM737 1419q298 0 473.5 -194t175.5 -525q0 -330 -175.5 -523t-473.5 -193t-473.5 193t-175.5 523q0 331 175.5 525t473.5 194zM737 158q182 0 286.5 143.5t104.5 398.5q0 257 -104.5 401t-286.5 144t-286.5 -144
t-104.5 -401q0 -255 104.5 -398.5t286.5 -143.5zM614 -352v235h244v-235h-244z" />
    <glyph glyph-name="uni1ED9" unicode="&#x1ed9;" horiz-adv-x="1220" 
d="M614 1319l-96 -133h-248l246 237h197l245 -237h-247zM610 1077q239 0 381 -148.5t142 -398.5q0 -249 -142 -396.5t-381 -147.5t-380.5 147.5t-141.5 396.5q0 251 141.5 399t380.5 148zM610 141q127 0 195.5 101.5t68.5 287.5q0 188 -68.5 289t-195.5 101t-195.5 -101
t-68.5 -289q0 -186 68.5 -287.5t195.5 -101.5zM487 -352v235h244v-235h-244z" />
    <glyph glyph-name="uni1EDA" unicode="&#x1eda;" horiz-adv-x="1474" 
d="M1001 1749l-204 -238h-168l96 238h276zM1194 1243q192 -195 192 -543q0 -330 -175.5 -523t-473.5 -193t-473.5 193t-175.5 523q0 331 175.5 525t473.5 194q111 0 209 -28h80q48 0 76 5t42 20t17.5 32t3.5 49v78h166v-90q0 -38 -1.5 -62t-9 -56.5t-21.5 -53.5t-40.5 -40.5
t-64.5 -29.5zM737 158q182 0 286.5 143.5t104.5 398.5q0 257 -104.5 401t-286.5 144t-286.5 -144t-104.5 -401q0 -255 104.5 -398.5t286.5 -143.5z" />
    <glyph glyph-name="uni1EDB" unicode="&#x1edb;" horiz-adv-x="1220" 
d="M874 1423l-204 -237h-168l96 237h276zM1004 915q129 -144 129 -385q0 -249 -142 -396.5t-381 -147.5t-380.5 147.5t-141.5 396.5q0 251 141.5 399t380.5 148q109 0 195 -30q84 1 106.5 23t22.5 83v78h166v-90q0 -86 -18 -141.5t-78 -84.5zM610 141q127 0 195.5 101.5
t68.5 287.5q0 188 -68.5 289t-195.5 101t-195.5 -101t-68.5 -289q0 -186 68.5 -287.5t195.5 -101.5z" />
    <glyph glyph-name="uni1EDC" unicode="&#x1edc;" horiz-adv-x="1474" 
d="M846 1511h-168l-205 238h277zM1194 1243q192 -195 192 -543q0 -330 -175.5 -523t-473.5 -193t-473.5 193t-175.5 523q0 331 175.5 525t473.5 194q111 0 209 -28h80q48 0 76 5t42 20t17.5 32t3.5 49v78h166v-90q0 -38 -1.5 -62t-9 -56.5t-21.5 -53.5t-40.5 -40.5
t-64.5 -29.5zM737 158q182 0 286.5 143.5t104.5 398.5q0 257 -104.5 401t-286.5 144t-286.5 -144t-104.5 -401q0 -255 104.5 -398.5t286.5 -143.5z" />
    <glyph glyph-name="uni1EDD" unicode="&#x1edd;" horiz-adv-x="1220" 
d="M719 1186h-168l-205 237h277zM1004 915q129 -144 129 -385q0 -249 -142 -396.5t-381 -147.5t-380.5 147.5t-141.5 396.5q0 251 141.5 399t380.5 148q109 0 195 -30q84 1 106.5 23t22.5 83v78h166v-90q0 -86 -18 -141.5t-78 -84.5zM610 141q127 0 195.5 101.5t68.5 287.5
q0 188 -68.5 289t-195.5 101t-195.5 -101t-68.5 -289q0 -186 68.5 -287.5t195.5 -101.5z" />
    <glyph glyph-name="uni1EDE" unicode="&#x1ede;" horiz-adv-x="1474" 
d="M645 1511q37 33 59 65.5t26 57t-6.5 40.5t-33 19t-60.5 -10.5t-83 -44.5v156q63 42 124.5 53.5t105.5 -4.5t74 -51t38 -80.5t-11.5 -99.5t-66.5 -101h-166zM1194 1243q192 -195 192 -543q0 -330 -175.5 -523t-473.5 -193t-473.5 193t-175.5 523q0 331 175.5 525
t473.5 194q111 0 209 -28h80q48 0 76 5t42 20t17.5 32t3.5 49v78h166v-90q0 -38 -1.5 -62t-9 -56.5t-21.5 -53.5t-40.5 -40.5t-64.5 -29.5zM737 158q182 0 286.5 143.5t104.5 398.5q0 257 -104.5 401t-286.5 144t-286.5 -144t-104.5 -401q0 -255 104.5 -398.5t286.5 -143.5z
" />
    <glyph glyph-name="uni1EDF" unicode="&#x1edf;" horiz-adv-x="1220" 
d="M518 1186q37 33 59 65.5t26 57t-6.5 40.5t-33 19t-60.5 -10.5t-83 -44.5v155q63 42 124.5 53.5t105.5 -4t74 -51t38 -80.5t-11.5 -99t-66.5 -101h-166zM1004 915q129 -144 129 -385q0 -249 -142 -396.5t-381 -147.5t-380.5 147.5t-141.5 396.5q0 251 141.5 399t380.5 148
q109 0 195 -30q84 1 106.5 23t22.5 83v78h166v-90q0 -86 -18 -141.5t-78 -84.5zM610 141q127 0 195.5 101.5t68.5 287.5q0 188 -68.5 289t-195.5 101t-195.5 -101t-68.5 -289q0 -186 68.5 -287.5t195.5 -101.5z" />
    <glyph glyph-name="uni1EE0" unicode="&#x1ee0;" horiz-adv-x="1474" 
d="M616 1599q-67 0 -67 -69h-125q15 107 64 160t139 53q51 0 125 -40t106 -40q68 0 68 70h125q-15 -107 -64 -160t-139 -53q-51 0 -125 39.5t-107 39.5zM1194 1243q192 -195 192 -543q0 -330 -175.5 -523t-473.5 -193t-473.5 193t-175.5 523q0 331 175.5 525t473.5 194
q111 0 209 -28h80q48 0 76 5t42 20t17.5 32t3.5 49v78h166v-90q0 -38 -1.5 -62t-9 -56.5t-21.5 -53.5t-40.5 -40.5t-64.5 -29.5zM737 158q182 0 286.5 143.5t104.5 398.5q0 257 -104.5 401t-286.5 144t-286.5 -144t-104.5 -401q0 -255 104.5 -398.5t286.5 -143.5z" />
    <glyph glyph-name="uni1EE1" unicode="&#x1ee1;" horiz-adv-x="1220" 
d="M489 1274q-67 0 -67 -70h-125q15 107 64 160t139 53q51 0 125 -40t106 -40q68 0 68 70h125q-15 -107 -64 -160t-139 -53q-51 0 -125 40t-107 40zM1004 915q129 -144 129 -385q0 -249 -142 -396.5t-381 -147.5t-380.5 147.5t-141.5 396.5q0 251 141.5 399t380.5 148
q109 0 195 -30q84 1 106.5 23t22.5 83v78h166v-90q0 -86 -18 -141.5t-78 -84.5zM610 141q127 0 195.5 101.5t68.5 287.5q0 188 -68.5 289t-195.5 101t-195.5 -101t-68.5 -289q0 -186 68.5 -287.5t195.5 -101.5z" />
    <glyph glyph-name="uni1EE2" unicode="&#x1ee2;" horiz-adv-x="1474" 
d="M1194 1243q192 -195 192 -543q0 -330 -175.5 -523t-473.5 -193t-473.5 193t-175.5 523q0 331 175.5 525t473.5 194q111 0 209 -28h80q48 0 76 5t42 20t17.5 32t3.5 49v78h166v-90q0 -38 -1.5 -62t-9 -56.5t-21.5 -53.5t-40.5 -40.5t-64.5 -29.5zM737 158
q182 0 286.5 143.5t104.5 398.5q0 257 -104.5 401t-286.5 144t-286.5 -144t-104.5 -401q0 -255 104.5 -398.5t286.5 -143.5zM614 -352v235h244v-235h-244z" />
    <glyph glyph-name="uni1EE3" unicode="&#x1ee3;" horiz-adv-x="1220" 
d="M1004 915q129 -144 129 -385q0 -249 -142 -396.5t-381 -147.5t-380.5 147.5t-141.5 396.5q0 251 141.5 399t380.5 148q109 0 195 -30q84 1 106.5 23t22.5 83v78h166v-90q0 -86 -18 -141.5t-78 -84.5zM610 141q127 0 195.5 101.5t68.5 287.5q0 188 -68.5 289t-195.5 101
t-195.5 -101t-68.5 -289q0 -186 68.5 -287.5t195.5 -101.5zM487 -352v235h244v-235h-244z" />
    <glyph glyph-name="uni1EE4" unicode="&#x1ee4;" horiz-adv-x="1353" 
d="M969 1391h245v-912q0 -254 -130.5 -374.5t-405.5 -120.5t-407 121t-132 374v912h246l2 -897q0 -176 66.5 -255t224.5 -79q156 0 222.5 79.5t66.5 254.5zM553 -352v235h244v-235h-244z" />
    <glyph glyph-name="uni1EE5" unicode="&#x1ee5;" horiz-adv-x="1210" 
d="M817 1047h244v-1047h-244v217q-37 -119 -113.5 -176t-205.5 -57q-173 0 -266 87t-93 267v709h244v-676q0 -219 203 -219q115 0 172 73.5t59 208.5v613zM481 -352v235h244v-235h-244z" />
    <glyph glyph-name="uni1EE6" unicode="&#x1ee6;" horiz-adv-x="1353" 
d="M584 1511q44 39 67 78t19 63.5t-24.5 36t-63.5 -1t-97 -49.5v156q63 42 124.5 53.5t106 -4.5t74.5 -51t38 -80.5t-11.5 -99.5t-66.5 -101h-166zM969 1391h245v-912q0 -254 -130.5 -374.5t-405.5 -120.5t-407 121t-132 374v912h246l2 -897q0 -176 66.5 -255t224.5 -79
q156 0 222.5 79.5t66.5 254.5z" />
    <glyph glyph-name="uni1EE7" unicode="&#x1ee7;" horiz-adv-x="1210" 
d="M512 1186q37 33 59 65.5t26 57t-6.5 40.5t-33 19t-60.5 -10.5t-83 -44.5v155q63 42 124.5 53.5t105.5 -4t74 -51t38 -80.5t-11.5 -99t-66.5 -101h-166zM817 1047h244v-1047h-244v217q-37 -119 -113.5 -176t-205.5 -57q-173 0 -266 87t-93 267v709h244v-676
q0 -219 203 -219q115 0 172 73.5t59 208.5v613z" />
    <glyph glyph-name="uni1EE8" unicode="&#x1ee8;" horiz-adv-x="1540" 
d="M940 1749l-205 -238h-168l97 238h276zM1354 1575h166v-90q0 -63 -7.5 -101.5t-35 -81.5t-93 -59.5t-170.5 -7.5v-756q0 -254 -130.5 -374.5t-405.5 -120.5t-407 121t-132 374v912h246l2 -897q0 -176 66.5 -255t224.5 -79q156 0 222.5 79.5t66.5 254.5l2 897h245
q39 0 64.5 4t40.5 11t23 21t10 29t2 41v78z" />
    <glyph glyph-name="uni1EE9" unicode="&#x1ee9;" horiz-adv-x="1210" 
d="M868 1423l-204 -237h-168l96 237h276zM1200 1231h166v-90q0 -64 -7.5 -102t-34.5 -81t-92.5 -59.5t-170.5 -7.5v-891h-244v217q-37 -119 -113.5 -176t-205.5 -57q-173 0 -266 87t-93 267v709h244v-676q0 -219 203 -219q115 0 172 73.5t59 208.5v613h244q48 0 76 5t42 20
t17.5 32t3.5 49v78z" />
    <glyph glyph-name="uni1EEA" unicode="&#x1eea;" horiz-adv-x="1540" 
d="M784 1511h-168l-204 238h276zM1354 1575h166v-90q0 -63 -7.5 -101.5t-35 -81.5t-93 -59.5t-170.5 -7.5v-756q0 -254 -130.5 -374.5t-405.5 -120.5t-407 121t-132 374v912h246l2 -897q0 -176 66.5 -255t224.5 -79q156 0 222.5 79.5t66.5 254.5l2 897h245q39 0 64.5 4
t40.5 11t23 21t10 29t2 41v78z" />
    <glyph glyph-name="uni1EEB" unicode="&#x1eeb;" horiz-adv-x="1210" 
d="M713 1186h-168l-205 237h276zM1200 1231h166v-90q0 -64 -7.5 -102t-34.5 -81t-92.5 -59.5t-170.5 -7.5v-891h-244v217q-37 -119 -113.5 -176t-205.5 -57q-173 0 -266 87t-93 267v709h244v-676q0 -219 203 -219q115 0 172 73.5t59 208.5v613h244q48 0 76 5t42 20t17.5 32
t3.5 49v78z" />
    <glyph glyph-name="uni1EEC" unicode="&#x1eec;" horiz-adv-x="1540" 
d="M584 1511q44 39 67 78t19 63.5t-24.5 36t-63.5 -1t-97 -49.5v156q63 42 124.5 53.5t106 -4.5t74.5 -51t38 -80.5t-11.5 -99.5t-66.5 -101h-166zM1354 1575h166v-90q0 -63 -7.5 -101.5t-35 -81.5t-93 -59.5t-170.5 -7.5v-756q0 -254 -130.5 -374.5t-405.5 -120.5t-407 121
t-132 374v912h246l2 -897q0 -176 66.5 -255t224.5 -79q156 0 222.5 79.5t66.5 254.5l2 897h245q39 0 64.5 4t40.5 11t23 21t10 29t2 41v78z" />
    <glyph glyph-name="uni1EED" unicode="&#x1eed;" horiz-adv-x="1210" 
d="M512 1186q37 33 59 65.5t26 57t-6.5 40.5t-33 19t-60.5 -10.5t-83 -44.5v155q63 42 124.5 53.5t105.5 -4t74 -51t38 -80.5t-11.5 -99t-66.5 -101h-166zM1200 1231h166v-90q0 -64 -7.5 -102t-34.5 -81t-92.5 -59.5t-170.5 -7.5v-891h-244v217q-37 -119 -113.5 -176
t-205.5 -57q-173 0 -266 87t-93 267v709h244v-676q0 -219 203 -219q115 0 172 73.5t59 208.5v613h244q48 0 76 5t42 20t17.5 32t3.5 49v78z" />
    <glyph glyph-name="uni1EEE" unicode="&#x1eee;" horiz-adv-x="1540" 
d="M555 1599q-68 0 -68 -69h-125q15 107 64 160t139 53q51 0 125.5 -40t106.5 -40q67 0 67 70h125q-15 -107 -64 -160t-139 -53q-51 0 -124.5 39.5t-106.5 39.5zM1354 1575h166v-90q0 -63 -7.5 -101.5t-35 -81.5t-93 -59.5t-170.5 -7.5v-756q0 -254 -130.5 -374.5
t-405.5 -120.5t-407 121t-132 374v912h246l2 -897q0 -176 66.5 -255t224.5 -79q156 0 222.5 79.5t66.5 254.5l2 897h245q39 0 64.5 4t40.5 11t23 21t10 29t2 41v78z" />
    <glyph glyph-name="uni1EEF" unicode="&#x1eef;" horiz-adv-x="1210" 
d="M483 1274q-67 0 -67 -70h-125q15 107 64 160t139 53q51 0 125 -40t106 -40q68 0 68 70h125q-15 -107 -64 -160t-139 -53q-51 0 -125 40t-107 40zM1200 1231h166v-90q0 -64 -7.5 -102t-34.5 -81t-92.5 -59.5t-170.5 -7.5v-891h-244v217q-37 -119 -113.5 -176t-205.5 -57
q-173 0 -266 87t-93 267v709h244v-676q0 -219 203 -219q115 0 172 73.5t59 208.5v613h244q48 0 76 5t42 20t17.5 32t3.5 49v78z" />
    <glyph glyph-name="uni1EF0" unicode="&#x1ef0;" horiz-adv-x="1540" 
d="M1354 1575h166v-90q0 -63 -7.5 -101.5t-35 -81.5t-93 -59.5t-170.5 -7.5v-756q0 -254 -130.5 -374.5t-405.5 -120.5t-407 121t-132 374v912h246l2 -897q0 -176 66.5 -255t224.5 -79q156 0 222.5 79.5t66.5 254.5l2 897h245q39 0 64.5 4t40.5 11t23 21t10 29t2 41v78z
M553 -352v235h244v-235h-244z" />
    <glyph glyph-name="uni1EF1" unicode="&#x1ef1;" horiz-adv-x="1210" 
d="M1200 1231h166v-90q0 -64 -7.5 -102t-34.5 -81t-92.5 -59.5t-170.5 -7.5v-891h-244v217q-37 -119 -113.5 -176t-205.5 -57q-173 0 -266 87t-93 267v709h244v-676q0 -219 203 -219q115 0 172 73.5t59 208.5v613h244q48 0 76 5t42 20t17.5 32t3.5 49v78zM481 -352v235h244
v-235h-244z" />
    <glyph glyph-name="Ygrave" unicode="&#x1ef2;" horiz-adv-x="1261" 
d="M739 1511h-168l-204 238h276zM1255 1391l-499 -791v-600h-246v592l-504 799h279l352 -588l358 588h260z" />
    <glyph glyph-name="ygrave" unicode="&#x1ef3;" horiz-adv-x="1099" 
d="M657 1186h-168l-204 237h276zM811 1044h242l-518 -1351h-234l164 366l-418 988h248l221 -564q34 -87 55 -151z" />
    <glyph glyph-name="uni1EF4" unicode="&#x1ef4;" horiz-adv-x="1261" 
d="M1255 1391l-499 -791v-600h-246v592l-504 799h279l352 -588l358 588h260zM508 -352v235h244v-235h-244z" />
    <glyph glyph-name="uni1EF5" unicode="&#x1ef5;" horiz-adv-x="1099" 
d="M811 1044h242l-518 -1351h-234l164 366l-418 988h248l221 -564q34 -87 55 -151zM291 -627v236h244v-236h-244z" />
    <glyph glyph-name="uni1EF6" unicode="&#x1ef6;" horiz-adv-x="1261" 
d="M539 1511q44 39 67 78t19 63.5t-24.5 36t-63.5 -1t-97 -49.5v156q63 42 124.5 53.5t106 -4.5t74.5 -51t38 -80.5t-11.5 -99.5t-66.5 -101h-166zM1255 1391l-499 -791v-600h-246v592l-504 799h279l352 -588l358 588h260z" />
    <glyph glyph-name="uni1EF7" unicode="&#x1ef7;" horiz-adv-x="1099" 
d="M457 1186q44 39 67 78t19 63.5t-24.5 36t-63.5 -1t-97 -49.5v155q63 42 124.5 53.5t106 -4t74.5 -51t38 -80.5t-11.5 -99t-66.5 -101h-166zM811 1044h242l-518 -1351h-234l164 366l-418 988h248l221 -564q34 -87 55 -151z" />
    <glyph glyph-name="uni1EF8" unicode="&#x1ef8;" horiz-adv-x="1261" 
d="M510 1599q-68 0 -68 -69h-125q15 107 64 160t139 53q51 0 125.5 -40t106.5 -40q67 0 67 70h125q-15 -107 -64 -160t-139 -53q-51 0 -124.5 39.5t-106.5 39.5zM1255 1391l-499 -791v-600h-246v592l-504 799h279l352 -588l358 588h260z" />
    <glyph glyph-name="uni1EF9" unicode="&#x1ef9;" horiz-adv-x="1099" 
d="M428 1274q-68 0 -68 -70h-124q15 107 64 160t138 53q51 0 125.5 -40t106.5 -40q67 0 67 70h125q-15 -107 -64 -160t-139 -53q-51 0 -124.5 40t-106.5 40zM811 1044h242l-518 -1351h-234l164 366l-418 988h248l221 -564q34 -87 55 -151z" />
    <glyph glyph-name="endash" unicode="&#x2013;" horiz-adv-x="1239" 
d="M152 489v175h935v-175h-935z" />
    <glyph glyph-name="emdash" unicode="&#x2014;" horiz-adv-x="1853" 
d="M152 489v175h1550v-175h-1550z" />
    <glyph glyph-name="quoteleft" unicode="&#x2018;" horiz-adv-x="587" 
d="M438 1251q-62 2 -88 -19t-26 -81v-74h106v-248h-280v322q0 122 78 182.5t210 57.5v-140z" />
    <glyph glyph-name="quoteright" unicode="&#x2019;" horiz-adv-x="587" 
d="M158 1391h280v-322q0 -122 -78 -182.5t-210 -57.5v140q62 -2 88 19t26 81v74h-106v248z" />
    <glyph glyph-name="quotesinglbase" unicode="&#x201a;" horiz-adv-x="587" 
d="M158 231h280v-321q0 -122 -78 -182.5t-210 -57.5v140q62 -2 88 19t26 81v74h-106v247z" />
    <glyph glyph-name="quotedblleft" unicode="&#x201c;" horiz-adv-x="1026" 
d="M150 1149q0 122 78 182.5t210 57.5v-140q-62 2 -88 -19t-26 -81v-74h106v-248h-280v322zM877 1249q-62 2 -88.5 -19t-26.5 -81v-74h106v-248h-280v322q0 122 78 182.5t211 57.5v-140z" />
    <glyph glyph-name="quotedblright" unicode="&#x201d;" horiz-adv-x="1026" 
d="M158 1143v248h280v-322q0 -122 -78 -182.5t-210 -57.5v140q62 -2 88 19t26 81v74h-106zM596 1391h281v-322q0 -122 -78 -182.5t-211 -57.5v140q62 -2 88 19t26 81v74h-106v248z" />
    <glyph glyph-name="quotedblbase" unicode="&#x201e;" horiz-adv-x="1028" 
d="M158 -16v247h280v-321q0 -122 -78 -182.5t-210 -57.5v140q62 -2 88 19t26 81v74h-106zM598 231h281v-321q0 -122 -78 -182.5t-211 -57.5v140q62 -2 88.5 19t26.5 81v74h-107v247z" />
    <glyph glyph-name="dagger" unicode="&#x2020;" horiz-adv-x="1132" 
d="M983 1161v-174h-295v-504h-242v504h-296v174h296v258h242v-258h295z" />
    <glyph glyph-name="daggerdbl" unicode="&#x2021;" horiz-adv-x="1132" 
d="M983 1049h-295v-175h295v-174h-295v-217h-242v217h-296v174h296v175h-296v174h296v196h242v-196h295v-174z" />
    <glyph glyph-name="bullet" unicode="&#x2022;" horiz-adv-x="915" 
d="M459 266q-127 0 -216 89t-89 216q0 126 89 214.5t216 88.5q126 0 214.5 -88.5t88.5 -214.5q0 -127 -88.5 -216t-214.5 -89z" />
    <glyph glyph-name="ellipsis" unicode="&#x2026;" horiz-adv-x="1398" 
d="M150 -20v268h268v-268h-268zM565 -20v268h269v-268h-269zM981 -20v268h268v-268h-268z" />
    <glyph glyph-name="perthousand" unicode="&#x2030;" horiz-adv-x="3090" 
d="M502 563q-165 0 -276 122.5t-111 305.5q0 182 111 304t276 122q166 0 275.5 -121.5t109.5 -304.5q0 -184 -109.5 -306t-275.5 -122zM575 -16l844 1431h199l-844 -1431h-199zM504 715q82 0 123 71.5t41 204.5q0 132 -41 204.5t-123 72.5q-83 0 -124.5 -72.5t-41.5 -204.5
q0 -133 41.5 -204.5t124.5 -71.5zM1696 -16q-165 0 -276 122.5t-111 305.5q0 182 111 304t276 122q166 0 275.5 -121.5t109.5 -304.5q0 -184 -109.5 -306t-275.5 -122zM2591 -16q-165 0 -276 122.5t-111 305.5q0 182 111 304t276 122q166 0 275.5 -121.5t109.5 -304.5
q0 -184 -109.5 -306t-275.5 -122zM1698 135q82 0 123 72t41 205q0 132 -41 204t-123 72q-83 0 -124.5 -72t-41.5 -204q0 -133 41.5 -205t124.5 -72zM2593 135q82 0 123 72t41 205q0 132 -41 204t-123 72q-83 0 -124.5 -72t-41.5 -204q0 -133 41.5 -205t124.5 -72z" />
    <glyph glyph-name="guilsinglleft" unicode="&#x2039;" horiz-adv-x="800" 
d="M688 924l-340 -385l340 -385h-225l-348 385h-2l354 385h221z" />
    <glyph glyph-name="guilsinglright" unicode="&#x203a;" horiz-adv-x="800" 
d="M334 924l354 -385h-2l-348 -385h-225l340 385l-340 385h221z" />
    <glyph glyph-name="fraction" unicode="&#x2044;" horiz-adv-x="1228" 
d="M152 616v107h925v-107h-925z" />
    <glyph glyph-name="uni20A9" unicode="&#x20a9;" horiz-adv-x="2238" 
d="M2089 1391l-123 -445h123v-153h-166l-49 -175h215v-153h-258l-129 -465h-350l-99 465h-268l-98 -465h-350l-129 465h-258v153h215l-50 175h-165v153h122l-122 445h241l117 -445h358l90 445h326l90 -445h359l116 445h242zM1120 1233q-17 -137 -39 -287h76q-24 159 -37 287
zM547 793l45 -175h209l35 175h-289zM1018 618h203l-37 175h-129zM1647 618l45 175h-289l35 -175h209zM766 446l4 19h-137l4 -16q71 -274 80 -314q11 115 49 311zM1604 455l2 10h-138l2 -12q33 -152 52 -320q10 47 24 101t31.5 120t26.5 101z" />
    <glyph glyph-name="Euro" unicode="&#x20ac;" horiz-adv-x="1331" 
d="M834 160q209 0 245 221l193 -115q-114 -282 -438 -282q-212 0 -350.5 118.5t-188.5 341.5h-182v174h159q-2 27 -2 82q0 49 2 72h-159v174h182q51 226 193.5 349.5t349.5 123.5q156 0 268 -62t166 -175l-195 -105q-43 166 -239 166q-108 0 -182.5 -75t-106.5 -222h596
l-62 -174h-557q-2 -23 -2 -72q0 -55 2 -82h527l-62 -174h-444q60 -284 287 -284z" />
    <glyph glyph-name="uni20B9" unicode="&#x20b9;" horiz-adv-x="1191" 
d="M1120 1391v-174h-272q96 -74 119 -199h153v-174h-153q-48 -309 -432 -340l491 -504h-291l-626 647h323q256 0 301 197h-624v174h624q-14 75 -55.5 120.5t-96 62t-130.5 16.5h-342v174h1011z" />
    <glyph glyph-name="uni20BA" unicode="&#x20ba;" horiz-adv-x="1378" 
d="M1106 698l190 -143q0 -555 -741 -555h-246v467l-196 -84v178l196 84v150l-196 -84v178l196 84v418h246v-314l340 144v-179l-340 -143v-149l340 143v-178l-340 -144v-395q204 0 324.5 54.5t173.5 167t53 300.5z" />
    <glyph glyph-name="uni20BD" unicode="&#x20bd;" horiz-adv-x="1415" 
d="M868 604h-329v-153h442v-175h-442v-276h-246v276h-180v175h180v153h-180v174h180v613h575q238 0 363 -100.5t125 -293.5t-125 -293t-363 -100zM539 1217v-439h315q118 0 189 53t71 166q0 114 -71.5 167t-188.5 53h-315z" />
    <glyph glyph-name="uni20BF" unicode="&#x20bf;" horiz-adv-x="1294" 
d="M1194 375q0 -136 -82.5 -226t-232.5 -126v-201h-181v178h-28h-119v-178h-180v178h-221v1391h221v190h180v-190h119h28v190h181v-213q278 -72 278 -352q0 -263 -280 -307q150 -26 233.5 -113.5t83.5 -220.5zM907 1006q0 211 -252 211h-258v-426h258q252 0 252 215z
M655 174q138 0 209.5 52t71.5 169q0 221 -281 221h-258v-442h258z" />
    <glyph glyph-name="uni2116" unicode="&#x2116;" horiz-adv-x="2295" 
d="M1845 815q-126 0 -214.5 88.5t-88.5 214.5q0 125 88.5 213t214.5 88q125 0 213 -88.5t88 -212.5q0 -126 -88 -214.5t-213 -88.5zM1110 197v1194h229v-1391h-364l-477 913q-48 94 -119 289v-1202h-229v1391h364l461 -885q64 -123 135 -309zM1845 1249q-55 0 -92 -37.5
t-37 -93.5q0 -58 37.5 -96.5t91.5 -38.5q53 0 90 38.5t37 96.5q0 56 -37 93.5t-90 37.5zM1569 485v174h569v-174h-569z" />
    <glyph glyph-name="trademark" unicode="&#x2122;" horiz-adv-x="1734" 
d="M88 1288v109h649v-109h-243v-561h-158v561h-248zM1647 1397v-670h-148v524l-176 -524h-184l-178 530v-530h-148v670h236l182 -557l182 557h234z" />
    <glyph glyph-name="arrowleft" unicode="&#x2190;" horiz-adv-x="1366" 
d="M1223 713l-2 -193h-809l327 -287l4 -290l-600 577l2 193l572 555l2 -267l-328 -288h832z" />
    <glyph glyph-name="arrowup" unicode="&#x2191;" horiz-adv-x="1609" 
d="M1466 674h-266l-278 325v-811h-217v785l-271 -316h-291l562 580h217z" />
    <glyph glyph-name="arrowright" unicode="&#x2192;" horiz-adv-x="1363" 
d="M625 1253l596 -577v-195l-574 -557v271l324 286l-828 2v193h807l-325 285v292z" />
    <glyph glyph-name="arrowdown" unicode="&#x2193;" horiz-adv-x="1609" 
d="M1176 670h290l-561 -578l-217 -4l-545 563h267l278 -309v797l217 2v-776z" />
    <glyph glyph-name="arrowboth" unicode="&#x2194;" horiz-adv-x="1964" 
d="M1223 -57l2 290l327 287h-1140l327 -287l2 -290l-598 577l2 193l570 555l4 -267l-328 -288h1163l-331 286l4 289l592 -575l2 -193z" />
    <glyph glyph-name="arrowupdn" unicode="&#x2195;" horiz-adv-x="1626" 
d="M922 250l278 309h266l-544 -561l-217 -4l-562 579h291l271 -303v869l-271 -308h-291l562 580l217 -4l561 -578h-291l-270 308v-887z" />
    <glyph glyph-name="uni2196" unicode="&#x2196;" horiz-adv-x="1222" 
d="M881 895h-420l577 -580l-143 -145l-584 584v-459l-168 -191v818l144 147h792z" />
    <glyph glyph-name="uni2197" unicode="&#x2197;" horiz-adv-x="1251" 
d="M961 1065l147 -143v-793l-174 199v420l-580 -578l-145 143l584 584h-459l-191 168h818z" />
    <glyph glyph-name="uni2198" unicode="&#x2198;" horiz-adv-x="1222" 
d="M911 915l168 191v-817l-143 -148h-793l199 174h420l-578 580l144 145l583 -583v458z" />
    <glyph glyph-name="uni2199" unicode="&#x2199;" horiz-adv-x="1251" 
d="M918 313l190 -168h-817l-148 144v792l174 -198v-420l580 577l145 -143l-583 -584h459z" />
    <glyph glyph-name="partialdiff" unicode="&#x2202;" horiz-adv-x="1175" 
d="M567 1401q125 -36 222 -99t168.5 -158t104.5 -230.5t21 -303.5q-21 -294 -162 -459t-391 -165q-144 0 -248 64t-152.5 173t-39.5 248q15 214 146.5 350.5t328.5 136.5q124 0 205 -61.5t113 -179.5q6 54 -1 112.5t-35.5 130t-77.5 136t-136.5 128t-202.5 107.5zM829 471
q10 148 -50 241t-165 93t-179.5 -93t-84.5 -241q-9 -147 50.5 -238.5t166.5 -91.5q122 0 187.5 88.5t74.5 241.5z" />
    <glyph glyph-name="emptyset" unicode="&#x2205;" horiz-adv-x="1421" 
d="M1178 995q155 -171 155 -401q0 -166 -83 -306.5t-226.5 -222t-312.5 -81.5q-193 0 -351 104l-96 -106l-112 102l94 104q-75 81 -116.5 186t-41.5 220q0 165 83.5 305t227 221.5t312.5 81.5q192 0 350 -104l102 112l117 -100zM276 594q0 -152 86 -275l588 656
q-107 74 -239 74q-88 0 -168.5 -36t-138.5 -97t-93 -145.5t-35 -176.5zM711 137q182 0 308 132.5t126 324.5q0 152 -84 272l-590 -655q107 -74 240 -74z" />
    <glyph glyph-name="product" unicode="&#x220f;" horiz-adv-x="1630" 
d="M1481 1391v-174h-267v-1422h-241v1422h-316v-1422h-241v1422h-266v174h1331z" />
    <glyph glyph-name="summation" unicode="&#x2211;" horiz-adv-x="1253" 
d="M1104 1391v-174h-594l383 -594l-391 -654h602v-174h-954l495 828l-495 768h954z" />
    <glyph glyph-name="minus" unicode="&#x2212;" horiz-adv-x="1034" 
d="M152 489v175h731v-175h-731z" />
    <glyph glyph-name="radical" unicode="&#x221a;" horiz-adv-x="1216" 
d="M1217 1391v-144h-205l-416 -1452h-277l-292 828h217l202 -643l367 1411h404z" />
    <glyph glyph-name="infinity" unicode="&#x221e;" horiz-adv-x="1974" 
d="M1389 920q187 0 310.5 -119t123.5 -299t-123.5 -299t-310.5 -119q-127 0 -228 72t-174 182q-73 -110 -173.5 -182t-227.5 -72q-187 0 -310.5 119t-123.5 299t123.5 299t310.5 119q127 0 227.5 -72t173.5 -182q73 110 174 182t228 72zM588 240q102 0 176 62.5t147 199.5
q-73 137 -147 199.5t-176 62.5q-101 0 -168.5 -75t-67.5 -187t67.5 -187t168.5 -75zM1386 240q101 0 168.5 75t67.5 187t-67.5 187t-168.5 75q-103 0 -177.5 -62.5t-147.5 -199.5q73 -137 147.5 -199.5t177.5 -62.5z" />
    <glyph glyph-name="integral" unicode="&#x222b;" horiz-adv-x="1118" 
d="M868 1403q89 0 138 -37l-37 -213q-22 23 -41.5 34t-50.5 11q-82 0 -103 -115l-196 -1134q-16 -89 -51.5 -146t-104 -89.5t-172.5 -32.5q-89 0 -137 36l37 213q22 -23 41.5 -34t50.5 -11q81 0 102 115l193 1114q23 137 101.5 213t229.5 76z" />
    <glyph glyph-name="approxequal" unicode="&#x2248;" horiz-adv-x="1214" 
d="M803 535q-46 0 -94.5 19.5t-88 47.5t-75 56t-67.5 47.5t-54 19.5q-50 0 -70 -38t-20 -118h-182q0 164 65 250t195 86q57 0 119.5 -29.5t106 -65.5t88 -65.5t69.5 -29.5q52 0 72 38t20 119h176q0 -337 -260 -337zM803 90q-56 0 -117.5 30t-104 65.5t-87 65.5t-70.5 30
q-50 0 -70 -38t-20 -118h-182q0 164 65 250t195 86q57 0 119.5 -30t106 -65.5t88 -65.5t69.5 -30q52 0 72 38.5t20 119.5h176q0 -165 -65 -251.5t-195 -86.5z" />
    <glyph glyph-name="notequal" unicode="&#x2260;" horiz-adv-x="1228" 
d="M1128 684h-356l-51 -215h407v-174h-446l-55 -234h-203l55 234h-327v174h366l51 215h-417v174h458l45 197h203l-45 -197h315v-174z" />
    <glyph glyph-name="lessequal" unicode="&#x2264;" horiz-adv-x="1157" 
d="M1006 1044v-184l-656 -207l656 -192v-185l-854 287v174zM152 0v174h854v-174h-854z" />
    <glyph glyph-name="greaterequal" unicode="&#x2265;" horiz-adv-x="1157" 
d="M152 1044l854 -307v-174l-854 -287v185l655 192l-655 207v184zM152 0v174h854v-174h-854z" />
    <glyph glyph-name="lozenge" unicode="&#x25ca;" horiz-adv-x="1261" 
d="M725 1391l387 -695l-387 -696h-180l-395 696l395 695h180zM633 223l264 473l-264 471l-271 -471z" />
    <glyph glyph-name="Q.ss01" horiz-adv-x="1499" 
d="M1296 29l121 -156q-44 -84 -143 -138t-234 -54q-166 0 -258.5 83.5t-115.5 223.5q-268 23 -423 213t-155 499q0 331 175.5 525t473.5 194t473.5 -194t175.5 -525q0 -287 -134.5 -472.5t-370.5 -231.5q18 -64 65.5 -101.5t104.5 -37.5q80 0 136 38t109 134zM346 700
q0 -255 104.5 -398.5t286.5 -143.5t286.5 143.5t104.5 398.5q0 257 -104.5 401t-286.5 144t-286.5 -144t-104.5 -401z" />
    <glyph glyph-name="R.ss01" horiz-adv-x="1372" 
d="M1008 0l-410 604h-203v-604h-245v1391h595q238 0 363 -100.5t125 -293.5q0 -158 -99 -256t-270 -127l436 -614h-292zM395 1217v-439h318q278 0 278 219q0 116 -66 168t-194 52h-336z" />
    <glyph glyph-name="Racute.ss01" horiz-adv-x="1372" 
d="M948 1729l-205 -238h-168l97 238h276zM1008 0l-410 604h-203v-604h-245v1391h595q238 0 363 -100.5t125 -293.5q0 -158 -99 -256t-270 -127l436 -614h-292zM395 1217v-439h318q278 0 278 219q0 116 -66 168t-194 52h-336z" />
    <glyph glyph-name="Rcaron.ss01" horiz-adv-x="1372" 
d="M590 1491l-246 238h248l96 -134l96 134h248l-246 -238h-196zM1008 0l-410 604h-203v-604h-245v1391h595q238 0 363 -100.5t125 -293.5q0 -158 -99 -256t-270 -127l436 -614h-292zM395 1217v-439h318q278 0 278 219q0 116 -66 168t-194 52h-336z" />
    <glyph glyph-name="uni0156.ss01" horiz-adv-x="1372" 
d="M864 614l436 -614h-292l-410 604h-203v-604h-245v1391h595q238 0 363 -100.5t125 -293.5q0 -158 -99 -256t-270 -127zM395 1217v-439h318q278 0 278 219q0 116 -66 168t-194 52h-336zM469 -291l96 238h277l-205 -238h-168z" />
    <glyph glyph-name="i.loclTRK" horiz-adv-x="544" 
d="M150 1165v236h243v-236h-243zM152 0v1047h241v-1047h-241z" />
    <glyph glyph-name="a.002" horiz-adv-x="1124" 
d="M948 623l-4 -2v-621h-203v203q-31 -97 -109.5 -157t-195.5 -60q-163 0 -255.5 83t-92.5 224q0 263 387 336l264 49v39q0 201 -202 201q-108 0 -176 -58.5t-72 -171.5l-201 90q15 132 146 215.5t317 83.5q393 0 393 -352v-102h4zM743 399v170l-217 -57q-178 -48 -178 -205
q0 -166 172 -166q97 0 160 73t63 185z" />
    <glyph glyph-name="y.ss01" horiz-adv-x="1075" 
d="M782 1047h246l-430 -1145q-45 -122 -106 -171.5t-173 -49.5q-89 0 -161 32v213q58 -47 127 -47q50 0 77.5 23.5t55.5 89.5l43 100l-414 955h248l221 -564q29 -70 43 -114z" />
    <glyph glyph-name="yacute.ss01" horiz-adv-x="1075" 
d="M821 1403l-205 -238h-167l96 238h276zM782 1047h246l-430 -1145q-45 -122 -106 -171.5t-173 -49.5q-89 0 -161 32v213q58 -47 127 -47q50 0 77.5 23.5t55.5 89.5l43 100l-414 955h248l221 -564q29 -70 43 -114z" />
    <glyph glyph-name="ycircumflex.ss01" horiz-adv-x="1075" 
d="M561 1298l-96 -133h-248l246 238h196l246 -238h-248zM782 1047h246l-430 -1145q-45 -122 -106 -171.5t-173 -49.5q-89 0 -161 32v213q58 -47 127 -47q50 0 77.5 23.5t55.5 89.5l43 100l-414 955h248l221 -564q29 -70 43 -114z" />
    <glyph glyph-name="ydieresis.ss01" horiz-adv-x="1075" 
d="M494 1380v-215h-244v215h244zM860 1380v-215h-244v215h244zM782 1047h246l-430 -1145q-45 -122 -106 -171.5t-173 -49.5q-89 0 -161 32v213q58 -47 127 -47q50 0 77.5 23.5t55.5 89.5l43 100l-414 955h248l221 -564q29 -70 43 -114z" />
    <glyph glyph-name="uni1EF5.ss01" horiz-adv-x="1075" 
d="M782 1047h246l-430 -1145q-45 -122 -106 -171.5t-173 -49.5q-89 0 -161 32v213q58 -47 127 -47q50 0 77.5 23.5t55.5 89.5l43 100l-414 955h248l221 -564q29 -70 43 -114zM291 -627v236h244v-236h-244z" />
    <glyph glyph-name="ygrave.ss01" horiz-adv-x="1075" 
d="M666 1165h-168l-205 238h276zM782 1047h246l-430 -1145q-45 -122 -106 -171.5t-173 -49.5q-89 0 -161 32v213q58 -47 127 -47q50 0 77.5 23.5t55.5 89.5l43 100l-414 955h248l221 -564q29 -70 43 -114z" />
    <glyph glyph-name="uni1EF7.ss01" horiz-adv-x="1075" 
d="M465 1165q37 33 59 65.5t26 57t-6.5 40.5t-33 19t-60.5 -10.5t-83 -44.5v156q63 42 124.5 53.5t105.5 -4.5t74 -51t38 -80.5t-11.5 -99.5t-66.5 -101h-166zM782 1047h246l-430 -1145q-45 -122 -106 -171.5t-173 -49.5q-89 0 -161 32v213q58 -47 127 -47q50 0 77.5 23.5
t55.5 89.5l43 100l-414 955h248l221 -564q29 -70 43 -114z" />
    <glyph glyph-name="uni1EF9.ss01" horiz-adv-x="1075" 
d="M436 1253q-67 0 -67 -69h-125q15 107 64 160t138 53q51 0 125.5 -40t106.5 -40q67 0 67 69h125q-15 -107 -63.5 -159.5t-138.5 -52.5q-51 0 -125 39.5t-107 39.5zM782 1047h246l-430 -1145q-45 -122 -106 -171.5t-173 -49.5q-89 0 -161 32v213q58 -47 127 -47
q50 0 77.5 23.5t55.5 89.5l43 100l-414 955h248l221 -564q29 -70 43 -114z" />
    <glyph glyph-name="I_J" horiz-adv-x="1284" 
d="M901 1391h244v-953q0 -230 -122 -342t-382 -112q-249 0 -370 110t-121 318h249q0 -140 58 -196t213 -56q131 0 181 69.5t50 235.5v926zM399 1391v-840h-245v840h245z" />
    <glyph glyph-name="zero.tf" horiz-adv-x="1310" 
d="M672 -16q-263 0 -426.5 197.5t-163.5 520.5q0 321 164 519t426 198t425 -198t163 -519q0 -212 -74 -375.5t-208 -253t-306 -89.5zM672 160q148 0 241 146.5t93 395.5q0 247 -93 394t-241 147t-242 -147.5t-94 -393.5q0 -247 94 -394.5t242 -147.5z" />
    <glyph glyph-name="one.tf" horiz-adv-x="1310" 
d="M879 176h311v-176h-907v176h354v954q-174 -181 -367 -256l-82 191q138 58 234 131.5t213 194.5h244v-1215z" />
    <glyph glyph-name="two.tf" horiz-adv-x="1310" 
d="M420 162l-2 -2h786v-176h-1038q-4 55 1 105t14.5 89.5t31 77.5t40 65t51.5 57t56 48t64 43t64.5 38t68 36.5t64.5 34.5q192 105 260.5 181t68.5 193q0 144 -68.5 216.5t-199.5 72.5q-142 0 -234 -100t-79 -271l-230 88q-7 201 151.5 330t401.5 129q242 0 377 -116
t135 -326q0 -80 -21.5 -148.5t-55 -118.5t-89 -98.5t-107.5 -82.5t-128 -76q-23 -13 -77.5 -42t-87.5 -47t-79 -47t-72 -51.5t-46 -50t-21 -51.5z" />
    <glyph glyph-name="three.tf" horiz-adv-x="1310" 
d="M854 715q178 -15 274.5 -100.5t96.5 -233.5q0 -182 -154 -288.5t-401 -106.5q-246 0 -404 124.5t-151 331.5l221 76q-10 -163 87.5 -259.5t246.5 -96.5q297 0 297 239q0 226 -322 226h-162v164h131q164 0 242 53t78 168q0 112 -69 168.5t-187 56.5q-86 0 -156 -36
t-112 -111t-35 -175l-225 117q1 87 45 160t117.5 121t168.5 75t197 27q235 0 372.5 -103.5t137.5 -281.5q0 -140 -87 -220.5t-247 -94.5z" />
    <glyph glyph-name="four.tf" horiz-adv-x="1310" 
d="M1253 530v-174h-206v-356h-250v356h-691v174l617 861h324v-861h206zM356 530h441v394q0 130 12 262q-72 -121 -143 -223z" />
    <glyph glyph-name="five.tf" horiz-adv-x="1310" 
d="M702 936q223 0 361.5 -128.5t138.5 -348.5q0 -209 -139.5 -342t-388.5 -133q-220 0 -358.5 95t-178.5 267l219 90q-3 -128 85 -202t231 -74q138 0 207 77.5t69 221.5q0 143 -73.5 229t-215.5 86q-100 0 -182.5 -48t-120.5 -122l-213 74l162 713h805v-174h-612l-84 -363
q129 82 288 82z" />
    <glyph glyph-name="six.tf" horiz-adv-x="1310" 
d="M741 926q204 0 333.5 -132.5t129.5 -336.5q0 -202 -148 -334.5t-380 -132.5q-269 0 -412 173.5t-143 491.5q0 375 160 569.5t446 194.5q187 0 323 -87.5t169 -241.5l-218 -78q-27 115 -100 173t-182 58q-163 0 -266 -143.5t-103 -403.5q46 96 144.5 163t246.5 67z
M676 166q128 0 203 79t75 212q0 139 -70.5 217t-197.5 78t-214 -85t-87 -210q0 -119 86.5 -205t204.5 -86z" />
    <glyph glyph-name="seven.tf" horiz-adv-x="1310" 
d="M106 1391h1065v-177q-194 -165 -330.5 -359.5t-203.5 -417t-41 -437.5h-285q-8 625 641 1214h-846v177z" />
    <glyph glyph-name="eight.tf" horiz-adv-x="1310" 
d="M868 727q148 -16 253.5 -112.5t105.5 -233.5q0 -123 -73 -214t-198 -137t-286 -46t-286 46t-198 137t-73 214q0 137 105 233.5t253 112.5q-132 24 -217.5 109t-85.5 208q0 112 68 198.5t181.5 131.5t252.5 45t252 -45t181 -131.5t68 -198.5q0 -123 -85.5 -208
t-217.5 -109zM670 1241q-117 0 -186.5 -55t-69.5 -158q0 -108 69.5 -166.5t186.5 -58.5t186.5 58.5t69.5 166.5q0 103 -69.5 158t-186.5 55zM670 162q133 0 218 65.5t85 173.5q0 106 -85 172t-218 66t-218 -66t-85 -172q0 -108 85 -173.5t218 -65.5z" />
    <glyph glyph-name="nine.tf" horiz-adv-x="1310" 
d="M670 1413q255 0 402 -174t147 -491q0 -382 -136 -573t-438 -191q-207 0 -349.5 91t-174.5 253l217 71q11 -116 97.5 -177.5t209.5 -61.5q176 0 263 124.5t91 415.5q-47 -94 -145.5 -158.5t-243.5 -64.5q-208 0 -340.5 129.5t-132.5 339.5q0 205 148 336t385 131zM666 651
q125 0 207.5 84t82.5 211q0 125 -74.5 208t-195.5 83q-134 0 -216.5 -80.5t-82.5 -210.5q0 -129 78.5 -212t200.5 -83z" />
    <glyph glyph-name="one.dnom" horiz-adv-x="872" 
d="M545 111h123v-111h-420v111h137v313q-56 -77 -129 -98l-51 116q69 24 111 56t65 82h164v-469z" />
    <glyph glyph-name="two.dnom" horiz-adv-x="894" 
d="M360 115h330v-115h-479q-5 24 -5 46t3 39.5t13 35.5t18.5 30.5t25 27t27.5 23t31.5 21t31 18t32 16.5t28.5 15q48 26 73 51.5t30 43t5 43.5q0 36 -21 53.5t-50 17.5q-44 0 -69.5 -42t-4.5 -115l-164 63q-10 92 66 150.5t182 58.5q103 0 164 -50t61 -138q0 -75 -44 -126
t-128 -98q-86 -43 -156 -69z" />
    <glyph glyph-name="three.dnom" horiz-adv-x="882" 
d="M524 287q82 -12 118 -48.5t36 -97.5q0 -71 -64 -113t-163 -42q-102 0 -172.5 49.5t-73.5 124.5l135 37q0 -48 27.5 -71.5t66.5 -23.5q80 0 80 64q0 35 -20.5 50t-67.5 15h-64v107h52q51 0 69.5 13.5t18.5 49.5q0 30 -20 45t-48 15q-31 0 -55 -21t-25 -59l-133 49
q21 70 87.5 109t146.5 39q94 0 151.5 -40.5t57.5 -111.5q0 -117 -140 -139z" />
    <glyph glyph-name="four.dnom" horiz-adv-x="944" 
d="M739 213v-90h-96v-137h-158v137h-280v90l260 362h178v-362h96zM344 213h141v127q0 37 7 98q-48 -94 -76 -127z" />
    <glyph glyph-name="one.numr" horiz-adv-x="872" 
d="M545 948h123v-110h-420v110h137v314q-57 -79 -129 -99l-51 117q70 24 111.5 55.5t64.5 81.5h164v-469z" />
    <glyph glyph-name="two.numr" horiz-adv-x="894" 
d="M360 961h330v-115h-479q-5 24 -5.5 46t3.5 39.5t13 35t18.5 30.5t25 27t27.5 23t31 20.5t31.5 18t32 17t28.5 15.5q37 20 60 38t32.5 35.5t12.5 31t3 32.5q0 36 -21 54t-50 18q-44 0 -69.5 -42.5t-4.5 -115.5l-164 64q-10 92 66 150.5t182 58.5q102 0 163.5 -50.5
t61.5 -138.5q0 -75 -43.5 -125.5t-128.5 -97.5q-86 -43 -156 -69z" />
    <glyph glyph-name="three.numr" horiz-adv-x="882" 
d="M524 1149q82 -12 118 -48t36 -97q0 -71 -64 -113.5t-163 -42.5q-102 0 -172.5 49.5t-73.5 124.5l135 37q0 -47 27.5 -70.5t66.5 -23.5q80 0 80 63q0 35 -20.5 50.5t-67.5 15.5h-64v106h52q50 0 69 14t19 50q0 30 -20 44.5t-48 14.5q-31 0 -55 -21t-25 -59l-133 49
q21 70 87.5 109t146.5 39q94 0 151.5 -40.5t57.5 -111.5q0 -117 -140 -139z" />
    <glyph glyph-name="four.numr" horiz-adv-x="964" 
d="M739 1055v-90h-96v-138h-158v138h-280v90l260 362h178v-362h96zM344 1055h141v127q0 37 7 98q-48 -94 -76 -127z" />
    <glyph glyph-name="Euro.001" horiz-adv-x="1343" 
d="M1241 293l72 -182q-145 -127 -400 -127q-236 0 -395 119t-217 341h-188v174h159q-2 27 -2 82q0 49 2 72h-159v174h186q55 226 211 349.5t383 123.5q243 0 399 -127l-71 -182q-122 133 -328 133q-127 0 -217 -75t-131 -222h600l-62 -174h-565q-2 -23 -2 -72q0 -55 2 -82
h535l-62 -174h-442q42 -142 135.5 -213t228.5 -71q234 0 328 133z" />
    <glyph glyph-name="ampersand.ss01" horiz-adv-x="1288" 
d="M1262 428q0 -96 -55.5 -178.5t-170.5 -140.5l226 -326h-271l-153 227q-121 -26 -252 -26q-267 0 -397 100.5t-130 265.5q0 115 86 206.5t228 145.5q-13 21 -43.5 67.5t-42 65.5t-32 55.5t-28.5 60t-15 55t-7 61.5q0 148 97.5 235t287.5 87q177 0 279 -91t102 -233
q0 -107 -70 -185t-211 -120q291 -9 431.5 -97.5t140.5 -234.5zM600 1225q-154 0 -154 -154q0 -48 19.5 -99t38 -80t63.5 -95q104 59 148.5 123.5t44.5 148.5q0 66 -42.5 111t-117.5 45zM1055 414q0 114 -96.5 182.5t-303.5 77.5l297 -436q103 69 103 176zM322 369
q0 -222 296 -222q54 0 119 7l-286 432q-61 -37 -95 -93.5t-34 -123.5z" />
    <glyph glyph-name="uni031B.001" 
d="M-457 1165l-125 156h125q39 0 64.5 4t40.5 11t23 21t10 29t2 41v78h165v-90q0 -64 -7.5 -102t-34.5 -81t-92.5 -59.5t-170.5 -7.5z" />
    <glyph glyph-name="uni031B.001.002" 
d="M-457 1165l-250 39l7 117h243q39 0 64.5 4t40.5 11t23 21t10 29t2 41v78h165v-90q0 -64 -7.5 -102t-34.5 -81t-92.5 -59.5t-170.5 -7.5z" />
    <glyph glyph-name="uni03060301" 
d="M-489 1681h276l-205 -237h-168zM-379 1434h227q-8 -59 -27 -103.5t-56.5 -84t-103 -60.5t-157.5 -21t-157.5 21t-103 60.5t-56.5 84t-27 103.5h228q0 -134 116 -134q57 0 87 36.5t30 97.5z" />
    <glyph glyph-name="uni03060300" 
d="M-502 1681l96 -237h-167l-205 237h276zM-379 1434h227q-8 -59 -27 -103.5t-56.5 -84t-103 -60.5t-157.5 -21t-157.5 21t-103 60.5t-56.5 84t-27 103.5h228q0 -134 116 -134q57 0 87 36.5t30 97.5z" />
    <glyph glyph-name="uni03060309" 
d="M-705 1720q63 42 124.5 53.5t106 -4t74.5 -51t38 -80.5t-11.5 -99t-66.5 -101h-166q44 39 67 78t19 63.5t-24.5 36t-63.5 -1t-97 -49.5v155zM-379 1434h227q-8 -59 -27 -103.5t-56.5 -84t-103 -60.5t-157.5 -21t-157.5 21t-103 60.5t-56.5 84t-27 103.5h228
q0 -134 116 -134q57 0 87 36.5t30 97.5z" />
    <glyph glyph-name="uni03060303" 
d="M-373 1516q-51 0 -124.5 39.5t-106.5 39.5q-68 0 -68 -69h-125q15 107 64 160t139 53q51 0 125.5 -40t106.5 -40q67 0 67 70h125q-15 -107 -64 -160t-139 -53zM-379 1434h227q-8 -59 -27 -103.5t-56.5 -84t-103 -60.5t-157.5 -21t-157.5 21t-103 60.5t-56.5 84t-27 103.5
h228q0 -134 116 -134q57 0 87 36.5t30 97.5z" />
    <glyph glyph-name="uni03020301" 
d="M-428 1604h276l-204 -238h-168zM-629 1403l246 -238h-248l-96 133l-96 -133h-248l246 238h196z" />
    <glyph glyph-name="uni03020300" 
d="M-774 1604l96 -238h-168l-205 238h277zM-152 1165h-247l-97 133l-96 -133h-248l246 238h197z" />
    <glyph glyph-name="uni03020309" 
d="M-496 1638q63 42 124.5 53.5t106 -4t74.5 -51t38 -80.5t-11.5 -99t-66.5 -101h-166q44 39 67 78t19 63.5t-24.5 36t-63.5 -1t-97 -49.5v155zM-487 1403l245 -238h-247l-97 133l-96 -133h-248l246 238h197z" />
    <glyph glyph-name="uni03020303" 
d="M-606 1522q-68 0 -68 -70h-125q15 107 64 160t139 53q51 0 125 -40t106 -40q68 0 68 70h125q-15 -107 -64 -160t-139 -53q-51 0 -124.5 40t-106.5 40zM-152 1165h-247l-97 133l-96 -133h-248l246 238h197z" />
    <glyph glyph-name="caront" horiz-adv-x="675" 
d="M248 1300h276l-205 -237h-167z" />
    </font>
</defs>
</svg>
