<svg xmlns="http://www.w3.org/2000/svg">
<defs>
<font id="GangsterGrotesk-Regular" horiz-adv-x="0" >
  <font-face 
    font-family="Gangster Grotesk"
    font-weight="400"
    font-stretch="normal"
    units-per-em="2048"
    panose-1="0 0 5 0 0 0 0 0 0 0"
    ascent="1638"
    descent="-410"
    x-height="1020"
    cap-height="1374"
    bbox="-958 -592 2753 2080.26"
    underline-thickness="106"
    underline-position="-409"
    unicode-range="U+0020-FB02"
  />
<missing-glyph horiz-adv-x="1390" 
d="M391 1266q33 0 60 -7.5t48.5 -24.5t38 -36t28.5 -50t21 -59t14.5 -70.5t9 -76t5 -84.5t2 -87.5t0.5 -92.5q0 -63 -0.5 -103t-2.5 -98t-6.5 -95.5t-12.5 -85t-19.5 -77.5t-28.5 -62t-39 -50t-52 -29.5t-66 -11.5q-47 0 -83 19t-59.5 46.5t-40 79.5t-25 95t-13 116.5
t-5.5 122.5t-1 133q0 65 0.5 103t2.5 95.5t6 92.5t12 81t19.5 74t28.5 58t39.5 46.5t52 27t66.5 10.5zM997 1266q36 0 66 -10.5t52 -27t39.5 -46.5t29 -58.5t19.5 -73t12 -81t6.5 -92.5t3 -96.5t0.5 -102.5t-0.5 -103t-3 -98.5t-6.5 -95.5t-12 -85t-19.5 -77.5t-29 -62
t-39.5 -49.5t-52 -29.5t-66 -11.5q-47 0 -83 19t-59.5 46.5t-40 79.5t-25 95t-13 116.5t-5.5 122.5t-1 133q0 65 0.5 103t2.5 95.5t6 92.5t12 81t19.5 74t28.5 58t39.5 46.5t52 27t66.5 10.5zM391 1196q-19 0 -34.5 -9t-27 -28t-20.5 -43.5t-14.5 -61t-9.5 -74t-6 -89.5
t-2.5 -100t-0.5 -113v-66q15 50 46 80.5t69 30.5t69 -32.5t46 -84.5v72q0 132 -4 216t-15.5 158.5t-35 109t-60.5 34.5zM997 1196q-26 0 -44.5 -15.5t-31 -49.5t-20.5 -74.5t-11.5 -105t-5 -125t-1.5 -148.5v-72q15 52 46.5 84.5t69.5 32.5q36 0 67 -30.5t46 -80.5v66
q0 132 -4 216t-15.5 158.5t-35 109t-60.5 34.5zM997 133q52 0 77.5 76.5t33.5 222.5q-17 -45 -46.5 -71.5t-62.5 -26.5q-36 0 -66.5 29t-45.5 77q6 -151 31 -229t79 -78zM391 133q52 0 77.5 78t33.5 227q-18 -47 -47.5 -75.5t-63.5 -28.5t-63 27t-47 73q7 -147 31.5 -224
t78.5 -77z" />
    <glyph glyph-name="fi" unicode="fi" horiz-adv-x="1392" 
d="M283 1030q0 168 88 263.5t241 95.5q131 0 228 -64v-154q-93 82 -199 82q-184 0 -184 -200v-158h374l-34 -107h-340v-788h-174v788h-244l37 107h207v135zM1022 1374h205v-172h-205v172zM1036 0v1022h174v-1022h-174z" />
    <glyph glyph-name="fl" unicode="fl" horiz-adv-x="1398" 
d="M283 1030q0 168 88 263.5t241 95.5q131 0 228 -64v-154q-93 82 -199 82q-184 0 -184 -200v-158h374l-34 -107h-340v-788h-174v788h-244l37 107h207v135zM1061 1374h174v-1374h-174v1374z" />
    <glyph glyph-name=".notdef" horiz-adv-x="1390" 
d="M391 1266q33 0 60 -7.5t48.5 -24.5t38 -36t28.5 -50t21 -59t14.5 -70.5t9 -76t5 -84.5t2 -87.5t0.5 -92.5q0 -63 -0.5 -103t-2.5 -98t-6.5 -95.5t-12.5 -85t-19.5 -77.5t-28.5 -62t-39 -50t-52 -29.5t-66 -11.5q-47 0 -83 19t-59.5 46.5t-40 79.5t-25 95t-13 116.5
t-5.5 122.5t-1 133q0 65 0.5 103t2.5 95.5t6 92.5t12 81t19.5 74t28.5 58t39.5 46.5t52 27t66.5 10.5zM997 1266q36 0 66 -10.5t52 -27t39.5 -46.5t29 -58.5t19.5 -73t12 -81t6.5 -92.5t3 -96.5t0.5 -102.5t-0.5 -103t-3 -98.5t-6.5 -95.5t-12 -85t-19.5 -77.5t-29 -62
t-39.5 -49.5t-52 -29.5t-66 -11.5q-47 0 -83 19t-59.5 46.5t-40 79.5t-25 95t-13 116.5t-5.5 122.5t-1 133q0 65 0.5 103t2.5 95.5t6 92.5t12 81t19.5 74t28.5 58t39.5 46.5t52 27t66.5 10.5zM391 1196q-19 0 -34.5 -9t-27 -28t-20.5 -43.5t-14.5 -61t-9.5 -74t-6 -89.5
t-2.5 -100t-0.5 -113v-66q15 50 46 80.5t69 30.5t69 -32.5t46 -84.5v72q0 132 -4 216t-15.5 158.5t-35 109t-60.5 34.5zM997 1196q-26 0 -44.5 -15.5t-31 -49.5t-20.5 -74.5t-11.5 -105t-5 -125t-1.5 -148.5v-72q15 52 46.5 84.5t69.5 32.5q36 0 67 -30.5t46 -80.5v66
q0 132 -4 216t-15.5 158.5t-35 109t-60.5 34.5zM997 133q52 0 77.5 76.5t33.5 222.5q-17 -45 -46.5 -71.5t-62.5 -26.5q-36 0 -66.5 29t-45.5 77q6 -151 31 -229t79 -78zM391 133q52 0 77.5 78t33.5 227q-18 -47 -47.5 -75.5t-63.5 -28.5t-63 27t-47 73q7 -147 31.5 -224
t78.5 -77z" />
    <glyph glyph-name=".null" 
 />
    <glyph glyph-name="nonmarkingreturn" horiz-adv-x="682" 
 />
    <glyph glyph-name="space" unicode=" " horiz-adv-x="534" 
 />
    <glyph glyph-name="exclam" unicode="!" horiz-adv-x="530" 
d="M213 391l-39 748v235h182v-235l-39 -748h-104zM162 0v221h205v-221h-205z" />
    <glyph glyph-name="quotedbl" unicode="&#x22;" horiz-adv-x="823" 
d="M195 907l-41 467h196l-41 -467h-114zM514 907l-41 467h197l-41 -467h-115z" />
    <glyph glyph-name="numbersign" unicode="#" horiz-adv-x="1452" 
d="M1352 924h-211l-105 -447h144v-129h-174l-84 -362h-158l84 362h-408l-84 -362h-155l84 362h-185v129h215l105 447h-176v129h207l81 352h156l-82 -352h408l82 352h157l-82 -352h181v-129zM879 477l104 447h-408l-104 -447h408z" />
    <glyph glyph-name="dollar" unicode="$" horiz-adv-x="1325" 
d="M750 791q107 -33 176 -65t124.5 -78.5t80 -110.5t24.5 -152q0 -163 -106.5 -268t-298.5 -127v-166h-140v164q-208 10 -330.5 116.5t-136.5 282.5l156 98q4 -163 85 -259t226 -111v526q-224 63 -316.5 149.5t-92.5 245.5q0 147 108.5 242.5t300.5 114.5v168h140v-166
q180 -13 295.5 -111.5t134.5 -247.5l-152 -92q-8 133 -80 216t-198 102v-471zM375 1067q0 -93 51 -142.5t184 -93.5v433q-112 -12 -173.5 -63.5t-61.5 -133.5zM750 117q113 15 171 76t58 163q0 91 -52.5 146t-176.5 98v-483z" />
    <glyph glyph-name="percent" unicode="%" horiz-adv-x="2039" 
d="M487 580q-151 0 -255.5 114.5t-104.5 292.5q0 180 104.5 295t255.5 115q152 0 255.5 -115t103.5 -295t-103.5 -293.5t-255.5 -113.5zM532 -14l822 1409h153l-823 -1409h-152zM489 690q91 0 146 78.5t55 218.5q0 142 -55 220.5t-146 78.5t-145.5 -78.5t-54.5 -220.5
q0 -140 54.5 -218.5t145.5 -78.5zM1554 -14q-152 0 -256 114t-104 293q0 180 104.5 295t255.5 115t255 -115t104 -295q0 -179 -104 -293t-255 -114zM1556 96q90 0 144.5 78.5t54.5 218.5q0 142 -54.5 220.5t-144.5 78.5q-92 0 -147 -78.5t-55 -220.5q0 -140 55 -218.5
t147 -78.5z" />
    <glyph glyph-name="ampersand" unicode="&#x26;" horiz-adv-x="1294" 
d="M1247 0h-205l-96 111q-165 -130 -399 -127q-214 3 -343.5 98t-129.5 268q0 240 327 373q-84 98 -120.5 177.5t-36.5 174.5q0 140 104.5 227t276.5 87q160 0 260 -91.5t100 -224.5q0 -128 -90 -212t-268 -146l331 -383q49 88 59.5 203.5t-11.5 203.5h176q16 -120 -15 -262
t-112 -254zM621 1264q-95 0 -150 -50t-55 -135q0 -134 139 -288q146 56 209 123.5t63 162.5q0 85 -56.5 136t-149.5 51zM256 367q0 -84 47 -143.5t115.5 -86t148.5 -26.5q175 0 285 96l-381 436q-98 -38 -156.5 -110t-58.5 -166z" />
    <glyph glyph-name="quotesingle" unicode="'" horiz-adv-x="503" 
d="M195 907l-41 467h196l-41 -467h-114z" />
    <glyph glyph-name="parenleft" unicode="(" horiz-adv-x="694" 
d="M430 -172q-266 407 -266 793q0 383 266 790h156q-234 -380 -234 -790q0 -413 234 -793h-156z" />
    <glyph glyph-name="parenright" unicode=")" horiz-adv-x="694" 
d="M262 -172h-153q233 378 233 793q0 412 -233 790h153q266 -407 266 -790q0 -386 -266 -793z" />
    <glyph glyph-name="asterisk" unicode="*" horiz-adv-x="940" 
d="M786 1151l-235 -102l235 -105l-69 -119l-207 154l29 -256h-138l29 256l-209 -154l-67 119l233 105l-233 102l69 119l207 -152l-29 254h138l-29 -252l207 152z" />
    <glyph glyph-name="plus" unicode="+" horiz-adv-x="1290" 
d="M1126 608v-131h-391v-395h-176v395h-395v131h395v396h176v-396h391z" />
    <glyph glyph-name="comma" unicode="," horiz-adv-x="526" 
d="M156 182h219v-264q-1 -101 -63.5 -153t-157.5 -50v109q44 0 68 19.5t24 74.5v72h-90v192z" />
    <glyph glyph-name="hyphen" unicode="-" horiz-adv-x="942" 
d="M164 477v131h614v-131h-614z" />
    <glyph glyph-name="period" unicode="." horiz-adv-x="507" 
d="M154 -12v202h200v-202h-200z" />
    <glyph glyph-name="slash" unicode="/" horiz-adv-x="708" 
d="M-72 -319l615 1724h166l-615 -1724h-166z" />
    <glyph glyph-name="zero" unicode="0" horiz-adv-x="1404" 
d="M705 -14q-260 0 -420 195t-160 515q0 319 160 513t420 194q258 0 416.5 -194t158.5 -513t-158.5 -514.5t-416.5 -195.5zM705 117q178 0 282.5 155.5t104.5 423.5q0 265 -105 421.5t-282 156.5q-179 0 -285.5 -157t-106.5 -421q0 -266 106.5 -422.5t285.5 -156.5z" />
    <glyph glyph-name="one" unicode="1" horiz-adv-x="1103" 
d="M745 133h312v-133h-850v133h362v1057q-186 -195 -391 -281l-61 144q134 60 230 133.5t208 185.5h190v-1239z" />
    <glyph glyph-name="two" unicode="2" horiz-adv-x="1234" 
d="M702 457q-21 -12 -77.5 -45t-86 -50.5t-75.5 -50.5t-70 -58.5t-44.5 -59.5t-22.5 -68h782l-2 -133h-967q-2 90 23 166.5t57 126t96.5 102t105 77.5t120.5 70q8 5 12.5 7.5t11.5 6.5t13 7q198 112 274 194t76 207q0 151 -82 233.5t-228 82.5q-161 0 -255.5 -102
t-88.5 -273l-168 72q-1 123 65.5 221.5t186.5 154.5t271 56q228 0 353.5 -112t125.5 -316q0 -57 -12 -108.5t-30 -91.5t-51.5 -80t-62.5 -67.5t-77 -61t-82.5 -54.5t-90.5 -53z" />
    <glyph glyph-name="three" unicode="3" horiz-adv-x="1245" 
d="M784 707q170 -15 263.5 -102t93.5 -232q0 -179 -143 -283t-382 -104q-151 0 -272 53t-190.5 152.5t-67.5 226.5l164 65q-3 -166 96.5 -267t269.5 -101q165 0 250.5 69t85.5 203q0 129 -90.5 189.5t-269.5 60.5h-129v127h98q182 0 270.5 60t88.5 186q0 120 -79 189
t-216 69q-145 0 -237.5 -85t-96.5 -225l-166 84q9 106 76.5 187t178 124.5t245.5 43.5q221 0 349 -101t128 -268q0 -135 -84.5 -220.5t-233.5 -100.5z" />
    <glyph glyph-name="four" unicode="4" horiz-adv-x="1316" 
d="M1266 496v-134h-254v-362h-178v362h-730v134l672 876h236v-876h254zM287 496h547v546q0 96 6 195q-90 -132 -140 -199z" />
    <glyph glyph-name="five" unicode="5" horiz-adv-x="1247" 
d="M672 915q213 0 344 -128t131 -343q0 -202 -134 -330t-370 -128q-212 0 -346.5 96.5t-169.5 271.5l166 66q4 -140 100 -221.5t248 -81.5q156 -1 239 85.5t83 243.5q0 155 -87.5 251t-246.5 96q-103 0 -194 -51.5t-134 -127.5l-156 52l154 706h752v-131h-619l-92 -438
q131 112 332 112z" />
    <glyph glyph-name="six" unicode="6" horiz-adv-x="1286" 
d="M711 895q208 0 332 -126.5t124 -328.5q0 -200 -141.5 -326t-368.5 -126q-261 0 -395.5 169t-134.5 486q0 366 150 561t432 195q189 0 313.5 -90t155.5 -238l-158 -65q-28 121 -106.5 191.5t-208.5 70.5q-204 0 -308.5 -168t-99.5 -457q19 47 53.5 89.5t85 80t122 60
t153.5 22.5zM668 119q145 0 231 87.5t86 233.5q0 150 -81.5 237t-225.5 87q-146 0 -244 -93t-98 -231q0 -135 93.5 -228t238.5 -93z" />
    <glyph glyph-name="seven" unicode="7" horiz-adv-x="1048" 
d="M59 1372h949v-131h-2q-200 -168 -327 -378t-173.5 -425.5t-24.5 -437.5h-211q2 355 143.5 670t434.5 571h-789v131z" />
    <glyph glyph-name="eight" unicode="8" horiz-adv-x="1290" 
d="M829 719q145 -12 249 -112t104 -236q0 -177 -144 -281t-389 -104t-388.5 104t-143.5 281q0 136 103.5 236t248.5 112q-128 22 -210.5 110t-82.5 211q0 160 131 259.5t342 99.5t343 -99.5t132 -259.5q0 -123 -83 -211t-212 -110zM354 1022q0 -114 80.5 -182t214.5 -68
q135 0 215 68t80 182q0 115 -72.5 180.5t-222.5 65.5t-222.5 -65.5t-72.5 -180.5zM649 117q174 0 261 73t87 195q0 124 -94.5 197t-253.5 73t-252.5 -73t-93.5 -197q0 -122 86 -195t260 -73z" />
    <glyph glyph-name="nine" unicode="9" horiz-adv-x="1286" 
d="M633 1397q252 0 388 -173.5t136 -482.5q0 -386 -130 -570.5t-419 -184.5q-205 0 -334.5 92.5t-167.5 253.5l158 61q25 -129 114.5 -203.5t229.5 -74.5q202 0 295 154t90 464q-20 -46 -53.5 -87t-82 -77.5t-116.5 -58t-147 -21.5q-215 0 -345 125t-130 330q0 201 142 327
t372 126zM618 618q145 0 239.5 93t94.5 233q0 138 -88 231t-235 93q-148 0 -237 -89t-89 -235t85.5 -236t229.5 -90z" />
    <glyph glyph-name="colon" unicode=":" horiz-adv-x="507" 
d="M154 807v203h200v-203h-200zM154 -12v202h200v-202h-200z" />
    <glyph glyph-name="semicolon" unicode=";" horiz-adv-x="524" 
d="M354 1010v-203h-200v203h200zM154 182h217v-264q0 -101 -62.5 -153t-158.5 -50v109q45 0 69.5 19.5t24.5 74.5v72h-90v192z" />
    <glyph glyph-name="less" unicode="&#x3c;" horiz-adv-x="1105" 
d="M942 1038v-139l-649 -371l649 -368v-142l-778 437v147z" />
    <glyph glyph-name="equal" unicode="=" horiz-adv-x="1290" 
d="M164 668v131h962v-131h-962zM164 268v131h962v-131h-962z" />
    <glyph glyph-name="greater" unicode="&#x3e;" horiz-adv-x="1105" 
d="M164 1038l778 -436v-147l-778 -437v142l649 368l-649 371v139z" />
    <glyph glyph-name="question" unicode="?" horiz-adv-x="1112" 
d="M563 1399q204 0 322.5 -104t118.5 -285q0 -291 -371 -387l-45 -222h-105l-28 283q190 38 278 110.5t88 202.5q0 136 -71.5 204.5t-200.5 68.5q-154 0 -227.5 -100t-65.5 -277l-168 72q-3 190 126 312t349 122zM438 0v221h205v-221h-205z" />
    <glyph glyph-name="at" unicode="@" horiz-adv-x="1785" 
d="M1079 901h162v-575q0 -156 102 -156q74 0 118 98.5t44 280.5q0 106 -40 207.5t-114.5 185t-193.5 135t-264 51.5t-262 -51t-191 -140t-113.5 -204t-39.5 -246q0 -135 39 -250t115 -203t199.5 -138t281.5 -50q218 0 401 84v-114q-183 -84 -401 -84q-177 0 -331 58.5
t-261 159t-168.5 240t-61.5 297.5q0 154 61.5 294t166.5 242t252.5 162t312.5 60q164 0 313 -59.5t252 -157t164 -223.5t61 -256q0 -207 -98.5 -341t-265.5 -134q-96 0 -158.5 47t-77.5 127q-67 -178 -258 -178q-153 0 -251.5 118.5t-98.5 309.5t98.5 309.5t251.5 118.5
q184 0 254 -166v141zM866 160q101 0 161 92.5t60 245.5t-60.5 246.5t-160.5 93.5q-102 0 -159.5 -93t-57.5 -247t57.5 -246t159.5 -92z" />
    <glyph glyph-name="A" unicode="A" horiz-adv-x="1357" 
d="M1149 0l-158 418h-629l-161 -418h-174l538 1374h238l528 -1374h-182zM414 549h528l-176 467q-28 76 -86 252q-52 -157 -86 -250z" />
    <glyph glyph-name="B" unicode="B" horiz-adv-x="1357" 
d="M950 702q140 -28 217.5 -115.5t77.5 -217.5q0 -178 -133.5 -273.5t-370.5 -95.5h-579v1374h577q469 0 469 -358q0 -265 -258 -314zM721 1243h-379v-483h363q162 0 241.5 56t79.5 183q0 130 -73.5 187t-231.5 57zM729 131q157 0 242.5 57t85.5 191q0 127 -83 188.5
t-237 61.5h-395v-498h387z" />
    <glyph glyph-name="C" unicode="C" horiz-adv-x="1374" 
d="M1135 545l159 -99q-10 -205 -165 -332.5t-390 -127.5q-297 0 -468 187t-171 517q0 327 167.5 517t451.5 190q221 0 368.5 -111.5t161.5 -288.5l-157 -98q-7 174 -108.5 270.5t-264.5 96.5q-203 0 -314.5 -150t-111.5 -426q0 -278 115 -425.5t331 -147.5q182 0 286 110.5
t110 317.5z" />
    <glyph glyph-name="D" unicode="D" horiz-adv-x="1376" 
d="M549 1374q360 0 543.5 -173.5t183.5 -512.5q0 -341 -183 -514.5t-544 -173.5h-387v1374h387zM530 131q285 0 421 136.5t136 420.5q0 281 -136.5 418t-420.5 137h-188v-1112h188z" />
    <glyph glyph-name="E" unicode="E" horiz-adv-x="1163" 
d="M1063 1243h-721v-481h672v-131h-672v-500h721v-131h-901v1374h901v-131z" />
    <glyph glyph-name="F" unicode="F" horiz-adv-x="1136" 
d="M1063 1243h-721v-481h664v-131h-664v-631h-180v1374h901v-131z" />
    <glyph glyph-name="G" unicode="G" horiz-adv-x="1452" 
d="M1296 721v-721h-172v272q-36 -138 -140 -212t-275 -74q-279 0 -444 189t-165 515q0 330 170.5 518.5t464.5 188.5q233 0 379 -106t164 -273l-154 -94q-13 162 -117 252t-272 90q-213 0 -328.5 -149t-115.5 -427q0 -274 112.5 -423.5t315.5 -149.5q185 0 288.5 99.5
t116.5 295.5v80h-395v129h567z" />
    <glyph glyph-name="H" unicode="H" horiz-adv-x="1388" 
d="M1049 1374h178v-1374h-178v631h-707v-631h-180v1374h180v-612h707v612z" />
    <glyph glyph-name="I" unicode="I" horiz-adv-x="503" 
d="M162 0v1374h178v-1374h-178z" />
    <glyph glyph-name="J" unicode="J" horiz-adv-x="1077" 
d="M748 1374h176v-944q0 -222 -106.5 -333t-328.5 -111q-171 0 -286 99t-144 269l168 101q15 -175 86.5 -256.5t196.5 -81.5q122 0 180 82t58 250v925z" />
    <glyph glyph-name="K" unicode="K" horiz-adv-x="1243" 
d="M1239 0h-242l-655 684v-684h-180v1374h180v-682l659 682h207l-653 -667z" />
    <glyph glyph-name="L" unicode="L" horiz-adv-x="1101" 
d="M342 131h680v-131h-860v1374h180v-1243z" />
    <glyph glyph-name="M" unicode="M" horiz-adv-x="1728" 
d="M1567 1374v-1374h-170v1257l-418 -1257h-227l-420 1257v-1257h-170v1374h293l305 -891q73 -235 104 -389q36 179 105 387l305 893h293z" />
    <glyph glyph-name="N" unicode="N" horiz-adv-x="1449" 
d="M1118 1374h170v-1374h-274l-557 981q-52 96 -125 256v-1237h-170v1374h274l551 -973q59 -105 131 -260v1233z" />
    <glyph glyph-name="O" unicode="O" horiz-adv-x="1454" 
d="M727 -14q-288 0 -457.5 189t-169.5 515t169.5 516.5t457.5 190.5q289 0 458 -190t169 -517q0 -326 -169 -515t-458 -189zM727 115q206 0 322 152t116 423q0 273 -117 424.5t-323 151.5q-205 0 -319.5 -151.5t-114.5 -424.5q0 -271 115 -423t321 -152z" />
    <glyph glyph-name="P" unicode="P" horiz-adv-x="1267" 
d="M729 1374q220 0 343.5 -94.5t123.5 -284.5q0 -188 -123.5 -282.5t-343.5 -94.5h-389v-618h-178v1374h567zM715 748q299 0 299 247q0 248 -299 248h-375v-495h375z" />
    <glyph glyph-name="Q" unicode="Q" horiz-adv-x="1460" 
d="M1354 690q0 -193 -61 -340t-175 -239l195 -291h-199l-139 209q-110 -43 -248 -43q-288 0 -457.5 189t-169.5 515t169.5 516.5t457.5 190.5q289 0 458 -190t169 -517zM727 115q100 0 168 32l-246 367h199l182 -270q135 150 135 446q0 273 -116 424.5t-322 151.5
t-321 -151.5t-115 -424.5q0 -271 115 -423t321 -152z" />
    <glyph glyph-name="R" unicode="R" horiz-adv-x="1361" 
d="M1137 496q42 -229 73 -336.5t68 -159.5h-207q-46 87 -106 463q-17 91 -72.5 128.5t-173.5 37.5h-377v-629h-180v1374h581q224 0 347.5 -88t123.5 -270q0 -120 -71.5 -204.5t-196.5 -113.5q85 -18 130.5 -68t60.5 -134zM729 760q144 0 221.5 62.5t77.5 189.5
q0 231 -297 231h-389v-483h387z" />
    <glyph glyph-name="S" unicode="S" horiz-adv-x="1271" 
d="M657 809q103 -29 170 -53.5t131 -59.5t99.5 -76t56.5 -100t21 -135q0 -182 -133.5 -290.5t-368.5 -108.5q-232 0 -370 107.5t-150 293.5l157 98q3 -179 101.5 -276.5t271.5 -97.5q153 0 233 63t80 182q0 107 -77 166.5t-267 110.5q-242 64 -341 152t-99 251t133.5 262
t364.5 99q204 0 336 -100.5t153 -260.5l-151 -92q-9 152 -103 238t-254 86q-142 0 -223.5 -54t-81.5 -147q0 -104 64.5 -154.5t246.5 -103.5z" />
    <glyph glyph-name="T" unicode="T" horiz-adv-x="1163" 
d="M1124 1374v-131h-450v-1243h-178v1243h-457v131h1085z" />
    <glyph glyph-name="U" unicode="U" horiz-adv-x="1329" 
d="M999 1374h179v-901q0 -245 -123 -366t-389 -121t-390 121t-124 366v901h178l2 -887q0 -191 75 -280.5t259 -89.5t258.5 90t74.5 280v887z" />
    <glyph glyph-name="V" unicode="V" horiz-adv-x="1241" 
d="M1026 1374h195l-473 -1382h-254l-476 1382h195l299 -907q50 -140 109 -346q68 238 106 342z" />
    <glyph glyph-name="W" unicode="W" horiz-adv-x="1941" 
d="M1712 1374h193l-381 -1374h-248l-250 928q-35 166 -55 291q-19 -111 -56 -291l-249 -928h-250l-379 1374h192l254 -975q36 -126 64 -264q28 152 57 262l252 977h229l250 -968q38 -147 60 -273q41 191 63 275z" />
    <glyph glyph-name="X" unicode="X" horiz-adv-x="1218" 
d="M1200 0h-207l-385 559l-391 -559h-192l487 696l-467 678h205l366 -530l371 530h193l-467 -667z" />
    <glyph glyph-name="Y" unicode="Y" horiz-adv-x="1204" 
d="M1186 1374l-494 -784v-590h-176v584l-498 790h201l387 -633l387 633h193z" />
    <glyph glyph-name="Z" unicode="Z" horiz-adv-x="1193" 
d="M305 131h809v-131h-1012v127l779 1116h-801v131h1003v-131z" />
    <glyph glyph-name="bracketleft" unicode="[" horiz-adv-x="643" 
d="M520 1282h-180v-1325h180v-129h-358v1583h358v-129z" />
    <glyph glyph-name="backslash" unicode="\" horiz-adv-x="708" 
d="M780 -319h-166l-614 1724h166z" />
    <glyph glyph-name="bracketright" unicode="]" horiz-adv-x="643" 
d="M123 1411h358v-1583h-358v129h180v1325h-180v129z" />
    <glyph glyph-name="asciicircum" unicode="^" horiz-adv-x="1142" 
d="M979 791h-141l-267 462l-266 -462h-141l334 591h147z" />
    <glyph glyph-name="underscore" unicode="_" horiz-adv-x="1331" 
d="M164 -145v131h1003v-131h-1003z" />
    <glyph glyph-name="grave" unicode="`" horiz-adv-x="643" 
d="M371 1403l108 -238h-123l-192 238h207z" />
    <glyph glyph-name="a" unicode="a" horiz-adv-x="1095" 
d="M535 1053q196 0 302.5 -88.5t106.5 -247.5v-717h-176v197q-39 -96 -125 -153.5t-199 -57.5q-154 0 -249 79t-95 211q0 130 94.5 211.5t282.5 120.5l291 62v39q0 115 -62.5 173t-181.5 58q-120 0 -189 -63.5t-83 -176.5l-152 66q15 122 136.5 204.5t298.5 82.5zM504 102
q111 0 188.5 84.5t77.5 208.5v191l-256 -66q-219 -55 -219 -223q0 -97 54 -146t155 -49z" />
    <glyph glyph-name="b" unicode="b" horiz-adv-x="1226" 
d="M682 1053q197 0 318.5 -147t121.5 -388q0 -239 -121.5 -385.5t-318.5 -146.5q-254 0 -344 235v-221h-176v1374h176v-557q90 236 344 236zM633 98q138 0 218.5 114t80.5 306q0 194 -80.5 308t-218.5 114q-134 0 -217.5 -117.5t-83.5 -304.5q0 -186 84 -303t217 -117z" />
    <glyph glyph-name="c" unicode="c" horiz-adv-x="1083" 
d="M874 373l148 -88q-36 -150 -146 -224.5t-276 -74.5q-229 0 -364.5 143t-135.5 389t136 390.5t364 144.5q140 0 245 -68t148 -188l-155 -88q-31 118 -93 174.5t-161 56.5q-134 0 -212.5 -110.5t-78.5 -311.5q0 -205 84.5 -313.5t243.5 -108.5q106 0 172 69.5t81 207.5z
" />
    <glyph glyph-name="d" unicode="d" horiz-adv-x="1232" 
d="M897 1374h174v-1374h-174v221q-90 -235 -346 -235q-197 0 -318.5 146.5t-121.5 385.5q0 241 121.5 388t318.5 147q256 0 346 -236v557zM602 98q133 0 217 117t84 303q0 187 -83.5 304.5t-217.5 117.5q-138 0 -218.5 -114t-80.5 -308q0 -192 80.5 -306t218.5 -114z" />
    <glyph glyph-name="e" unicode="e" horiz-adv-x="1132" 
d="M889 332l147 -88q-116 -258 -436 -258q-229 0 -364.5 143.5t-135.5 388.5q0 243 131 389t347 146q210 0 327 -145t119 -394h-2l2 -6h-735q3 -193 90 -301.5t242 -108.5q104 0 173 59t95 175zM578 940q-124 0 -197 -88.5t-88 -247.5h538q-11 175 -70.5 255.5t-182.5 80.5z
" />
    <glyph glyph-name="f" unicode="f" horiz-adv-x="897" 
d="M641 1253q-184 0 -184 -200v-158h374l-34 -107h-340v-788h-174v788h-244l37 107h207v135q0 168 88 263.5t241 95.5q131 0 228 -64v-154q-93 82 -199 82z" />
    <glyph glyph-name="g" unicode="g" horiz-adv-x="1187" 
d="M860 1020h174v-897q0 -218 -125.5 -330t-351.5 -112q-161 0 -276.5 68t-161.5 185l160 91q37 -120 104 -179t186 -59q291 0 291 371v170q-43 -113 -127 -173.5t-198 -60.5q-188 0 -308.5 135.5t-120.5 343.5q0 210 122 345t315 135q112 0 193 -59.5t124 -170.5v197z
M580 207q121 0 201.5 104.5t80.5 261.5t-80.5 263t-201.5 106q-125 0 -203 -102t-78 -267q0 -164 78 -265t203 -101z" />
    <glyph glyph-name="h" unicode="h" horiz-adv-x="1189" 
d="M670 1055q170 0 265 -98.5t95 -270.5v-686h-176v670q0 119 -59.5 189.5t-176.5 70.5q-128 0 -203 -89t-77 -227v-614h-176v1374h176v-549q89 230 332 230z" />
    <glyph glyph-name="i" unicode="i" horiz-adv-x="538" 
d="M166 1202v172h205v-172h-205zM180 0v1022h174v-1022h-174z" />
    <glyph glyph-name="j" unicode="j" horiz-adv-x="526" 
d="M178 1374h203v-170h-203v170zM193 -51v1071h174v-1110q0 -108 -64.5 -168.5t-175.5 -60.5q-63 0 -119 24v156q48 -27 92 -27q93 0 93 115z" />
    <glyph glyph-name="k" unicode="k" horiz-adv-x="1062" 
d="M1022 0h-217l-467 559v-559h-176v1374h176v-807l491 453l162 2l-471 -434z" />
    <glyph glyph-name="l" unicode="l" horiz-adv-x="503" 
d="M164 0v1374h174v-1374h-174z" />
    <glyph glyph-name="m" unicode="m" horiz-adv-x="1722" 
d="M1249 1053q146 0 233 -87.5t87 -254.5v-711h-174v694q0 117 -52 179.5t-145 62.5q-104 0 -173 -91t-71 -231v-614h-176v690q0 117 -51.5 181.5t-142.5 64.5q-106 0 -175 -91t-71 -231v-614h-176v1022h176v-193q86 224 295 224q118 0 199 -59t108 -171q86 230 309 230z
" />
    <glyph glyph-name="n" unicode="n" horiz-adv-x="1181" 
d="M670 1053q170 0 265 -97.5t95 -269.5v-686h-174v670q0 119 -59.5 189.5t-178.5 70.5q-128 0 -203.5 -89t-78.5 -227v-614h-174v1020h174v-201q89 234 334 234z" />
    <glyph glyph-name="o" unicode="o" horiz-adv-x="1196" 
d="M598 -14q-228 0 -363 144t-135 388q0 246 135 390.5t363 144.5q229 0 362.5 -144.5t133.5 -390.5q0 -245 -133.5 -388.5t-362.5 -143.5zM598 98q149 0 228 109t79 311q0 203 -79 312.5t-228 109.5q-148 0 -227.5 -109.5t-79.5 -312.5q0 -201 79.5 -310.5t227.5 -109.5z
" />
    <glyph glyph-name="p" unicode="p" horiz-adv-x="1222" 
d="M686 1053q197 0 316.5 -147t119.5 -388q0 -239 -120 -385.5t-316 -146.5q-257 0 -348 237v-530h-174v1327h174v-205q91 238 348 238zM635 98q137 0 217 113.5t80 306.5q0 194 -79.5 308t-217.5 114q-134 0 -218.5 -117.5t-84.5 -304.5q0 -186 84.5 -303t218.5 -117z" />
    <glyph glyph-name="q" unicode="q" horiz-adv-x="1232" 
d="M895 1020h176v-1327h-176v530q-91 -237 -346 -237q-198 0 -318 146t-120 386q0 242 120 388.5t318 146.5q255 0 346 -238v205zM598 98q134 0 218.5 117t84.5 303q0 187 -84.5 304.5t-218.5 117.5q-137 0 -216 -114t-79 -308q0 -193 79 -306.5t216 -113.5z" />
    <glyph glyph-name="r" unicode="r" horiz-adv-x="944" 
d="M612 1053q130 0 198 -87t64 -249l-159 -90q1 168 -33.5 237.5t-110.5 69.5q-109 0 -171 -125t-62 -360v-449h-176v1022h176l-6 -270q30 149 103 225t177 76z" />
    <glyph glyph-name="s" unicode="s" horiz-adv-x="1003" 
d="M530 616q199 -45 282 -113t83 -194q0 -151 -107.5 -237t-293.5 -86q-144 0 -255.5 70.5t-136.5 179.5l136 83q20 -107 90.5 -164t179.5 -57q113 0 167 40t54 124q0 81 -53 118.5t-189 65.5q-187 39 -271.5 109.5t-84.5 198.5q0 131 102.5 216.5t288.5 86.5
q152 1 254.5 -66.5t126.5 -179.5l-143 -66q-20 97 -85.5 149t-170.5 52q-98 0 -155.5 -41t-57.5 -117q0 -73 51.5 -108t187.5 -64z" />
    <glyph glyph-name="t" unicode="t" horiz-adv-x="894" 
d="M614 127q107 0 203 76v-154q-91 -61 -237 -61q-151 0 -229.5 73t-78.5 207v645h-233l37 107h196v264h174v-264h365l-37 -107h-328v-606q0 -93 40.5 -136.5t127.5 -43.5z" />
    <glyph glyph-name="u" unicode="u" horiz-adv-x="1191" 
d="M854 1020h174v-1020h-174v217q-91 -231 -342 -231q-178 0 -269 86.5t-91 269.5v678h176v-653q0 -124 59 -194.5t180 -70.5q133 0 209 89t78 231v598z" />
    <glyph glyph-name="v" unicode="v" horiz-adv-x="1032" 
d="M815 1020h178l-375 -1020h-204l-375 1020h180l238 -690q37 -100 61 -203q28 115 57 201z" />
    <glyph glyph-name="w" unicode="w" horiz-adv-x="1499" 
d="M1282 1020h178l-282 -1018h-99l-116 -2l-177 715q-21 91 -36 180q-18 -105 -35 -180l-178 -715l-117 2h-98l-283 1018h180l170 -682q28 -110 47 -232q30 166 45 232l164 682h209l168 -690q20 -91 41 -219q18 108 45 221z" />
    <glyph glyph-name="x" unicode="x" horiz-adv-x="1071" 
d="M1010 1020l-387 -496l387 -524h-201l-281 397l-282 -397h-187l385 510l-385 510h203l277 -385l284 385h187z" />
    <glyph glyph-name="y" unicode="y" horiz-adv-x="1046" 
d="M805 1020h182l-510 -1327h-176l164 368l-408 959h185l250 -621q41 -106 51 -141z" />
    <glyph glyph-name="z" unicode="z" horiz-adv-x="958" 
d="M295 111h596v-111h-791v111l582 798h-602v111h799v-111z" />
    <glyph glyph-name="braceleft" unicode="{" horiz-adv-x="774" 
d="M471 791q0 -146 -139 -168q139 -28 139 -164v-432q0 -32 15.5 -51t45.5 -19h119v-129h-162q-186 0 -186 190v412q0 69 -41.5 97t-138.5 34v127q96 0 138 28t42 103v402q0 190 186 190h162v-129h-119q-30 0 -45.5 -18t-15.5 -50v-423z" />
    <glyph glyph-name="bar" unicode="|" horiz-adv-x="503" 
d="M162 -311v1722h178v-1722h-178z" />
    <glyph glyph-name="braceright" unicode="}" horiz-adv-x="774" 
d="M471 819q0 -75 42 -103t138 -28v-127q-97 -6 -138.5 -34t-41.5 -97v-412q0 -190 -184 -190h-164v129h119q30 0 45.5 19t15.5 51v432q0 135 141 164q-141 22 -141 168v423q0 32 -15.5 50t-45.5 18h-119v129h164q184 0 184 -190v-402z" />
    <glyph glyph-name="asciitilde" unicode="~" horiz-adv-x="1196" 
d="M795 344q-43 0 -90.5 21.5t-88.5 52t-78.5 61.5t-73 52.5t-61.5 21.5q-57 0 -78.5 -44t-21.5 -130h-139q0 154 62 230.5t177 76.5q53 0 114 -32.5t106.5 -72t94 -72t79.5 -32.5q58 0 80 44.5t22 131.5h133q0 -155 -61 -232t-176 -77z" />
    <glyph glyph-name="exclamdown" unicode="&#xa1;" horiz-adv-x="530" 
d="M162 1020h205v-221h-205v221zM213 629h104l39 -701v-235h-182v235z" />
    <glyph glyph-name="cent" unicode="&#xa2;" horiz-adv-x="1210" 
d="M698 262q175 21 222 234l145 -88q-103 -233 -367 -256v-162h-129v164q-197 23 -311.5 163t-114.5 365t114.5 366t311.5 164v160h129v-158q264 -23 367 -256l-145 -88q-47 213 -222 234v-842zM336 682q0 -173 59.5 -278t173.5 -134v826q-114 -29 -173.5 -134.5
t-59.5 -279.5z" />
    <glyph glyph-name="sterling" unicode="&#xa3;" horiz-adv-x="1308" 
d="M1223 995l-156 -96q9 173 -60 269t-196 96q-139 0 -208.5 -89t-57.5 -245q4 -55 35 -168h385v-131h-351q15 -64 20 -114.5t-1.5 -109t-31 -105t-75 -91.5t-127.5 -78h824v-133h-1018v133q82 36 137 82.5t81.5 92.5t34.5 104t2.5 107t-20.5 112h-286v131h254
q-31 113 -35 170q-17 207 106 335t332 128q190 0 302.5 -110.5t109.5 -289.5z" />
    <glyph glyph-name="currency" unicode="&#xa4;" horiz-adv-x="1417" 
d="M1120 682q0 -127 -73 -233l206 -207l-106 -107l-209 209q-104 -68 -229 -68q-126 0 -230 68l-209 -209l-106 107l209 207q-76 107 -76 233q0 125 74 229l-207 207l106 107l209 -209q101 69 230 69q128 0 229 -69l209 209l106 -107l-206 -207q73 -103 73 -229zM453 682
q0 -112 71 -188t187 -76q111 0 183.5 77t72.5 187q0 109 -73.5 185.5t-182.5 76.5q-111 0 -184.5 -76.5t-73.5 -185.5z" />
    <glyph glyph-name="yen" unicode="&#xa5;" horiz-adv-x="1204" 
d="M1186 1374l-430 -684h307v-131h-371v-178h371v-131h-371v-250h-176v250h-381v131h381v178h-381v131h314l-431 684h201l387 -633l387 633h193z" />
    <glyph glyph-name="brokenbar" unicode="&#xa6;" horiz-adv-x="503" 
d="M162 756v655h178v-655h-178zM162 -319v655h178v-655h-178z" />
    <glyph glyph-name="section" unicode="&#xa7;" horiz-adv-x="1021" 
d="M913 639q0 -90 -49 -155t-131 -97q85 -39 123.5 -98t38.5 -146q0 -150 -107 -235.5t-292 -85.5q-146 0 -258 70t-138 180l138 82q22 -106 92 -164t178 -58q221 0 221 168q0 83 -53.5 121t-188.5 66q-188 38 -273 108t-85 199q0 83 54.5 146.5t146.5 93.5
q-93 40 -137.5 101.5t-45.5 154.5q0 130 103.5 214.5t290.5 84.5q152 0 254 -67t127 -181l-146 -64q-19 97 -84 149t-170 52q-98 0 -156.5 -42.5t-58.5 -119.5q0 -72 52 -106.5t190 -65.5q198 -43 281 -111.5t83 -193.5zM569 436q83 0 129.5 47t46.5 121q0 80 -64 129
t-169 49q-100 0 -160.5 -45.5t-60.5 -120.5q0 -74 86.5 -127t191.5 -53z" />
    <glyph glyph-name="dieresis" unicode="&#xa8;" horiz-adv-x="835" 
d="M164 1178v174h194v-174h-194zM477 1178v174h193v-174h-193z" />
    <glyph glyph-name="copyright" unicode="&#xa9;" horiz-adv-x="1748" 
d="M874 1397q159 0 302 -59t246 -159t164 -239.5t61 -294.5q0 -126 -38.5 -242.5t-109 -210t-165.5 -163.5t-213.5 -108t-246.5 -38q-161 0 -304.5 59t-246.5 160t-163 242.5t-60 300.5q0 154 60 293.5t163 240t246.5 159.5t304.5 59zM874 -2q183 0 321 88.5t208 234
t70 324.5q0 129 -42 244.5t-118 202t-189.5 137.5t-249.5 51q-135 0 -248.5 -51.5t-189.5 -138.5t-118 -202t-42 -243q0 -133 41 -250.5t116 -205.5t189 -139.5t252 -51.5zM901 301q205 0 211 254l135 -59q-13 -121 -110 -196t-236 -75q-176 0 -285.5 111t-109.5 303
q0 190 107 302t276 112q131 0 225 -65t107 -169l-134 -57q-4 104 -56 159.5t-142 55.5q-99 0 -164.5 -90t-65.5 -248t68 -248t174 -90z" />
    <glyph glyph-name="ordfeminine" unicode="&#xaa;" horiz-adv-x="847" 
d="M428 1399q148 0 232.5 -67t84.5 -185v-539h-141v148q-30 -73 -93 -115.5t-149 -42.5q-116 0 -187 59.5t-71 159.5q0 97 70.5 157.5t210.5 90.5l219 45v31q0 168 -182 168q-178 0 -197 -174l-121 49q11 92 101.5 153.5t222.5 61.5zM403 688q80 0 141.5 63t61.5 154v144
l-196 -50q-166 -43 -166 -168q0 -143 159 -143z" />
    <glyph glyph-name="guillemotleft" unicode="&#xab;" horiz-adv-x="1175" 
d="M649 909l-342 -391l342 -391h-184l-352 391l358 391h178zM1063 909l-344 -391l344 -391h-186l-351 391h-2l359 391h180z" />
    <glyph glyph-name="logicalnot" unicode="&#xac;" horiz-adv-x="1167" 
d="M1004 713v-582h-175v451h-665v131h840z" />
    <glyph glyph-name="uni00AD" unicode="&#xad;" horiz-adv-x="1228" 
d="M164 477v131h614v-131h-614z" />
    <glyph glyph-name="registered" unicode="&#xae;" horiz-adv-x="1748" 
d="M874 1397q159 0 302 -59t246 -159t164 -239.5t61 -294.5q0 -126 -38.5 -242.5t-109 -210t-165.5 -163.5t-213.5 -108t-246.5 -38q-161 0 -304.5 59t-246.5 160t-163 242.5t-60 300.5q0 154 60 293.5t163 240t246.5 159.5t304.5 59zM874 -2q183 0 321 88.5t208 234
t70 324.5q0 129 -42 244.5t-118 202t-189.5 137.5t-249.5 51q-135 0 -248.5 -51.5t-189.5 -138.5t-118 -202t-42 -243q0 -133 41 -250.5t116 -205.5t189 -139.5t252 -51.5zM1024 653q58 -10 82 -41.5t35 -85.5q22 -127 40 -185.5t40 -90.5h-140q-33 67 -61 260
q-9 53 -41 73.5t-102 20.5h-177v-354h-122v794h335q129 0 201 -51t72 -155q0 -73 -43 -120t-119 -65zM885 700q87 0 130.5 31.5t43.5 104.5q0 68 -43.5 96.5t-130.5 28.5h-185v-261h185z" />
    <glyph glyph-name="macron" unicode="&#xaf;" horiz-adv-x="821" 
d="M164 1290h491v-112h-491v112z" />
    <glyph glyph-name="degree" unicode="&#xb0;" horiz-adv-x="921" 
d="M461 805q-124 0 -211.5 87t-87.5 210t87.5 210t211.5 87q123 0 210 -87t87 -210t-87 -210t-210 -87zM461 928q69 0 117.5 50.5t48.5 123.5q0 74 -48 123t-118 49t-119 -49t-49 -123q0 -73 49.5 -123.5t118.5 -50.5z" />
    <glyph glyph-name="plusminus" unicode="&#xb1;" horiz-adv-x="1290" 
d="M735 690h391v-131h-391v-313h-176v313h-395v131h395v314h176v-314zM164 0v131h962v-131h-962z" />
    <glyph glyph-name="uni00B2" unicode="&#xb2;" horiz-adv-x="763" 
d="M233 674h449l-2 -90h-580q-2 29 0.5 55t8 47.5t17.5 42t22.5 35.5t29.5 32.5t31.5 28t36 25.5t36.5 22.5t38 21.5t36 21q108 64 146.5 108.5t38.5 109.5q0 83 -43 125t-115 42q-80 0 -129 -53.5t-43 -150.5l-129 43q-1 111 91 182.5t220 71.5q129 0 208 -66.5t79 -181.5
q0 -45 -14 -84t-32.5 -66t-55.5 -57.5t-63 -48t-75 -47.5q-12 -7 -58.5 -33t-68 -40.5t-47.5 -41t-33 -53.5z" />
    <glyph glyph-name="uni00B3" unicode="&#xb3;" horiz-adv-x="763" 
d="M518 995q79 -18 125.5 -66t46.5 -120q0 -107 -87.5 -168t-223.5 -61q-123 0 -211 64t-94 165l121 65q-3 -102 46.5 -154t137.5 -52q83 0 127.5 37t44.5 110q0 133 -184 133h-72v88h53q97 0 140.5 31t43.5 100q0 66 -42 101t-105 35q-71 0 -116 -39.5t-52 -120.5l-121 59
q18 88 98.5 138.5t190.5 50.5q120 0 201.5 -58t81.5 -155q0 -68 -41 -116t-109 -67z" />
    <glyph glyph-name="acute" unicode="&#xb4;" horiz-adv-x="643" 
d="M272 1403h207l-192 -238h-123z" />
    <glyph glyph-name="uni00B5" unicode="&#xb5;" horiz-adv-x="1310" 
d="M1040 221q0 -48 24.5 -73t82.5 -25v-123h-51q-115 2 -168 43t-60 137q-35 -100 -98.5 -147t-165.5 -47t-165.5 45.5t-98.5 144.5v-495h-176v1339h176v-574q1 -74 13 -128.5t40.5 -99.5t81 -68t129.5 -23q76 0 128.5 23t80.5 68t40 99.5t13 128.5v574h174v-799z" />
    <glyph glyph-name="paragraph" unicode="&#xb6;" horiz-adv-x="1433" 
d="M952 1374v-1710h-178v719h-127q-148 0 -260.5 71t-168.5 182.5t-56 242.5t56.5 242.5t169 182t259.5 70.5h305zM1094 1374h178v-1710h-178v1710zM674 508h100v741h-100q-89 0 -156.5 -32t-106.5 -86t-58 -117.5t-19 -134.5q0 -70 18.5 -133.5t56.5 -118t106 -87
t159 -32.5z" />
    <glyph glyph-name="periodcentered" unicode="&#xb7;" horiz-adv-x="507" 
d="M154 582v202h200v-202h-200z" />
    <glyph glyph-name="cedilla" unicode="&#xb8;" horiz-adv-x="673" 
d="M338 -61q85 -6 128.5 -44.5t43.5 -93.5q0 -68 -52.5 -104.5t-138.5 -36.5q-81 0 -155 23v98q60 -35 141 -35q39 0 57.5 19.5t18.5 48.5q0 88 -188 86l100 151h94z" />
    <glyph glyph-name="uni00B9" unicode="&#xb9;" horiz-adv-x="763" 
d="M489 674h205v-90h-575v90h231v567q-44 -50 -113 -96t-131 -66l-36 109q185 78 270 186h149v-700z" />
    <glyph glyph-name="ordmasculine" unicode="&#xba;" horiz-adv-x="847" 
d="M424 596q-171 0 -272 108.5t-101 292.5t101.5 293t271.5 109q172 0 272.5 -108.5t100.5 -293.5t-100.5 -293t-272.5 -108zM424 686q113 0 173 79.5t60 231.5t-60 232t-173 80q-111 0 -171 -80.5t-60 -231.5t60 -231t171 -80z" />
    <glyph glyph-name="guillemotright" unicode="&#xbb;" horiz-adv-x="1175" 
d="M293 909l356 -391l-350 -391h-186l344 391l-344 391h180zM705 909l358 -391h-2l-352 -391h-185l344 391l-344 391h181z" />
    <glyph glyph-name="onequarter" unicode="&#xbc;" horiz-adv-x="1251" 
d="M594 1288q-70 -90 -145 -114l-35 88q112 45 176 133h125v-482h123v-82h-387v82h143v375zM162 743h925v-88h-925v88zM778 563v-358h99v-80h-99v-131h-119v131h-282v80l270 358h131zM483 205h176v157q0 34 7 95q-28 -51 -58 -90z" />
    <glyph glyph-name="onehalf" unicode="&#xbd;" horiz-adv-x="1251" 
d="M594 1288q-70 -90 -145 -114l-35 88q112 45 176 133h125v-482h123v-82h-387v82h143v375zM162 743h925v-88h-925v88zM858 401q0 -39 -12 -70.5t-39.5 -58.5t-52 -45t-68.5 -45q-96 -48 -143 -90h313v-92h-450q-7 45 4.5 82t41.5 65t56.5 46t67.5 40q16 9 24 13
q72 40 98.5 72t26.5 79q0 50 -26.5 75.5t-67.5 25.5q-53 0 -83 -44t-16 -120l-129 57q-4 82 67 134.5t169 52.5t158.5 -47.5t60.5 -129.5z" />
    <glyph glyph-name="threequarters" unicode="&#xbe;" horiz-adv-x="1251" 
d="M399 1001l113 46q-3 -65 30 -100.5t85 -35.5q100 0 100 90q0 43 -27 63.5t-86 20.5h-67v76h55q60 0 88.5 20t28.5 64q0 40 -25 62t-63 22q-42 0 -72 -28.5t-31 -81.5l-112 49q17 66 78.5 103.5t140.5 37.5q91 0 150 -40.5t59 -108.5q0 -107 -123 -134q137 -27 137 -139
q0 -71 -64.5 -114.5t-162.5 -43.5q-94 0 -161.5 49.5t-70.5 122.5zM162 743h925v-88h-925v88zM778 563v-358h99v-80h-99v-131h-119v131h-282v80l270 358h131zM483 205h176v157q0 34 7 95q-28 -51 -58 -90z" />
    <glyph glyph-name="questiondown" unicode="&#xbf;" horiz-adv-x="1112" 
d="M674 1020v-221h-205v221h205zM1024 115q3 -191 -126 -312.5t-349 -121.5q-203 0 -321.5 99.5t-118.5 264.5q0 77 34.5 142.5t90.5 107.5t118 68.5t127 37.5l45 217h105l28 -268q-154 -3 -259 -84.5t-105 -208.5q0 -121 71 -184t199 -63q154 0 227.5 99.5t65.5 276.5z" />
    <glyph glyph-name="Agrave" unicode="&#xc0;" horiz-adv-x="1357" 
d="M762 1497h-123l-193 238h207zM1149 0l-158 418h-629l-161 -418h-174l538 1374h238l528 -1374h-182zM414 549h528l-176 467q-28 76 -86 252q-52 -157 -86 -250z" />
    <glyph glyph-name="Aacute" unicode="&#xc1;" horiz-adv-x="1357" 
d="M932 1735l-193 -238h-123l109 238h207zM1149 0l-158 418h-629l-161 -418h-174l538 1374h238l528 -1374h-182zM414 549h528l-176 467q-28 76 -86 252q-52 -157 -86 -250z" />
    <glyph glyph-name="Acircumflex" unicode="&#xc2;" horiz-adv-x="1357" 
d="M692 1642l-108 -157h-183l215 237h150l215 -237h-182zM1149 0l-158 418h-629l-161 -418h-174l538 1374h238l528 -1374h-182zM414 549h528l-176 467q-28 76 -86 252q-52 -157 -86 -250z" />
    <glyph glyph-name="Atilde" unicode="&#xc3;" horiz-adv-x="1357" 
d="M578 1595q-57 0 -60 -84h-102q11 98 51.5 147.5t118.5 49.5q40 0 81 -24t74.5 -48t57.5 -24q29 0 43.5 19t17.5 65h101q-11 -98 -51.5 -147.5t-118.5 -49.5q-32 0 -64.5 15t-54.5 33t-48 33t-46 15zM1149 0l-158 418h-629l-161 -418h-174l538 1374h238l528 -1374h-182z
M414 549h528l-176 467q-28 76 -86 252q-52 -157 -86 -250z" />
    <glyph glyph-name="Adieresis" unicode="&#xc4;" horiz-adv-x="1357" 
d="M629 1671v-174h-195v174h195zM940 1671v-174h-192v174h192zM1149 0l-158 418h-629l-161 -418h-174l538 1374h238l528 -1374h-182zM414 549h528l-176 467q-28 76 -86 252q-52 -157 -86 -250z" />
    <glyph glyph-name="Aring" unicode="&#xc5;" horiz-adv-x="1357" 
d="M690 1468q-86 0 -138 51t-52 134q0 80 52 129t138 49q85 0 137 -49t52 -131t-52 -132.5t-137 -50.5zM690 1739q-41 0 -63.5 -24t-22.5 -64q0 -42 22.5 -67t63.5 -25q39 0 61.5 25t22.5 67q0 40 -22.5 64t-61.5 24zM1149 0l-158 418h-629l-161 -418h-174l538 1374h238
l528 -1374h-182zM414 549h528l-176 467q-28 76 -86 252q-52 -157 -86 -250z" />
    <glyph glyph-name="AE" unicode="&#xc6;" horiz-adv-x="1785" 
d="M1686 1243h-832l186 -485h598v-131h-548l190 -496h406v-131h-537l-158 418h-624l-160 -418h-180l538 1374h1121v-131zM766 1016q-24 63 -78 227h-12q-24 -74 -78 -225l-180 -469h524z" />
    <glyph glyph-name="Ccedilla" unicode="&#xc7;" horiz-adv-x="1374" 
d="M1294 446q-10 -196 -152.5 -322t-363.5 -138l-41 -97q183 -24 183 -149q0 -74 -57 -114t-150 -40q-81 0 -172 25v102q77 -35 157 -35q39 0 59.5 19.5t20.5 52.5q0 41 -49 66t-158 24l97 148q-266 23 -417 207.5t-151 494.5q0 327 167.5 517t451.5 190q221 0 368.5 -111.5
t161.5 -288.5l-157 -98q-7 174 -108.5 270.5t-264.5 96.5q-203 0 -314.5 -150t-111.5 -426q0 -278 115 -425.5t331 -147.5q182 0 286 110.5t110 317.5z" />
    <glyph glyph-name="Egrave" unicode="&#xc8;" horiz-adv-x="1163" 
d="M698 1513h-123l-192 238h207zM1063 1243h-721v-481h672v-131h-672v-500h721v-131h-901v1374h901v-131z" />
    <glyph glyph-name="Eacute" unicode="&#xc9;" horiz-adv-x="1163" 
d="M868 1751l-192 -238h-123l109 238h206zM1063 1243h-721v-481h672v-131h-672v-500h721v-131h-901v1374h901v-131z" />
    <glyph glyph-name="Ecircumflex" unicode="&#xca;" horiz-adv-x="1163" 
d="M629 1659l-109 -158h-182l215 238h149l216 -238h-183zM1063 1243h-721v-481h672v-131h-672v-500h721v-131h-901v1374h901v-131z" />
    <glyph glyph-name="Edieresis" unicode="&#xcb;" horiz-adv-x="1163" 
d="M565 1688v-175h-194v175h194zM877 1688v-175h-193v175h193zM1063 1243h-721v-481h672v-131h-672v-500h721v-131h-901v1374h901v-131z" />
    <glyph glyph-name="Igrave" unicode="&#xcc;" horiz-adv-x="503" 
d="M215 1751l109 -238h-123l-193 238h207zM162 0v1374h178v-1374h-178z" />
    <glyph glyph-name="Iacute" unicode="&#xcd;" horiz-adv-x="503" 
d="M287 1751h207l-193 -238h-123zM162 0v1374h178v-1374h-178z" />
    <glyph glyph-name="Icircumflex" unicode="&#xce;" horiz-adv-x="503" 
d="M328 1739l215 -238h-183l-106 158l-109 -158h-182l215 238h150zM162 0v1374h178v-1374h-178z" />
    <glyph glyph-name="Idieresis" unicode="&#xcf;" horiz-adv-x="503" 
d="M-4 1513v175h194v-175h-194zM309 1513v175h193v-175h-193zM162 0v1374h178v-1374h-178z" />
    <glyph glyph-name="Eth" unicode="&#xd0;" horiz-adv-x="1376" 
d="M549 1374q360 0 543.5 -173.5t183.5 -512.5q0 -341 -183 -514.5t-544 -173.5h-387v631h-101v131h101v612h387zM530 131q285 0 421 136.5t136 420.5q0 281 -136.5 418t-420.5 137h-188v-481h274v-131h-274v-500h188z" />
    <glyph glyph-name="Ntilde" unicode="&#xd1;" horiz-adv-x="1449" 
d="M614 1612q-56 0 -59 -84h-102q11 98 51.5 147t118.5 49q40 0 81 -24t74.5 -48t57.5 -24q29 0 43.5 19t17.5 65h100q-11 -98 -51.5 -147t-118.5 -49q-32 0 -64.5 15t-54.5 33t-48 33t-46 15zM1118 1374h170v-1374h-274l-557 981q-52 96 -125 256v-1237h-170v1374h274
l551 -973q59 -105 131 -260v1233z" />
    <glyph glyph-name="Ograve" unicode="&#xd2;" horiz-adv-x="1454" 
d="M690 1751l109 -238h-123l-193 238h207zM727 -14q-288 0 -457.5 189t-169.5 515t169.5 516.5t457.5 190.5q289 0 458 -190t169 -517q0 -326 -169 -515t-458 -189zM727 115q206 0 322 152t116 423q0 273 -117 424.5t-323 151.5q-205 0 -319.5 -151.5t-114.5 -424.5
q0 -271 115 -423t321 -152z" />
    <glyph glyph-name="Oacute" unicode="&#xd3;" horiz-adv-x="1454" 
d="M762 1751h207l-193 -238h-123zM727 -14q-288 0 -457.5 189t-169.5 515t169.5 516.5t457.5 190.5q289 0 458 -190t169 -517q0 -326 -169 -515t-458 -189zM727 115q206 0 322 152t116 423q0 273 -117 424.5t-323 151.5q-205 0 -319.5 -151.5t-114.5 -424.5q0 -271 115 -423
t321 -152z" />
    <glyph glyph-name="Ocircumflex" unicode="&#xd4;" horiz-adv-x="1454" 
d="M731 1659l-108 -158h-183l215 238h150l215 -238h-182zM727 1397q289 0 458 -190t169 -517q0 -326 -169 -515t-458 -189q-288 0 -457.5 189t-169.5 515t169.5 516.5t457.5 190.5zM727 115q206 0 322 152t116 423q0 273 -117 424.5t-323 151.5q-205 0 -319.5 -151.5
t-114.5 -424.5q0 -271 115 -423t321 -152z" />
    <glyph glyph-name="Otilde" unicode="&#xd5;" horiz-adv-x="1454" 
d="M829 1516q-32 0 -64.5 15t-54.5 33t-48 33t-46 15q-56 0 -59 -84h-102q11 98 51.5 147t118.5 49q40 0 81 -24t74.5 -48t57.5 -24q29 0 43.5 19t17.5 65h100q-11 -98 -51.5 -147t-118.5 -49zM727 -14q-288 0 -457.5 189t-169.5 515t169.5 516.5t457.5 190.5
q289 0 458 -190t169 -517q0 -326 -169 -515t-458 -189zM727 115q206 0 322 152t116 423q0 273 -117 424.5t-323 151.5q-205 0 -319.5 -151.5t-114.5 -424.5q0 -271 115 -423t321 -152z" />
    <glyph glyph-name="Odieresis" unicode="&#xd6;" horiz-adv-x="1454" 
d="M473 1513v175h195v-175h-195zM786 1513v175h193v-175h-193zM727 -14q-288 0 -457.5 189t-169.5 515t169.5 516.5t457.5 190.5q289 0 458 -190t169 -517q0 -326 -169 -515t-458 -189zM727 115q206 0 322 152t116 423q0 273 -117 424.5t-323 151.5q-205 0 -319.5 -151.5
t-114.5 -424.5q0 -271 115 -423t321 -152z" />
    <glyph glyph-name="multiply" unicode="&#xd7;" horiz-adv-x="1185" 
d="M1022 874l-336 -335l336 -336l-92 -92l-336 335l-338 -335l-92 92l336 336l-336 335l92 93l338 -336l336 336z" />
    <glyph glyph-name="Oslash" unicode="&#xd8;" horiz-adv-x="1454" 
d="M1200 1188q154 -190 154 -498q0 -326 -169 -515t-458 -189q-216 0 -367 108l-84 -108h-163l151 196q-164 191 -164 508q0 326 169.5 516.5t457.5 190.5q224 0 381 -117l74 96h164zM291 690q0 -221 80 -368l641 833q-114 111 -287 111q-205 0 -319.5 -151.5t-114.5 -424.5
zM727 115q206 0 322 152t116 423q0 214 -73 357l-639 -832q109 -100 274 -100z" />
    <glyph glyph-name="Ugrave" unicode="&#xd9;" horiz-adv-x="1329" 
d="M735 1513h-123l-192 238h207zM999 1374h179v-901q0 -245 -123 -366t-389 -121t-390 121t-124 366v901h178l2 -887q0 -191 75 -280.5t259 -89.5t258.5 90t74.5 280v887z" />
    <glyph glyph-name="Uacute" unicode="&#xda;" horiz-adv-x="1329" 
d="M905 1751l-192 -238h-123l108 238h207zM999 1374h179v-901q0 -245 -123 -366t-389 -121t-390 121t-124 366v901h178l2 -887q0 -191 75 -280.5t259 -89.5t258.5 90t74.5 280v887z" />
    <glyph glyph-name="Ucircumflex" unicode="&#xdb;" horiz-adv-x="1329" 
d="M666 1659l-109 -158h-182l215 238h149l215 -238h-182zM999 1374h179v-901q0 -245 -123 -366t-389 -121t-390 121t-124 366v901h178l2 -887q0 -191 75 -280.5t259 -89.5t258.5 90t74.5 280v887z" />
    <glyph glyph-name="Udieresis" unicode="&#xdc;" horiz-adv-x="1329" 
d="M602 1688v-175h-194v175h194zM913 1688v-175h-192v175h192zM999 1374h179v-901q0 -245 -123 -366t-389 -121t-390 121t-124 366v901h178l2 -887q0 -191 75 -280.5t259 -89.5t258.5 90t74.5 280v887z" />
    <glyph glyph-name="Yacute" unicode="&#xdd;" horiz-adv-x="1204" 
d="M844 1751l-193 -238h-123l109 238h207zM1186 1374l-494 -784v-590h-176v584l-498 790h201l387 -633l387 633h193z" />
    <glyph glyph-name="Thorn" unicode="&#xde;" horiz-adv-x="1267" 
d="M729 1085q220 0 343.5 -94t123.5 -282q0 -190 -123.5 -284.5t-343.5 -94.5h-389v-330h-178v1374h178v-289h389zM715 461q145 0 222 58.5t77 189.5q0 247 -299 247h-375v-495h375z" />
    <glyph glyph-name="germandbls" unicode="&#xdf;" horiz-adv-x="1120" 
d="M647 717q190 -31 296 -130t106 -249q0 -86 -33.5 -154.5t-90 -111.5t-128 -65.5t-150.5 -22.5q-113 0 -190.5 45t-116.5 121v-457h-176v1308q0 179 113.5 278t291.5 99q166 0 281 -95.5t115 -246.5q0 -129 -88 -211t-230 -108zM633 96q108 0 171.5 66t63.5 194
q0 123 -86 205.5t-245 97.5v111q109 5 183.5 63t74.5 171q0 122 -66 187.5t-166 65.5q-97 0 -160 -59.5t-63 -163.5v-710q12 -101 93.5 -164.5t199.5 -63.5z" />
    <glyph glyph-name="agrave" unicode="&#xe0;" horiz-adv-x="1095" 
d="M612 1176h-123l-192 237h207zM535 1053q196 0 302.5 -88.5t106.5 -247.5v-717h-176v197q-39 -96 -125 -153.5t-199 -57.5q-154 0 -249 79t-95 211q0 130 94.5 211.5t282.5 120.5l291 62v39q0 115 -62.5 173t-181.5 58q-120 0 -189 -63.5t-83 -176.5l-152 66
q15 122 136.5 204.5t298.5 82.5zM504 102q111 0 188.5 84.5t77.5 208.5v191l-256 -66q-219 -55 -219 -223q0 -97 54 -146t155 -49z" />
    <glyph glyph-name="aacute" unicode="&#xe1;" horiz-adv-x="1095" 
d="M782 1413l-192 -237h-123l108 237h207zM535 1053q196 0 302.5 -88.5t106.5 -247.5v-717h-176v197q-39 -96 -125 -153.5t-199 -57.5q-154 0 -249 79t-95 211q0 130 94.5 211.5t282.5 120.5l291 62v39q0 115 -62.5 173t-181.5 58q-120 0 -189 -63.5t-83 -176.5l-152 66
q15 122 136.5 204.5t298.5 82.5zM504 102q111 0 188.5 84.5t77.5 208.5v191l-256 -66q-219 -55 -219 -223q0 -97 54 -146t155 -49z" />
    <glyph glyph-name="acircumflex" unicode="&#xe2;" horiz-adv-x="1095" 
d="M543 1321l-109 -158h-182l215 238h149l215 -238h-182zM535 1053q196 0 302.5 -88.5t106.5 -247.5v-717h-176v197q-39 -96 -125 -153.5t-199 -57.5q-154 0 -249 79t-95 211q0 130 94.5 211.5t282.5 120.5l291 62v39q0 115 -62.5 173t-181.5 58q-120 0 -189 -63.5
t-83 -176.5l-152 66q15 122 136.5 204.5t298.5 82.5zM504 102q111 0 188.5 84.5t77.5 208.5v191l-256 -66q-219 -55 -219 -223q0 -97 54 -146t155 -49z" />
    <glyph glyph-name="atilde" unicode="&#xe3;" horiz-adv-x="1095" 
d="M428 1274q-56 0 -59 -84h-103q11 98 51.5 147t118.5 49q40 0 81 -24t74.5 -48t57.5 -24q29 0 44 19t18 65h100q-11 -98 -51.5 -147t-118.5 -49q-32 0 -64.5 15t-54.5 33t-48 33t-46 15zM535 1053q196 0 302.5 -88.5t106.5 -247.5v-717h-176v197q-39 -96 -125 -153.5
t-199 -57.5q-154 0 -249 79t-95 211q0 130 94.5 211.5t282.5 120.5l291 62v39q0 115 -62.5 173t-181.5 58q-120 0 -189 -63.5t-83 -176.5l-152 66q15 122 136.5 204.5t298.5 82.5zM504 102q111 0 188.5 84.5t77.5 208.5v191l-256 -66q-219 -55 -219 -223q0 -97 54 -146
t155 -49z" />
    <glyph glyph-name="adieresis" unicode="&#xe4;" horiz-adv-x="1095" 
d="M479 1350v-174h-194v174h194zM791 1350v-174h-193v174h193zM535 1053q196 0 302.5 -88.5t106.5 -247.5v-717h-176v197q-39 -96 -125 -153.5t-199 -57.5q-154 0 -249 79t-95 211q0 130 94.5 211.5t282.5 120.5l291 62v39q0 115 -62.5 173t-181.5 58q-120 0 -189 -63.5
t-83 -176.5l-152 66q15 122 136.5 204.5t298.5 82.5zM504 102q111 0 188.5 84.5t77.5 208.5v191l-256 -66q-219 -55 -219 -223q0 -97 54 -146t155 -49z" />
    <glyph glyph-name="aring" unicode="&#xe5;" horiz-adv-x="1095" 
d="M539 1147q-80 0 -129.5 48t-49.5 126q0 75 49.5 121.5t129.5 46.5t129 -47t49 -123q0 -77 -49.5 -124.5t-128.5 -47.5zM539 1405q-38 0 -59 -23.5t-21 -62.5t21.5 -63.5t58.5 -24.5q39 0 60.5 24.5t21.5 63.5t-21.5 62.5t-60.5 23.5zM535 1053q196 0 302.5 -88.5
t106.5 -247.5v-717h-176v197q-39 -96 -125 -153.5t-199 -57.5q-154 0 -249 79t-95 211q0 130 94.5 211.5t282.5 120.5l291 62v39q0 115 -62.5 173t-181.5 58q-120 0 -189 -63.5t-83 -176.5l-152 66q15 122 136.5 204.5t298.5 82.5zM504 102q111 0 188.5 84.5t77.5 208.5v191
l-256 -66q-219 -55 -219 -223q0 -97 54 -146t155 -49z" />
    <glyph glyph-name="ae" unicode="&#xe6;" horiz-adv-x="1802" 
d="M1559 332l145 -88q-113 -258 -434 -258q-212 0 -346 125v-111h-156v199q-42 -98 -129.5 -155.5t-204.5 -57.5q-151 0 -242.5 78.5t-91.5 211.5q0 130 94.5 211.5t282.5 120.5l291 62v39q0 115 -62.5 173t-181.5 58q-120 0 -189 -63.5t-83 -176.5l-152 66
q15 122 136.5 204.5t298.5 82.5q265 0 352 -164q132 164 360 164q210 0 327.5 -145t119.5 -394h-2l2 -6h-736q3 -193 90 -301.5t242 -108.5q104 0 173.5 59t95.5 175zM1247 940q-124 0 -196.5 -88t-87.5 -248h538q-11 175 -71 255.5t-183 80.5zM504 102q111 0 188.5 84.5
t77.5 208.5v191l-256 -66q-219 -55 -219 -223q0 -97 54 -146t155 -49z" />
    <glyph glyph-name="ccedilla" unicode="&#xe7;" horiz-adv-x="1083" 
d="M1022 285q-33 -136 -127.5 -210.5t-237.5 -86.5l-34 -80q85 -6 128.5 -44t43.5 -93q0 -68 -52.5 -105t-138.5 -37q-81 0 -155 23v98q60 -35 141 -35q39 0 57.5 19.5t18.5 48.5q0 88 -189 86l78 119q-209 14 -332 155.5t-123 374.5q0 246 136 390.5t364 144.5
q140 0 245 -68t148 -188l-155 -88q-31 118 -93 174.5t-161 56.5q-134 0 -212.5 -110.5t-78.5 -311.5q0 -205 84.5 -313.5t243.5 -108.5q106 0 172 69.5t81 207.5z" />
    <glyph glyph-name="egrave" unicode="&#xe8;" horiz-adv-x="1132" 
d="M645 1176h-123l-192 237h207zM889 332l147 -88q-116 -258 -436 -258q-229 0 -364.5 143.5t-135.5 388.5q0 243 131 389t347 146q210 0 327 -145t119 -394h-2l2 -6h-735q3 -193 90 -301.5t242 -108.5q104 0 173 59t95 175zM578 940q-124 0 -197 -88.5t-88 -247.5h538
q-11 175 -70.5 255.5t-182.5 80.5z" />
    <glyph glyph-name="eacute" unicode="&#xe9;" horiz-adv-x="1132" 
d="M815 1413l-192 -237h-123l108 237h207zM889 332l147 -88q-116 -258 -436 -258q-229 0 -364.5 143.5t-135.5 388.5q0 243 131 389t347 146q210 0 327 -145t119 -394h-2l2 -6h-735q3 -193 90 -301.5t242 -108.5q104 0 173 59t95 175zM578 940q-124 0 -197 -88.5t-88 -247.5
h538q-11 175 -70.5 255.5t-182.5 80.5z" />
    <glyph glyph-name="ecircumflex" unicode="&#xea;" horiz-adv-x="1132" 
d="M575 1321l-108 -158h-182l215 238h149l215 -238h-182zM889 332l147 -88q-116 -258 -436 -258q-229 0 -364.5 143.5t-135.5 388.5q0 243 131 389t347 146q210 0 327 -145t119 -394h-2l2 -6h-735q3 -193 90 -301.5t242 -108.5q104 0 173 59t95 175zM578 940
q-124 0 -197 -88.5t-88 -247.5h538q-11 175 -70.5 255.5t-182.5 80.5z" />
    <glyph glyph-name="edieresis" unicode="&#xeb;" horiz-adv-x="1132" 
d="M512 1350v-174h-195v174h195zM823 1350v-174h-192v174h192zM889 332l147 -88q-116 -258 -436 -258q-229 0 -364.5 143.5t-135.5 388.5q0 243 131 389t347 146q210 0 327 -145t119 -394h-2l2 -6h-735q3 -193 90 -301.5t242 -108.5q104 0 173 59t95 175zM578 940
q-124 0 -197 -88.5t-88 -247.5h538q-11 175 -70.5 255.5t-182.5 80.5z" />
    <glyph glyph-name="igrave" unicode="&#xec;" horiz-adv-x="503" 
d="M215 1403l109 -238h-123l-193 238h207zM164 0v1022h174v-1022h-174z" />
    <glyph glyph-name="iacute" unicode="&#xed;" horiz-adv-x="503" 
d="M287 1403h207l-193 -238h-123zM164 0v1022h174v-1022h-174z" />
    <glyph glyph-name="icircumflex" unicode="&#xee;" horiz-adv-x="503" 
d="M328 1391l215 -238h-183l-106 158l-109 -158h-182l215 238h150zM164 0v1022h174v-1022h-174z" />
    <glyph glyph-name="idieresis" unicode="&#xef;" horiz-adv-x="503" 
d="M-4 1165v174h194v-174h-194zM309 1165v174h193v-174h-193zM164 0v1022h174v-1022h-174z" />
    <glyph glyph-name="eth" unicode="&#xf0;" horiz-adv-x="1128" 
d="M829 1159q187 -212 187 -551q0 -291 -122 -457.5t-353 -166.5q-215 0 -337 132.5t-122 348.5q0 213 117.5 349t304.5 136q126 0 218.5 -68t139.5 -200q0 245 -162 424l-227 -98v127l133 57q-123 92 -278 145l123 52q157 -45 284 -142l199 86v-129zM553 94
q127 0 201.5 103t74.5 268q0 161 -80 267t-196 106q-125 0 -202 -106.5t-77 -266.5q0 -159 76.5 -265t202.5 -106z" />
    <glyph glyph-name="ntilde" unicode="&#xf1;" horiz-adv-x="1181" 
d="M483 1274q-56 0 -59 -84h-102q11 98 51.5 147t118.5 49q40 0 81 -24t74.5 -48t57.5 -24q29 0 43.5 19t17.5 65h100q-11 -98 -51.5 -147t-118.5 -49q-40 0 -80.5 24t-74 48t-58.5 24zM670 1053q170 0 265 -97.5t95 -269.5v-686h-174v670q0 119 -59.5 189.5t-178.5 70.5
q-128 0 -203.5 -89t-78.5 -227v-614h-174v1020h174v-201q89 234 334 234z" />
    <glyph glyph-name="ograve" unicode="&#xf2;" horiz-adv-x="1196" 
d="M561 1413l109 -237h-123l-193 237h207zM598 -14q-228 0 -363 144t-135 388q0 246 135 390.5t363 144.5q229 0 362.5 -144.5t133.5 -390.5q0 -245 -133.5 -388.5t-362.5 -143.5zM598 98q149 0 228 109t79 311q0 203 -79 312.5t-228 109.5q-148 0 -227.5 -109.5
t-79.5 -312.5q0 -201 79.5 -310.5t227.5 -109.5z" />
    <glyph glyph-name="oacute" unicode="&#xf3;" horiz-adv-x="1196" 
d="M633 1413h207l-193 -237h-123zM598 -14q-228 0 -363 144t-135 388q0 246 135 390.5t363 144.5q229 0 362.5 -144.5t133.5 -390.5q0 -245 -133.5 -388.5t-362.5 -143.5zM598 98q149 0 228 109t79 311q0 203 -79 312.5t-228 109.5q-148 0 -227.5 -109.5t-79.5 -312.5
q0 -201 79.5 -310.5t227.5 -109.5z" />
    <glyph glyph-name="ocircumflex" unicode="&#xf4;" horiz-adv-x="1196" 
d="M600 1321l-108 -158h-183l215 238h150l215 -238h-182zM598 1053q229 0 362.5 -144.5t133.5 -390.5q0 -245 -133.5 -388.5t-362.5 -143.5q-228 0 -363 144t-135 388q0 246 135 390.5t363 144.5zM598 98q149 0 228 109t79 311q0 203 -79 312.5t-228 109.5
q-148 0 -227.5 -109.5t-79.5 -312.5q0 -201 79.5 -310.5t227.5 -109.5z" />
    <glyph glyph-name="otilde" unicode="&#xf5;" horiz-adv-x="1196" 
d="M700 1178q-32 0 -64.5 15t-54.5 33t-48 33t-46 15q-56 0 -59 -84h-102q11 98 51.5 147t118.5 49q40 0 81 -24t74.5 -48t57.5 -24q29 0 43.5 19t17.5 65h100q-11 -98 -51.5 -147t-118.5 -49zM598 -14q-228 0 -363 144t-135 388q0 246 135 390.5t363 144.5
q229 0 362.5 -144.5t133.5 -390.5q0 -245 -133.5 -388.5t-362.5 -143.5zM598 98q149 0 228 109t79 311q0 203 -79 312.5t-228 109.5q-148 0 -227.5 -109.5t-79.5 -312.5q0 -201 79.5 -310.5t227.5 -109.5z" />
    <glyph glyph-name="odieresis" unicode="&#xf6;" horiz-adv-x="1196" 
d="M342 1176v174h195v-174h-195zM655 1176v174h193v-174h-193zM598 -14q-228 0 -363 144t-135 388q0 246 135 390.5t363 144.5q229 0 362.5 -144.5t133.5 -390.5q0 -245 -133.5 -388.5t-362.5 -143.5zM598 98q149 0 228 109t79 311q0 203 -79 312.5t-228 109.5
q-148 0 -227.5 -109.5t-79.5 -312.5q0 -201 79.5 -310.5t227.5 -109.5z" />
    <glyph glyph-name="divide" unicode="&#xf7;" horiz-adv-x="1228" 
d="M567 850v158h158v-158h-158zM164 477v131h962v-131h-962zM567 78v158h158v-158h-158z" />
    <glyph glyph-name="oslash" unicode="&#xf8;" horiz-adv-x="1196" 
d="M1094 1042l-121 -149q121 -143 121 -375q0 -245 -133.5 -388.5t-362.5 -143.5q-168 0 -289 82l-65 -82h-144l125 155q-125 141 -125 377q0 246 135 390.5t363 144.5q172 0 297 -86l61 75h138zM291 518q0 -151 43 -244l471 582q-78 84 -207 84q-148 0 -227.5 -109.5
t-79.5 -312.5zM905 518q0 142 -39 240l-469 -582q78 -78 201 -78q149 0 228 109t79 311z" />
    <glyph glyph-name="ugrave" unicode="&#xf9;" horiz-adv-x="1191" 
d="M670 1176h-123l-193 237h207zM854 1020h174v-1020h-174v217q-91 -231 -342 -231q-178 0 -269 86.5t-91 269.5v678h176v-653q0 -124 59 -194.5t180 -70.5q133 0 209 89t78 231v598z" />
    <glyph glyph-name="uacute" unicode="&#xfa;" horiz-adv-x="1191" 
d="M840 1413l-193 -237h-123l109 237h207zM854 1020h174v-1020h-174v217q-91 -231 -342 -231q-178 0 -269 86.5t-91 269.5v678h176v-653q0 -124 59 -194.5t180 -70.5q133 0 209 89t78 231v598z" />
    <glyph glyph-name="ucircumflex" unicode="&#xfb;" horiz-adv-x="1191" 
d="M600 1321l-108 -158h-183l215 238h150l215 -238h-182zM854 1020h174v-1020h-174v217q-91 -231 -342 -231q-178 0 -269 86.5t-91 269.5v678h176v-653q0 -124 59 -194.5t180 -70.5q133 0 209 89t78 231v598z" />
    <glyph glyph-name="udieresis" unicode="&#xfc;" horiz-adv-x="1191" 
d="M537 1350v-174h-195v174h195zM848 1350v-174h-193v174h193zM854 1020h174v-1020h-174v217q-91 -231 -342 -231q-178 0 -269 86.5t-91 269.5v678h176v-653q0 -124 59 -194.5t180 -70.5q133 0 209 89t78 231v598z" />
    <glyph glyph-name="yacute" unicode="&#xfd;" horiz-adv-x="1046" 
d="M776 1413l-192 -237h-123l108 237h207zM805 1020h182l-510 -1327h-176l164 368l-408 959h185l250 -621q41 -106 51 -141z" />
    <glyph glyph-name="thorn" unicode="&#xfe;" horiz-adv-x="1222" 
d="M686 1053q197 0 316.5 -147t119.5 -388q0 -239 -120 -385.5t-316 -146.5q-255 0 -348 229v-522h-174v1681h174v-551q94 230 348 230zM635 98q137 0 217 113.5t80 306.5q0 194 -79.5 308t-217.5 114q-134 0 -218.5 -117.5t-84.5 -304.5q0 -186 84.5 -303t218.5 -117z" />
    <glyph glyph-name="ydieresis" unicode="&#xff;" horiz-adv-x="1046" 
d="M473 1350v-174h-194v174h194zM784 1350v-174h-192v174h192zM805 1020h182l-510 -1327h-176l164 368l-408 959h185l250 -621q41 -106 51 -141z" />
    <glyph glyph-name="Amacron" unicode="&#x100;" horiz-adv-x="1357" 
d="M936 1610v-113h-492v113h492zM1149 0l-158 418h-629l-161 -418h-174l538 1374h238l528 -1374h-182zM414 549h528l-176 467q-28 76 -86 252q-52 -157 -86 -250z" />
    <glyph glyph-name="amacron" unicode="&#x101;" horiz-adv-x="1095" 
d="M786 1288v-112h-491v112h491zM535 1053q196 0 302.5 -88.5t106.5 -247.5v-717h-176v197q-39 -96 -125 -153.5t-199 -57.5q-154 0 -249 79t-95 211q0 130 94.5 211.5t282.5 120.5l291 62v39q0 115 -62.5 173t-181.5 58q-120 0 -189 -63.5t-83 -176.5l-152 66
q15 122 136.5 204.5t298.5 82.5zM504 102q111 0 188.5 84.5t77.5 208.5v191l-256 -66q-219 -55 -219 -223q0 -97 54 -146t155 -49z" />
    <glyph glyph-name="Abreve" unicode="&#x102;" horiz-adv-x="1357" 
d="M692 1485q-151 0 -214.5 59.5t-76.5 177.5h170q0 -85 30 -121t91 -36q119 0 119 157h170q-13 -117 -77 -177t-212 -60zM1149 0l-158 418h-629l-161 -418h-174l538 1374h238l528 -1374h-182zM414 549h528l-176 467q-28 76 -86 252q-52 -157 -86 -250z" />
    <glyph glyph-name="abreve" unicode="&#x103;" horiz-adv-x="1095" 
d="M543 1163q-151 0 -214.5 60t-76.5 178h170q0 -85 30 -121.5t91 -36.5q119 0 119 158h169q-13 -117 -77 -177.5t-211 -60.5zM535 1053q196 0 302.5 -88.5t106.5 -247.5v-717h-176v197q-39 -96 -125 -153.5t-199 -57.5q-154 0 -249 79t-95 211q0 130 94.5 211.5
t282.5 120.5l291 62v39q0 115 -62.5 173t-181.5 58q-120 0 -189 -63.5t-83 -176.5l-152 66q15 122 136.5 204.5t298.5 82.5zM504 102q111 0 188.5 84.5t77.5 208.5v191l-256 -66q-219 -55 -219 -223q0 -97 54 -146t155 -49z" />
    <glyph glyph-name="Aogonek" unicode="&#x104;" horiz-adv-x="1357" 
d="M1331 0q-46 -44 -66 -90.5t-11.5 -80t33 -54.5t69 -17.5t94.5 33.5v-94q-55 -34 -109.5 -40t-94.5 11.5t-66.5 53t-32.5 80t15 97.5t69 101h-82l-158 418h-629l-161 -418h-174l538 1374h238zM414 549h528l-176 467q-28 76 -86 252q-52 -157 -86 -250z" />
    <glyph glyph-name="aogonek" unicode="&#x105;" horiz-adv-x="1095" 
d="M944 0q-46 -44 -66 -90.5t-11.5 -80t33 -54.5t69 -17.5t94.5 33.5v-94q-55 -34 -109.5 -40t-94.5 11.5t-66.5 53t-32.5 80t15 97.5t69 101h-76v197q-39 -96 -125 -153.5t-199 -57.5q-154 0 -249 79t-95 211q0 130 94.5 211.5t282.5 120.5l291 62v39q0 115 -62.5 173
t-181.5 58q-120 0 -189 -63.5t-83 -176.5l-152 66q15 122 136.5 204.5t298.5 82.5q196 0 302.5 -88.5t106.5 -247.5v-717zM504 102q111 0 188.5 84.5t77.5 208.5v191l-256 -66q-219 -55 -219 -223q0 -97 54 -146t155 -49z" />
    <glyph glyph-name="Cacute" unicode="&#x106;" horiz-adv-x="1374" 
d="M930 1751l-193 -238h-123l109 238h207zM1135 545l159 -99q-10 -205 -165 -332.5t-390 -127.5q-297 0 -468 187t-171 517q0 327 167.5 517t451.5 190q221 0 368.5 -111.5t161.5 -288.5l-157 -98q-7 174 -108.5 270.5t-264.5 96.5q-203 0 -314.5 -150t-111.5 -426
q0 -278 115 -425.5t331 -147.5q182 0 286 110.5t110 317.5z" />
    <glyph glyph-name="cacute" unicode="&#x107;" horiz-adv-x="1083" 
d="M821 1423l-192 -237h-123l108 237h207zM874 373l148 -88q-36 -150 -146 -224.5t-276 -74.5q-229 0 -364.5 143t-135.5 389t136 390.5t364 144.5q140 0 245 -68t148 -188l-155 -88q-31 118 -93 174.5t-161 56.5q-134 0 -212.5 -110.5t-78.5 -311.5q0 -205 84.5 -313.5
t243.5 -108.5q106 0 172 69.5t81 207.5z" />
    <glyph glyph-name="Cdotaccent" unicode="&#x10a;" horiz-adv-x="1374" 
d="M784 1698v-185h-194v185h194zM1135 545l159 -99q-10 -205 -165 -332.5t-390 -127.5q-297 0 -468 187t-171 517q0 327 167.5 517t451.5 190q221 0 368.5 -111.5t161.5 -288.5l-157 -98q-7 174 -108.5 270.5t-264.5 96.5q-203 0 -314.5 -150t-111.5 -426q0 -278 115 -425.5
t331 -147.5q182 0 286 110.5t110 317.5z" />
    <glyph glyph-name="cdotaccent" unicode="&#x10b;" horiz-adv-x="1083" 
d="M676 1370v-184h-195v184h195zM874 373l148 -88q-36 -150 -146 -224.5t-276 -74.5q-229 0 -364.5 143t-135.5 389t136 390.5t364 144.5q140 0 245 -68t148 -188l-155 -88q-31 118 -93 174.5t-161 56.5q-134 0 -212.5 -110.5t-78.5 -311.5q0 -205 84.5 -313.5t243.5 -108.5
q106 0 172 69.5t81 207.5z" />
    <glyph glyph-name="Ccaron" unicode="&#x10c;" horiz-adv-x="1374" 
d="M614 1501l-215 238h183l108 -158l107 158h182l-215 -238h-150zM1135 545l159 -99q-10 -205 -165 -332.5t-390 -127.5q-297 0 -468 187t-171 517q0 327 167.5 517t451.5 190q221 0 368.5 -111.5t161.5 -288.5l-157 -98q-7 174 -108.5 270.5t-264.5 96.5
q-203 0 -314.5 -150t-111.5 -426q0 -278 115 -425.5t331 -147.5q182 0 286 110.5t110 317.5z" />
    <glyph glyph-name="ccaron" unicode="&#x10d;" horiz-adv-x="1083" 
d="M506 1174l-215 237h182l109 -158l106 158h182l-215 -237h-149zM874 373l148 -88q-36 -150 -146 -224.5t-276 -74.5q-229 0 -364.5 143t-135.5 389t136 390.5t364 144.5q140 0 245 -68t148 -188l-155 -88q-31 118 -93 174.5t-161 56.5q-134 0 -212.5 -110.5t-78.5 -311.5
q0 -205 84.5 -313.5t243.5 -108.5q106 0 172 69.5t81 207.5z" />
    <glyph glyph-name="Dcaron" unicode="&#x10e;" horiz-adv-x="1376" 
d="M522 1501l-215 238h182l109 -158l107 158h182l-215 -238h-150zM549 1374q360 0 543.5 -173.5t183.5 -512.5q0 -341 -183 -514.5t-544 -173.5h-387v1374h387zM530 131q285 0 421 136.5t136 420.5q0 281 -136.5 418t-420.5 137h-188v-1112h188z" />
    <glyph glyph-name="dcaron" unicode="&#x10f;" horiz-adv-x="1488" 
d="M897 817v557h174v-1374h-174v221q-90 -235 -346 -235q-197 0 -318.5 146.5t-121.5 385.5q0 241 121.5 388t318.5 147q256 0 346 -236zM1262 1374h206l-192 -237h-121zM602 98q133 0 217 117t84 303q0 187 -83.5 304.5t-217.5 117.5q-138 0 -218.5 -114t-80.5 -308
q0 -192 80.5 -306t218.5 -114z" />
    <glyph glyph-name="Dcroat" unicode="&#x110;" horiz-adv-x="1376" 
d="M549 1374q360 0 543.5 -173.5t183.5 -512.5q0 -341 -183 -514.5t-544 -173.5h-387v631h-101v131h101v612h387zM530 131q285 0 421 136.5t136 420.5q0 281 -136.5 418t-420.5 137h-188v-481h274v-131h-274v-500h188z" />
    <glyph glyph-name="dcroat" unicode="&#x111;" horiz-adv-x="1232" 
d="M1202 1210v-102h-131v-1108h-174v221q-90 -235 -346 -235q-197 0 -318.5 146.5t-121.5 385.5q0 241 121.5 388t318.5 147q256 0 346 -236v291h-182v102h182v164h174v-164h131zM602 98q133 0 217 117t84 303q0 187 -83.5 304.5t-217.5 117.5q-138 0 -218.5 -114
t-80.5 -308q0 -192 80.5 -306t218.5 -114z" />
    <glyph glyph-name="Emacron" unicode="&#x112;" horiz-adv-x="1163" 
d="M874 1626v-113h-491v113h491zM1063 1243h-721v-481h672v-131h-672v-500h721v-131h-901v1374h901v-131z" />
    <glyph glyph-name="emacron" unicode="&#x113;" horiz-adv-x="1132" 
d="M819 1288v-112h-491v112h491zM889 332l147 -88q-116 -258 -436 -258q-229 0 -364.5 143.5t-135.5 388.5q0 243 131 389t347 146q210 0 327 -145t119 -394h-2l2 -6h-735q3 -193 90 -301.5t242 -108.5q104 0 173 59t95 175zM578 940q-124 0 -197 -88.5t-88 -247.5h538
q-11 175 -70.5 255.5t-182.5 80.5z" />
    <glyph glyph-name="Edotaccent" unicode="&#x116;" horiz-adv-x="1163" 
d="M723 1698v-185h-195v185h195zM1063 1243h-721v-481h672v-131h-672v-500h721v-131h-901v1374h901v-131z" />
    <glyph glyph-name="edotaccent" unicode="&#x117;" horiz-adv-x="1132" 
d="M670 1360v-184h-195v184h195zM889 332l147 -88q-116 -258 -436 -258q-229 0 -364.5 143.5t-135.5 388.5q0 243 131 389t347 146q210 0 327 -145t119 -394h-2l2 -6h-735q3 -193 90 -301.5t242 -108.5q104 0 173 59t95 175zM578 940q-124 0 -197 -88.5t-88 -247.5h538
q-11 175 -70.5 255.5t-182.5 80.5z" />
    <glyph glyph-name="Eogonek" unicode="&#x118;" horiz-adv-x="1163" 
d="M1063 0q-46 -44 -66 -90.5t-11.5 -80t33 -54.5t69 -17.5t94.5 33.5v-94q-55 -34 -109.5 -40t-94.5 11.5t-66.5 53t-32.5 80t15 97.5t69 101h-801v1374h901v-131h-721v-481h672v-131h-672v-500h721v-131z" />
    <glyph glyph-name="eogonek" unicode="&#x119;" horiz-adv-x="1132" 
d="M887 61q-46 -44 -66 -90.5t-11.5 -80t33 -54.5t69 -17t94.5 34v-95q-50 -31 -99.5 -39t-87.5 4t-67 39.5t-41.5 64.5t-6.5 82.5t33 90.5q-60 -14 -137 -14q-229 0 -364.5 143.5t-135.5 388.5q0 243 131 389t347 146q210 0 327 -145t119 -394h-2l2 -6h-735
q3 -193 90 -301.5t242 -108.5q104 0 173 59t95 175l147 -88q-54 -121 -149 -183zM578 940q-124 0 -197 -88.5t-88 -247.5h538q-11 175 -70.5 255.5t-182.5 80.5z" />
    <glyph glyph-name="Ecaron" unicode="&#x11a;" horiz-adv-x="1163" 
d="M553 1501l-215 238h182l109 -158l106 158h183l-216 -238h-149zM1063 1243h-721v-481h672v-131h-672v-500h721v-131h-901v1374h901v-131z" />
    <glyph glyph-name="ecaron" unicode="&#x11b;" horiz-adv-x="1132" 
d="M500 1163l-215 238h182l108 -158l107 158h182l-215 -238h-149zM889 332l147 -88q-116 -258 -436 -258q-229 0 -364.5 143.5t-135.5 388.5q0 243 131 389t347 146q210 0 327 -145t119 -394h-2l2 -6h-735q3 -193 90 -301.5t242 -108.5q104 0 173 59t95 175zM578 940
q-124 0 -197 -88.5t-88 -247.5h538q-11 175 -70.5 255.5t-182.5 80.5z" />
    <glyph glyph-name="Gbreve" unicode="&#x11e;" horiz-adv-x="1452" 
d="M721 1501q-78 0 -133.5 18.5t-87 54.5t-48 78.5t-22.5 100.5h170q0 -80 30.5 -115.5t90.5 -35.5q56 0 87.5 38t31.5 113h170q-6 -57 -23 -100t-49 -79t-86.5 -54.5t-130.5 -18.5zM1296 721v-721h-172v272q-36 -138 -140 -212t-275 -74q-279 0 -444 189t-165 515
q0 330 170.5 518.5t464.5 188.5q233 0 379 -106t164 -273l-154 -94q-13 162 -117 252t-272 90q-213 0 -328.5 -149t-115.5 -427q0 -274 112.5 -423.5t315.5 -149.5q185 0 288.5 99.5t116.5 295.5v80h-395v129h567z" />
    <glyph glyph-name="gbreve" unicode="&#x11f;" horiz-adv-x="1187" 
d="M612 1163q-78 0 -133 18.5t-87 54.5t-48 78.5t-22 100.5h170q0 -80 30 -115.5t90 -35.5q56 0 87.5 38t31.5 113h170q-6 -57 -23 -100t-49 -79t-86.5 -54.5t-130.5 -18.5zM860 1020h174v-897q0 -218 -125.5 -330t-351.5 -112q-161 0 -276.5 68t-161.5 185l160 91
q37 -120 104 -179t186 -59q291 0 291 371v170q-43 -113 -127 -173.5t-198 -60.5q-188 0 -308.5 135.5t-120.5 343.5q0 210 122 345t315 135q112 0 193 -59.5t124 -170.5v197zM580 207q121 0 201.5 104.5t80.5 261.5t-80.5 263t-201.5 106q-125 0 -203 -102t-78 -267
q0 -164 78 -265t203 -101z" />
    <glyph glyph-name="Gdotaccent" unicode="&#x120;" horiz-adv-x="1452" 
d="M815 1698v-185h-194v185h194zM1296 721v-721h-172v272q-36 -138 -140 -212t-275 -74q-279 0 -444 189t-165 515q0 330 170.5 518.5t464.5 188.5q233 0 379 -106t164 -273l-154 -94q-13 162 -117 252t-272 90q-213 0 -328.5 -149t-115.5 -427q0 -274 112.5 -423.5
t315.5 -149.5q185 0 288.5 99.5t116.5 295.5v80h-395v129h567z" />
    <glyph glyph-name="gdotaccent" unicode="&#x121;" horiz-adv-x="1187" 
d="M707 1360v-184h-195v184h195zM860 1020h174v-897q0 -218 -125.5 -330t-351.5 -112q-161 0 -276.5 68t-161.5 185l160 91q37 -120 104 -179t186 -59q291 0 291 371v170q-43 -113 -127 -173.5t-198 -60.5q-188 0 -308.5 135.5t-120.5 343.5q0 210 122 345t315 135
q112 0 193 -59.5t124 -170.5v197zM580 207q121 0 201.5 104.5t80.5 261.5t-80.5 263t-201.5 106q-125 0 -203 -102t-78 -267q0 -164 78 -265t203 -101z" />
    <glyph glyph-name="uni0122" unicode="&#x122;" horiz-adv-x="1452" 
d="M1296 721v-721h-172v272q-36 -138 -140 -212t-275 -74q-279 0 -444 189t-165 515q0 330 170.5 518.5t464.5 188.5q233 0 379 -106t164 -273l-154 -94q-13 162 -117 252t-272 90q-213 0 -328.5 -149t-115.5 -427q0 -274 112.5 -423.5t315.5 -149.5q185 0 288.5 99.5
t116.5 295.5v80h-395v129h567zM514 -373l109 238h206l-192 -238h-123z" />
    <glyph glyph-name="uni0123" unicode="&#x123;" horiz-adv-x="1187" 
d="M821 1413l-108 -237h-207l192 237h123zM860 1020h174v-897q0 -218 -125.5 -330t-351.5 -112q-161 0 -276.5 68t-161.5 185l160 91q37 -120 104 -179t186 -59q291 0 291 371v170q-43 -113 -127 -173.5t-198 -60.5q-188 0 -308.5 135.5t-120.5 343.5q0 210 122 345t315 135
q112 0 193 -59.5t124 -170.5v197zM580 207q121 0 201.5 104.5t80.5 261.5t-80.5 263t-201.5 106q-125 0 -203 -102t-78 -267q0 -164 78 -265t203 -101z" />
    <glyph glyph-name="Hbar" unicode="&#x126;" horiz-adv-x="1398" 
d="M1331 1133v-129h-100v-1004h-178v631h-707v-631h-178v1004h-100v129h100v241h178v-241h707v241h178v-241h100zM1053 762v242h-707v-242h707z" />
    <glyph glyph-name="hbar" unicode="&#x127;" horiz-adv-x="1189" 
d="M670 1055q170 0 265 -98.5t95 -270.5v-686h-176v670q0 119 -59.5 189.5t-176.5 70.5q-128 0 -203 -89t-77 -227v-614h-176v1108h-131v102h131v164h176v-164h182v-102h-182v-283q89 230 332 230z" />
    <glyph glyph-name="Itilde" unicode="&#x128;" horiz-adv-x="503" 
d="M354 1516q-40 0 -80.5 24t-74 48t-58.5 24q-56 0 -59 -84h-102q11 98 51.5 147t118.5 49q40 0 80.5 -24t74 -48t57.5 -24q29 0 44 19t18 65h100q-11 -98 -51.5 -147t-118.5 -49zM162 0v1374h178v-1374h-178z" />
    <glyph glyph-name="itilde" unicode="&#x129;" horiz-adv-x="503" 
d="M354 1167q-32 0 -64.5 15t-54.5 33.5t-48 33.5t-46 15q-56 0 -59 -84h-102q11 98 51.5 147t118.5 49q40 0 80.5 -24t74 -48t57.5 -24q29 0 44 19t18 65h100q-11 -98 -51.5 -147.5t-118.5 -49.5zM164 0v1022h174v-1022h-174z" />
    <glyph glyph-name="Imacron" unicode="&#x12a;" horiz-adv-x="503" 
d="M6 1626h492v-113h-492v113zM162 0v1374h178v-1374h-178z" />
    <glyph glyph-name="imacron" unicode="&#x12b;" horiz-adv-x="503" 
d="M6 1278h492v-113h-492v113zM164 0v1022h174v-1022h-174z" />
    <glyph glyph-name="Iogonek" unicode="&#x12e;" horiz-adv-x="503" 
d="M340 0q-46 -44 -66 -90.5t-11.5 -80t33 -54.5t69 -17.5t94.5 33.5v-94q-55 -34 -109.5 -40t-94.5 11.5t-66.5 53t-32.5 80t15 97.5t69 101h-78v1374h178v-1374z" />
    <glyph glyph-name="iogonek" unicode="&#x12f;" horiz-adv-x="503" 
d="M348 1350v-185h-194v185h194zM338 0q-46 -44 -66 -90.5t-11.5 -80t33 -54.5t69 -17.5t94.5 33.5v-94q-55 -34 -109.5 -40t-94.5 11.5t-66.5 53t-32.5 80t15 97.5t69 101h-74v1022h174v-1022z" />
    <glyph glyph-name="Idotaccent" unicode="&#x130;" horiz-adv-x="503" 
d="M154 1513v185h194v-185h-194zM162 0v1374h178v-1374h-178z" />
    <glyph glyph-name="dotlessi" unicode="&#x131;" horiz-adv-x="503" 
d="M164 0v1022h174v-1022h-174z" />
    <glyph glyph-name="uni0136" unicode="&#x136;" horiz-adv-x="1243" 
d="M555 707l684 -707h-242l-655 684v-684h-180v1374h180v-682l659 682h207zM418 -373l108 238h207l-192 -238h-123z" />
    <glyph glyph-name="uni0137" unicode="&#x137;" horiz-adv-x="1062" 
d="M520 588l502 -588h-217l-467 559v-559h-176v1374h176v-807l491 453l162 2zM328 -373l108 238h207l-192 -238h-123z" />
    <glyph glyph-name="Lacute" unicode="&#x139;" horiz-adv-x="1101" 
d="M489 1751l-192 -238h-123l109 238h206zM342 131h680v-131h-860v1374h180v-1243z" />
    <glyph glyph-name="lacute" unicode="&#x13a;" horiz-adv-x="503" 
d="M287 1751h207l-193 -238h-123zM164 0v1374h174v-1374h-174z" />
    <glyph glyph-name="uni013B" unicode="&#x13b;" horiz-adv-x="1101" 
d="M342 131h680v-131h-860v1374h180v-1243zM348 -373l109 238h207l-193 -238h-123z" />
    <glyph glyph-name="uni013C" unicode="&#x13c;" horiz-adv-x="503" 
d="M164 0v1374h174v-1374h-174zM158 -135h207l-193 -238h-123z" />
    <glyph glyph-name="Lcaron" unicode="&#x13d;" horiz-adv-x="1101" 
d="M174 1501l-215 238h182l109 -158l106 158h183l-215 -238h-150zM342 131h680v-131h-860v1374h180v-1243z" />
    <glyph glyph-name="lcaron" unicode="&#x13e;" horiz-adv-x="503" 
d="M178 1501l-215 238h182l109 -158l106 158h183l-215 -238h-150zM164 0v1374h174v-1374h-174z" />
    <glyph glyph-name="Ldot" unicode="&#x13f;" horiz-adv-x="1101" 
d="M342 131h680v-131h-860v1374h180v-1243zM791 838v-203h-203v203h203z" />
    <glyph glyph-name="ldot" unicode="&#x140;" horiz-adv-x="774" 
d="M164 0v1374h174v-1374h-174zM481 582v202h203v-202h-203z" />
    <glyph glyph-name="Lslash" unicode="&#x141;" horiz-adv-x="1112" 
d="M350 131h680v-131h-858v610l-182 -73v137l182 74v626h178v-553l187 76v-137l-187 -76v-553z" />
    <glyph glyph-name="lslash" unicode="&#x142;" horiz-adv-x="552" 
d="M506 915v-127l-144 -61v-727h-174v651l-141 -61v127l141 61v596h174v-520z" />
    <glyph glyph-name="Nacute" unicode="&#x143;" horiz-adv-x="1449" 
d="M967 1751l-193 -238h-123l109 238h207zM1118 1374h170v-1374h-274l-557 981q-52 96 -125 256v-1237h-170v1374h274l551 -973q59 -105 131 -260v1233z" />
    <glyph glyph-name="nacute" unicode="&#x144;" horiz-adv-x="1181" 
d="M836 1413l-193 -237h-123l109 237h207zM670 1053q170 0 265 -97.5t95 -269.5v-686h-174v670q0 119 -59.5 189.5t-178.5 70.5q-128 0 -203.5 -89t-78.5 -227v-614h-174v1020h174v-201q89 234 334 234z" />
    <glyph glyph-name="uni0145" unicode="&#x145;" horiz-adv-x="1449" 
d="M1118 1374h170v-1374h-274l-557 981q-52 96 -125 256v-1237h-170v1374h274l551 -973q59 -105 131 -260v1233zM522 -373l109 238h207l-193 -238h-123z" />
    <glyph glyph-name="uni0146" unicode="&#x146;" horiz-adv-x="1181" 
d="M670 1053q170 0 265 -97.5t95 -269.5v-686h-174v670q0 119 -59.5 189.5t-178.5 70.5q-128 0 -203.5 -89t-78.5 -227v-614h-174v1020h174v-201q89 234 334 234zM387 -373l109 238h206l-192 -238h-123z" />
    <glyph glyph-name="Ncaron" unicode="&#x147;" horiz-adv-x="1449" 
d="M651 1501l-215 238h182l109 -158l107 158h182l-215 -238h-150zM1118 1374h170v-1374h-274l-557 981q-52 96 -125 256v-1237h-170v1374h274l551 -973q59 -105 131 -260v1233z" />
    <glyph glyph-name="ncaron" unicode="&#x148;" horiz-adv-x="1181" 
d="M520 1163l-215 238h182l109 -158l106 158h183l-215 -238h-150zM670 1053q170 0 265 -97.5t95 -269.5v-686h-174v670q0 119 -59.5 189.5t-178.5 70.5q-128 0 -203.5 -89t-78.5 -227v-614h-174v1020h174v-201q89 234 334 234z" />
    <glyph glyph-name="Eng" unicode="&#x14a;" horiz-adv-x="1449" 
d="M1118 1374h170v-1405q0 -131 -98.5 -209.5t-265.5 -78.5q-170 0 -263.5 83t-93.5 226l170 16q0 -99 52.5 -146.5t138.5 -47.5q190 0 190 188l-637 981q-115 204 -149 268v-1249h-170v1374h274l518 -805q23 -37 48 -82.5t37.5 -70t42.5 -86t36 -74.5v1118z" />
    <glyph glyph-name="eng" unicode="&#x14b;" horiz-adv-x="1181" 
d="M670 1053q170 0 265 -97.5t95 -269.5v-776q0 -108 -63 -168.5t-174 -60.5q-67 0 -119 24v156q48 -27 90 -27q92 0 92 115v721q0 119 -59.5 189.5t-178.5 70.5q-128 0 -203.5 -89t-78.5 -227v-614h-174v1020h174v-201q89 234 334 234z" />
    <glyph glyph-name="Omacron" unicode="&#x14c;" horiz-adv-x="1454" 
d="M483 1626h492v-113h-492v113zM727 -14q-288 0 -457.5 189t-169.5 515t169.5 516.5t457.5 190.5q289 0 458 -190t169 -517q0 -326 -169 -515t-458 -189zM727 115q206 0 322 152t116 423q0 273 -117 424.5t-323 151.5q-205 0 -319.5 -151.5t-114.5 -424.5q0 -271 115 -423
t321 -152z" />
    <glyph glyph-name="omacron" unicode="&#x14d;" horiz-adv-x="1196" 
d="M354 1288h492v-112h-492v112zM598 -14q-228 0 -363 144t-135 388q0 246 135 390.5t363 144.5q229 0 362.5 -144.5t133.5 -390.5q0 -245 -133.5 -388.5t-362.5 -143.5zM598 98q149 0 228 109t79 311q0 203 -79 312.5t-228 109.5q-148 0 -227.5 -109.5t-79.5 -312.5
q0 -201 79.5 -310.5t227.5 -109.5z" />
    <glyph glyph-name="Ohungarumlaut" unicode="&#x150;" horiz-adv-x="1454" 
d="M526 1739h207l-192 -238h-123zM836 1739h206l-192 -238h-123zM727 -14q-288 0 -457.5 189t-169.5 515t169.5 516.5t457.5 190.5q289 0 458 -190t169 -517q0 -326 -169 -515t-458 -189zM727 115q206 0 322 152t116 423q0 273 -117 424.5t-323 151.5q-205 0 -319.5 -151.5
t-114.5 -424.5q0 -271 115 -423t321 -152z" />
    <glyph glyph-name="ohungarumlaut" unicode="&#x151;" horiz-adv-x="1196" 
d="M397 1401h207l-192 -238h-123zM707 1401h206l-192 -238h-123zM598 -14q-228 0 -363 144t-135 388q0 246 135 390.5t363 144.5q229 0 362.5 -144.5t133.5 -390.5q0 -245 -133.5 -388.5t-362.5 -143.5zM598 98q149 0 228 109t79 311q0 203 -79 312.5t-228 109.5
q-148 0 -227.5 -109.5t-79.5 -312.5q0 -201 79.5 -310.5t227.5 -109.5z" />
    <glyph glyph-name="OE" unicode="&#x152;" horiz-adv-x="2150" 
d="M2048 1243h-705v-481h658v-131h-658v-500h705v-131h-883v256q-67 -131 -178 -200.5t-260 -69.5q-288 0 -457.5 189t-169.5 515t169.5 516.5t457.5 190.5q149 0 260 -70.5t178 -202.5v250h883v-131zM727 115q211 0 324.5 151t113.5 424q0 275 -114.5 425.5t-325.5 150.5
q-205 0 -319.5 -151.5t-114.5 -424.5q0 -271 115 -423t321 -152z" />
    <glyph glyph-name="oe" unicode="&#x153;" horiz-adv-x="1939" 
d="M1696 332l145 -88q-113 -258 -434 -258q-134 0 -237 51t-166 147q-65 -96 -168.5 -147t-237.5 -51q-228 0 -363 144t-135 388q0 246 135 390.5t363 144.5q133 0 236 -51t167 -146q62 95 160 146t223 51q210 0 327.5 -145t119.5 -394h-2l2 -6h-735q3 -193 90 -301.5
t241 -108.5q104 0 173.5 59t95.5 175zM604 98q147 0 228 108t81 306v6q-2 203 -81.5 312.5t-227.5 109.5q-149 0 -231 -110t-82 -312q0 -201 82 -310.5t231 -109.5zM1384 940q-124 0 -196.5 -88t-87.5 -248h538q-11 175 -71 255.5t-183 80.5z" />
    <glyph glyph-name="Racute" unicode="&#x154;" horiz-adv-x="1361" 
d="M924 1751l-193 -238h-123l109 238h207zM1137 496q42 -229 73 -336.5t68 -159.5h-207q-46 87 -106 463q-17 91 -72.5 128.5t-173.5 37.5h-377v-629h-180v1374h581q224 0 347.5 -88t123.5 -270q0 -120 -71.5 -204.5t-196.5 -113.5q85 -18 130.5 -68t60.5 -134zM729 760
q144 0 221.5 62.5t77.5 189.5q0 231 -297 231h-389v-483h387z" />
    <glyph glyph-name="racute" unicode="&#x155;" horiz-adv-x="944" 
d="M723 1413l-193 -237h-122l108 237h207zM612 1053q130 0 198 -87t64 -249l-159 -90q1 168 -33.5 237.5t-110.5 69.5q-109 0 -171 -125t-62 -360v-449h-176v1022h176l-6 -270q30 149 103 225t177 76z" />
    <glyph glyph-name="uni0156" unicode="&#x156;" horiz-adv-x="1361" 
d="M1137 496q42 -229 73 -336.5t68 -159.5h-207q-46 87 -106 463q-17 91 -72.5 128.5t-173.5 37.5h-377v-629h-180v1374h581q224 0 347.5 -88t123.5 -270q0 -120 -71.5 -204.5t-196.5 -113.5q85 -18 130.5 -68t60.5 -134zM729 760q144 0 221.5 62.5t77.5 189.5
q0 231 -297 231h-389v-483h387zM477 -373l109 238h207l-193 -238h-123z" />
    <glyph glyph-name="uni0157" unicode="&#x157;" horiz-adv-x="944" 
d="M612 1053q130 0 198 -87t64 -249l-159 -90q1 168 -33.5 237.5t-110.5 69.5q-109 0 -171 -125t-62 -360v-449h-176v1022h176l-6 -270q30 149 103 225t177 76zM45 -373l109 238h206l-192 -238h-123z" />
    <glyph glyph-name="Rcaron" unicode="&#x158;" horiz-adv-x="1361" 
d="M608 1501l-215 238h182l109 -158l107 158h182l-215 -238h-150zM1137 496q42 -229 73 -336.5t68 -159.5h-207q-46 87 -106 463q-17 91 -72.5 128.5t-173.5 37.5h-377v-629h-180v1374h581q224 0 347.5 -88t123.5 -270q0 -120 -71.5 -204.5t-196.5 -113.5q85 -18 130.5 -68
t60.5 -134zM729 760q144 0 221.5 62.5t77.5 189.5q0 231 -297 231h-389v-483h387z" />
    <glyph glyph-name="rcaron" unicode="&#x159;" horiz-adv-x="944" 
d="M408 1163l-215 238h182l108 -158l107 158h182l-215 -238h-149zM612 1053q130 0 198 -87t64 -249l-159 -90q1 168 -33.5 237.5t-110.5 69.5q-109 0 -171 -125t-62 -360v-449h-176v1022h176l-6 -270q30 149 103 225t177 76z" />
    <glyph glyph-name="Sacute" unicode="&#x15a;" horiz-adv-x="1271" 
d="M879 1751l-193 -238h-123l109 238h207zM657 809q103 -29 170 -53.5t131 -59.5t99.5 -76t56.5 -100t21 -135q0 -182 -133.5 -290.5t-368.5 -108.5q-232 0 -370 107.5t-150 293.5l157 98q3 -179 101.5 -276.5t271.5 -97.5q153 0 233 63t80 182q0 107 -77 166.5t-267 110.5
q-242 64 -341 152t-99 251t133.5 262t364.5 99q204 0 336 -100.5t153 -260.5l-151 -92q-9 152 -103 238t-254 86q-142 0 -223.5 -54t-81.5 -147q0 -104 64.5 -154.5t246.5 -103.5z" />
    <glyph glyph-name="sacute" unicode="&#x15b;" horiz-adv-x="1003" 
d="M752 1411l-193 -237h-123l109 237h207zM530 616q199 -45 282 -113t83 -194q0 -151 -107.5 -237t-293.5 -86q-144 0 -255.5 70.5t-136.5 179.5l136 83q20 -107 90.5 -164t179.5 -57q113 0 167 40t54 124q0 81 -53 118.5t-189 65.5q-187 39 -271.5 109.5t-84.5 198.5
q0 131 102.5 216.5t288.5 86.5q152 1 254.5 -66.5t126.5 -179.5l-143 -66q-20 97 -85.5 149t-170.5 52q-98 0 -155.5 -41t-57.5 -117q0 -73 51.5 -108t187.5 -64z" />
    <glyph glyph-name="Scedilla" unicode="&#x15e;" horiz-adv-x="1271" 
d="M657 809q103 -29 170 -53.5t131 -59.5t99.5 -76t56.5 -100t21 -135q0 -172 -120.5 -279.5t-336.5 -117.5l-41 -99q182 -24 182 -149q0 -74 -57 -114t-150 -40q-81 0 -172 25v102q77 -35 158 -35q39 0 59.5 19.5t20.5 52.5q0 41 -49 66t-158 24l96 148q-203 15 -323 121.5
t-131 277.5l157 98q3 -179 101.5 -276.5t271.5 -97.5q153 0 233 63t80 182q0 107 -77 166.5t-267 110.5q-242 64 -341 152t-99 251t133.5 262t364.5 99q204 0 336 -100.5t153 -260.5l-151 -92q-9 152 -103 238t-254 86q-142 0 -223.5 -54t-81.5 -147q0 -104 64.5 -154.5
t246.5 -103.5z" />
    <glyph glyph-name="scedilla" unicode="&#x15f;" horiz-adv-x="1003" 
d="M530 616q199 -45 282 -113t83 -194q0 -136 -88.5 -220t-243.5 -99l-35 -82q85 -6 128.5 -44t43.5 -93q0 -69 -52 -105.5t-138 -36.5q-82 0 -156 23v98q60 -35 142 -35q38 0 56.5 19.5t18.5 48.5q0 88 -188 86l78 117q-134 9 -235 78t-124 172l136 83q20 -107 90.5 -164
t179.5 -57q113 0 167 40t54 124q0 81 -53 118.5t-189 65.5q-187 39 -271.5 109.5t-84.5 198.5q0 131 102.5 216.5t288.5 86.5q152 1 254.5 -66.5t126.5 -179.5l-143 -66q-20 97 -85.5 149t-170.5 52q-98 0 -155.5 -41t-57.5 -117q0 -73 51.5 -108t187.5 -64z" />
    <glyph glyph-name="Scaron" unicode="&#x160;" horiz-adv-x="1271" 
d="M563 1501l-215 238h182l109 -158l106 158h183l-215 -238h-150zM657 809q103 -29 170 -53.5t131 -59.5t99.5 -76t56.5 -100t21 -135q0 -182 -133.5 -290.5t-368.5 -108.5q-232 0 -370 107.5t-150 293.5l157 98q3 -179 101.5 -276.5t271.5 -97.5q153 0 233 63t80 182
q0 107 -77 166.5t-267 110.5q-242 64 -341 152t-99 251t133.5 262t364.5 99q204 0 336 -100.5t153 -260.5l-151 -92q-9 152 -103 238t-254 86q-142 0 -223.5 -54t-81.5 -147q0 -104 64.5 -154.5t246.5 -103.5z" />
    <glyph glyph-name="scaron" unicode="&#x161;" horiz-adv-x="1003" 
d="M436 1161l-215 238h182l109 -158l106 158h183l-215 -238h-150zM530 616q199 -45 282 -113t83 -194q0 -151 -107.5 -237t-293.5 -86q-144 0 -255.5 70.5t-136.5 179.5l136 83q20 -107 90.5 -164t179.5 -57q113 0 167 40t54 124q0 81 -53 118.5t-189 65.5
q-187 39 -271.5 109.5t-84.5 198.5q0 131 102.5 216.5t288.5 86.5q152 1 254.5 -66.5t126.5 -179.5l-143 -66q-20 97 -85.5 149t-170.5 52q-98 0 -155.5 -41t-57.5 -117q0 -73 51.5 -108t187.5 -64z" />
    <glyph glyph-name="uni0162" unicode="&#x162;" horiz-adv-x="1163" 
d="M674 0h-43l-47 -111q182 -24 182 -149q0 -74 -57 -114t-150 -40q-81 0 -172 25v102q77 -35 158 -35q39 0 59.5 19.5t20.5 52.5q0 41 -49 66t-158 24l104 160h-26v1243h-457v131h1085v-131h-450v-1243z" />
    <glyph glyph-name="uni0163" unicode="&#x163;" horiz-adv-x="894" 
d="M817 49q-82 -55 -209 -61l-35 -80q85 -6 128.5 -44t43.5 -93q0 -69 -52 -105.5t-138 -36.5q-82 0 -156 23v98q60 -35 142 -35q38 0 56.5 19.5t18.5 48.5q0 88 -188 86l82 123q-118 17 -178 87.5t-60 188.5v645h-233l37 107h196v264h174v-264h365l-37 -107h-328v-606
q0 -93 40.5 -136.5t127.5 -43.5q107 0 203 76v-154z" />
    <glyph glyph-name="Tcaron" unicode="&#x164;" horiz-adv-x="1163" 
d="M508 1501l-215 238h182l109 -158l106 158h182l-215 -238h-149zM1124 1374v-131h-450v-1243h-178v1243h-457v131h1085z" />
    <glyph glyph-name="tcaron" unicode="&#x165;" horiz-adv-x="894" 
d="M874 1382l-192 -237h-123l109 237h206zM446 307q0 -93 40.5 -136.5t127.5 -43.5q107 0 203 76v-154q-91 -61 -237 -61q-151 0 -229.5 73t-78.5 207v645h-233l37 107h196v264h174v-264h365l-37 -107h-328v-606z" />
    <glyph glyph-name="Tbar" unicode="&#x166;" horiz-adv-x="1181" 
d="M1124 1243h-450v-311h323v-129h-323v-803h-178v803h-330v129h330v311h-457v131h1085v-131z" />
    <glyph glyph-name="tbar" unicode="&#x167;" horiz-adv-x="894" 
d="M614 127q107 0 203 76v-154q-91 -61 -237 -61q-151 0 -229.5 73t-78.5 207v367h-194v102h194v176h-233l37 107h196v264h174v-264h365l-37 -107h-328v-176h287v-102h-287v-328q0 -93 40.5 -136.5t127.5 -43.5z" />
    <glyph glyph-name="Utilde" unicode="&#x168;" horiz-adv-x="1329" 
d="M553 1612q-56 0 -59 -84h-103q11 98 51.5 147t118.5 49q40 0 81 -24t74.5 -48t57.5 -24q29 0 44 19t18 65h100q-11 -98 -51.5 -147t-118.5 -49q-40 0 -80.5 24t-74 48t-58.5 24zM999 1374h179v-901q0 -245 -123 -366t-389 -121t-390 121t-124 366v901h178l2 -887
q0 -191 75 -280.5t259 -89.5t258.5 90t74.5 280v887z" />
    <glyph glyph-name="utilde" unicode="&#x169;" horiz-adv-x="1191" 
d="M487 1274q-56 0 -59 -84h-102q11 98 51.5 147t118.5 49q40 0 81 -24t74.5 -48t57.5 -24q29 0 43.5 19t17.5 65h100q-11 -98 -51.5 -147t-118.5 -49q-32 0 -64.5 15t-54.5 33t-48 33t-46 15zM854 1020h174v-1020h-174v217q-91 -231 -342 -231q-178 0 -269 86.5t-91 269.5
v678h176v-653q0 -124 59 -194.5t180 -70.5q133 0 209 89t78 231v598z" />
    <glyph glyph-name="Umacron" unicode="&#x16a;" horiz-adv-x="1329" 
d="M911 1626v-113h-491v113h491zM999 1374h179v-901q0 -245 -123 -366t-389 -121t-390 121t-124 366v901h178l2 -887q0 -191 75 -280.5t259 -89.5t258.5 90t74.5 280v887z" />
    <glyph glyph-name="umacron" unicode="&#x16b;" horiz-adv-x="1191" 
d="M844 1288v-112h-492v112h492zM854 1020h174v-1020h-174v217q-91 -231 -342 -231q-178 0 -269 86.5t-91 269.5v678h176v-653q0 -124 59 -194.5t180 -70.5q133 0 209 89t78 231v598z" />
    <glyph glyph-name="Uring" unicode="&#x16e;" horiz-adv-x="1329" 
d="M666 1485q-86 0 -138.5 50.5t-52.5 133.5q0 80 52.5 129t138.5 49q85 0 136.5 -49t51.5 -131t-51.5 -132t-136.5 -50zM666 1755q-41 0 -63.5 -24t-22.5 -64q0 -42 22.5 -67t63.5 -25q39 0 61.5 25t22.5 67q0 40 -22.5 64t-61.5 24zM999 1374h179v-901q0 -245 -123 -366
t-389 -121t-390 121t-124 366v901h178l2 -887q0 -191 75 -280.5t259 -89.5t258.5 90t74.5 280v887z" />
    <glyph glyph-name="uring" unicode="&#x16f;" horiz-adv-x="1191" 
d="M598 1147q-86 0 -138 50.5t-52 133.5q0 80 52 129t138 49q85 0 136.5 -49t51.5 -131t-51.5 -132t-136.5 -50zM598 1417q-41 0 -63.5 -24t-22.5 -64q0 -42 22.5 -67t63.5 -25q39 0 61.5 25t22.5 67q0 40 -22.5 64t-61.5 24zM854 1020h174v-1020h-174v217
q-91 -231 -342 -231q-178 0 -269 86.5t-91 269.5v678h176v-653q0 -124 59 -194.5t180 -70.5q133 0 209 89t78 231v598z" />
    <glyph glyph-name="Uhungarumlaut" unicode="&#x170;" horiz-adv-x="1329" 
d="M670 1739l-193 -238h-123l109 238h207zM786 1501h-122l108 238h207zM999 1374h179v-901q0 -245 -123 -366t-389 -121t-390 121t-124 366v901h178l2 -887q0 -191 75 -280.5t259 -89.5t258.5 90t74.5 280v887z" />
    <glyph glyph-name="uhungarumlaut" unicode="&#x171;" horiz-adv-x="1191" 
d="M602 1401l-192 -238h-123l108 238h207zM719 1163h-123l109 238h206zM854 1020h174v-1020h-174v217q-91 -231 -342 -231q-178 0 -269 86.5t-91 269.5v678h176v-653q0 -124 59 -194.5t180 -70.5q133 0 209 89t78 231v598z" />
    <glyph glyph-name="Uogonek" unicode="&#x172;" horiz-adv-x="1329" 
d="M999 1374h179v-901q0 -228 -106 -348t-333 -137q-42 -44 -59.5 -89t-8.5 -77.5t33.5 -52.5t68 -16t93.5 34v-94q-54 -33 -107.5 -39.5t-93 10t-67 50.5t-34.5 77t11 95.5t62 99.5q-251 6 -368 127t-117 360v901h178l2 -887q0 -191 75 -280.5t259 -89.5t258.5 90t74.5 280
v887z" />
    <glyph glyph-name="uogonek" unicode="&#x173;" horiz-adv-x="1191" 
d="M1030 0q-46 -44 -66 -90.5t-11.5 -80t33 -54.5t69 -17.5t94.5 33.5v-94q-55 -34 -109.5 -40t-94.5 11.5t-66.5 53t-32.5 80t15 97.5t69 101h-76v217q-91 -231 -342 -231q-178 0 -269 86.5t-91 269.5v678h176v-653q0 -124 59 -194.5t180 -70.5q133 0 209 89t78 231v598
h174v-1020h2z" />
    <glyph glyph-name="Wcircumflex" unicode="&#x174;" horiz-adv-x="1941" 
d="M973 1659l-109 -158h-182l215 238h150l215 -238h-183zM1712 1374h193l-381 -1374h-248l-250 928q-35 166 -55 291q-19 -111 -56 -291l-249 -928h-250l-379 1374h192l254 -975q36 -126 64 -264q28 152 57 262l252 977h229l250 -968q38 -147 60 -273q41 191 63 275z" />
    <glyph glyph-name="wcircumflex" unicode="&#x175;" horiz-adv-x="1499" 
d="M752 1321l-109 -158h-182l215 238h149l215 -238h-182zM1282 1020h178l-282 -1018h-99l-116 -2l-177 715q-21 91 -36 180q-18 -105 -35 -180l-178 -715l-117 2h-98l-283 1018h180l170 -682q28 -110 47 -232q30 166 45 232l164 682h209l168 -690q20 -91 41 -219
q18 108 45 221z" />
    <glyph glyph-name="Ycircumflex" unicode="&#x176;" horiz-adv-x="1204" 
d="M604 1659l-108 -158h-183l215 238h150l215 -238h-182zM1186 1374l-494 -784v-590h-176v584l-498 790h201l387 -633l387 633h193z" />
    <glyph glyph-name="ycircumflex" unicode="&#x177;" horiz-adv-x="1046" 
d="M537 1321l-109 -158h-182l215 238h149l215 -238h-182zM805 1020h182l-510 -1327h-176l164 368l-408 959h185l250 -621q41 -106 51 -141z" />
    <glyph glyph-name="Ydieresis" unicode="&#x178;" horiz-adv-x="1204" 
d="M541 1688v-175h-195v175h195zM852 1688v-175h-193v175h193zM1186 1374l-494 -784v-590h-176v584l-498 790h201l387 -633l387 633h193z" />
    <glyph glyph-name="Zacute" unicode="&#x179;" horiz-adv-x="1193" 
d="M838 1751l-193 -238h-123l109 238h207zM305 131h809v-131h-1012v127l779 1116h-801v131h1003v-131z" />
    <glyph glyph-name="zacute" unicode="&#x17a;" horiz-adv-x="958" 
d="M723 1413l-193 -237h-122l108 237h207zM295 111h596v-111h-791v111l582 798h-602v111h799v-111z" />
    <glyph glyph-name="Zdotaccent" unicode="&#x17b;" horiz-adv-x="1193" 
d="M694 1698v-185h-194v185h194zM305 131h809v-131h-1012v127l779 1116h-801v131h1003v-131z" />
    <glyph glyph-name="zdotaccent" unicode="&#x17c;" horiz-adv-x="958" 
d="M578 1360v-184h-195v184h195zM295 111h596v-111h-791v111l582 798h-602v111h799v-111z" />
    <glyph glyph-name="Zcaron" unicode="&#x17d;" horiz-adv-x="1193" 
d="M522 1501l-215 238h182l109 -158l107 158h182l-215 -238h-150zM305 131h809v-131h-1012v127l779 1116h-801v131h1003v-131z" />
    <glyph glyph-name="zcaron" unicode="&#x17e;" horiz-adv-x="958" 
d="M408 1163l-215 238h182l108 -158l107 158h182l-215 -238h-149zM295 111h596v-111h-791v111l582 798h-602v111h799v-111z" />
    <glyph glyph-name="uni018F" unicode="&#x18f;" horiz-adv-x="1370" 
d="M688 1397q279 0 430.5 -187t151.5 -526q0 -333 -150.5 -515.5t-431.5 -182.5q-292 0 -442 190.5t-146 573.5h977q-9 263 -107 389.5t-288 126.5q-174 0 -279 -96t-112 -271l-162 98q30 183 177 291.5t382 108.5zM688 117q193 0 286.5 123t102.5 378h-794
q12 -251 111 -376t294 -125z" />
    <glyph glyph-name="florin" unicode="&#x192;" horiz-adv-x="1236" 
d="M1001 1235q-40 0 -71.5 -8.5t-56 -22.5t-43.5 -41.5t-33 -56.5t-26.5 -78t-22 -94.5t-21.5 -116.5h348v-143h-373q-48 -289 -68 -368q-44 -172 -123 -242q-89 -78 -273 -78q-107 0 -187 57v137q86 -63 185 -63q50 0 86.5 12t63 39t45.5 69.5t34.5 102.5t30 139.5
t30.5 179.5q0 3 0.5 5t1 5t0.5 5h-307v143h332q14 86 27 146t32 121.5t41.5 102t55 77.5t73.5 57.5t95 32.5t122 12q103 0 187 -55v-140q-87 64 -185 64z" />
    <glyph glyph-name="Ohorn" unicode="&#x1a0;" horiz-adv-x="1454" 
d="M1122 1266q111 -90 171.5 -238t60.5 -338q0 -326 -169 -515t-458 -189q-288 0 -457.5 189t-169.5 515t169.5 516.5t457.5 190.5q77 0 147 -15h154q86 0 112.5 23t26.5 84v123h133v-142q0 -95 -40.5 -147.5t-137.5 -56.5zM727 115q206 0 322 152t116 423q0 273 -117 424.5
t-323 151.5q-205 0 -319.5 -151.5t-114.5 -424.5q0 -271 115 -423t321 -152z" />
    <glyph glyph-name="ohorn" unicode="&#x1a1;" horiz-adv-x="1196" 
d="M948 920q146 -143 146 -402q0 -245 -133.5 -388.5t-362.5 -143.5q-228 0 -363 144t-135 388q0 246 135 390.5t363 144.5q101 0 195 -33h14q85 0 112 23t27 83v123h111v-141q0 -152 -109 -188zM598 98q149 0 228 109t79 311q0 203 -79 312.5t-228 109.5
q-148 0 -227.5 -109.5t-79.5 -312.5q0 -201 79.5 -310.5t227.5 -109.5z" />
    <glyph glyph-name="Uhorn" unicode="&#x1af;" horiz-adv-x="1458" 
d="M1309 1604h118v-146q0 -109 -55.5 -159.5t-193.5 -36.5v-789q0 -245 -123 -366t-389 -121t-390 121t-124 366v901h178l2 -887q0 -191 75 -280.5t259 -89.5t258.5 90t74.5 280v887h179q84 0 107.5 22.5t23.5 84.5v123z" />
    <glyph glyph-name="uhorn" unicode="&#x1b0;" horiz-adv-x="1191" 
d="M1161 1249h119v-145q0 -109 -56 -160t-196 -37v-907h-174v217q-91 -231 -342 -231q-178 0 -269 86.5t-91 269.5v678h176v-653q0 -124 59 -194.5t180 -70.5q133 0 209 89t78 231v598h174q86 0 109.5 22t23.5 84v123z" />
    <glyph glyph-name="uni0218" unicode="&#x218;" horiz-adv-x="1271" 
d="M657 809q103 -29 170 -53.5t131 -59.5t99.5 -76t56.5 -100t21 -135q0 -182 -133.5 -290.5t-368.5 -108.5q-232 0 -370 107.5t-150 293.5l157 98q3 -179 101.5 -276.5t271.5 -97.5q153 0 233 63t80 182q0 107 -77 166.5t-267 110.5q-242 64 -341 152t-99 251t133.5 262
t364.5 99q204 0 336 -100.5t153 -260.5l-151 -92q-9 152 -103 238t-254 86q-142 0 -223.5 -54t-81.5 -147q0 -104 64.5 -154.5t246.5 -103.5zM432 -373l109 238h207l-193 -238h-123z" />
    <glyph glyph-name="uni0219" unicode="&#x219;" horiz-adv-x="1003" 
d="M530 616q199 -45 282 -113t83 -194q0 -151 -107.5 -237t-293.5 -86q-144 0 -255.5 70.5t-136.5 179.5l136 83q20 -107 90.5 -164t179.5 -57q113 0 167 40t54 124q0 81 -53 118.5t-189 65.5q-187 39 -271.5 109.5t-84.5 198.5q0 131 102.5 216.5t288.5 86.5
q152 1 254.5 -66.5t126.5 -179.5l-143 -66q-20 97 -85.5 149t-170.5 52q-98 0 -155.5 -41t-57.5 -117q0 -73 51.5 -108t187.5 -64zM299 -373l109 238h206l-192 -238h-123z" />
    <glyph glyph-name="uni021A" unicode="&#x21a;" horiz-adv-x="1163" 
d="M39 1374h1085v-131h-450v-1243h-178v1243h-457v131zM379 -373l108 238h207l-192 -238h-123z" />
    <glyph glyph-name="uni021B" unicode="&#x21b;" horiz-adv-x="894" 
d="M614 127q107 0 203 76v-154q-91 -61 -237 -61q-151 0 -229.5 73t-78.5 207v645h-233l37 107h196v264h174v-264h365l-37 -107h-328v-606q0 -93 40.5 -136.5t127.5 -43.5zM344 -373l109 238h206l-192 -238h-123z" />
    <glyph glyph-name="uni0259" unicode="&#x259;" horiz-adv-x="1103" 
d="M539 1053q151 0 257 -70.5t155.5 -190t49.5 -278.5q0 -246 -116 -387t-322 -141q-108 0 -196 37t-149.5 106.5t-92 175.5t-23.5 238h725q-5 194 -74.5 295.5t-217.5 101.5q-119 0 -188 -63.5t-81 -176.5l-151 66q14 117 135 202t289 85zM563 82q243 0 262 367h-551
q3 -367 289 -367z" />
    <glyph glyph-name="circumflex" unicode="&#x2c6;" horiz-adv-x="907" 
d="M743 1165h-182l-106 158l-109 -158h-182l215 238h149z" />
    <glyph glyph-name="caron" unicode="&#x2c7;" horiz-adv-x="907" 
d="M561 1403h182l-215 -238h-149l-215 238h182l109 -158z" />
    <glyph glyph-name="breve" unicode="&#x2d8;" horiz-adv-x="907" 
d="M573 1403h170q-13 -117 -77 -177.5t-211 -60.5q-151 0 -214.5 60t-76.5 178h170q0 -85 30 -121.5t91 -36.5q118 0 118 158z" />
    <glyph glyph-name="dotaccent" unicode="&#x2d9;" horiz-adv-x="522" 
d="M164 1178v174h194v-174h-194z" />
    <glyph glyph-name="ring" unicode="&#x2da;" horiz-adv-x="686" 
d="M342 1149q-80 0 -129 48t-49 126q0 75 49.5 121.5t128.5 46.5q80 0 129 -47t49 -123q0 -77 -49.5 -124.5t-128.5 -47.5zM342 1233q39 0 60.5 24.5t21.5 63.5t-21.5 62.5t-60.5 23.5q-38 0 -59 -23.5t-21 -62.5t21.5 -63.5t58.5 -24.5z" />
    <glyph glyph-name="ogonek" unicode="&#x2db;" horiz-adv-x="632" 
d="M469 -303q-55 -34 -109.5 -40t-94.5 11.5t-66.5 53t-32.5 80t15 97.5t69 101h100q-46 -44 -66 -90.5t-11.5 -80t33 -54.5t69 -17.5t94.5 33.5v-94z" />
    <glyph glyph-name="tilde" unicode="&#x2dc;" horiz-adv-x="872" 
d="M539 1180q-32 0 -64.5 15t-54.5 33t-48 33t-46 15q-57 0 -60 -84h-102q11 98 51.5 147.5t118.5 49.5q32 0 64.5 -15t55 -33.5t48.5 -33.5t45 -15q29 0 43.5 19t17.5 65h101q-11 -98 -51.5 -147t-118.5 -49z" />
    <glyph glyph-name="hungarumlaut" unicode="&#x2dd;" horiz-adv-x="952" 
d="M272 1403h207l-192 -238h-123zM582 1403h206l-192 -238h-123z" />
    <glyph glyph-name="gravecomb" unicode="&#x300;" 
d="M-272 1403l108 -238h-123l-192 238h207z" />
    <glyph glyph-name="acutecomb" unicode="&#x301;" 
d="M-371 1403h207l-192 -238h-123z" />
    <glyph glyph-name="uni0302" unicode="&#x302;" 
d="M-164 1165h-182l-107 158l-108 -158h-182l215 238h149z" />
    <glyph glyph-name="tildecomb" unicode="&#x303;" 
d="M-334 1180q-40 0 -80.5 24t-74 48t-58.5 24q-56 0 -59 -84h-103q11 98 51.5 147.5t118.5 49.5q32 0 64.5 -15t55 -33.5t48.5 -33.5t45 -15q29 0 44 19t18 65h100q-11 -98 -51.5 -147t-118.5 -49z" />
    <glyph glyph-name="uni0304" unicode="&#x304;" 
d="M-657 1290h491v-112h-491v112z" />
    <glyph glyph-name="uni0306" unicode="&#x306;" 
d="M-334 1417h170q-6 -57 -23 -100t-49 -79t-86.5 -54.5t-130.5 -18.5q-78 0 -133 18.5t-87 54.5t-48 78.5t-22 100.5h170q0 -80 30 -115.5t90 -35.5q56 0 87.5 38t31.5 113z" />
    <glyph glyph-name="uni0307" unicode="&#x307;" 
d="M-358 1178v184h194v-184h-194z" />
    <glyph glyph-name="uni0308" unicode="&#x308;" 
d="M-672 1178v174h195v-174h-195zM-358 1178v174h192v-174h-192z" />
    <glyph glyph-name="hookabovecomb" unicode="&#x309;" 
d="M-469 1468q55 34 109.5 40.5t94.5 -11t66.5 -53t32.5 -80t-15 -98t-69 -101.5h-119q76 73 84 141.5t-45 81.5t-139 -32v112z" />
    <glyph glyph-name="uni030A" unicode="&#x30a;" 
d="M-352 1149q-86 0 -138.5 50.5t-52.5 133.5q0 80 52.5 129t138.5 49q85 0 136.5 -49t51.5 -131t-51.5 -132t-136.5 -50zM-352 1239q39 0 61.5 25t22.5 67q0 40 -22.5 64t-61.5 24q-41 0 -63.5 -24t-22.5 -64q0 -42 22.5 -67t63.5 -25z" />
    <glyph glyph-name="uni030B" unicode="&#x30b;" 
d="M-680 1403h207l-193 -238h-122zM-371 1403h207l-192 -238h-123z" />
    <glyph glyph-name="uni030C" unicode="&#x30c;" 
d="M-346 1403h182l-215 -238h-149l-215 238h182l108 -158z" />
    <glyph glyph-name="uni0312" unicode="&#x312;" 
d="M-272 1165h-207l192 238h123z" />
    <glyph glyph-name="uni031B" unicode="&#x31b;" 
d="M-416 1163v113q86 0 109.5 22t23.5 84v123h119v-145q0 -109 -56 -160t-196 -37z" />
    <glyph glyph-name="dotbelowcomb" unicode="&#x323;" 
d="M-358 -219v184h194v-184h-194z" />
    <glyph glyph-name="uni0326" unicode="&#x326;" 
d="M-371 -18h207l-192 -238h-123z" />
    <glyph glyph-name="uni0327" unicode="&#x327;" 
d="M-348 -57q182 -24 182 -150q0 -74 -57 -113.5t-150 -39.5q-85 0 -172 24v103q77 -35 158 -35q39 0 59.5 19t20.5 52q0 41 -49 66.5t-158 24.5l117 178h104z" />
    <glyph glyph-name="uni0328" unicode="&#x328;" 
d="M-164 -303q-55 -34 -109.5 -40t-94.5 11.5t-66.5 53t-32.5 80t15 97.5t69 101h100q-46 -44 -66 -90.5t-11.5 -80t33 -54.5t69 -17.5t94.5 33.5v-94z" />
    <glyph glyph-name="uni0394" unicode="&#x394;" horiz-adv-x="1179" 
d="M657 1374l496 -1245v-127h-1126v127l508 1245h122zM193 129h792l-391 1018z" />
    <glyph glyph-name="uni03A9" unicode="&#x3a9;" horiz-adv-x="1454" 
d="M1354 741q0 -220 -100 -380.5t-257 -229.5h357v-131h-529v131q46 19 90.5 50t90.5 83t80.5 116t56.5 155.5t22 195.5q0 250 -116 392.5t-320 142.5q-207 0 -322.5 -142t-115.5 -393q0 -412 340 -600v-131h-531v131h377q-166 71 -271.5 228t-105.5 382q0 194 76.5 342.5
t219.5 231t333 82.5q285 0 455 -181t170 -475z" />
    <glyph glyph-name="uni03BC" unicode="&#x3bc;" horiz-adv-x="1310" 
d="M1040 221q0 -48 24.5 -73t82.5 -25v-123h-51q-115 2 -168 43t-60 137q-35 -100 -98.5 -147t-165.5 -47t-165.5 45.5t-98.5 144.5v-495h-176v1339h176v-574q1 -74 13 -128.5t40.5 -99.5t81 -68t129.5 -23q76 0 128.5 23t80.5 68t40 99.5t13 128.5v574h174v-799z" />
    <glyph glyph-name="pi" unicode="&#x3c0;" horiz-adv-x="1423" 
d="M1257 1020v-107h-174v-913h-174v913h-395v-913h-174v913h-176v107h1093z" />
    <glyph glyph-name="Wgrave" unicode="&#x1e80;" horiz-adv-x="1941" 
d="M1042 1513h-122l-193 238h207zM1712 1374h193l-381 -1374h-248l-250 928q-35 166 -55 291q-19 -111 -56 -291l-249 -928h-250l-379 1374h192l254 -975q36 -126 64 -264q28 152 57 262l252 977h229l250 -968q38 -147 60 -273q41 191 63 275z" />
    <glyph glyph-name="wgrave" unicode="&#x1e81;" horiz-adv-x="1499" 
d="M819 1176h-123l-192 237h207zM1282 1020h178l-282 -1018h-99l-116 -2l-177 715q-21 91 -36 180q-18 -105 -35 -180l-178 -715l-117 2h-98l-283 1018h180l170 -682q28 -110 47 -232q30 166 45 232l164 682h209l168 -690q20 -91 41 -219q18 108 45 221z" />
    <glyph glyph-name="Wacute" unicode="&#x1e82;" horiz-adv-x="1941" 
d="M1212 1751l-192 -238h-123l109 238h206zM1712 1374h193l-381 -1374h-248l-250 928q-35 166 -55 291q-19 -111 -56 -291l-249 -928h-250l-379 1374h192l254 -975q36 -126 64 -264q28 152 57 262l252 977h229l250 -968q38 -147 60 -273q41 191 63 275z" />
    <glyph glyph-name="wacute" unicode="&#x1e83;" horiz-adv-x="1499" 
d="M989 1413l-192 -237h-123l108 237h207zM1282 1020h178l-282 -1018h-99l-116 -2l-177 715q-21 91 -36 180q-18 -105 -35 -180l-178 -715l-117 2h-98l-283 1018h180l170 -682q28 -110 47 -232q30 166 45 232l164 682h209l168 -690q20 -91 41 -219q18 108 45 221z" />
    <glyph glyph-name="Wdieresis" unicode="&#x1e84;" horiz-adv-x="1941" 
d="M909 1688v-175h-194v175h194zM1221 1688v-175h-193v175h193zM1712 1374h193l-381 -1374h-248l-250 928q-35 166 -55 291q-19 -111 -56 -291l-249 -928h-250l-379 1374h192l254 -975q36 -126 64 -264q28 152 57 262l252 977h229l250 -968q38 -147 60 -273q41 191 63 275z
" />
    <glyph glyph-name="wdieresis" unicode="&#x1e85;" horiz-adv-x="1499" 
d="M688 1350v-174h-194v174h194zM999 1350v-174h-192v174h192zM1282 1020h178l-282 -1018h-99l-116 -2l-177 715q-21 91 -36 180q-18 -105 -35 -180l-178 -715l-117 2h-98l-283 1018h180l170 -682q28 -110 47 -232q30 166 45 232l164 682h209l168 -690q20 -91 41 -219
q18 108 45 221z" />
    <glyph glyph-name="uni1E9E" unicode="&#x1e9e;" horiz-adv-x="2484" 
d="M651 1268q-142 0 -223.5 -54t-81.5 -147q0 -104 64.5 -154.5t246.5 -103.5q103 -29 170 -53.5t131 -59.5t99.5 -76t56.5 -100t21 -135q0 -182 -133.5 -290.5t-368.5 -108.5q-232 0 -370 107.5t-150 293.5l157 98q3 -179 101.5 -276.5t271.5 -97.5q153 0 233 63t80 182
q0 107 -77 166.5t-267 110.5q-242 64 -341 152t-99 251t133.5 262t364.5 99q204 0 336 -100.5t153 -260.5l-151 -92q-9 152 -103 238t-254 86zM1870 809q103 -29 170 -53.5t131 -59.5t99 -76t56 -100t21 -135q0 -182 -133.5 -290.5t-368.5 -108.5q-232 0 -370 107.5
t-150 293.5l158 98q3 -179 101 -276.5t271 -97.5q153 0 233.5 63t80.5 182q0 107 -77 166.5t-267 110.5q-243 64 -342 152t-99 251t133.5 262t364.5 99q205 0 337 -100.5t153 -260.5l-152 -92q-9 152 -102.5 238t-253.5 86q-142 0 -223.5 -54t-81.5 -147q0 -104 64.5 -154.5
t246.5 -103.5z" />
    <glyph glyph-name="uni1EA0" unicode="&#x1ea0;" horiz-adv-x="1357" 
d="M1331 0h-182l-158 418h-629l-161 -418h-174l538 1374h238zM414 549h528l-176 467q-28 76 -86 252q-52 -157 -86 -250zM580 -328v185h194v-185h-194z" />
    <glyph glyph-name="uni1EA1" unicode="&#x1ea1;" horiz-adv-x="1095" 
d="M535 1053q196 0 302.5 -88.5t106.5 -247.5v-717h-176v197q-39 -96 -125 -153.5t-199 -57.5q-154 0 -249 79t-95 211q0 130 94.5 211.5t282.5 120.5l291 62v39q0 115 -62.5 173t-181.5 58q-120 0 -189 -63.5t-83 -176.5l-152 66q15 122 136.5 204.5t298.5 82.5zM504 102
q111 0 188.5 84.5t77.5 208.5v191l-256 -66q-219 -55 -219 -223q0 -97 54 -146t155 -49zM449 -328v185h194v-185h-194z" />
    <glyph glyph-name="uni1EA2" unicode="&#x1ea2;" horiz-adv-x="1357" 
d="M625 1497q76 73 83.5 141.5t-45.5 81.5t-139 -32v112q55 34 109.5 40.5t94.5 -11t66.5 -53t32.5 -80t-15 -98t-69 -101.5h-118zM1149 0l-158 418h-629l-161 -418h-174l538 1374h238l528 -1374h-182zM414 549h528l-176 467q-28 76 -86 252q-52 -157 -86 -250z" />
    <glyph glyph-name="uni1EA3" unicode="&#x1ea3;" horiz-adv-x="1095" 
d="M475 1176q76 73 84 141t-45 81t-139 -32v113q55 34 109.5 40.5t94.5 -11t66.5 -53t32.5 -80t-15 -98t-69 -101.5h-119zM535 1053q196 0 302.5 -88.5t106.5 -247.5v-717h-176v197q-39 -96 -125 -153.5t-199 -57.5q-154 0 -249 79t-95 211q0 130 94.5 211.5t282.5 120.5
l291 62v39q0 115 -62.5 173t-181.5 58q-120 0 -189 -63.5t-83 -176.5l-152 66q15 122 136.5 204.5t298.5 82.5zM504 102q111 0 188.5 84.5t77.5 208.5v191l-256 -66q-219 -55 -219 -223q0 -97 54 -146t155 -49z" />
    <glyph glyph-name="uni1EA4" unicode="&#x1ea4;" horiz-adv-x="1357" 
d="M1196 1898l-192 -237h-123l108 237h207zM692 1642l-108 -157h-183l215 237h150l215 -237h-182zM1149 0l-158 418h-629l-161 -418h-174l538 1374h238l528 -1374h-182zM414 549h528l-176 467q-28 76 -86 252q-52 -157 -86 -250z" />
    <glyph glyph-name="uni1EA5" unicode="&#x1ea5;" horiz-adv-x="1095" 
d="M1047 1577l-193 -238h-123l109 238h207zM543 1321l-109 -158h-182l215 238h149l215 -238h-182zM535 1053q196 0 302.5 -88.5t106.5 -247.5v-717h-176v197q-39 -96 -125 -153.5t-199 -57.5q-154 0 -249 79t-95 211q0 130 94.5 211.5t282.5 120.5l291 62v39
q0 115 -62.5 173t-181.5 58q-120 0 -189 -63.5t-83 -176.5l-152 66q15 122 136.5 204.5t298.5 82.5zM504 102q111 0 188.5 84.5t77.5 208.5v191l-256 -66q-219 -55 -219 -223q0 -97 54 -146t155 -49z" />
    <glyph glyph-name="uni1EA6" unicode="&#x1ea6;" horiz-adv-x="1357" 
d="M504 1653h-123l-193 237h207zM580 1485h-183l213 237h152l213 -237h-182l-107 155zM1149 0l-158 418h-629l-161 -418h-174l538 1374h238l528 -1374h-182zM414 549h528l-176 467q-28 76 -86 252q-52 -157 -86 -250z" />
    <glyph glyph-name="uni1EA7" unicode="&#x1ea7;" horiz-adv-x="1095" 
d="M354 1331h-123l-192 238h207zM430 1163h-182l213 238h151l213 -238h-182l-106 156zM535 1053q196 0 302.5 -88.5t106.5 -247.5v-717h-176v197q-39 -96 -125 -153.5t-199 -57.5q-154 0 -249 79t-95 211q0 130 94.5 211.5t282.5 120.5l291 62v39q0 115 -62.5 173t-181.5 58
q-120 0 -189 -63.5t-83 -176.5l-152 66q15 122 136.5 204.5t298.5 82.5zM504 102q111 0 188.5 84.5t77.5 208.5v191l-256 -66q-219 -55 -219 -223q0 -97 54 -146t155 -49z" />
    <glyph glyph-name="uni1EA8" unicode="&#x1ea8;" horiz-adv-x="1357" 
d="M868 1675q88 85 85 159q-3 54 -52 66q-54 14 -131 -32v110q55 35 108.5 41.5t93.5 -10.5t66.5 -53t33 -80.5t-14 -98.5t-68.5 -102h-121zM692 1642l-108 -157h-183l215 237h150l215 -237h-182zM1149 0l-158 418h-629l-161 -418h-174l538 1374h238l528 -1374h-182z
M414 549h528l-176 467q-28 76 -86 252q-52 -157 -86 -250z" />
    <glyph glyph-name="uni1EA9" unicode="&#x1ea9;" horiz-adv-x="1095" 
d="M719 1352q87 84 85 158q-2 53 -51 66q-54 15 -132 -32v111q55 35 108.5 41.5t93.5 -10.5t66.5 -53t33 -80.5t-14 -98.5t-68.5 -102h-121zM543 1319l-109 -158h-182l215 238h149l215 -238h-182zM535 1053q196 0 302.5 -88.5t106.5 -247.5v-717h-176v197
q-39 -96 -125 -153.5t-199 -57.5q-154 0 -249 79t-95 211q0 130 94.5 211.5t282.5 120.5l291 62v39q0 115 -62.5 173t-181.5 58q-120 0 -189 -63.5t-83 -176.5l-152 66q15 122 136.5 204.5t298.5 82.5zM504 102q111 0 188.5 84.5t77.5 208.5v191l-256 -66
q-219 -55 -219 -223q0 -97 54 -146t155 -49z" />
    <glyph glyph-name="uni1EAA" unicode="&#x1eaa;" horiz-adv-x="1357" 
d="M590 1855q-29 0 -44 -18.5t-18 -62.5h-100q9 96 49.5 145t118.5 49q40 0 81.5 -24t75.5 -48t58 -24q56 0 59 84h101q-19 -197 -168 -197q-32 0 -64.5 15t-54.5 33t-48 33t-46 15zM692 1642l-108 -157h-183l215 237h150l215 -237h-182zM1149 0l-158 418h-629l-161 -418
h-174l538 1374h238l528 -1374h-182zM414 549h528l-176 467q-28 76 -86 252q-52 -157 -86 -250z" />
    <glyph glyph-name="uni1EAB" unicode="&#x1eab;" horiz-adv-x="1095" 
d="M440 1534q-29 0 -43.5 -18.5t-17.5 -63.5h-100q9 97 49.5 146t117.5 49q40 0 81.5 -24t76 -48.5t58.5 -24.5q56 0 59 84h100q-19 -196 -168 -196q-32 0 -64.5 15t-54.5 33t-48 33t-46 15zM543 1321l-109 -158h-182l215 238h149l215 -238h-182zM535 1053
q196 0 302.5 -88.5t106.5 -247.5v-717h-176v197q-39 -96 -125 -153.5t-199 -57.5q-154 0 -249 79t-95 211q0 130 94.5 211.5t282.5 120.5l291 62v39q0 115 -62.5 173t-181.5 58q-120 0 -189 -63.5t-83 -176.5l-152 66q15 122 136.5 204.5t298.5 82.5zM504 102
q111 0 188.5 84.5t77.5 208.5v191l-256 -66q-219 -55 -219 -223q0 -97 54 -146t155 -49z" />
    <glyph glyph-name="uni1EAC" unicode="&#x1eac;" horiz-adv-x="1357" 
d="M692 1642l-108 -157h-183l215 237h150l215 -237h-182zM1331 0h-182l-158 418h-629l-161 -418h-174l538 1374h238zM414 549h528l-176 467q-28 76 -86 252q-52 -157 -86 -250zM580 -328v185h194v-185h-194z" />
    <glyph glyph-name="uni1EAD" unicode="&#x1ead;" horiz-adv-x="1095" 
d="M543 1321l-109 -158h-182l215 238h149l215 -238h-182zM535 1053q196 0 302.5 -88.5t106.5 -247.5v-717h-176v197q-39 -96 -125 -153.5t-199 -57.5q-154 0 -249 79t-95 211q0 130 94.5 211.5t282.5 120.5l291 62v39q0 115 -62.5 173t-181.5 58q-120 0 -189 -63.5
t-83 -176.5l-152 66q15 122 136.5 204.5t298.5 82.5zM504 102q111 0 188.5 84.5t77.5 208.5v191l-256 -66q-219 -55 -219 -223q0 -97 54 -146t155 -49zM449 -328v185h194v-185h-194z" />
    <glyph glyph-name="uni1EAE" unicode="&#x1eae;" horiz-adv-x="1357" 
d="M938 1999l-193 -238h-122l108 238h207zM692 1485q-78 0 -133.5 18.5t-87 54.5t-48 78.5t-22.5 100.5h170q0 -80 30.5 -116t90.5 -36q55 0 87 38.5t32 113.5h170q-6 -57 -23 -100t-49 -79t-86.5 -54.5t-130.5 -18.5zM1149 0l-158 418h-629l-161 -418h-174l538 1374h238
l528 -1374h-182zM414 549h528l-176 467q-28 76 -86 252q-52 -157 -86 -250z" />
    <glyph glyph-name="uni1EAF" unicode="&#x1eaf;" horiz-adv-x="1095" 
d="M788 1677l-192 -237h-123l109 237h206zM543 1163q-78 0 -133.5 18.5t-87 54.5t-48 78.5t-22.5 100.5h170q0 -80 30.5 -115.5t90.5 -35.5q56 0 87.5 38t31.5 113h169q-6 -57 -22.5 -100t-48.5 -79t-86.5 -54.5t-130.5 -18.5zM535 1053q196 0 302.5 -88.5t106.5 -247.5
v-717h-176v197q-39 -96 -125 -153.5t-199 -57.5q-154 0 -249 79t-95 211q0 130 94.5 211.5t282.5 120.5l291 62v39q0 115 -62.5 173t-181.5 58q-120 0 -189 -63.5t-83 -176.5l-152 66q15 122 136.5 204.5t298.5 82.5zM504 102q111 0 188.5 84.5t77.5 208.5v191l-256 -66
q-219 -55 -219 -223q0 -97 54 -146t155 -49z" />
    <glyph glyph-name="uni1EB0" unicode="&#x1eb0;" horiz-adv-x="1357" 
d="M760 1761h-123l-193 238h207zM692 1485q-78 0 -133.5 18.5t-87 54.5t-48 78.5t-22.5 100.5h170q0 -80 30.5 -116t90.5 -36q55 0 87 38.5t32 113.5h170q-6 -57 -23 -100t-49 -79t-86.5 -54.5t-130.5 -18.5zM1149 0l-158 418h-629l-161 -418h-174l538 1374h238l528 -1374
h-182zM414 549h528l-176 467q-28 76 -86 252q-52 -157 -86 -250z" />
    <glyph glyph-name="uni1EB1" unicode="&#x1eb1;" horiz-adv-x="1095" 
d="M610 1440h-123l-192 237h207zM543 1163q-78 0 -133.5 18.5t-87 54.5t-48 78.5t-22.5 100.5h170q0 -80 30.5 -115.5t90.5 -35.5q56 0 87.5 38t31.5 113h169q-6 -57 -22.5 -100t-48.5 -79t-86.5 -54.5t-130.5 -18.5zM535 1053q196 0 302.5 -88.5t106.5 -247.5v-717h-176
v197q-39 -96 -125 -153.5t-199 -57.5q-154 0 -249 79t-95 211q0 130 94.5 211.5t282.5 120.5l291 62v39q0 115 -62.5 173t-181.5 58q-120 0 -189 -63.5t-83 -176.5l-152 66q15 122 136.5 204.5t298.5 82.5zM504 102q111 0 188.5 84.5t77.5 208.5v191l-256 -66
q-219 -55 -219 -223q0 -97 54 -146t155 -49z" />
    <glyph glyph-name="uni1EB2" unicode="&#x1eb2;" horiz-adv-x="1357" 
d="M614 1735q76 73 84 141t-45 81t-139 -32v113q55 34 109.5 40.5t94.5 -11t66.5 -53t32.5 -80t-15 -98t-69 -101.5h-119zM692 1485q-78 0 -133.5 18.5t-87 54.5t-48 78.5t-22.5 100.5h170q0 -80 30.5 -116t90.5 -36q55 0 87 38.5t32 113.5h170q-6 -57 -23 -100t-49 -79
t-86.5 -54.5t-130.5 -18.5zM1149 0l-158 418h-629l-161 -418h-174l538 1374h238l528 -1374h-182zM414 549h528l-176 467q-28 76 -86 252q-52 -157 -86 -250z" />
    <glyph glyph-name="uni1EB3" unicode="&#x1eb3;" horiz-adv-x="1095" 
d="M465 1413q76 73 84 141.5t-45 81.5t-139 -32v112q55 34 109.5 40.5t94.5 -11t66.5 -53t32.5 -80t-15 -98t-69 -101.5h-119zM543 1163q-78 0 -133.5 18.5t-87 54.5t-48 78.5t-22.5 100.5h170q0 -80 30.5 -115.5t90.5 -35.5q56 0 87.5 38t31.5 113h169q-6 -57 -22.5 -100
t-48.5 -79t-86.5 -54.5t-130.5 -18.5zM535 1053q196 0 302.5 -88.5t106.5 -247.5v-717h-176v197q-39 -96 -125 -153.5t-199 -57.5q-154 0 -249 79t-95 211q0 130 94.5 211.5t282.5 120.5l291 62v39q0 115 -62.5 173t-181.5 58q-120 0 -189 -63.5t-83 -176.5l-152 66
q15 122 136.5 204.5t298.5 82.5zM504 102q111 0 188.5 84.5t77.5 208.5v191l-256 -66q-219 -55 -219 -223q0 -97 54 -146t155 -49z" />
    <glyph glyph-name="uni1EB4" unicode="&#x1eb4;" horiz-adv-x="1357" 
d="M592 1907q-57 0 -60 -84h-102q11 98 51.5 147t118.5 49q40 0 81 -24t74.5 -48t57.5 -24q29 0 43.5 19t17.5 65h101q-11 -98 -51.5 -147.5t-118.5 -49.5q-32 0 -64.5 15t-54.5 33.5t-48 33.5t-46 15zM692 1485q-78 0 -133.5 18.5t-87 54.5t-48 78.5t-22.5 100.5h170
q0 -80 30.5 -116t90.5 -36q55 0 87 38.5t32 113.5h170q-6 -57 -23 -100t-49 -79t-86.5 -54.5t-130.5 -18.5zM1149 0l-158 418h-629l-161 -418h-174l538 1374h238l528 -1374h-182zM414 549h528l-176 467q-28 76 -86 252q-52 -157 -86 -250z" />
    <glyph glyph-name="uni1EB5" unicode="&#x1eb5;" horiz-adv-x="1095" 
d="M442 1585q-56 0 -59 -84h-102q11 98 51.5 147.5t118.5 49.5q40 0 81 -24t74.5 -48t57.5 -24q29 0 43.5 19t17.5 65h100q-11 -98 -51.5 -147.5t-118.5 -49.5q-32 0 -64.5 15t-54.5 33t-48 33t-46 15zM543 1163q-78 0 -133.5 18.5t-87 54.5t-48 78.5t-22.5 100.5h170
q0 -80 30.5 -115.5t90.5 -35.5q56 0 87.5 38t31.5 113h169q-6 -57 -22.5 -100t-48.5 -79t-86.5 -54.5t-130.5 -18.5zM535 1053q196 0 302.5 -88.5t106.5 -247.5v-717h-176v197q-39 -96 -125 -153.5t-199 -57.5q-154 0 -249 79t-95 211q0 130 94.5 211.5t282.5 120.5l291 62
v39q0 115 -62.5 173t-181.5 58q-120 0 -189 -63.5t-83 -176.5l-152 66q15 122 136.5 204.5t298.5 82.5zM504 102q111 0 188.5 84.5t77.5 208.5v191l-256 -66q-219 -55 -219 -223q0 -97 54 -146t155 -49z" />
    <glyph glyph-name="uni1EB6" unicode="&#x1eb6;" horiz-adv-x="1357" 
d="M692 1485q-78 0 -133.5 18.5t-87 54.5t-48 78.5t-22.5 100.5h170q0 -80 30.5 -116t90.5 -36q55 0 87 38.5t32 113.5h170q-6 -57 -23 -100t-49 -79t-86.5 -54.5t-130.5 -18.5zM1331 0h-182l-158 418h-629l-161 -418h-174l538 1374h238zM414 549h528l-176 467
q-28 76 -86 252q-52 -157 -86 -250zM580 -328v185h194v-185h-194z" />
    <glyph glyph-name="uni1EB7" unicode="&#x1eb7;" horiz-adv-x="1095" 
d="M543 1163q-78 0 -133.5 18.5t-87 54.5t-48 78.5t-22.5 100.5h170q0 -80 30.5 -115.5t90.5 -35.5q56 0 87.5 38t31.5 113h169q-6 -57 -22.5 -100t-48.5 -79t-86.5 -54.5t-130.5 -18.5zM535 1053q196 0 302.5 -88.5t106.5 -247.5v-717h-176v197q-39 -96 -125 -153.5
t-199 -57.5q-154 0 -249 79t-95 211q0 130 94.5 211.5t282.5 120.5l291 62v39q0 115 -62.5 173t-181.5 58q-120 0 -189 -63.5t-83 -176.5l-152 66q15 122 136.5 204.5t298.5 82.5zM504 102q111 0 188.5 84.5t77.5 208.5v191l-256 -66q-219 -55 -219 -223q0 -97 54 -146
t155 -49zM449 -328v185h194v-185h-194z" />
    <glyph glyph-name="uni1EB8" unicode="&#x1eb8;" horiz-adv-x="1163" 
d="M1063 1243h-721v-481h672v-131h-672v-500h721v-131h-901v1374h901v-131zM559 -328v185h195v-185h-195z" />
    <glyph glyph-name="uni1EB9" unicode="&#x1eb9;" horiz-adv-x="1132" 
d="M889 332l147 -88q-116 -258 -436 -258q-229 0 -364.5 143.5t-135.5 388.5q0 243 131 389t347 146q210 0 327 -145t119 -394h-2l2 -6h-735q3 -193 90 -301.5t242 -108.5q104 0 173 59t95 175zM578 940q-124 0 -197 -88.5t-88 -247.5h538q-11 175 -70.5 255.5t-182.5 80.5z
M467 -328v185h195v-185h-195z" />
    <glyph glyph-name="uni1EBA" unicode="&#x1eba;" horiz-adv-x="1163" 
d="M561 1513q76 73 84 141.5t-45 81.5t-139 -32v113q55 34 109.5 40.5t94.5 -11t66.5 -53.5t32.5 -80.5t-15 -98t-69 -101.5h-119zM1063 1243h-721v-481h672v-131h-672v-500h721v-131h-901v1374h901v-131z" />
    <glyph glyph-name="uni1EBB" unicode="&#x1ebb;" horiz-adv-x="1132" 
d="M508 1176q76 73 84 141t-45 81t-139 -32v113q55 34 109.5 40.5t94.5 -11t66.5 -53t32.5 -80t-15 -98t-69 -101.5h-119zM889 332l147 -88q-116 -258 -436 -258q-229 0 -364.5 143.5t-135.5 388.5q0 243 131 389t347 146q210 0 327 -145t119 -394h-2l2 -6h-735
q3 -193 90 -301.5t242 -108.5q104 0 173 59t95 175zM578 940q-124 0 -197 -88.5t-88 -247.5h538q-11 175 -70.5 255.5t-182.5 80.5z" />
    <glyph glyph-name="uni1EBC" unicode="&#x1ebc;" horiz-adv-x="1163" 
d="M516 1612q-56 0 -59 -84h-103q11 98 51.5 147t118.5 49q40 0 81 -24t74.5 -48t57.5 -24q29 0 44 19t18 65h100q-11 -98 -51.5 -147t-118.5 -49q-32 0 -64.5 15t-54.5 33t-48 33t-46 15zM1063 1243h-721v-481h672v-131h-672v-500h721v-131h-901v1374h901v-131z" />
    <glyph glyph-name="uni1EBD" unicode="&#x1ebd;" horiz-adv-x="1132" 
d="M463 1274q-57 0 -60 -84h-102q11 98 51.5 147t118.5 49q40 0 81 -24t74.5 -48t57.5 -24q29 0 43.5 19t17.5 65h101q-11 -98 -51.5 -147t-118.5 -49q-32 0 -64.5 15t-54.5 33t-48 33t-46 15zM889 332l147 -88q-116 -258 -436 -258q-229 0 -364.5 143.5t-135.5 388.5
q0 243 131 389t347 146q210 0 327 -145t119 -394h-2l2 -6h-735q3 -193 90 -301.5t242 -108.5q104 0 173 59t95 175zM578 940q-124 0 -197 -88.5t-88 -247.5h538q-11 175 -70.5 255.5t-182.5 80.5z" />
    <glyph glyph-name="uni1EBE" unicode="&#x1ebe;" horiz-adv-x="1163" 
d="M1135 1915l-193 -238h-123l109 238h207zM631 1659l-109 -158h-182l215 238h150l215 -238h-183zM1063 1374v-131h-721v-481h672v-131h-672v-500h721v-131h-901v1374h901z" />
    <glyph glyph-name="uni1EBF" unicode="&#x1ebf;" horiz-adv-x="1132" 
d="M1081 1577l-192 -238h-123l108 238h207zM578 1321l-109 -158h-182l215 238h149l215 -238h-182zM621 98q104 0 173 59t95 175l147 -88q-116 -258 -436 -258q-229 0 -364.5 143.5t-135.5 388.5q0 243 131 389t347 146q210 0 327 -145t119 -394h-2l2 -6h-735
q3 -193 90 -301.5t242 -108.5zM578 940q-124 0 -197 -88.5t-88 -247.5h538q-11 175 -70.5 255.5t-182.5 80.5z" />
    <glyph glyph-name="uni1EC0" unicode="&#x1ec0;" horiz-adv-x="1163" 
d="M442 1669h-123l-192 238h207zM518 1501h-182l213 238h151l213 -238h-182l-106 156zM1063 1243h-721v-481h672v-131h-672v-500h721v-131h-901v1374h901v-131z" />
    <glyph glyph-name="uni1EC1" unicode="&#x1ec1;" horiz-adv-x="1132" 
d="M389 1331h-123l-192 238h207zM465 1163h-182l213 238h151l213 -238h-182l-107 156zM889 332l147 -88q-116 -258 -436 -258q-229 0 -364.5 143.5t-135.5 388.5q0 243 131 389t347 146q210 0 327 -145t119 -394h-2l2 -6h-735q3 -193 90 -301.5t242 -108.5q104 0 173 59
t95 175zM578 940q-124 0 -197 -88.5t-88 -247.5h538q-11 175 -70.5 255.5t-182.5 80.5z" />
    <glyph glyph-name="uni1EC2" unicode="&#x1ec2;" horiz-adv-x="1163" 
d="M805 1690q87 84 85 158q-2 53 -51 66q-54 15 -132 -32v111q55 35 108.5 41.5t93.5 -10.5t66.5 -53t33 -80.5t-14 -98.5t-68.5 -102h-121zM629 1657l-109 -158h-182l215 238h149l216 -238h-183zM1063 1243h-721v-481h672v-131h-672v-500h721v-131h-901v1374h901v-131z" />
    <glyph glyph-name="uni1EC3" unicode="&#x1ec3;" horiz-adv-x="1132" 
d="M752 1352q87 84 84 158q-2 53 -51 66q-54 15 -132 -32v111q55 35 108.5 41.5t93.5 -10.5t66.5 -53t33 -80.5t-14 -98.5t-68.5 -102h-120zM575 1319l-108 -158h-182l215 238h149l215 -238h-182zM889 332l147 -88q-116 -258 -436 -258q-229 0 -364.5 143.5t-135.5 388.5
q0 243 131 389t347 146q210 0 327 -145t119 -394h-2l2 -6h-735q3 -193 90 -301.5t242 -108.5q104 0 173 59t95 175zM578 940q-124 0 -197 -88.5t-88 -247.5h538q-11 175 -70.5 255.5t-182.5 80.5z" />
    <glyph glyph-name="uni1EC4" unicode="&#x1ec4;" horiz-adv-x="1163" 
d="M526 1872q-29 0 -43.5 -18.5t-17.5 -63.5h-100q9 97 49.5 146t117.5 49q40 0 81.5 -24t76 -48.5t58.5 -24.5q56 0 59 84h100q-19 -196 -168 -196q-32 0 -64.5 15t-54.5 33t-48 33t-46 15zM629 1659l-109 -158h-182l215 238h149l216 -238h-183zM1063 1243h-721v-481h672
v-131h-672v-500h721v-131h-901v1374h901v-131z" />
    <glyph glyph-name="uni1EC5" unicode="&#x1ec5;" horiz-adv-x="1132" 
d="M473 1534q-29 0 -43.5 -18.5t-17.5 -63.5h-101q19 195 168 195q32 0 65 -15t56 -33.5t49 -33.5t45 -15q57 0 60 84h100q-19 -196 -168 -196q-40 0 -80.5 24t-74 48t-58.5 24zM575 1321l-108 -158h-182l215 238h149l215 -238h-182zM889 332l147 -88q-116 -258 -436 -258
q-229 0 -364.5 143.5t-135.5 388.5q0 243 131 389t347 146q210 0 327 -145t119 -394h-2l2 -6h-735q3 -193 90 -301.5t242 -108.5q104 0 173 59t95 175zM578 940q-124 0 -197 -88.5t-88 -247.5h538q-11 175 -70.5 255.5t-182.5 80.5z" />
    <glyph glyph-name="uni1EC6" unicode="&#x1ec6;" horiz-adv-x="1163" 
d="M629 1659l-109 -158h-182l215 238h149l216 -238h-183zM1063 1243h-721v-481h672v-131h-672v-500h721v-131h-901v1374h901v-131zM559 -328v185h195v-185h-195z" />
    <glyph glyph-name="uni1EC7" unicode="&#x1ec7;" horiz-adv-x="1132" 
d="M575 1321l-108 -158h-182l215 238h149l215 -238h-182zM889 332l147 -88q-116 -258 -436 -258q-229 0 -364.5 143.5t-135.5 388.5q0 243 131 389t347 146q210 0 327 -145t119 -394h-2l2 -6h-735q3 -193 90 -301.5t242 -108.5q104 0 173 59t95 175zM578 940
q-124 0 -197 -88.5t-88 -247.5h538q-11 175 -70.5 255.5t-182.5 80.5zM467 -328v185h195v-185h-195z" />
    <glyph glyph-name="uni1EC8" unicode="&#x1ec8;" horiz-adv-x="503" 
d="M86 1817q55 34 109.5 40.5t94.5 -11t66.5 -53.5t32.5 -80.5t-15 -98t-69 -101.5h-119q76 73 84 141.5t-45 81.5t-139 -32v113zM162 0v1374h178v-1374h-178z" />
    <glyph glyph-name="uni1EC9" unicode="&#x1ec9;" horiz-adv-x="503" 
d="M86 1468q55 34 109.5 40.5t94.5 -11t66.5 -53t32.5 -80t-15 -98t-69 -101.5h-119q76 73 84 141.5t-45 81.5t-139 -32v112zM164 0v1022h174v-1022h-174z" />
    <glyph glyph-name="uni1ECA" unicode="&#x1eca;" horiz-adv-x="503" 
d="M162 0v1374h178v-1374h-178zM154 -328v185h194v-185h-194z" />
    <glyph glyph-name="uni1ECB" unicode="&#x1ecb;" horiz-adv-x="538" 
d="M166 1202v172h205v-172h-205zM180 0v1022h174v-1022h-174zM170 -328v185h195v-185h-195z" />
    <glyph glyph-name="uni1ECC" unicode="&#x1ecc;" horiz-adv-x="1454" 
d="M727 -14q-288 0 -457.5 189t-169.5 515t169.5 516.5t457.5 190.5q289 0 458 -190t169 -517q0 -326 -169 -515t-458 -189zM727 115q206 0 322 152t116 423q0 273 -117 424.5t-323 151.5q-205 0 -319.5 -151.5t-114.5 -424.5q0 -271 115 -423t321 -152zM629 -328v185h194
v-185h-194z" />
    <glyph glyph-name="uni1ECD" unicode="&#x1ecd;" horiz-adv-x="1196" 
d="M598 -14q-228 0 -363 144t-135 388q0 246 135 390.5t363 144.5q229 0 362.5 -144.5t133.5 -390.5q0 -245 -133.5 -388.5t-362.5 -143.5zM598 98q149 0 228 109t79 311q0 203 -79 312.5t-228 109.5q-148 0 -227.5 -109.5t-79.5 -312.5q0 -201 79.5 -310.5t227.5 -109.5z
M498 -328v185h194v-185h-194z" />
    <glyph glyph-name="uni1ECE" unicode="&#x1ece;" horiz-adv-x="1454" 
d="M563 1817q55 34 109.5 40.5t94.5 -11t66.5 -53.5t32.5 -80.5t-15 -98t-69 -101.5h-118q76 73 83.5 141.5t-45.5 81.5t-139 -32v113zM727 -14q-288 0 -457.5 189t-169.5 515t169.5 516.5t457.5 190.5q289 0 458 -190t169 -517q0 -326 -169 -515t-458 -189zM727 115
q206 0 322 152t116 423q0 273 -117 424.5t-323 151.5q-205 0 -319.5 -151.5t-114.5 -424.5q0 -271 115 -423t321 -152z" />
    <glyph glyph-name="uni1ECF" unicode="&#x1ecf;" horiz-adv-x="1196" 
d="M434 1479q55 34 109.5 40.5t94.5 -11t66.5 -53t32.5 -80t-15 -98t-69 -101.5h-118q76 73 83.5 141t-45.5 81t-139 -32v113zM598 -14q-228 0 -363 144t-135 388q0 246 135 390.5t363 144.5q229 0 362.5 -144.5t133.5 -390.5q0 -245 -133.5 -388.5t-362.5 -143.5zM598 98
q149 0 228 109t79 311q0 203 -79 312.5t-228 109.5q-148 0 -227.5 -109.5t-79.5 -312.5q0 -201 79.5 -310.5t227.5 -109.5z" />
    <glyph glyph-name="uni1ED0" unicode="&#x1ed0;" horiz-adv-x="1454" 
d="M1235 1915l-193 -238h-122l108 238h207zM731 1659l-108 -158h-183l215 238h150l215 -238h-182zM727 1397q289 0 458 -190t169 -517q0 -326 -169 -515t-458 -189q-288 0 -457.5 189t-169.5 515t169.5 516.5t457.5 190.5zM727 115q206 0 322 152t116 423q0 273 -117 424.5
t-323 151.5q-205 0 -319.5 -151.5t-114.5 -424.5q0 -271 115 -423t321 -152z" />
    <glyph glyph-name="uni1ED1" unicode="&#x1ed1;" horiz-adv-x="1196" 
d="M1106 1577l-193 -238h-122l108 238h207zM602 1321l-108 -158h-183l215 238h150l215 -238h-182zM598 1053q229 0 362.5 -144.5t133.5 -390.5q0 -245 -133.5 -388.5t-362.5 -143.5q-228 0 -363 144t-135 388q0 246 135 390.5t363 144.5zM598 98q149 0 228 109t79 311
q0 203 -79 312.5t-228 109.5q-148 0 -227.5 -109.5t-79.5 -312.5q0 -201 79.5 -310.5t227.5 -109.5z" />
    <glyph glyph-name="uni1ED2" unicode="&#x1ed2;" horiz-adv-x="1454" 
d="M543 1669h-123l-193 238h207zM618 1501h-182l213 238h152l213 -238h-183l-106 156zM727 1397q289 0 458 -190t169 -517q0 -326 -169 -515t-458 -189q-288 0 -457.5 189t-169.5 515t169.5 516.5t457.5 190.5zM727 115q206 0 322 152t116 423q0 273 -117 424.5t-323 151.5
q-205 0 -319.5 -151.5t-114.5 -424.5q0 -271 115 -423t321 -152z" />
    <glyph glyph-name="uni1ED3" unicode="&#x1ed3;" horiz-adv-x="1196" 
d="M414 1331h-123l-193 238h207zM489 1163h-182l213 238h152l213 -238h-183l-106 156zM598 1053q229 0 362.5 -144.5t133.5 -390.5q0 -245 -133.5 -388.5t-362.5 -143.5q-228 0 -363 144t-135 388q0 246 135 390.5t363 144.5zM598 98q149 0 228 109t79 311q0 203 -79 312.5
t-228 109.5q-148 0 -227.5 -109.5t-79.5 -312.5q0 -201 79.5 -310.5t227.5 -109.5z" />
    <glyph glyph-name="uni1ED4" unicode="&#x1ed4;" horiz-adv-x="1454" 
d="M907 1690q87 84 85 158q-2 53 -51 66q-54 15 -132 -32v111q55 35 108.5 41.5t93.5 -10.5t66.5 -53t33 -80.5t-14 -98.5t-68.5 -102h-121zM731 1657l-108 -158h-183l215 238h150l215 -238h-182zM727 1397q289 0 458 -190t169 -517q0 -326 -169 -515t-458 -189
q-288 0 -457.5 189t-169.5 515t169.5 516.5t457.5 190.5zM727 115q206 0 322 152t116 423q0 273 -117 424.5t-323 151.5q-205 0 -319.5 -151.5t-114.5 -424.5q0 -271 115 -423t321 -152z" />
    <glyph glyph-name="uni1ED5" unicode="&#x1ed5;" horiz-adv-x="1196" 
d="M776 1352q87 84 85 158q-2 53 -51 66q-54 15 -132 -32v111q55 35 108.5 41.5t93.5 -10.5t66.5 -53t33 -80.5t-14 -98.5t-68.5 -102h-121zM600 1319l-108 -158h-183l215 238h150l215 -238h-182zM598 1053q229 0 362.5 -144.5t133.5 -390.5q0 -245 -133.5 -388.5
t-362.5 -143.5q-228 0 -363 144t-135 388q0 246 135 390.5t363 144.5zM598 98q149 0 228 109t79 311q0 203 -79 312.5t-228 109.5q-148 0 -227.5 -109.5t-79.5 -312.5q0 -201 79.5 -310.5t227.5 -109.5z" />
    <glyph glyph-name="uni1ED6" unicode="&#x1ed6;" horiz-adv-x="1454" 
d="M629 1872q-29 0 -44 -19t-18 -63h-100q19 195 168 195q32 0 65 -15t56 -33.5t49 -33.5t45 -15q56 0 59 84h101q-19 -196 -168 -196q-40 0 -80.5 24t-74 48t-58.5 24zM731 1659l-108 -158h-183l215 238h150l215 -238h-182zM727 1397q289 0 458 -190t169 -517
q0 -326 -169 -515t-458 -189q-288 0 -457.5 189t-169.5 515t169.5 516.5t457.5 190.5zM727 115q206 0 322 152t116 423q0 273 -117 424.5t-323 151.5q-205 0 -319.5 -151.5t-114.5 -424.5q0 -271 115 -423t321 -152z" />
    <glyph glyph-name="uni1ED7" unicode="&#x1ed7;" horiz-adv-x="1196" 
d="M498 1534q-29 0 -44 -19t-18 -63h-100q19 195 168 195q32 0 65 -15t56 -33.5t49 -33.5t45 -15q56 0 59 84h101q-19 -196 -168 -196q-32 0 -64.5 15t-54.5 33t-48 33t-46 15zM600 1321l-108 -158h-183l215 238h150l215 -238h-182zM598 1053q229 0 362.5 -144.5
t133.5 -390.5q0 -245 -133.5 -388.5t-362.5 -143.5q-228 0 -363 144t-135 388q0 246 135 390.5t363 144.5zM598 98q149 0 228 109t79 311q0 203 -79 312.5t-228 109.5q-148 0 -227.5 -109.5t-79.5 -312.5q0 -201 79.5 -310.5t227.5 -109.5z" />
    <glyph glyph-name="uni1ED8" unicode="&#x1ed8;" horiz-adv-x="1454" 
d="M731 1659l-108 -158h-183l215 238h150l215 -238h-182zM727 1397q289 0 458 -190t169 -517q0 -326 -169 -515t-458 -189q-288 0 -457.5 189t-169.5 515t169.5 516.5t457.5 190.5zM727 115q206 0 322 152t116 423q0 273 -117 424.5t-323 151.5q-205 0 -319.5 -151.5
t-114.5 -424.5q0 -271 115 -423t321 -152zM629 -328v185h194v-185h-194z" />
    <glyph glyph-name="uni1ED9" unicode="&#x1ed9;" horiz-adv-x="1196" 
d="M600 1321l-108 -158h-183l215 238h150l215 -238h-182zM598 1053q229 0 362.5 -144.5t133.5 -390.5q0 -245 -133.5 -388.5t-362.5 -143.5q-228 0 -363 144t-135 388q0 246 135 390.5t363 144.5zM598 98q149 0 228 109t79 311q0 203 -79 312.5t-228 109.5
q-148 0 -227.5 -109.5t-79.5 -312.5q0 -201 79.5 -310.5t227.5 -109.5zM498 -328v185h194v-185h-194z" />
    <glyph glyph-name="uni1EDA" unicode="&#x1eda;" horiz-adv-x="1454" 
d="M969 1751l-193 -238h-123l109 238h207zM1122 1266q111 -90 171.5 -238t60.5 -338q0 -326 -169 -515t-458 -189q-288 0 -457.5 189t-169.5 515t169.5 516.5t457.5 190.5q77 0 147 -15h154q86 0 112.5 23t26.5 84v123h133v-142q0 -95 -40.5 -147.5t-137.5 -56.5zM727 115
q206 0 322 152t116 423q0 273 -117 424.5t-323 151.5q-205 0 -319.5 -151.5t-114.5 -424.5q0 -271 115 -423t321 -152z" />
    <glyph glyph-name="uni1EDB" unicode="&#x1edb;" horiz-adv-x="1196" 
d="M840 1413l-193 -237h-123l109 237h207zM948 920q146 -143 146 -402q0 -245 -133.5 -388.5t-362.5 -143.5q-228 0 -363 144t-135 388q0 246 135 390.5t363 144.5q101 0 195 -33h14q85 0 112 23t27 83v123h111v-141q0 -152 -109 -188zM598 98q149 0 228 109t79 311
q0 203 -79 312.5t-228 109.5q-148 0 -227.5 -109.5t-79.5 -312.5q0 -201 79.5 -310.5t227.5 -109.5z" />
    <glyph glyph-name="uni1EDC" unicode="&#x1edc;" horiz-adv-x="1454" 
d="M799 1513h-123l-193 238h207zM1122 1266q111 -90 171.5 -238t60.5 -338q0 -326 -169 -515t-458 -189q-288 0 -457.5 189t-169.5 515t169.5 516.5t457.5 190.5q77 0 147 -15h154q86 0 112.5 23t26.5 84v123h133v-142q0 -95 -40.5 -147.5t-137.5 -56.5zM727 115
q206 0 322 152t116 423q0 273 -117 424.5t-323 151.5q-205 0 -319.5 -151.5t-114.5 -424.5q0 -271 115 -423t321 -152z" />
    <glyph glyph-name="uni1EDD" unicode="&#x1edd;" horiz-adv-x="1196" 
d="M670 1176h-123l-193 237h207zM948 920q146 -143 146 -402q0 -245 -133.5 -388.5t-362.5 -143.5q-228 0 -363 144t-135 388q0 246 135 390.5t363 144.5q101 0 195 -33h14q85 0 112 23t27 83v123h111v-141q0 -152 -109 -188zM598 98q149 0 228 109t79 311q0 203 -79 312.5
t-228 109.5q-148 0 -227.5 -109.5t-79.5 -312.5q0 -201 79.5 -310.5t227.5 -109.5z" />
    <glyph glyph-name="uni1EDE" unicode="&#x1ede;" horiz-adv-x="1454" 
d="M664 1513q76 73 83.5 141.5t-45.5 81.5t-139 -32v113q55 34 109.5 40.5t94.5 -11t66.5 -53.5t32.5 -80.5t-15 -98t-69 -101.5h-118zM1122 1266q111 -90 171.5 -238t60.5 -338q0 -326 -169 -515t-458 -189q-288 0 -457.5 189t-169.5 515t169.5 516.5t457.5 190.5
q77 0 147 -15h154q86 0 112.5 23t26.5 84v123h133v-142q0 -95 -40.5 -147.5t-137.5 -56.5zM727 115q206 0 322 152t116 423q0 273 -117 424.5t-323 151.5q-205 0 -319.5 -151.5t-114.5 -424.5q0 -271 115 -423t321 -152z" />
    <glyph glyph-name="uni1EDF" unicode="&#x1edf;" horiz-adv-x="1196" 
d="M535 1176q76 73 83.5 141t-45.5 81t-139 -32v113q55 34 109.5 40.5t94.5 -11t66.5 -53t32.5 -80t-15 -98t-69 -101.5h-118zM948 920q146 -143 146 -402q0 -245 -133.5 -388.5t-362.5 -143.5q-228 0 -363 144t-135 388q0 246 135 390.5t363 144.5q101 0 195 -33h14
q85 0 112 23t27 83v123h111v-141q0 -152 -109 -188zM598 98q149 0 228 109t79 311q0 203 -79 312.5t-228 109.5q-148 0 -227.5 -109.5t-79.5 -312.5q0 -201 79.5 -310.5t227.5 -109.5z" />
    <glyph glyph-name="uni1EE0" unicode="&#x1ee0;" horiz-adv-x="1454" 
d="M616 1612q-56 0 -59 -84h-102q11 98 51.5 147t118.5 49q40 0 81 -24t74.5 -48t57.5 -24q29 0 43.5 19t17.5 65h100q-11 -98 -51.5 -147t-118.5 -49q-32 0 -64.5 15t-54.5 33t-48 33t-46 15zM1122 1266q111 -90 171.5 -238t60.5 -338q0 -326 -169 -515t-458 -189
q-288 0 -457.5 189t-169.5 515t169.5 516.5t457.5 190.5q77 0 147 -15h154q86 0 112.5 23t26.5 84v123h133v-142q0 -95 -40.5 -147.5t-137.5 -56.5zM727 115q206 0 322 152t116 423q0 273 -117 424.5t-323 151.5q-205 0 -319.5 -151.5t-114.5 -424.5q0 -271 115 -423
t321 -152z" />
    <glyph glyph-name="uni1EE1" unicode="&#x1ee1;" horiz-adv-x="1196" 
d="M487 1274q-56 0 -59 -84h-102q11 98 51.5 147t118.5 49q40 0 81 -24t74.5 -48t57.5 -24q29 0 43.5 19t17.5 65h100q-11 -98 -51.5 -147t-118.5 -49q-32 0 -64.5 15t-54.5 33t-48 33t-46 15zM948 920q146 -143 146 -402q0 -245 -133.5 -388.5t-362.5 -143.5
q-228 0 -363 144t-135 388q0 246 135 390.5t363 144.5q101 0 195 -33h14q85 0 112 23t27 83v123h111v-141q0 -152 -109 -188zM598 98q149 0 228 109t79 311q0 203 -79 312.5t-228 109.5q-148 0 -227.5 -109.5t-79.5 -312.5q0 -201 79.5 -310.5t227.5 -109.5z" />
    <glyph glyph-name="uni1EE2" unicode="&#x1ee2;" horiz-adv-x="1454" 
d="M1122 1266q111 -90 171.5 -238t60.5 -338q0 -326 -169 -515t-458 -189q-288 0 -457.5 189t-169.5 515t169.5 516.5t457.5 190.5q77 0 147 -15h154q86 0 112.5 23t26.5 84v123h133v-142q0 -95 -40.5 -147.5t-137.5 -56.5zM727 115q206 0 322 152t116 423q0 273 -117 424.5
t-323 151.5q-205 0 -319.5 -151.5t-114.5 -424.5q0 -271 115 -423t321 -152zM629 -328v185h194v-185h-194z" />
    <glyph glyph-name="uni1EE3" unicode="&#x1ee3;" horiz-adv-x="1196" 
d="M948 920q146 -143 146 -402q0 -245 -133.5 -388.5t-362.5 -143.5q-228 0 -363 144t-135 388q0 246 135 390.5t363 144.5q101 0 195 -33h14q85 0 112 23t27 83v123h111v-141q0 -152 -109 -188zM598 98q149 0 228 109t79 311q0 203 -79 312.5t-228 109.5
q-148 0 -227.5 -109.5t-79.5 -312.5q0 -201 79.5 -310.5t227.5 -109.5zM498 -328v185h194v-185h-194z" />
    <glyph glyph-name="uni1EE4" unicode="&#x1ee4;" horiz-adv-x="1329" 
d="M999 1374h179v-901q0 -245 -123 -366t-389 -121t-390 121t-124 366v901h178l2 -887q0 -191 75 -280.5t259 -89.5t258.5 90t74.5 280v887zM567 -328v185h195v-185h-195z" />
    <glyph glyph-name="uni1EE5" unicode="&#x1ee5;" horiz-adv-x="1191" 
d="M854 1020h174v-1020h-174v217q-91 -231 -342 -231q-178 0 -269 86.5t-91 269.5v678h176v-653q0 -124 59 -194.5t180 -70.5q133 0 209 89t78 231v598zM498 -328v185h194v-185h-194z" />
    <glyph glyph-name="uni1EE6" unicode="&#x1ee6;" horiz-adv-x="1329" 
d="M600 1513q76 73 84 141.5t-45 81.5t-139 -32v113q55 34 109.5 40.5t94.5 -11t66.5 -53.5t32.5 -80.5t-15 -98t-69 -101.5h-119zM999 1374h179v-901q0 -245 -123 -366t-389 -121t-390 121t-124 366v901h178l2 -887q0 -191 75 -280.5t259 -89.5t258.5 90t74.5 280v887z" />
    <glyph glyph-name="uni1EE7" unicode="&#x1ee7;" horiz-adv-x="1191" 
d="M532 1176q76 73 84 141t-45 81t-139 -32v113q55 34 109.5 40.5t94.5 -11t66.5 -53t32.5 -80t-15 -98t-69 -101.5h-119zM854 1020h174v-1020h-174v217q-91 -231 -342 -231q-178 0 -269 86.5t-91 269.5v678h176v-653q0 -124 59 -194.5t180 -70.5q133 0 209 89t78 231v598z
" />
    <glyph glyph-name="uni1EE8" unicode="&#x1ee8;" horiz-adv-x="1458" 
d="M905 1751l-192 -238h-123l108 238h207zM1309 1604h118v-146q0 -109 -55.5 -159.5t-193.5 -36.5v-789q0 -245 -123 -366t-389 -121t-390 121t-124 366v901h178l2 -887q0 -191 75 -280.5t259 -89.5t258.5 90t74.5 280v887h179q84 0 107.5 22.5t23.5 84.5v123z" />
    <glyph glyph-name="uni1EE9" unicode="&#x1ee9;" horiz-adv-x="1191" 
d="M840 1413l-193 -237h-123l109 237h207zM1161 1249h119v-145q0 -109 -56 -160t-196 -37v-907h-174v217q-91 -231 -342 -231q-178 0 -269 86.5t-91 269.5v678h176v-653q0 -124 59 -194.5t180 -70.5q133 0 209 89t78 231v598h174q86 0 109.5 22t23.5 84v123z" />
    <glyph glyph-name="uni1EEA" unicode="&#x1eea;" horiz-adv-x="1458" 
d="M735 1513h-123l-192 238h207zM1309 1604h118v-146q0 -109 -55.5 -159.5t-193.5 -36.5v-789q0 -245 -123 -366t-389 -121t-390 121t-124 366v901h178l2 -887q0 -191 75 -280.5t259 -89.5t258.5 90t74.5 280v887h179q84 0 107.5 22.5t23.5 84.5v123z" />
    <glyph glyph-name="uni1EEB" unicode="&#x1eeb;" horiz-adv-x="1191" 
d="M670 1176h-123l-193 237h207zM1161 1249h119v-145q0 -109 -56 -160t-196 -37v-907h-174v217q-91 -231 -342 -231q-178 0 -269 86.5t-91 269.5v678h176v-653q0 -124 59 -194.5t180 -70.5q133 0 209 89t78 231v598h174q86 0 109.5 22t23.5 84v123z" />
    <glyph glyph-name="uni1EEC" unicode="&#x1eec;" horiz-adv-x="1458" 
d="M600 1513q76 73 84 141.5t-45 81.5t-139 -32v113q55 34 109.5 40.5t94.5 -11t66.5 -53.5t32.5 -80.5t-15 -98t-69 -101.5h-119zM1309 1604h118v-146q0 -109 -55.5 -159.5t-193.5 -36.5v-789q0 -245 -123 -366t-389 -121t-390 121t-124 366v901h178l2 -887
q0 -191 75 -280.5t259 -89.5t258.5 90t74.5 280v887h179q84 0 107.5 22.5t23.5 84.5v123z" />
    <glyph glyph-name="uni1EED" unicode="&#x1eed;" horiz-adv-x="1191" 
d="M532 1176q76 73 84 141t-45 81t-139 -32v113q55 34 109.5 40.5t94.5 -11t66.5 -53t32.5 -80t-15 -98t-69 -101.5h-119zM1161 1249h119v-145q0 -109 -56 -160t-196 -37v-907h-174v217q-91 -231 -342 -231q-178 0 -269 86.5t-91 269.5v678h176v-653q0 -124 59 -194.5
t180 -70.5q133 0 209 89t78 231v598h174q86 0 109.5 22t23.5 84v123z" />
    <glyph glyph-name="uni1EEE" unicode="&#x1eee;" horiz-adv-x="1458" 
d="M553 1612q-56 0 -59 -84h-103q11 98 51.5 147t118.5 49q40 0 81 -24t74.5 -48t57.5 -24q29 0 44 19t18 65h100q-11 -98 -51.5 -147t-118.5 -49q-40 0 -80.5 24t-74 48t-58.5 24zM1309 1604h118v-146q0 -109 -55.5 -159.5t-193.5 -36.5v-789q0 -245 -123 -366t-389 -121
t-390 121t-124 366v901h178l2 -887q0 -191 75 -280.5t259 -89.5t258.5 90t74.5 280v887h179q84 0 107.5 22.5t23.5 84.5v123z" />
    <glyph glyph-name="uni1EEF" unicode="&#x1eef;" horiz-adv-x="1191" 
d="M487 1274q-56 0 -59 -84h-102q11 98 51.5 147t118.5 49q40 0 81 -24t74.5 -48t57.5 -24q29 0 43.5 19t17.5 65h100q-11 -98 -51.5 -147t-118.5 -49q-32 0 -64.5 15t-54.5 33t-48 33t-46 15zM1161 1249h119v-145q0 -109 -56 -160t-196 -37v-907h-174v217
q-91 -231 -342 -231q-178 0 -269 86.5t-91 269.5v678h176v-653q0 -124 59 -194.5t180 -70.5q133 0 209 89t78 231v598h174q86 0 109.5 22t23.5 84v123z" />
    <glyph glyph-name="uni1EF0" unicode="&#x1ef0;" horiz-adv-x="1458" 
d="M1309 1604h118v-146q0 -109 -55.5 -159.5t-193.5 -36.5v-789q0 -245 -123 -366t-389 -121t-390 121t-124 366v901h178l2 -887q0 -191 75 -280.5t259 -89.5t258.5 90t74.5 280v887h179q84 0 107.5 22.5t23.5 84.5v123zM567 -328v185h195v-185h-195z" />
    <glyph glyph-name="uni1EF1" unicode="&#x1ef1;" horiz-adv-x="1191" 
d="M1161 1249h119v-145q0 -109 -56 -160t-196 -37v-907h-174v217q-91 -231 -342 -231q-178 0 -269 86.5t-91 269.5v678h176v-653q0 -124 59 -194.5t180 -70.5q133 0 209 89t78 231v598h174q86 0 109.5 22t23.5 84v123zM498 -328v185h194v-185h-194z" />
    <glyph glyph-name="Ygrave" unicode="&#x1ef2;" horiz-adv-x="1204" 
d="M674 1513h-123l-193 238h207zM1186 1374l-494 -784v-590h-176v584l-498 790h201l387 -633l387 633h193z" />
    <glyph glyph-name="ygrave" unicode="&#x1ef3;" horiz-adv-x="1046" 
d="M606 1176h-123l-192 237h207zM805 1020h182l-510 -1327h-176l164 368l-408 959h185l250 -621q41 -106 51 -141z" />
    <glyph glyph-name="uni1EF4" unicode="&#x1ef4;" horiz-adv-x="1204" 
d="M516 0v584l-498 790h201l387 -633l387 633h193l-494 -784v-590h-176zM504 -328v185h194v-185h-194z" />
    <glyph glyph-name="uni1EF5" unicode="&#x1ef5;" horiz-adv-x="1046" 
d="M301 -307l164 368l-408 959h185l250 -621q41 -106 51 -141l262 762h182l-510 -1327h-176zM291 -592v184h194v-184h-194z" />
    <glyph glyph-name="uni1EF6" unicode="&#x1ef6;" horiz-adv-x="1204" 
d="M537 1513q76 73 83.5 141.5t-45.5 81.5t-139 -32v113q55 34 109.5 40.5t94.5 -11t66.5 -53.5t32.5 -80.5t-15 -98t-69 -101.5h-118zM1186 1374l-494 -784v-590h-176v584l-498 790h201l387 -633l387 633h193z" />
    <glyph glyph-name="uni1EF7" unicode="&#x1ef7;" horiz-adv-x="1046" 
d="M469 1176q76 73 84 141t-45 81t-139 -32v113q55 34 109.5 40.5t94.5 -11t66.5 -53t32.5 -80t-15 -98t-69 -101.5h-119zM805 1020h182l-510 -1327h-176l164 368l-408 959h185l250 -621q41 -106 51 -141z" />
    <glyph glyph-name="uni1EF8" unicode="&#x1ef8;" horiz-adv-x="1204" 
d="M492 1612q-57 0 -60 -84h-102q11 98 51.5 147t118.5 49q40 0 81 -24t74.5 -48t57.5 -24q29 0 43.5 19t17.5 65h100q-11 -98 -51 -147t-118 -49q-32 0 -64.5 15t-54.5 33t-48 33t-46 15zM1186 1374l-494 -784v-590h-176v584l-498 790h201l387 -633l387 633h193z" />
    <glyph glyph-name="uni1EF9" unicode="&#x1ef9;" horiz-adv-x="1046" 
d="M422 1274q-57 0 -60 -84h-102q11 98 51.5 147t118.5 49q40 0 81 -24t74.5 -48t57.5 -24q29 0 44 19t18 65h100q-11 -98 -51.5 -147t-118.5 -49q-32 0 -64.5 15t-54.5 33t-48 33t-46 15zM805 1020h182l-510 -1327h-176l164 368l-408 959h185l250 -621q41 -106 51 -141z
" />
    <glyph glyph-name="endash" unicode="&#x2013;" horiz-adv-x="1249" 
d="M164 477v131h921v-131h-921z" />
    <glyph glyph-name="emdash" unicode="&#x2014;" horiz-adv-x="1755" 
d="M164 477v131h1425v-131h-1425z" />
    <glyph glyph-name="quoteleft" unicode="&#x2018;" horiz-adv-x="526" 
d="M375 1266q-44 0 -69 -20t-25 -75v-71h90v-193h-217v264q0 101 62.5 153t158.5 50v-108z" />
    <glyph glyph-name="quoteright" unicode="&#x2019;" horiz-adv-x="530" 
d="M156 1374h219v-266q-1 -100 -63.5 -151.5t-157.5 -49.5v109q43 -2 67.5 18t24.5 74v74h-90v192z" />
    <glyph glyph-name="quotesinglbase" unicode="&#x201a;" horiz-adv-x="526" 
d="M156 182h219v-264q-1 -101 -63.5 -153t-157.5 -50v109q44 0 68 19.5t24 74.5v72h-90v192z" />
    <glyph glyph-name="quotedblleft" unicode="&#x201c;" horiz-adv-x="901" 
d="M154 1171q0 101 62.5 153t158.5 50v-108q-94 4 -94 -95v-71h90v-193h-217v264zM750 1266q-95 4 -95 -95v-71h90v-193h-219v264q1 101 64.5 153t159.5 50v-108z" />
    <glyph glyph-name="quotedblright" unicode="&#x201d;" horiz-adv-x="901" 
d="M156 1182v192h219v-266q-1 -100 -63.5 -151.5t-157.5 -49.5v109q43 -2 67.5 18t24.5 74v74h-90zM530 1374h220v-266q-1 -100 -64.5 -151.5t-159.5 -49.5v109q45 -2 70 18t25 74v74h-91v192z" />
    <glyph glyph-name="quotedblbase" unicode="&#x201e;" horiz-adv-x="899" 
d="M156 -10v192h219v-264q-1 -101 -63.5 -153t-157.5 -50v109q44 0 68 19.5t24 74.5v72h-90zM528 182h217v-264q-1 -101 -63 -153t-158 -50v109q45 0 69.5 19.5t24.5 74.5v72h-90v192z" />
    <glyph glyph-name="dagger" unicode="&#x2020;" horiz-adv-x="1110" 
d="M948 1149v-129h-303v-531h-176v531h-307v129h307v262h176v-262h303z" />
    <glyph glyph-name="daggerdbl" unicode="&#x2021;" horiz-adv-x="1110" 
d="M948 1059h-303v-197h303v-129h-303v-244h-176v244h-307v129h307v197h-307v129h307v223h176v-223h303v-129z" />
    <glyph glyph-name="bullet" unicode="&#x2022;" horiz-adv-x="843" 
d="M422 307q-109 0 -185.5 77t-76.5 187q0 109 76.5 186t185.5 77t185.5 -77t76.5 -186q0 -110 -76.5 -187t-185.5 -77z" />
    <glyph glyph-name="ellipsis" unicode="&#x2026;" horiz-adv-x="1214" 
d="M154 -12v202h200v-202h-200zM506 -12v202h203v-202h-203zM860 -12v202h203v-202h-203z" />
    <glyph glyph-name="perthousand" unicode="&#x2030;" horiz-adv-x="2881" 
d="M487 580q-151 0 -255.5 114.5t-104.5 292.5q0 180 104.5 295t255.5 115q152 0 255.5 -115t103.5 -295t-103.5 -293.5t-255.5 -113.5zM532 -14l822 1409h153l-823 -1409h-152zM489 690q91 0 146 78.5t55 218.5q0 142 -55 220.5t-146 78.5t-145.5 -78.5t-54.5 -220.5
q0 -140 54.5 -218.5t145.5 -78.5zM1554 -14q-152 0 -256 114t-104 293q0 180 104.5 295t255.5 115t255 -115t104 -295q0 -179 -104 -293t-255 -114zM2394 -14q-151 0 -254.5 114.5t-103.5 292.5q0 179 104.5 294.5t253.5 115.5q152 0 255.5 -115t103.5 -295t-103.5 -293.5
t-255.5 -113.5zM1556 96q90 0 144.5 78.5t54.5 218.5q0 142 -54.5 220.5t-144.5 78.5q-92 0 -147 -78.5t-55 -220.5q0 -140 55 -218.5t147 -78.5zM2396 96q91 0 146 78.5t55 218.5q0 142 -55 220.5t-146 78.5t-146 -78.5t-55 -220.5q0 -140 55 -218.5t146 -78.5z" />
    <glyph glyph-name="guilsinglleft" unicode="&#x2039;" horiz-adv-x="761" 
d="M649 909l-342 -391l342 -391h-184l-352 391l358 391h178z" />
    <glyph glyph-name="guilsinglright" unicode="&#x203a;" horiz-adv-x="761" 
d="M293 909l356 -391l-352 -391h-184l344 391l-344 391h180z" />
    <glyph glyph-name="fraction" unicode="&#x2044;" horiz-adv-x="1255" 
d="M164 614v88h926v-88h-926z" />
    <glyph glyph-name="uni20A9" unicode="&#x20a9;" horiz-adv-x="2191" 
d="M2030 1374l-127 -461h127v-122h-162l-51 -187h213v-121h-246l-133 -483h-250l-127 483h-354l-129 -483h-248l-133 483h-248v121h213l-51 187h-162v122h127l-127 461h180l123 -461h395l117 461h240l114 -461h398l122 461h179zM1036 928l-4 -15h129l-4 15
q-10 44 -20.5 94.5t-22 111t-18.5 93.5q-35 -189 -60 -299zM496 791l51 -187h235l47 187h-333zM950 604h293l-49 187h-195zM1647 604l51 187h-336l47 -187h238zM731 397l23 86h-176l22 -84q33 -122 72 -274q22 125 59 272zM1595 408l21 75h-176l18 -77q43 -173 64 -279
q20 81 73 281z" />
    <glyph glyph-name="Euro" unicode="&#x20ac;" horiz-adv-x="1355" 
d="M1124 387l150 -86q-44 -148 -156 -231.5t-280 -83.5q-216 0 -351.5 126.5t-177.5 360.5h-174v131h158q-2 29 -2 86q0 30 4 92h-160v131h176q46 229 183.5 356.5t339.5 127.5q168 0 279.5 -76t150.5 -205l-150 -76q-24 108 -94 167t-186 59q-131 0 -218.5 -91.5
t-119.5 -261.5h639l-54 -131h-604q-2 -29 -2 -92q0 -59 2 -86h565l-53 -131h-495q31 -174 118.5 -265t225.5 -91q242 0 286 270z" />
    <glyph glyph-name="uni20B9" unicode="&#x20b9;" horiz-adv-x="1196" 
d="M1110 1374v-131h-262q110 -72 131 -215h131v-129h-131q-13 -87 -57 -151t-112 -100t-148 -53t-175 -17h-36l587 -578h-223l-694 688h352q295 0 334 211h-686v129h688q-18 116 -99 165.5t-218 49.5h-371v131h989z" />
    <glyph glyph-name="uni20BA" unicode="&#x20ba;" horiz-adv-x="1341" 
d="M1100 690l147 -100q-6 -136 -46.5 -239t-105.5 -169t-159.5 -107.5t-200 -58t-235.5 -16.5h-178v475l-187 -76v138l187 75v176l-187 -75v137l187 76v448h178v-375l344 140v-138l-344 -139v-176l344 139v-137l-344 -139v-418q165 0 278 33t182.5 104t102 172.5t37.5 249.5
z" />
    <glyph glyph-name="uni20BD" unicode="&#x20bd;" horiz-adv-x="1404" 
d="M866 618h-368v-178h465v-131h-465v-309h-179v309h-184v131h184v178h-184v130h184v626h547q220 0 343.5 -94.5t123.5 -284.5q0 -188 -123.5 -282.5t-343.5 -94.5zM498 1243v-495h354q299 0 299 247q0 248 -299 248h-354z" />
    <glyph glyph-name="uni20BF" unicode="&#x20bf;" horiz-adv-x="1292" 
d="M1180 369q0 -144 -88 -234.5t-250 -120.5v-190h-140v176h-24h-121v-176h-139v176h-256v1374h256v187h139v-187h119h26v187h140v-201q301 -55 301 -344q0 -265 -258 -314q141 -28 218 -115t77 -218zM657 1243h-315v-483h297q163 0 242.5 56t79.5 183q0 130 -73.5 187
t-230.5 57zM664 131q157 0 242 57t85 191q0 250 -319 250h-330v-498h322z" />
    <glyph glyph-name="uni2116" unicode="&#x2116;" horiz-adv-x="2248" 
d="M1790 805q-124 0 -211.5 87t-87.5 210t87.5 210t211.5 87q123 0 209 -87t86 -210t-86 -210t-209 -87zM1118 141v1233h170v-1374h-274l-557 981q-52 96 -125 256v-1237h-170v1374h274l551 -973q59 -105 131 -260zM1790 1274q-71 0 -119.5 -49t-48.5 -123
q0 -73 48.5 -123.5t119.5 -50.5q68 0 116 50.5t48 123.5q0 74 -48 123t-116 49zM1507 496v131h564v-131h-564z" />
    <glyph glyph-name="trademark" unicode="&#x2122;" horiz-adv-x="1708" 
d="M100 1296v82h617v-82h-248v-575h-115v575h-254zM1606 1378v-657h-111v553l-215 -553h-139l-217 553v-553h-111v657h172l225 -583l224 583h172z" />
    <glyph glyph-name="arrowleft" unicode="&#x2190;" horiz-adv-x="1329" 
d="M1180 688l-2 -143h-824l328 -303l2 -213l-534 516l2 143l520 508l2 -205l-330 -303h836z" />
    <glyph glyph-name="arrowup" unicode="&#x2191;" horiz-adv-x="1462" 
d="M1313 702h-203l-297 328v-825h-156v813l-295 -324h-212l507 527h156z" />
    <glyph glyph-name="arrowright" unicode="&#x2192;" horiz-adv-x="1327" 
d="M645 1167l533 -516v-145l-523 -506v205l326 301l-831 2v143h823l-328 301v215z" />
    <glyph glyph-name="arrowdown" unicode="&#x2193;" horiz-adv-x="1462" 
d="M1100 633h213l-508 -524l-156 -3l-499 519h202l297 -318v815l156 2v-813z" />
    <glyph glyph-name="arrowboth" unicode="&#x2194;" horiz-adv-x="1935" 
d="M1253 29l2 213l328 303h-1231l330 -303l2 -213l-534 516l2 143l520 508l2 -205l-330 -303h1239l-332 303l2 213l531 -516l2 -143z" />
    <glyph glyph-name="arrowupdn" unicode="&#x2195;" horiz-adv-x="1470" 
d="M813 209l297 317h203l-500 -516l-156 -2l-507 527h212l295 -320v977l-295 -322h-212l507 527l156 -2l508 -525h-213l-295 320v-981z" />
    <glyph glyph-name="uni2196" unicode="&#x2196;" horiz-adv-x="1144" 
d="M831 897h-440l586 -588l-105 -106l-591 594v-463l-131 -144v738l104 106h725z" />
    <glyph glyph-name="uni2197" unicode="&#x2197;" horiz-adv-x="1159" 
d="M903 1032l107 -106v-725l-138 149v438l-587 -583l-107 104l592 590h-461l-143 133h737z" />
    <glyph glyph-name="uni2198" unicode="&#x2198;" horiz-adv-x="1144" 
d="M862 891l133 143v-737l-106 -107h-723l147 138h439l-584 587l104 107l590 -592v461z" />
    <glyph glyph-name="uni2199" unicode="&#x2199;" horiz-adv-x="1159" 
d="M848 324l143 -131h-735l-109 104v725l138 -148v-440l587 586l107 -105l-592 -591h461z" />
    <glyph glyph-name="partialdiff" unicode="&#x2202;" horiz-adv-x="1155" 
d="M555 1389q259 -77 390 -275t104 -506q-25 -291 -161.5 -457.5t-367.5 -166.5q-215 0 -325 132.5t-91 348.5q19 213 148.5 349t316.5 136q125 0 211 -73t117 -207q11 101 -6.5 193.5t-69 181.5t-151.5 164.5t-242 127.5zM850 465q9 102 -19 187.5t-87 135.5t-136 50
q-125 0 -212 -106.5t-101 -266.5q-14 -159 53.5 -265t194.5 -106q126 0 209.5 103t97.5 268z" />
    <glyph glyph-name="emptyset" unicode="&#x2205;" horiz-adv-x="1423" 
d="M1161 999q76 -81 119 -187t43 -222q0 -165 -82 -304t-222 -219.5t-306 -80.5q-203 0 -361 114l-96 -106l-86 80l94 104q-164 175 -164 412q0 123 48.5 235t131 192.5t195.5 128.5t238 48q198 0 358 -115l103 113l90 -78zM250 590q0 -175 106 -307l627 696
q-122 88 -270 88q-126 0 -232.5 -64t-168.5 -174t-62 -239zM713 113q193 0 328 138.5t135 338.5q0 174 -107 307l-627 -696q122 -88 271 -88z" />
    <glyph glyph-name="product" unicode="&#x220f;" horiz-adv-x="1624" 
d="M1460 1391v-131h-266v-1465h-174v1465h-416v-1465h-176v1465h-266v131h1298z" />
    <glyph glyph-name="summation" unicode="&#x2211;" horiz-adv-x="1224" 
d="M1063 1374v-131h-635l418 -643l-424 -676h641v-129h-901l506 805l-506 774h901z" />
    <glyph glyph-name="minus" unicode="&#x2212;" horiz-adv-x="1044" 
d="M164 477v131h717v-131h-717z" />
    <glyph glyph-name="radical" unicode="&#x221a;" horiz-adv-x="1132" 
d="M1133 1382v-104h-201l-393 -1483h-207l-293 789h166l221 -645l356 1443h351z" />
    <glyph glyph-name="infinity" unicode="&#x221e;" horiz-adv-x="1951" 
d="M1374 905q181 0 296.5 -115.5t115.5 -287.5q0 -173 -115.5 -289.5t-296.5 -116.5q-67 0 -129.5 24t-112 66t-87.5 88.5t-70 100.5q-176 -279 -397 -279q-181 0 -297.5 117t-116.5 289t116.5 287.5t297.5 115.5q89 0 170 -43.5t133.5 -101.5t97.5 -133q169 278 395 278z
M580 223q57 0 107.5 22.5t92 65t72.5 87.5t63 104q-32 59 -63 103t-72.5 86t-92 64.5t-107.5 22.5q-114 0 -186 -80t-72 -196q0 -117 70 -198t188 -81zM1372 223q118 0 188 81t70 198q0 116 -72 196t-186 80q-57 0 -107.5 -22.5t-92 -64.5t-73 -86.5t-63.5 -102.5
q32 -59 63.5 -104t73 -87.5t92 -65t107.5 -22.5z" />
    <glyph glyph-name="integral" unicode="&#x222b;" horiz-adv-x="1126" 
d="M889 1403q63 0 115 -25l-31 -155q-37 26 -86 26q-90 0 -117 -114l-244 -1209q-26 -123 -93 -184t-195 -61q-66 0 -115 24l31 156q44 -27 86 -27q91 0 116 115l244 1200q25 123 93.5 188.5t195.5 65.5z" />
    <glyph glyph-name="approxequal" unicode="&#x2248;" horiz-adv-x="1196" 
d="M1032 645v-29q0 -155 -61 -232t-176 -77q-43 0 -90.5 21.5t-88.5 52.5t-78.5 61.5t-73 52t-61.5 21.5q-57 0 -78.5 -44t-21.5 -130h-139v29q0 154 62 230.5t177 76.5q43 0 91 -21.5t89 -52t79.5 -61.5t74 -52.5t60.5 -21.5q58 0 80 44.5t22 131.5h133z" />
    <glyph glyph-name="notequal" unicode="&#x2260;" horiz-adv-x="1228" 
d="M1126 668h-370l-64 -269h434v-131h-464l-58 -248h-149l57 248h-348v131h379l63 269h-442v131h471l53 225h150l-54 -225h342v-131z" />
    <glyph glyph-name="lessequal" unicode="&#x2264;" horiz-adv-x="1167" 
d="M1004 1038v-139l-685 -256l685 -250v-141l-840 319v142zM164 0v131h840v-131h-840z" />
    <glyph glyph-name="greaterequal" unicode="&#x2265;" horiz-adv-x="1167" 
d="M164 1038l840 -325v-142l-840 -319v141l684 250l-684 256v139zM164 0v131h840v-131h-840z" />
    <glyph glyph-name="lozenge" unicode="&#x25ca;" horiz-adv-x="1265" 
d="M694 1374l410 -686l-410 -688h-114l-418 688l418 686h114zM635 170l309 518l-309 516l-313 -516z" />
    <glyph glyph-name="Q.ss01" horiz-adv-x="1466" 
d="M1280 -39l84 -129q-41 -65 -132.5 -108t-201.5 -43q-168 0 -263.5 84t-111.5 225q-258 23 -406.5 209t-148.5 491q0 326 169.5 516.5t457.5 190.5q289 0 458 -190t169 -517q0 -298 -142 -482.5t-389 -215.5q12 -82 69 -128t138 -46q153 0 250 143zM291 690
q0 -271 115 -423t321 -152t322 152t116 423q0 273 -116 424.5t-322 151.5t-321 -151.5t-115 -424.5z" />
    <glyph glyph-name="R.ss01" horiz-adv-x="1331" 
d="M1047 0l-429 618h-278v-618h-178v1374h567q220 0 343.5 -94.5t123.5 -284.5q0 -160 -105 -253.5t-276 -116.5l445 -625h-213zM340 1243v-495h354q320 0 320 247q0 131 -75 189.5t-224 58.5h-375z" />
    <glyph glyph-name="Racute.ss01" horiz-adv-x="1331" 
d="M918 1741l-193 -238h-123l109 238h207zM1047 0l-429 618h-278v-618h-178v1374h567q220 0 343.5 -94.5t123.5 -284.5q0 -160 -105 -253.5t-276 -116.5l445 -625h-213zM340 1243v-495h354q320 0 320 247q0 131 -75 189.5t-224 58.5h-375z" />
    <glyph glyph-name="Rcaron.ss01" horiz-adv-x="1331" 
d="M602 1491l-215 238h182l109 -158l106 158h183l-215 -238h-150zM1047 0l-429 618h-278v-618h-178v1374h567q220 0 343.5 -94.5t123.5 -284.5q0 -160 -105 -253.5t-276 -116.5l445 -625h-213zM340 1243v-495h354q320 0 320 247q0 131 -75 189.5t-224 58.5h-375z" />
    <glyph glyph-name="uni0156.ss01" horiz-adv-x="1331" 
d="M815 625l445 -625h-213l-429 618h-278v-618h-178v1374h567q220 0 343.5 -94.5t123.5 -284.5q0 -160 -105 -253.5t-276 -116.5zM340 1243v-495h354q320 0 320 247q0 131 -75 189.5t-224 58.5h-375zM473 -336l109 238h206l-192 -238h-123z" />
    <glyph glyph-name="i.loclTRK" horiz-adv-x="503" 
d="M154 1165v185h194v-185h-194zM164 0v1022h174v-1022h-174z" />
    <glyph glyph-name="a.002" horiz-adv-x="1095" 
d="M535 1053q193 0 291 -87.5t98 -248.5v-717h-156v199q-42 -98 -129.5 -155.5t-204.5 -57.5q-151 0 -242.5 78.5t-91.5 211.5q0 130 94.5 211.5t282.5 120.5l291 62v39q0 115 -62.5 173t-181.5 58q-120 0 -189 -63.5t-83 -176.5l-152 66q15 122 136.5 204.5t298.5 82.5z
M504 102q111 0 188.5 84.5t77.5 208.5v191l-256 -66q-219 -55 -219 -223q0 -97 54 -146t155 -49z" />
    <glyph glyph-name="y.ss01" horiz-adv-x="1040" 
d="M799 1020h180l-432 -1135q-40 -107 -98 -157t-158 -50q-60 0 -127 23v156q52 -27 102 -27q57 0 92.5 30t63.5 99l47 115l-410 946h187l250 -621q38 -97 47 -125z" />
    <glyph glyph-name="yacute.ss01" horiz-adv-x="1040" 
d="M780 1403l-192 -238h-123l108 238h207zM799 1020h180l-432 -1135q-40 -107 -98 -157t-158 -50q-60 0 -127 23v156q52 -27 102 -27q57 0 92.5 30t63.5 99l47 115l-410 946h187l250 -621q38 -97 47 -125z" />
    <glyph glyph-name="ycircumflex.ss01" horiz-adv-x="1040" 
d="M541 1311l-109 -158h-182l215 238h149l215 -238h-182zM799 1020h180l-432 -1135q-40 -107 -98 -157t-158 -50q-60 0 -127 23v156q52 -27 102 -27q57 0 92.5 30t63.5 99l47 115l-410 946h187l250 -621q38 -97 47 -125z" />
    <glyph glyph-name="ydieresis.ss01" horiz-adv-x="1040" 
d="M477 1339v-174h-194v174h194zM788 1339v-174h-192v174h192zM799 1020h180l-432 -1135q-40 -107 -98 -157t-158 -50q-60 0 -127 23v156q52 -27 102 -27q57 0 92.5 30t63.5 99l47 115l-410 946h187l250 -621q38 -97 47 -125z" />
    <glyph glyph-name="uni1EF5.ss01" horiz-adv-x="1040" 
d="M799 1020h180l-432 -1135q-40 -107 -98 -157t-158 -50q-60 0 -127 23v156q52 -27 102 -27q57 0 92.5 30t63.5 99l47 115l-410 946h187l250 -621q38 -97 47 -125zM291 -592v184h194v-184h-194z" />
    <glyph glyph-name="ygrave.ss01" horiz-adv-x="1040" 
d="M610 1165h-123l-192 238h207zM799 1020h180l-432 -1135q-40 -107 -98 -157t-158 -50q-60 0 -127 23v156q52 -27 102 -27q57 0 92.5 30t63.5 99l47 115l-410 946h187l250 -621q38 -97 47 -125z" />
    <glyph glyph-name="uni1EF7.ss01" horiz-adv-x="1040" 
d="M473 1165q76 73 84 141.5t-45 81.5t-139 -32v112q55 34 109.5 40.5t94.5 -11t66.5 -53t32.5 -80t-15 -98t-69 -101.5h-119zM799 1020h180l-432 -1135q-40 -107 -98 -157t-158 -50q-60 0 -127 23v156q52 -27 102 -27q57 0 92.5 30t63.5 99l47 115l-410 946h187l250 -621
q38 -97 47 -125z" />
    <glyph glyph-name="uni1EF9.ss01" horiz-adv-x="1040" 
d="M426 1264q-56 0 -59 -84h-103q11 98 51.5 147t118.5 49q40 0 81 -24t74.5 -48t57.5 -24q29 0 44 19t18 65h100q-11 -98 -51.5 -147.5t-118.5 -49.5q-32 0 -64.5 15t-54.5 33.5t-48 33.5t-46 15zM799 1020h180l-432 -1135q-40 -107 -98 -157t-158 -50q-60 0 -127 23v156
q52 -27 102 -27q57 0 92.5 30t63.5 99l47 115l-410 946h187l250 -621q38 -97 47 -125z" />
    <glyph glyph-name="I_J" horiz-adv-x="1257" 
d="M928 1374h176v-944q0 -225 -112.5 -334.5t-362.5 -109.5q-238 0 -352.5 97t-114.5 275h184q0 -129 65 -185t238 -56q150 0 214.5 80.5t64.5 251.5v925zM346 1374v-856h-178v856h178z" />
    <glyph glyph-name="zero.tf" horiz-adv-x="1267" 
d="M662 -14q-257 0 -415.5 195t-158.5 515q0 318 159 512.5t415 194.5q254 0 411.5 -194.5t157.5 -512.5q0 -319 -157.5 -514.5t-411.5 -195.5zM662 117q173 0 276.5 156t103.5 423q0 264 -104 421t-276 157q-174 0 -280 -157.5t-106 -420.5q0 -265 106 -422t280 -157z" />
    <glyph glyph-name="one.tf" horiz-adv-x="1267" 
d="M838 133h311v-133h-850v133h363v1059q-178 -193 -394 -283l-59 144q135 60 231 134t205 185h193v-1239z" />
    <glyph glyph-name="two.tf" horiz-adv-x="1267" 
d="M760 457q-21 -12 -67.5 -38.5t-73.5 -42.5t-67.5 -42t-65 -48t-50.5 -48.5t-39.5 -55t-15.5 -57.5h780v-133h-973q-1 90 24.5 166.5t57.5 126t96.5 102t105 77.5t120.5 70q8 5 12.5 7.5t11.5 6.5t13 7q100 57 160 98.5t105.5 89t64 98t18.5 115.5q0 152 -80 234t-225 82
q-161 0 -256.5 -102t-89.5 -273l-168 72q-3 187 144 309.5t378 122.5q228 0 354.5 -112t126.5 -316q0 -57 -12 -108.5t-29.5 -91.5t-50 -79.5t-61.5 -67.5t-76 -61t-82 -54.5t-90 -53.5z" />
    <glyph glyph-name="three.tf" horiz-adv-x="1267" 
d="M829 707q170 -15 263.5 -102t93.5 -232q0 -179 -142 -283t-382 -104q-231 0 -382 120t-147 312l162 65q-3 -166 97 -267t270 -101q165 0 251 69t86 203q0 130 -90.5 190t-271.5 60h-129v127h98q182 0 271.5 60t89.5 186q0 120 -80 189t-217 69q-145 0 -237.5 -85
t-96.5 -225l-166 84q9 106 76.5 187t178 124.5t245.5 43.5q221 0 349 -101t128 -268q0 -135 -84.5 -220.5t-233.5 -100.5z" />
    <glyph glyph-name="four.tf" horiz-adv-x="1267" 
d="M1241 496v-134h-233v-362h-181v362h-716v134l669 876h228v-876h233zM291 496h536v546q0 74 7 177q-88 -127 -129 -181z" />
    <glyph glyph-name="five.tf" horiz-adv-x="1267" 
d="M692 915q213 0 345 -128t132 -343q0 -202 -134.5 -330t-370.5 -128q-211 0 -345.5 96.5t-168.5 271.5l165 66q3 -140 99.5 -221.5t249.5 -81.5q155 -1 237 85.5t82 243.5q0 155 -87.5 251t-244.5 96q-104 0 -195 -51.5t-134 -127.5l-154 52l151 706h752v-131h-616
l-95 -438q134 112 332 112z" />
    <glyph glyph-name="six.tf" horiz-adv-x="1267" 
d="M717 895q208 0 332.5 -126.5t124.5 -328.5q0 -200 -141.5 -326t-368.5 -126q-262 0 -396.5 169t-134.5 486q0 366 150 561t432 195q189 0 313.5 -90t155.5 -238l-158 -65q-28 121 -106.5 191.5t-208.5 70.5q-204 0 -308.5 -168t-99.5 -457q19 47 53.5 89.5t85 80t122 60
t153.5 22.5zM674 119q145 0 231 87.5t86 233.5q0 150 -81.5 237t-225.5 87q-146 0 -244 -93t-98 -231q0 -135 93.5 -228t238.5 -93z" />
    <glyph glyph-name="seven.tf" horiz-adv-x="1267" 
d="M156 1372h977v-131q-302 -253 -445 -581t-110 -660h-211q2 347 155.5 663.5t450.5 577.5h-817v131z" />
    <glyph glyph-name="eight.tf" horiz-adv-x="1267" 
d="M840 719q146 -12 248 -111.5t102 -236.5q0 -177 -144 -281t-387 -104q-245 0 -388.5 104t-143.5 281q0 136 102.5 236t249.5 112q-129 22 -212 110t-83 211q0 160 131.5 259.5t343.5 99.5q211 0 342.5 -99.5t131.5 -259.5q0 -124 -82 -211.5t-211 -109.5zM362 1022
q0 -114 81 -182t216 -68q134 0 214.5 68t80.5 182q0 115 -72.5 180.5t-222.5 65.5t-223.5 -65.5t-73.5 -180.5zM659 117q174 0 260.5 73t86.5 195q0 124 -94 197t-253 73q-160 0 -254 -73t-94 -197q0 -122 86.5 -195t261.5 -73z" />
    <glyph glyph-name="nine.tf" horiz-adv-x="1267" 
d="M659 1397q253 0 389 -173.5t136 -482.5q0 -386 -130 -570.5t-419 -184.5q-205 0 -334.5 92.5t-167.5 253.5l158 61q25 -129 114.5 -203.5t229.5 -74.5q202 0 295 154t90 464q-20 -46 -53.5 -87t-82 -77.5t-116.5 -58t-147 -21.5q-215 0 -345.5 125.5t-130.5 329.5
q0 201 142 327t372 126zM645 618q145 0 239.5 93t94.5 233q0 138 -88.5 231t-235.5 93t-236 -89t-89 -235t85.5 -236t229.5 -90z" />
    <glyph glyph-name="one.dnom" horiz-adv-x="835" 
d="M506 78h125v-82h-387v82h141v375q-69 -88 -145 -115l-35 88q114 48 178 135h123v-483z" />
    <glyph glyph-name="two.dnom" horiz-adv-x="856" 
d="M485 180q-91 -45 -143 -92h315v-92h-450q-8 45 2.5 81.5t42 65.5t54.5 44t68 40l27 15q71 40 98 72.5t27 78.5q0 50 -26.5 75.5t-67.5 25.5q-53 0 -83 -44t-17 -120l-127 59q-4 81 66 133.5t167 52.5q99 0 160 -48t61 -130q0 -72 -43 -118.5t-131 -98.5z" />
    <glyph glyph-name="three.dnom" horiz-adv-x="864" 
d="M528 279q138 -27 138 -140q0 -71 -64.5 -114t-163.5 -43q-96 0 -166 49.5t-73 122.5l118 45q-3 -65 29 -100.5t84 -35.5q50 0 75 21t25 70q0 46 -25 65t-85 19h-66v75h54q59 0 84.5 19.5t25.5 64.5q0 39 -25 61.5t-61 22.5q-42 0 -69.5 -28.5t-28.5 -81.5l-119 49
q17 65 81.5 103t145.5 38q90 0 149.5 -40.5t59.5 -108.5q0 -106 -123 -133z" />
    <glyph glyph-name="four.dnom" horiz-adv-x="909" 
d="M705 205v-80h-97v-131h-121v131h-282v80l272 358h131v-358h97zM313 205h174v157q0 34 7 95q-19 -36 -56 -90z" />
    <glyph glyph-name="one.numr" horiz-adv-x="835" 
d="M506 913h125v-82h-387v82h141v373q-22 -27 -39 -45t-46 -38t-60 -29l-35 88q114 45 178 133h123v-482z" />
    <glyph glyph-name="two.numr" horiz-adv-x="856" 
d="M485 1018q-75 -36 -145 -92h317v-90h-450q-8 44 2.5 79.5t40 63.5t54 44.5t65.5 39.5q22 12 32 18q71 40 98 72t27 78q0 50 -26.5 76t-67.5 26q-52 0 -82.5 -45t-17.5 -121l-127 60q-4 82 65.5 134t167.5 52q100 0 160.5 -47.5t60.5 -130.5q0 -72 -43 -118.5t-131 -98.5z
" />
    <glyph glyph-name="three.numr" horiz-adv-x="864" 
d="M528 1126q138 -27 138 -139q0 -71 -65 -114.5t-163 -43.5q-96 0 -163 49.5t-68 122.5l110 46q-3 -65 30 -100.5t85 -35.5q103 0 103 90q0 43 -27.5 63.5t-87.5 20.5h-66v76h54q60 0 88 20t28 64q0 40 -25 62t-63 22q-42 0 -71.5 -28.5t-30.5 -81.5l-111 49
q15 65 76.5 103t142.5 38q90 0 149.5 -40.5t59.5 -108.5q0 -107 -123 -134z" />
    <glyph glyph-name="four.numr" horiz-adv-x="919" 
d="M686 1038v-80h-96v-133h-121v133h-283v80l273 357h131v-357h96zM295 1038h174v158q0 40 6 92q-28 -54 -55 -88z" />
    <glyph glyph-name="Euro.001" horiz-adv-x="1351" 
d="M1243 258l57 -127q-70 -67 -162 -102t-225 -35q-238 0 -393 125.5t-205 355.5h-180v131h162q-4 58 -4 88q0 32 4 90h-162v131h180q50 229 201 355.5t377 126.5q238 0 387 -127l-57 -135q-127 131 -330 131q-153 0 -255 -90.5t-140 -260.5h637l-54 -131h-602
q-4 -58 -4 -90q0 -30 4 -88h563l-53 -131h-491q40 -171 146 -260.5t269 -89.5q226 0 330 133z" />
    <glyph glyph-name="ampersand.ss01" horiz-adv-x="1251" 
d="M1229 424q0 -94 -53 -179t-164 -147l188 -272h-201l-137 194q-122 -36 -270 -36q-257 3 -386.5 101t-129.5 263q0 118 84.5 209.5t230.5 153.5q-6 9 -32 47t-32.5 48t-26.5 41.5t-25.5 44.5t-18.5 40.5t-17 46t-8 43.5t-4 49q0 140 97 225.5t268 85.5q165 0 261.5 -91
t96.5 -222q0 -221 -288 -311q255 -5 411 -91t156 -243zM594 1257q-89 0 -136.5 -49t-47.5 -133q0 -49 20.5 -102.5t41.5 -86.5t69 -102q135 63 190 129.5t55 159.5q0 81 -52.5 132.5t-139.5 51.5zM1069 418q0 68 -38.5 119t-105.5 80t-144 43.5t-167 17.5l328 -475
q127 83 127 215zM264 360q0 -127 93.5 -189t248.5 -62q85 0 176 24l-329 477q-189 -81 -189 -250z" />
    <glyph glyph-name="uni031B.001" 
d="M-414 1169l-129 107h129q86 0 113 23t27 83v123h110v-141q0 -109 -56 -160t-194 -35z" />
    <glyph glyph-name="uni031B.001.002" 
d="M-416 1163l-280 37v76h258q87 0 113 22.5t26 83.5v123h133v-141q0 -110 -56 -163.5t-194 -37.5z" />
    <glyph glyph-name="uni03060301" 
d="M-414 1679h207l-192 -237h-123zM-334 1417h170q-6 -57 -23 -100t-49 -79t-86.5 -54.5t-130.5 -18.5q-78 0 -133 18.5t-87 54.5t-48 78.5t-22 100.5h170q0 -80 30 -115.5t90 -35.5q56 0 87.5 38t31.5 113z" />
    <glyph glyph-name="uni03060300" 
d="M-494 1679l109 -237h-123l-192 237h206zM-334 1417h170q-6 -57 -23 -100t-49 -79t-86.5 -54.5t-130.5 -18.5q-78 0 -133 18.5t-87 54.5t-48 78.5t-22 100.5h170q0 -80 30 -115.5t90 -35.5q56 0 87.5 38t31.5 113z" />
    <glyph glyph-name="uni03060309" 
d="M-631 1718q55 34 109.5 40.5t94.5 -11t66.5 -53t32.5 -80t-15 -98t-69 -101.5h-118q76 73 83.5 141.5t-45.5 81.5t-139 -32v112zM-334 1417h170q-6 -57 -23 -100t-49 -79t-86.5 -54.5t-130.5 -18.5q-78 0 -133 18.5t-87 54.5t-48 78.5t-22 100.5h170q0 -80 30 -115.5
t90 -35.5q56 0 87.5 38t31.5 113z" />
    <glyph glyph-name="uni03060303" 
d="M-342 1491q-40 0 -80.5 24t-74 48t-58.5 24q-56 0 -59 -84h-103q11 98 51.5 147.5t118.5 49.5q40 0 81 -24t74.5 -48t57.5 -24q29 0 44 19t18 65h100q-11 -98 -51.5 -147.5t-118.5 -49.5zM-336 1417h170q-6 -57 -23 -100t-49 -79t-86.5 -54.5t-130.5 -18.5
q-78 0 -133 18.5t-87 54.5t-48 78.5t-22 100.5h170q0 -80 30 -115.5t90 -35.5q56 0 87.5 38t31.5 113z" />
    <glyph glyph-name="uni03020301" 
d="M-371 1579h207l-192 -238h-123zM-594 1403l215 -238h-182l-107 158l-108 -158h-182l215 238h149z" />
    <glyph glyph-name="uni03020300" 
d="M-745 1571l108 -238h-123l-192 238h207zM-166 1165h-182l-107 156l-106 -156h-182l213 238h151z" />
    <glyph glyph-name="uni03020309" 
d="M-467 1657q55 35 108.5 41.5t93.5 -10.5t66.5 -53t33 -80.5t-14 -98.5t-68.5 -102h-121q87 84 85 158q-2 53 -51 66q-54 15 -132 -32v111zM-471 1401l215 -238h-182l-107 158l-108 -158h-183l215 238h150z" />
    <glyph glyph-name="uni03020303" 
d="M-555 1536q-29 0 -43.5 -18.5t-17.5 -63.5h-101q19 195 168 195q32 0 65 -15t56 -33.5t49 -33.5t45 -15q57 0 60 84h100q-19 -196 -168 -196q-40 0 -80.5 24t-74 48t-58.5 24zM-164 1165h-182l-107 158l-108 -158h-182l215 238h149z" />
    <glyph glyph-name="caront" horiz-adv-x="643" 
d="M272 1300h207l-192 -237h-123z" />
    </font>
</defs>
</svg>
