<svg width="32" height="21" viewBox="0 0 32 21" fill="none" xmlns="http://www.w3.org/2000/svg">
<path fill-rule="evenodd" clip-rule="evenodd" d="M0 14C0 14.0479 0.00335693 14.095 0.00982666 14.1409C0.00543213 14.2207 0.00250244 14.301 0.0010376 14.3816C0.000366211 14.4209 0 14.4604 0 14.5C0 18.084 2.91602 21 6.5 21C10.084 21 13 18.084 13 14.5C13 10.916 10.084 8 6.5 8C5.26007 8 4.10004 8.34912 3.1131 8.9541C5.02228 4.85132 9.18439 2 14 2C14.553 2 15 1.55298 15 1C15 0.447021 14.553 0 14 0C6.28003 0 0 6.28003 0 14ZM17 14.5C17 18.084 19.916 21 23.5 21C27.084 21 30 18.084 30 14.5C30 10.916 27.084 8 23.5 8C22.2601 8 21.1 8.34912 20.1131 8.9541C22.0223 4.85132 26.1844 2 31 2C31.553 2 32 1.55298 32 1C32 0.447021 31.553 0 31 0C23.28 0 17 6.28003 17 14C17 14.0479 17.0034 14.095 17.0098 14.1409C17.0033 14.2598 17 14.3794 17 14.5Z" fill="#4F6176"/>
</svg>
